<?xml version="1.0" encoding="UTF-8" standalone="no"?>
<svg
   xmlns:dc="http://purl.org/dc/elements/1.1/"
   xmlns:cc="http://creativecommons.org/ns#"
   xmlns:rdf="http://www.w3.org/1999/02/22-rdf-syntax-ns#"
   xmlns:svg="http://www.w3.org/2000/svg"
   xmlns="http://www.w3.org/2000/svg"
   xmlns:sodipodi="http://sodipodi.sourceforge.net/DTD/sodipodi-0.dtd"
   xmlns:inkscape="http://www.inkscape.org/namespaces/inkscape"
   version="1.1"
   id="svg2"
   xml:space="preserve"
   width="346.66666"
   height="346.66666"
   viewBox="0 0 346.66666 346.66666"
   sodipodi:docname="AMY1iter.eps"><metadata
     id="metadata8"><rdf:RDF><cc:Work
         rdf:about=""><dc:format>image/svg+xml</dc:format><dc:type
           rdf:resource="http://purl.org/dc/dcmitype/StillImage" /></cc:Work></rdf:RDF></metadata><defs
     id="defs6" /><sodipodi:namedview
     pagecolor="#ffffff"
     bordercolor="#666666"
     borderopacity="1"
     objecttolerance="10"
     gridtolerance="10"
     guidetolerance="10"
     inkscape:pageopacity="0"
     inkscape:pageshadow="2"
     inkscape:window-width="640"
     inkscape:window-height="480"
     id="namedview4" /><g
     id="g10"
     inkscape:groupmode="layer"
     inkscape:label="ink_ext_XXXXXX"
     transform="matrix(1.3333333,0,0,-1.3333333,0,346.66667)"><g
       id="g12"
       transform="scale(0.1)"><path
         d="m 1178.09,2468.79 0.03,-0.74 0.12,-2.11 0.2,-2.89 0.35,-5.71 0.7,-11.44 0.08,-1.41 0.08,-1.44 0.47,-8.56 0.62,-11.44 0.04,-0.78 0.04,-0.75 0.08,-1.56 0.15,-3.08 0.32,-6.22 0.54,-12.38 0.08,-1.56 0.04,-1.56 0.16,-3.09 0.23,-6.21 0.47,-12.38 0.04,-0.71 v -0.74 l 0.08,-1.44 0.08,-2.89 0.19,-5.79 0.04,-0.74 0.04,-0.7 0.27,-10.12 0.04,-0.74 v -0.7 l 0.08,-1.45 0.08,-2.89 0.15,-5.82 0.28,-11.56 v -1.41 l 0.04,-1.4 0.08,-2.86 0.11,-5.66 v -1.45 l 0.04,-1.4 0.04,-2.81 0.08,-5.71 0.04,-0.7 v -0.7 l 0.04,-1.41 0.04,-2.85 v -1.41 l 0.03,-1.44 v -2.82 l 0.04,-0.7 v -2.15 l 0.04,-2.81 v -1.45 l 0.04,-1.4 v -2.85 l 0.04,-0.75 v -3.86 l 0.04,-1.53 v -6.17 l 0.04,-0.74 v -30 l -0.04,-0.78 v -6.09 l -0.04,-0.71 v -4.33 l -0.04,-0.71 v -2.15 l -0.04,-2.89 v -1.4 l -0.04,-1.45 -0.04,-2.89 -0.03,-5.74 -0.04,-0.7 v -2.15 l -0.08,-2.89 -0.08,-5.75 v -0.7 l -0.04,-0.74 v -1.41 l -0.08,-2.89 -0.11,-5.74 v -0.78 l -0.04,-0.78 -0.04,-1.53 -0.08,-3.12 -0.12,-6.21 -0.08,-1.56 -0.11,-4.69 -0.16,-6.21 -0.08,-1.56 -0.04,-1.57 -0.07,-3.08 -0.24,-6.25 -0.47,-12.42 v -0.79 l -0.04,-0.74 -0.07,-1.56 -0.12,-3.05 -0.28,-6.09 -0.54,-12.23 -0.04,-0.78 -0.04,-0.74 -0.23,-4.57 -0.32,-6.13 -0.7,-12.23 -0.08,-1.41 -0.08,-1.44 -0.19,-2.85 -0.35,-5.67 -0.75,-11.4 -0.03,-0.71 -0.08,-0.74 -0.08,-1.41 -0.2,-2.85 -0.43,-5.7 -0.89,-11.41 -0.04,-0.78 -0.08,-0.74 -0.12,-1.56 -0.27,-3.09 -0.51,-6.17 -1.13,-12.38 -0.04,-0.75 -0.24,-2.34 -0.31,-3.09 -0.58,-6.17 -1.29,-12.34 -0.08,-0.74 -0.08,-0.71 -0.47,-4.33 -0.66,-5.78 -1.37,-11.53 -0.12,-0.74 -0.08,-0.7 -0.15,-1.45 -0.39,-2.89 -0.74,-5.78 -0.86,-6.48"
         style="fill:none;stroke:#5e81b5;stroke-width:11.52;stroke-linecap:square;stroke-linejoin:miter;stroke-miterlimit:3.25;stroke-dasharray:none;stroke-opacity:1"
         id="path14" /><path
         d="m 1167.46,1950.35 -0.7,-4.96 -0.2,-1.41 -0.43,-2.85 -0.82,-5.66 -1.72,-11.29 -0.23,-1.41 -0.24,-1.44 -0.46,-2.81 -0.94,-5.67 -1.99,-11.29 -0.12,-0.78 -0.16,-0.78 -0.82,-4.57 -1.17,-6.17 -2.46,-12.27 -0.16,-0.74 -0.15,-0.78 -0.35,-1.52 -0.63,-3.09 -1.37,-6.13 -2.81,-12.27 -0.19,-0.7 -0.16,-0.74 -0.35,-1.41 -0.71,-2.89 -1.44,-5.7 -3.01,-11.45 -0.19,-0.74 -0.2,-0.71 -0.43,-1.44 -0.78,-2.85 -1.68,-5.74 -3.48,-11.45 -0.23,-0.78 -0.27,-0.78 -0.47,-1.53 -1.02,-3.12 -2.11,-6.21 -4.41,-12.38 -0.31,-0.79 -0.28,-0.78 -0.58,-1.56 -1.18,-3.09 -2.46,-6.21 -5.27,-12.42 -0.31,-0.74 -0.35,-0.78 -0.71,-1.52 -1.36,-3.05 -2.89,-6.1 -6.18,-12.18 -0.39,-0.74 -0.39,-0.79 -0.82,-1.52 -1.68,-3.05 -3.47,-6.09 -7.47,-12.19 -0.93,-1.4 -0.94,-1.45 -1.88,-2.81 -3.94,-5.7 -8.52,-11.37 -0.54,-0.71 -0.59,-0.7 -1.13,-1.44 -2.31,-2.82 -4.84,-5.7 -10.55,-11.37 -0.78,-0.74 -0.78,-0.78 -1.52,-1.56 -3.17,-3.05 -6.68,-6.17 -0.86,-0.78 -0.89,-0.78 -1.76,-1.53 -3.64,-3.08 -7.65,-6.18 -0.98,-0.78 -1.01,-0.74 -2.03,-1.56 -4.18,-3.09 -8.87,-6.13 -19.92,-12.34 -1.25,-0.71 -1.289,-0.74 -2.582,-1.44 -5.348,-2.86 -11.371,-5.74 -1.48,-0.74 -1.488,-0.7 -3.082,-1.45 -6.29,-2.89 -13.48,-5.74 -1.762,-0.7 -1.789,-0.75 -3.64,-1.44 -7.539,-2.85 -16.211,-5.78 -2.149,-0.71 -2.18,-0.7 -4.421,-1.45 -9.137,-2.89 -19.844,-5.74 -2.808,-0.78 -2.891,-0.78 -5.938,-1.56 -12.351,-3.13 -3.199,-0.78 -3.282,-0.78 -6.64,-1.53 -13.989,-3.12 -3.628,-0.78 -3.711,-0.78 -7.582,-1.56 -15.86,-3.13 -35.148,-6.21 -4.77,-0.78 -4.801,-0.78 -9.929,-1.57 -19.762,-2.96"
         style="fill:none;stroke:#5e81b5;stroke-width:11.52;stroke-linecap:square;stroke-linejoin:miter;stroke-miterlimit:3.25;stroke-dasharray:none;stroke-opacity:1"
         id="path16" /><path
         d="m 708.359,1534.96 -1.679,-0.23 -11.41,-1.57 -24.098,-3.12 -6.332,-0.78 -6.399,-0.74 -13.211,-1.57 -27.89,-3.12 -62.34,-6.25 -8.281,-0.74 -8.438,-0.79 -17.301,-1.52 -36.531,-3.05 -80.66,-6.13 -10.777,-0.78 -10.981,-0.74 -22.383,-1.53 -46.679,-3.08 -12.028,-0.74 -12.152,-0.78 -24.769,-1.53 -51.008,-3.05 -13.012,-0.78 -13.121,-0.78 -13.25,-0.74 -13.32,-0.78 -13.36,-0.74 -2.648,-0.16"
         style="fill:none;stroke:#5e81b5;stroke-width:11.52;stroke-linecap:square;stroke-linejoin:miter;stroke-miterlimit:3.25;stroke-dasharray:none;stroke-opacity:1"
         id="path18" /><path
         d="m 2447.66,1487.66 -11.68,-0.67 -13.64,-0.78 -13.63,-0.74 -27.38,-1.52 -54.77,-3.09 -13.67,-0.74 -13.59,-0.78 -27.11,-1.53 -53.36,-3.04 -101.99,-6.14 -11.37,-0.7 -11.25,-0.74 -22.11,-1.41 -42.7,-2.85 -10.35,-0.74 -10.19,-0.71 -19.96,-1.4 -38.29,-2.85 -9.21,-0.75 -9.11,-0.7 -17.77,-1.44 -27.58,-2.31"
         style="fill:none;stroke:#5e81b5;stroke-width:11.52;stroke-linecap:square;stroke-linejoin:miter;stroke-miterlimit:3.25;stroke-dasharray:none;stroke-opacity:1"
         id="path20" /><path
         d="m 1869.96,1450.55 -65.16,-6.17 -13.75,-1.45 -26.13,-2.85 -6.29,-0.7 -6.17,-0.71 -12.03,-1.44 -22.97,-2.85 -5.51,-0.71 -5.43,-0.74 -10.58,-1.41 -20.24,-2.85 -36.87,-5.7 -4.65,-0.78 -4.57,-0.78 -8.99,-1.57 -17.1,-3.08 -31.22,-6.17 -3.67,-0.79 -3.59,-0.78 -7.07,-1.56 -13.52,-3.08 -24.96,-6.18 -5.86,-1.56 -5.7,-1.56 -11.02,-3.09 -20.54,-6.17 -36.21,-12.38 -1.96,-0.74 -1.91,-0.71 -3.83,-1.44 -7.42,-2.89 -14.22,-5.78 -26.17,-11.57 -1.56,-0.74 -1.53,-0.7 -3.08,-1.45 -6.02,-2.89 -11.72,-5.78 -22.34,-11.56 -5.31,-2.81 -5.28,-2.86 -10.39,-5.66 -20.08,-11.13"
         style="fill:none;stroke:#5e81b5;stroke-width:11.52;stroke-linecap:square;stroke-linejoin:miter;stroke-miterlimit:3.25;stroke-dasharray:none;stroke-opacity:1"
         id="path22" /><path
         d="m 1294.65,1303.24 -2.81,-1.56 -5.08,-2.81 -10.28,-5.67 -20.89,-11.32 -2.89,-1.57 -2.9,-1.52 -5.85,-3.09 -12.04,-6.13 -25.46,-12.3 -1.65,-0.75 -1.68,-0.78 -3.39,-1.52 -6.92,-3.09 -14.37,-6.13 -31.72,-12.3 -1.99,-0.71 -2.03,-0.74 -4.07,-1.45 -8.36,-2.85 -17.73,-5.74 -2.34,-0.7 -2.35,-0.74 -4.76,-1.41 -9.81,-2.89 -21.01,-5.74 -5.55,-1.41 -5.7,-1.44 -11.84,-2.86 -25.51,-5.74 -3.36,-0.74 -3.43,-0.7 -7,-1.45 -14.528,-2.85 -31.762,-5.74 -4.57,-0.78 -4.68,-0.79 -9.539,-1.52 -20.071,-3.12 -5.242,-0.79 -5.347,-0.78 -10.903,-1.56 -23.008,-3.08 -6.011,-0.79 -6.098,-0.78 -12.531,-1.56 -26.488,-3.09 -58.942,-6.25 -7.969,-0.74 -8.132,-0.78 -16.637,-1.56 -15.391,-1.41"
         style="fill:none;stroke:#5e81b5;stroke-width:11.52;stroke-linecap:square;stroke-linejoin:miter;stroke-miterlimit:3.25;stroke-dasharray:none;stroke-opacity:1"
         id="path24" /><path
         d="m 705.039,1155.94 -11.988,-1.02 -9.34,-0.74 -19.141,-1.56 -40.269,-3.13 -10.473,-0.78 -10.629,-0.78 -21.789,-1.52 -45.512,-3.13 -98.32,-6.21 -12.656,-0.78 -12.813,-0.74 -25.898,-1.53 -52.93,-3.04 -13.402,-0.78 -13.469,-0.75 -27.109,-1.56 -54.571,-3.05 -13.679,-0.74 -13.672,-0.78 -13.629,-0.74 -13.629,-0.78 -13.562,-0.75 -12.219,-0.7"
         style="fill:none;stroke:#5e81b5;stroke-width:11.52;stroke-linecap:square;stroke-linejoin:miter;stroke-miterlimit:3.25;stroke-dasharray:none;stroke-opacity:1"
         id="path26" /><path
         d="m 2447.7,1118.87 -2.04,-0.12 -13.32,-0.74 -13.28,-0.78 -26.29,-1.53 -51.36,-3.04 -12.54,-0.78 -12.42,-0.75 -24.46,-1.52 -47.15,-3.05 -11.4,-0.78 -11.29,-0.74 -22.07,-1.56 -42.19,-3.05 -10.16,-0.74 -10,-0.78 -19.49,-1.53 -37.11,-3.04 -66.95,-6.1 -7.23,-0.7 -7.07,-0.74 -13.83,-1.41 -26.28,-2.85 -6.29,-0.7 -6.21,-0.71 -12.11,-1.44 -23.01,-2.85 -5.51,-0.71 -5.43,-0.7 -10.59,-1.45 -6.95,-0.93"
         style="fill:none;stroke:#5e81b5;stroke-width:11.52;stroke-linecap:square;stroke-linejoin:miter;stroke-miterlimit:3.25;stroke-dasharray:none;stroke-opacity:1"
         id="path28" /><path
         d="m 1873.2,1071.56 -39.33,-6.09 -4.26,-0.7 -4.18,-0.75 -8.2,-1.4 -15.63,-2.85 -28.59,-5.71 -3.32,-0.7 -3.28,-0.7 -6.45,-1.41 -12.38,-2.85 -22.74,-5.7 -2.89,-0.79 -2.85,-0.78 -5.58,-1.52 -10.71,-3.09 -19.69,-6.17 -2.34,-0.78 -2.26,-0.78 -4.5,-1.52 -8.63,-3.09 -16.01,-6.17 -3.76,-1.56 -3.67,-1.53 -7.07,-3.08 -13.24,-6.18 -6.17,-3.08 -5.9,-3.092 -11.09,-6.168 -1.25,-0.742 -1.21,-0.699 -2.43,-1.449 -4.68,-2.891 -8.87,-5.738 -1.06,-0.75 -1.05,-0.699 -2.07,-1.442 -4.06,-2.89 -7.7,-5.79 -1.87,-1.402 -1.8,-1.449 -3.55,-2.891 -6.72,-5.777 -12.31,-11.52 -1.4,-1.41 -4.11,-4.222 -5.19,-5.661 -9.57,-11.289 -0.55,-0.699 -0.58,-0.711 -1.1,-1.437 -2.19,-2.813 -4.21,-5.629 -7.78,-11.332 -0.51,-0.738 -0.5,-0.781 -0.98,-1.52 -1.95,-3.09 -3.71,-6.129 -6.96,-12.23 -0.39,-0.781 -0.43,-0.778 -0.78,-1.531 -1.6,-3.039 -3.09,-6.141 -5.74,-12.261 -0.31,-0.739 -0.94,-2.109 -1.25,-2.891 -2.42,-5.71 -4.53,-11.442 -0.28,-0.699 -0.27,-0.75 -0.55,-1.399 -1.05,-2.851 -2.07,-5.75 -3.87,-11.438 -0.27,-0.742 -0.24,-0.789 -0.5,-1.558 -1.02,-3.082 -1.91,-6.219 -3.6,-12.422 -0.23,-0.738 -0.2,-0.782 -0.43,-1.558 -0.86,-3.09 -1.64,-6.211 -3.12,-12.379 -0.16,-0.742 -0.19,-0.75 -0.35,-1.438 -2,-8.671 -2.54,-11.571 -0.15,-0.738 -0.16,-0.699 -0.31,-1.453 -0.59,-2.93 -1.17,-5.777 -2.23,-11.563 -0.11,-0.699 -0.12,-0.75 -0.27,-1.399 -0.51,-2.851 -1.02,-5.668 -1.91,-11.332 -0.12,-0.738 -0.35,-2.114 -0.43,-2.847 -0.9,-5.661 -1.68,-11.371 -0.11,-0.738 -0.12,-0.781 -0.2,-1.57 -0.43,-3.04 -0.27,-2.07"
         style="fill:none;stroke:#5e81b5;stroke-width:11.52;stroke-linecap:square;stroke-linejoin:miter;stroke-miterlimit:3.25;stroke-dasharray:none;stroke-opacity:1"
         id="path30" /><path
         d="m 1424.34,656.172 -1.96,-14.922 -0.08,-0.781 -0.11,-0.778 -0.16,-1.531 -0.39,-3.082 -0.74,-6.129 -1.37,-12.347 -0.15,-1.403 -0.47,-4.34 -0.59,-5.738 -1.13,-11.492 -0.08,-0.738 -0.08,-0.7 -0.12,-1.453 -0.27,-2.847 -0.51,-5.743 -1.01,-11.527 -0.04,-0.742 -0.08,-0.777 -0.12,-1.563 -0.27,-3.129 -0.47,-6.211 -0.9,-12.461 -0.08,-0.777 -0.04,-0.781 -0.11,-1.559 -0.2,-3.133 -0.43,-6.207 -0.78,-12.461 -0.04,-0.742 -0.04,-0.777 -0.07,-1.531 -0.2,-3.04 -0.35,-6.14 -0.63,-12.219 -0.04,-0.781 -0.03,-0.75 -0.08,-1.52 -0.12,-3.05 -0.27,-6.129 -0.51,-12.231 -0.08,-1.398 -0.04,-1.453 -0.12,-2.848 -0.19,-5.699 -0.08,-1.41 -0.04,-1.442 -0.08,-2.859 -0.19,-5.699 -0.04,-0.704 v -0.699 l -0.04,-1.449 -0.12,-2.852 -0.15,-5.699 -0.28,-11.41 -0.04,-0.777 v -0.782 l -0.03,-1.531 -0.08,-3.078 -0.12,-6.211 v -0.75 l -0.04,-0.781 v -1.559 l -0.08,-3.09 -0.08,-6.171 v -0.778 L 1407.27,400 v -1.52 l -0.04,-3.128 -0.04,-0.743 v -2.339 l -0.04,-3.09 -0.04,-0.782 v -2.308 l -0.04,-3.078 v -1.563 l -0.04,-1.527 v -4.531 l -0.04,-1.442 v -5.789 l -0.04,-0.738 v -26.684 l 0.04,-1.437 v -5.781 l 0.04,-2.899 v -2.812 l 0.04,-2.848 v -1.41 l 0.04,-1.403 v -2.847 l 0.04,-0.711 v -2.11 l 0.04,-2.808 0.08,-5.66 v -0.711 l 0.03,-0.742 v -1.399 l 0.04,-2.82 0.12,-5.66 v -1.41 l 0.04,-1.442 0.04,-2.808 0.12,-5.668 0.04,-0.782 v -0.742 l 0.03,-1.558 0.08,-3.051 0.12,-6.129 0.04,-0.789 v -0.781 l 0.04,-1.52 0.08,-3.09 0.15,-6.129 0.04,-0.742 0.04,-0.777 0.04,-1.532 0.08,-3.082 0.19,-6.128 0.39,-12.309 0.08,-1.41 0.04,-1.442 0.12,-2.847 0.19,-5.742 0.47,-11.45 0.04,-0.742 0.04,-0.699 0.04,-1.449 0.16,-2.852 0.23,-5.738 0.55,-11.449 0.04,-0.782 0.03,-0.82 0.08,-1.598 0.2,-3.211 0.31,-6.359 0.7,-12.82 0.04,-0.781 0.08,-0.821 0.08,-1.597 0.19,-3.204 0.39,-6.367 0.04,-0.82 0.04,-0.781 0.12,-1.602 0.2,-3.207 0.03,-0.82 0.08,-0.781 0.08,-1.598 0.08,-0.82 0.08,-1.563 0.08,-0.82"
         style="fill:none;stroke:#5e81b5;stroke-width:11.52;stroke-linecap:square;stroke-linejoin:miter;stroke-miterlimit:3.25;stroke-dasharray:none;stroke-opacity:1"
         id="path32" /><path
         d="m 1296.02,9.80078 1.4,0.78902 1.45,0.8204 2.85,1.5586 5.7,3.1601 11.45,6.3711 22.85,12.6992 45.74,25.4219 99.14,55.0779 92.58,51.41 90.74,50.43 98.48,54.691 91.87,51.051 16.64,9.258"
         style="fill:none;stroke:#5e81b5;stroke-width:11.52;stroke-linecap:square;stroke-linejoin:miter;stroke-miterlimit:3.25;stroke-dasharray:none;stroke-opacity:1"
         id="path34" /><path
         d="m 1879.88,334.18 177.7,98.711 91.21,50.66 98.87,54.969 92.3,51.25 1.41,0.82 1.44,0.781 2.81,1.559 5.67,3.121 11.29,6.289 22.65,12.582 5.63,3.129 5.66,3.16 11.33,6.289 22.62,12.539 3.05,1.723 3.08,1.718 6.13,3.399 1.53,0.851 1.56,0.86 3.05,1.68 1.52,0.859 1.56,0.859 3.05,1.723 1.56,0.82 1.53,0.86 1.21,0.699"
         style="fill:none;stroke:#5e81b5;stroke-width:11.52;stroke-linecap:square;stroke-linejoin:miter;stroke-miterlimit:3.25;stroke-dasharray:none;stroke-opacity:1"
         id="path36" /><path
         d="m 132.699,657.73 0.422,0.239 1.527,0.82 3.082,1.723 3.051,1.718 3.09,1.68 6.129,3.43 1.52,0.82 1.531,0.86 3.078,1.718 6.141,3.403 12.261,6.839 24.571,13.629 1.41,0.782 1.437,0.82 2.852,1.559 5.75,3.21 11.437,6.36 22.891,12.699 45.82,25.473 99.301,55.148 97.5,54.18 90.941,50.512 98.59,54.769 35.078,19.488"
         style="fill:none;stroke:#5e81b5;stroke-width:11.52;stroke-linecap:square;stroke-linejoin:miter;stroke-miterlimit:3.25;stroke-dasharray:none;stroke-opacity:1"
         id="path38" /><path
         d="m 715.078,981.289 153.75,85.391 97.934,54.41 91.328,50.75 99.06,55.04 92.46,51.36 46.41,25.74 44.25,24.61 98.36,54.65 191.25,106.25 97.66,54.26 91.09,50.59 58.28,32.38"
         style="fill:none;stroke:#5e81b5;stroke-width:11.52;stroke-linecap:square;stroke-linejoin:miter;stroke-miterlimit:3.25;stroke-dasharray:none;stroke-opacity:1"
         id="path40" /><path
         d="m 1879.88,1628.36 129.73,72.07 90.39,50.23 98.09,54.5 91.52,50.86 1.52,0.86 1.57,0.85 3.08,1.72 18.63,10.32 24.77,13.78 3.12,1.72 3.09,1.72 6.21,3.44 12.38,6.91 24.81,13.75 2.89,1.64 2.93,1.61 5.78,3.2 11.56,6.44 1.45,0.79 1.44,0.82 2.89,1.6 5.82,3.24 11.57,6.41 1.44,0.82 1.45,0.78 2.89,1.64 5.78,3.2 1.48,0.78 1.45,0.82 2.89,1.6 1.45,0.82 1.44,0.79 2.89,1.64 1.02,0.54"
         style="fill:none;stroke:#5e81b5;stroke-width:11.52;stroke-linecap:square;stroke-linejoin:miter;stroke-miterlimit:3.25;stroke-dasharray:none;stroke-opacity:1"
         id="path42" /><path
         d="m 132.699,1951.91 1.789,1.02 1.453,0.82 1.481,0.78 2.887,1.6 1.453,0.82 1.437,0.78 2.891,1.65 5.789,3.2 1.402,0.78 1.449,0.78 2.809,1.6 5.699,3.13 11.332,6.33 22.731,12.61 45.398,25.24 98.512,54.72 91.949,51.06 99.61,55.35 97.851,54.37 81.488,45.28"
         style="fill:none;stroke:#5e81b5;stroke-width:11.52;stroke-linecap:square;stroke-linejoin:miter;stroke-miterlimit:3.25;stroke-dasharray:none;stroke-opacity:1"
         id="path44" /><path
         d="m 715.078,2275.47 105.742,58.75 92.34,51.29 90.59,50.31 98.24,54.61 91.68,50.9 3.21,1.79 3.16,1.76 19.22,10.67 25.58,14.22 3.21,1.79 3.16,1.76 19.22,10.66 1.6,0.9 1.56,0.9 3.21,1.76 6.4,3.55 1.6,0.9 1.61,0.86 4.8,2.7 1.6,0.86 3.21,1.79"
         style="fill:none;stroke:#5e81b5;stroke-width:11.52;stroke-linecap:square;stroke-linejoin:miter;stroke-miterlimit:3.25;stroke-dasharray:none;stroke-opacity:1"
         id="path46" /><path
         d="m 1296.02,1303.98 5.7,3.21 5.7,3.16 11.45,6.37 22.89,12.69 46.05,25.39 93.91,50.82 3.24,1.72 3.28,1.72 6.49,3.44 13.12,6.88 26.49,13.78 54.29,27.54 115.39,55.08 3.52,1.6 10.66,4.81 14.38,6.44 29.3,12.85 61.01,25.71 3.91,1.64 3.94,1.6 7.93,3.2 16.02,6.45 19.49,7.65"
         style="fill:none;stroke:#5e81b5;stroke-width:11.52;stroke-linecap:square;stroke-linejoin:miter;stroke-miterlimit:3.25;stroke-dasharray:none;stroke-opacity:1"
         id="path48" /><path
         d="m 1882.62,1591.05 73.47,27.58 4.34,1.57 4.37,1.6 8.79,3.12 17.74,6.33 36.37,12.58 76.17,25.23 4.92,1.56 4.92,1.61 9.92,3.12 20.08,6.33 41.06,12.58 85.5,25.23 5.98,1.68 5.98,1.72 12.03,3.44 24.26,6.83 6.09,1.68 6.13,1.72 12.35,3.44 24.8,6.84 6.25,1.68 6.25,1.71 12.58,3.44 6.33,1.72 6.32,1.68 12.7,3.44 6.37,1.72 6.36,1.68 6.37,1.71 6.41,1.72 6.44,1.72 4.3,1.14"
         style="fill:none;stroke:#5e81b5;stroke-width:11.52;stroke-linecap:square;stroke-linejoin:miter;stroke-miterlimit:3.25;stroke-dasharray:none;stroke-opacity:1"
         id="path50" /><path
         d="m 137.461,1773.48 2.539,0.7 6.48,1.72 6.45,1.68 12.968,3.44 26.051,6.83 52.352,13.67 105.109,27.35 6.141,1.6 6.09,1.6 12.23,3.16 24.328,6.41 48.321,12.74 94.609,25.54 5.82,1.6 5.781,1.57 11.532,3.2 22.886,6.37 44.922,12.77 76.09,22.42"
         style="fill:none;stroke:#5e81b5;stroke-width:11.52;stroke-linecap:square;stroke-linejoin:miter;stroke-miterlimit:3.25;stroke-dasharray:none;stroke-opacity:1"
         id="path52" /><path
         d="m 719.02,1931.17 5.039,1.53 5.671,1.71 11.211,3.48 22.149,6.91 14.719,4.65"
         style="fill:none;stroke:#5e81b5;stroke-width:11.52;stroke-linecap:square;stroke-linejoin:miter;stroke-miterlimit:3.25;stroke-dasharray:none;stroke-opacity:1"
         id="path54" /><path
         d="m 788.121,1952.73 99.891,33.56 4.918,1.72 4.879,1.72 9.73,3.47 19.102,6.92 37.187,13.83 70.232,27.65 4.14,1.68 4.14,1.72 8.17,3.4 16.17,6.76 31.41,13.59 59.61,27.15 107.92,54.3 5.86,3.2 5.86,3.16 11.57,6.33 7.03,3.91 15.66,8.75 43.63,25.31 81.41,50.66 156.29,109.89 129.53,102.57 1.88,1.57 1.91,1.56 3.79,3.12 7.54,6.29 15,12.58 29.61,25.16 7.34,6.25 7.31,6.29 14.57,12.58 28.82,25.15 1.96,1.68 1.95,1.72 3.87,3.4 7.73,6.83 1.96,1.68 1.91,1.72 3.87,3.4 1.91,1.72 1.91,1.68 3.87,3.44 1.92,1.68 1.91,1.72 1.52,1.36"
         style="fill:none;stroke:#5e81b5;stroke-width:11.52;stroke-linecap:square;stroke-linejoin:miter;stroke-miterlimit:3.25;stroke-dasharray:none;stroke-opacity:1"
         id="path56" /><path
         d="m 1880.23,11.4492 0.55,0.461 1.92,1.7187 3.82,3.4024 1.92,1.6796 1.87,1.7188 3.83,3.3984 7.62,6.8321 1.91,1.7187 1.92,1.6797 3.79,3.4023 7.61,6.8399 15.12,13.6289 30.16,27.2695 1.71,1.6016 1.76,1.5976 3.52,3.1602 6.99,6.3711 13.95,12.7303 27.85,25.43 55.5,50.898 120.47,110.352 120.24,108.32 1.79,1.61 1.76,1.558 3.56,3.16 7.15,6.332 14.29,12.621 28.79,25.231 1.8,1.598 1.8,1.57 10.89,9.488 14.57,12.621 1.8,1.563 1.84,1.597 3.67,3.161 7.3,6.289 14.73,12.621 1.99,1.718 2.03,1.723 3.99,3.43 2.03,1.719 1.99,1.679 4.02,3.442 2.04,1.718 1.99,1.719 2.03,1.723 2.03,1.679 1.99,1.719 2.03,1.711 0.67,0.551"
         style="fill:none;stroke:#5e81b5;stroke-width:11.52;stroke-linecap:square;stroke-linejoin:miter;stroke-miterlimit:3.25;stroke-dasharray:none;stroke-opacity:1"
         id="path58" /><path
         d="m 133.16,534.531 1.531,1.289 2.028,1.68 4.062,3.441 8.129,6.829 16.36,13.71 2.07,1.719 2.039,1.723 4.141,3.398 8.242,6.879 16.597,13.672 33.551,27.418 1.961,1.563 1.988,1.597 3.942,3.211 7.929,6.399 15.981,12.781 16.879,13.39"
         style="fill:none;stroke:#5e81b5;stroke-width:11.52;stroke-linecap:square;stroke-linejoin:miter;stroke-miterlimit:3.25;stroke-dasharray:none;stroke-opacity:1"
         id="path60" /><path
         d="m 284.73,658.551 77.34,60 151.211,110.828 160.508,108.781 37.231,24.07"
         style="fill:none;stroke:#5e81b5;stroke-width:11.52;stroke-linecap:square;stroke-linejoin:miter;stroke-miterlimit:3.25;stroke-dasharray:none;stroke-opacity:1"
         id="path62" /><path
         d="m 716.172,965.551 305.238,184.179 181.95,102.73 92.66,51.52 88.43,49.22 193.4,109.26 172.74,101.99 125.23,78.01"
         style="fill:none;stroke:#5e81b5;stroke-width:11.52;stroke-linecap:square;stroke-linejoin:miter;stroke-miterlimit:3.25;stroke-dasharray:none;stroke-opacity:1"
         id="path64" /><path
         d="m 1880.98,1645.74 204.61,137.74 138.04,101.21 4.53,3.43 4.5,3.4 8.98,6.88 17.85,13.71 35.24,27.46 2.15,1.72 2.18,1.72 4.38,3.4 3.83,3.04"
         style="fill:none;stroke:#5e81b5;stroke-width:11.52;stroke-linecap:square;stroke-linejoin:miter;stroke-miterlimit:3.25;stroke-dasharray:none;stroke-opacity:1"
         id="path66" /><path
         d="m 2311.45,1952.73 17.89,14.26 34.1,27.46 1.95,1.6 1.99,1.61 3.91,3.2 7.85,6.37 19.53,16.01 11.6,9.61 15.43,12.81 17.23,14.42 1.87,1.6 5.75,4.8 1.87,1.61 3.79,3.2 1.91,1.6 0.71,0.59"
         style="fill:none;stroke:#5e81b5;stroke-width:11.52;stroke-linecap:square;stroke-linejoin:miter;stroke-miterlimit:3.25;stroke-dasharray:none;stroke-opacity:1"
         id="path68" /><path
         d="m 133.16,2076.76 2.969,2.54 1.883,1.6 3.789,3.2 3.75,3.2 3.789,3.17 7.5,6.41 1.832,1.6 5.508,4.68 7.3,6.29 14.571,12.54 28.949,25.12 57.109,50.23 121.09,108.99 111.063,101.68 7.5,6.87 7.539,6.88 15,13.79 30.039,27.57 1.871,1.72 1.91,1.72 3.758,3.44 7.531,6.88 15.078,13.78 30.242,27.58 1.75,1.6 1.801,1.61 3.52,3.2 7.109,6.44 14.211,12.86 1.758,1.6 1.801,1.64 3.55,3.2 7.149,6.45 14.301,12.85 3.59,3.2 3.601,3.24 7.18,6.41 1.801,1.64 1.796,1.6 3.633,3.2 3.598,3.21 1.793,1.64 1.797,1.6 1.293,1.13"
         style="fill:none;stroke:#5e81b5;stroke-width:11.52;stroke-linecap:square;stroke-linejoin:miter;stroke-miterlimit:3.25;stroke-dasharray:none;stroke-opacity:1"
         id="path70" /><path
         d="m 715.469,11.4492 2.261,1.9922 1.801,1.6367 1.84,1.6016 3.59,3.1992 3.668,3.2109 3.641,3.2383 7.261,6.4024 1.797,1.6093 1.793,1.5586 3.598,3.1602 7.191,6.293 14.449,12.6172 29.141,25.2304 59.57,50.4728 137.379,109.449 143.871,102.149 2.62,1.761 2.61,1.719 5.28,3.441 10.62,6.95 21.6,13.828 44.85,27.652 2.89,1.758 8.67,5.16 11.72,6.949 23.94,13.832 23.25,12.891 26.68,14.769 3.16,1.719 3.17,1.68 6.4,3.391 12.89,6.8 26.45,13.59 55.47,27.192 3.59,1.679 3.59,1.719 7.27,3.359 14.73,6.801 30.19,13.59 63.75,27.191 3.87,1.559 3.87,1.602 7.81,3.168 15.82,6.32 32.5,12.699 68.47,25.352 117.82,39.839"
         style="fill:none;stroke:#5e81b5;stroke-width:11.52;stroke-linecap:square;stroke-linejoin:miter;stroke-miterlimit:3.25;stroke-dasharray:none;stroke-opacity:1"
         id="path72" /><path
         d="m 1814.18,658.551 29.34,9.219 5.54,1.718 11.14,3.442 12.77,3.91"
         style="fill:none;stroke:#5e81b5;stroke-width:11.52;stroke-linecap:square;stroke-linejoin:miter;stroke-miterlimit:3.25;stroke-dasharray:none;stroke-opacity:1"
         id="path74" /><path
         d="m 1883.83,680.16 45.08,13.391 96.4,27.5 6.21,1.719 6.21,1.679 12.47,3.442 25.15,6.879 51.02,13.75 104.22,27.5 6.13,1.601 6.17,1.598 12.31,3.203 24.64,6.406 49.34,12.852 12.34,3.199 36.92,9.609 12.26,3.211 12.23,3.199 24.41,6.403 6.1,1.609 6.09,1.641 12.11,3.199 2.93,0.738"
         style="fill:none;stroke:#5e81b5;stroke-width:11.52;stroke-linecap:square;stroke-linejoin:miter;stroke-miterlimit:3.25;stroke-dasharray:none;stroke-opacity:1"
         id="path76" /><path
         d="m 137.422,837.809 8.828,2.351 6.02,1.602 5.968,1.597 11.992,3.2 23.79,6.41 11.8,3.203 11.801,3.238 23.359,6.41 46.008,12.809 5.551,1.57 5.551,1.602 11.051,3.121 21.91,6.289 43.008,12.578 82.582,25.16 5,1.563 5,1.597 9.918,3.121 19.613,6.29 38.316,12.582 73.242,25.16 4.809,1.718 4.762,1.68 9.539,3.43 18.75,6.801 36.64,13.669 27.149,10.39"
         style="fill:none;stroke:#5e81b5;stroke-width:11.52;stroke-linecap:square;stroke-linejoin:miter;stroke-miterlimit:3.25;stroke-dasharray:none;stroke-opacity:1"
         id="path78" /><path
         d="m 717.852,1020.27 161.757,68.17 3.512,1.56 3.481,1.6 6.988,3.2 13.832,6.37 27.187,12.74 52.731,25.43 100,50.93 3.4,1.8 3.36,1.76 6.76,3.55 13.4,7.11 26.56,14.22 52.34,28.44 3.25,1.76 3.24,1.79 6.48,3.56 12.89,7.11 25.75,14.22 3.2,1.75 3.2,1.8 19.22,10.66 6.41,3.52 6.4,3.56 3.21,1.79 3.2,1.76 3.2,1.8 3.21,1.75"
         style="fill:none;stroke:#5e81b5;stroke-width:11.52;stroke-linecap:square;stroke-linejoin:miter;stroke-miterlimit:3.25;stroke-dasharray:none;stroke-opacity:1"
         id="path80" /><path
         d="m 1296.02,1303.98 -2.9,-1.56 -2.85,-1.6 -5.7,-3.16 -11.45,-6.37 -22.89,-12.7 -46.01,-25.39 -93.87,-50.82 -218.791,-110.15 -174.18,-79.26"
         style="fill:none;stroke:#5e81b5;stroke-width:11.52;stroke-linecap:square;stroke-linejoin:miter;stroke-miterlimit:3.25;stroke-dasharray:none;stroke-opacity:1"
         id="path82" /><path
         d="M 709.84,1009.65 427.852,888.52 423.949,886.801 420,885.121 412.148,881.68 396.52,874.84 365.551,861.172 305,833.828 l -7.422,-3.437 -7.379,-3.403 -14.648,-6.828 -28.832,-13.68 -55.629,-27.339 -6.32,-3.2 -6.25,-3.211 -12.43,-6.359 -3.078,-1.601 -3.051,-1.61 -6.09,-3.16 -3.051,-1.602 -9.019,-4.808 -3.012,-1.559 -2.969,-1.601 -1.519,-0.821"
         style="fill:none;stroke:#5e81b5;stroke-width:11.52;stroke-linecap:square;stroke-linejoin:miter;stroke-miterlimit:3.25;stroke-dasharray:none;stroke-opacity:1"
         id="path84" /><path
         d="m 2457.73,746.289 -4.18,-2.269 -5.85,-3.161 -11.57,-6.41 -11.36,-6.359 -5.63,-3.211 -5.59,-3.16 -11.05,-6.41 -21.56,-12.731 -41.1,-25.547 -2.69,-1.722 -2.66,-1.719 -5.31,-3.469 -10.47,-6.922 -6.91,-4.648"
         style="fill:none;stroke:#5e81b5;stroke-width:11.52;stroke-linecap:square;stroke-linejoin:miter;stroke-miterlimit:3.25;stroke-dasharray:none;stroke-opacity:1"
         id="path86" /><path
         d="m 2306.91,655.23 -46.91,-33.511 -4.61,-3.438 -4.57,-3.48 -8.94,-6.91 -17.39,-13.832 -32.77,-27.649 -1.95,-1.68 -1.92,-1.718 -3.79,-3.403 -7.5,-6.8 -14.57,-13.547 -27.42,-27.153 -1.64,-1.718 -1.6,-1.68 -3.24,-3.402 -6.41,-6.789 -12.42,-13.598 -23.36,-27.152 -1.29,-1.559 -1.33,-1.602 -2.58,-3.16 -5.08,-6.328 -9.92,-12.66 -18.71,-25.352 -1.13,-1.558 -1.13,-1.602 -2.23,-3.168 -4.38,-6.332 -8.55,-12.648 -16.17,-25.321 -2.11,-3.429 -2.07,-3.442 -4.1,-6.879 -7.97,-13.75 -15.04,-27.46 -1.8,-3.43 -1.76,-3.442 -3.51,-6.839 -6.8,-13.75 -12.81,-27.457 -0.74,-1.602 -4.92,-11.211 -5.47,-12.809 -10.32,-25.671 -0.58,-1.598 -1.88,-4.801 -2.42,-6.41 -4.69,-12.809 -8.9,-25.671 -0.51,-1.559 -0.55,-1.563 -1.01,-3.168 -2.07,-6.25 -3.95,-12.57 -7.54,-25.16 -0.47,-1.5586 -0.43,-1.5703 -0.89,-3.1602 -1.8,-6.25 -3.44,-12.582 -6.48,-25.1484 -0.43,-1.6797 -0.43,-1.7227 -0.82,-3.3984 -1.64,-6.8399 -0.43,-1.7187 -0.39,-1.6719 -0.78,-3.3984 -0.43,-1.7227 -0.4,-1.7187 -0.78,-3.3985 -0.39,-1.7226 -0.39,-1.6797 -0.31,-1.3594"
         style="fill:none;stroke:#5e81b5;stroke-width:11.52;stroke-linecap:square;stroke-linejoin:miter;stroke-miterlimit:3.25;stroke-dasharray:none;stroke-opacity:1"
         id="path88" /><path
         d="m 1878.01,2596.56 -0.08,-0.47 -0.39,-1.71 -0.74,-3.4 -0.39,-1.72 -0.36,-1.68 -0.74,-3.44 -1.48,-6.8 -0.35,-1.72 -0.36,-1.67 -0.7,-3.44 -1.4,-6.8 -2.7,-13.63 -5.08,-27.31 -0.27,-1.56 -0.27,-1.6 -0.59,-3.16 -1.09,-6.37 -2.11,-12.74 -4.03,-25.46 -0.23,-1.57 -0.27,-1.6 -0.47,-3.16 -0.94,-6.37 -1.8,-12.73 -3.4,-25.47 -0.23,-1.72 -0.2,-1.72 -0.43,-3.44 -0.86,-6.91 -1.67,-13.79 -3.09,-27.58 -0.16,-1.72 -0.19,-1.72 -0.35,-3.43 -0.71,-6.92 -1.4,-13.79 -2.58,-27.58 -0.12,-1.71 -0.16,-1.68 -0.31,-3.4 -0.58,-6.76 -1.14,-13.56 -2.14,-27.07 -3.87,-54.14 -0.12,-1.6 -0.08,-1.56 -0.23,-3.16 -0.43,-6.33 -0.82,-12.62 -1.6,-25.27 -3.25,-50.51 -0.11,-1.68 -0.08,-1.72 -0.24,-3.44 -0.46,-6.83 -0.9,-13.71 -1.92,-27.39 -0.23,-3.43 -0.27,-3.4 -0.51,-6.88 -1.06,-13.67 -2.3,-27.42 -0.16,-1.6 -0.11,-1.6 -0.32,-3.17 -0.58,-6.4 -1.21,-12.78 -0.2,-1.6 -0.47,-4.8 -0.66,-6.41 -0.08,-0.63"
         style="fill:none;stroke:#5e81b5;stroke-width:11.52;stroke-linecap:square;stroke-linejoin:miter;stroke-miterlimit:3.25;stroke-dasharray:none;stroke-opacity:1"
         id="path90" /><path
         d="m 1808.83,1949.45 -1.33,-12.07 -0.39,-3.16 -0.74,-6.41 -1.6,-12.77 -3.56,-25.59 -0.27,-1.72 -0.24,-1.75 -0.54,-3.44 -1.1,-6.92 -2.3,-13.86 -0.31,-1.72 -0.32,-1.76 -0.62,-3.44 -1.29,-6.95 -2.7,-13.83 -0.35,-1.76 -0.35,-1.71 -0.74,-3.48 -1.49,-6.91 -3.2,-13.87 -7.15,-27.7 -0.47,-1.68 -0.47,-1.72 -0.97,-3.39 -2.03,-6.8 -4.26,-13.59 -0.55,-1.72 -0.58,-1.68 -1.14,-3.4 -2.34,-6.8 -4.96,-13.59 -0.63,-1.72 -0.66,-1.72 -1.33,-3.4 -2.73,-6.8 -5.74,-13.59 -12.9,-27.19 -0.82,-1.6 -0.82,-1.56 -1.64,-3.2 -3.4,-6.33 -7.14,-12.7 -0.94,-1.56 -0.94,-1.6 -1.91,-3.17 -3.87,-6.36 -8.16,-12.66 -2.11,-3.2 -2.15,-3.17 -4.42,-6.32 -5.82,-8.09"
         style="fill:none;stroke:#5e81b5;stroke-width:11.52;stroke-linecap:square;stroke-linejoin:miter;stroke-miterlimit:3.25;stroke-dasharray:none;stroke-opacity:1"
         id="path92" /><path
         d="m 1689.88,1595.04 -21.33,-26.72 -1.44,-1.72 -1.49,-1.72 -3,-3.43 -6.14,-6.88 -12.89,-13.75 -28.28,-27.5 -1.87,-1.72 -5.74,-5.15 -7.82,-6.88 -16.29,-13.75 -35.31,-27.54 -2.15,-1.6 -2.18,-1.6 -4.42,-3.2 -8.94,-6.45 -18.44,-12.81 -39.03,-25.71 -85.42,-51.36 -91.76,-51.57 -87.54,-49.18 -2.97,-1.71 -2.97,-1.68 -5.94,-3.44 -11.72,-6.84 -23.08,-13.63 -44.26,-27.34 -2.69,-1.68 -2.66,-1.72 -5.27,-3.4 -10.43,-6.84 -20.28,-13.67 -38.01,-27.3 -4.21,-3.21 -4.14,-3.2 -8.17,-6.37 -15.78,-12.73 -29.3,-25.51 -1.719,-1.56 -1.711,-1.6 -3.399,-3.21 -6.679,-6.36 -12.782,-12.74 -23.429,-25.51 -1.531,-1.71 -1.442,-1.72 -2.93,-3.48 -5.699,-6.91 -10.859,-13.79 -1.289,-1.76 -0.942,-1.21"
         style="fill:none;stroke:#5e81b5;stroke-width:11.52;stroke-linecap:square;stroke-linejoin:miter;stroke-miterlimit:3.25;stroke-dasharray:none;stroke-opacity:1"
         id="path94" /><path
         d="m 899.648,1009.65 -5.468,-7.54 -9.45,-13.829 -2.269,-3.441 -2.231,-3.469 -4.332,-6.883 -8.199,-13.828 -14.73,-27.609 -0.86,-1.723 -0.82,-1.68 -1.641,-3.398 -3.168,-6.801 -6.05,-13.551 -0.7,-1.679 -0.71,-1.719 -1.442,-3.359 -2.738,-6.801 -5.192,-13.551 -0.628,-1.719 -0.579,-1.679 -1.25,-3.403 -2.351,-6.789 -4.449,-13.558 -7.969,-27.11 -0.434,-1.601 -0.429,-1.559 -2.457,-9.492 -3.082,-12.66 -0.399,-1.559 -0.351,-1.609 -0.7,-3.16 -1.449,-6.332 -2.652,-12.649 -0.309,-1.57 -0.32,-1.602 -0.621,-3.16 -1.25,-6.289 -2.309,-12.66 -4.14,-25.309 -0.54,-3.441 -0.511,-3.43 -0.981,-6.84 -1.867,-13.75 -0.242,-1.679 -0.188,-1.719 -0.472,-3.441 -0.821,-6.872 -1.636,-13.707 -0.391,-3.441 -0.351,-3.441 -0.36,-3.008"
         style="fill:none;stroke:#5e81b5;stroke-width:11.52;stroke-linecap:square;stroke-linejoin:miter;stroke-miterlimit:3.25;stroke-dasharray:none;stroke-opacity:1"
         id="path96" /><path
         d="m 782.809,655.23 -1.438,-14.21 -2.582,-27.469 -0.16,-1.602 -0.109,-1.597 -0.821,-9.614 -1.058,-12.769 -1.911,-25.629 -3.519,-51.25 -6.441,-100.43 -0.122,-1.68 -0.117,-1.71 -0.23,-3.399 -0.473,-6.84 -0.937,-13.59 -1.993,-27.269 -0.117,-1.684 -0.121,-1.718 -0.82,-10.192 -1.051,-13.629 -2.309,-27.269 -0.152,-1.559 -0.156,-1.601 -0.274,-3.168 -1.757,-19.102 -2.539,-25.391 -0.313,-3.199 -0.348,-3.172 -0.671,-6.367 -1.399,-12.691 -3.012,-25.43 -0.199,-1.719 -0.23,-1.722 -0.43,-3.438 -0.859,-6.91 -1.84,-13.75 -3.86,-27.582 -0.242,-1.719 -0.269,-1.711 -0.508,-3.437 -1.051,-6.883 -2.191,-13.789 -4.61,-27.5705 -0.269,-1.6093 -0.321,-1.6016 -0.539,-3.1992 -1.171,-6.4492 -2.43,-12.8516 -0.309,-1.6367 -0.269,-1.6016 -0.633,-3.1992 -1.289,-6.4492 -2.57,-12.8516 -0.36,-1.6015 -0.308,-1.6407 -0.704,-3.1992 -1.367,-6.4492 -0.312,-1.6016 -1.41,-6.4062 -0.348,-1.6406 -0.352,-1.6016 -0.39,-1.6016 -0.239,-1.1289"
         style="fill:none;stroke:#5e81b5;stroke-width:11.52;stroke-linecap:square;stroke-linejoin:miter;stroke-miterlimit:3.25;stroke-dasharray:none;stroke-opacity:1"
         id="path98" /><path
         d="m 713.238,2596.56 -0.468,-2.03 -0.348,-1.6 -0.391,-1.6 -0.742,-3.21 -0.348,-1.6 -0.39,-1.64 -0.75,-3.2 -1.52,-6.45 -0.781,-3.12 -2.34,-9.49 -3.211,-12.62 -6.828,-25.2 -0.43,-1.6 -0.429,-1.56 -0.903,-3.16 -1.839,-6.29 -3.711,-12.62 -7.93,-25.23 -1.09,-3.44 -1.129,-3.4 -2.269,-6.84 -4.731,-13.71 -10,-27.34 -1.32,-3.44 -1.289,-3.4 -2.699,-6.83 -5.512,-13.71 -11.719,-27.35 -1.402,-3.2 -1.449,-3.2 -2.93,-6.37 -5.969,-12.77 -12.699,-25.55 -1.641,-3.2 -1.679,-3.17 -3.364,-6.4 -6.949,-12.78 -14.648,-25.51 -1.051,-1.75 -1.02,-1.72 -2.109,-3.48 -4.262,-6.91 -8.75,-13.83 -18.59,-27.7 -2.418,-3.43 -2.461,-3.48 -5,-6.91 -10.281,-13.83 -21.871,-27.7 -1.406,-1.68 -1.402,-1.72 -2.86,-3.36 -5.738,-6.79 -11.871,-13.6 -25.199,-27.18 -1.641,-1.68 -1.641,-1.72 -3.32,-3.4 -6.762,-6.8 -13.898,-13.55 -29.57,-27.19 -1.801,-1.6 -1.84,-1.56 -3.629,-3.17 -7.34,-6.33 -15.199,-12.69 -32.031,-25.35 -2.11,-1.57 -2.07,-1.6 -4.219,-3.16 -8.511,-6.33 -17.54,-12.69 -20.902,-14.54"
         style="fill:none;stroke:#5e81b5;stroke-width:11.52;stroke-linecap:square;stroke-linejoin:miter;stroke-miterlimit:3.25;stroke-dasharray:none;stroke-opacity:1"
         id="path100" /><path
         d="m 280.23,1949.45 -13.859,-9.25 -2.621,-1.68 -5.23,-3.44 -10.711,-6.88 -21.911,-13.75 -5.628,-3.43 -5.661,-3.44 -11.449,-6.88 -23.512,-13.75 -6.019,-3.43 -6.051,-3.44 -3.047,-1.72 -3.082,-1.72 -6.14,-3.44 -3.118,-1.68 -3.089,-1.72 -3.122,-1.71 -3.171,-1.72 -3.118,-1.72 -3.171,-1.72 -2.258,-1.21"
         style="fill:none;stroke:#5e81b5;stroke-width:11.52;stroke-linecap:square;stroke-linejoin:miter;stroke-miterlimit:3.25;stroke-dasharray:none;stroke-opacity:1"
         id="path102" /><path
         d="m 2457.7,1858.4 -1.18,-0.63 -3.2,-1.72 -6.44,-3.43 -13.09,-6.88 -26.68,-13.75 -6.33,-3.2 -6.4,-3.2 -12.86,-6.41 -26.25,-12.85 -54.18,-25.67 -114.25,-51.28 -234.54,-100.63 -70.15,-30.43"
         style="fill:none;stroke:#5e81b5;stroke-width:11.52;stroke-linecap:square;stroke-linejoin:miter;stroke-miterlimit:3.25;stroke-dasharray:none;stroke-opacity:1"
         id="path104" /><path
         d="m 1874.61,1595.04 -370.12,-177.34 -3.36,-1.76 -3.36,-1.8 -6.72,-3.55 -13.39,-7.07 -26.53,-14.22 -52.3,-28.44 -3.24,-1.8 -3.25,-1.76 -6.48,-3.55 -12.89,-7.11 -25.74,-14.22 -3.21,-1.76 -3.2,-1.79 -19.22,-10.67 -3.2,-1.75 -3.2,-1.8 -6.41,-3.56 -3.2,-1.75 -3.21,-1.8 -3.2,-1.76 -3.16,-1.8"
         style="fill:none;stroke:#5e81b5;stroke-width:11.52;stroke-linecap:square;stroke-linejoin:miter;stroke-miterlimit:3.25;stroke-dasharray:none;stroke-opacity:1"
         id="path106" /><path
         d="m 131.211,9.80078 1.801,0.78902 1.789,0.8204 3.558,1.5586 7.153,3.1601 14.289,6.3711 28.597,12.6992 57.422,25.4219 126.25,55.0779 121.719,51.41 125,50.43 92.621,35.551"
         style="fill:none;stroke:#5e81b5;stroke-width:11.52;stroke-linecap:square;stroke-linejoin:miter;stroke-miterlimit:3.25;stroke-dasharray:none;stroke-opacity:1"
         id="path108" /><path
         d="m 715.82,254.73 193.051,68.551 172.219,55.309 185.24,54.301 30.51,8.32 155.86,42.34 212.3,54.969 200.27,51.25 9.93,2.57"
         style="fill:none;stroke:#5e81b5;stroke-width:11.52;stroke-linecap:square;stroke-linejoin:miter;stroke-miterlimit:3.25;stroke-dasharray:none;stroke-opacity:1"
         id="path110" /><path
         d="m 1881.56,594.02 232.42,62.07"
         style="fill:none;stroke:#5e81b5;stroke-width:11.52;stroke-linecap:square;stroke-linejoin:miter;stroke-miterlimit:3.25;stroke-dasharray:none;stroke-opacity:1"
         id="path112" /><path
         d="m 2119.96,657.73 134.22,38.481 5.35,1.559 10.7,3.21 21.22,6.36 41.67,12.699 2.58,0.82 2.58,0.782 5.12,1.597 10.19,3.172 20.28,6.36 39.76,12.742 10.63,3.437 10.54,3.43 2.62,0.859 2.62,0.903 7.85,2.578 2.58,0.859 2.62,0.863 2.57,0.86 2.62,0.859 h 0.04"
         style="fill:none;stroke:#5e81b5;stroke-width:11.52;stroke-linecap:square;stroke-linejoin:miter;stroke-miterlimit:3.25;stroke-dasharray:none;stroke-opacity:1"
         id="path114" /><path
         d="m 133.711,761.84 0.16,0.039 7.731,2.57 5.16,1.762 5.078,1.719 5.109,1.718 10.16,3.442 2.5,0.859 2.539,0.852 5.043,1.719 10,3.48 19.84,6.879 38.91,13.781 2.379,0.86 2.34,0.859 4.692,1.68 9.339,3.402 18.547,6.758 36.371,13.551 70.231,27.07 123.051,50.512 123.75,54.769 75.238,35.231"
         style="fill:none;stroke:#5e81b5;stroke-width:11.52;stroke-linecap:square;stroke-linejoin:miter;stroke-miterlimit:3.25;stroke-dasharray:none;stroke-opacity:1"
         id="path116" /><path
         d="m 715.352,996.988 140.976,69.692 104.844,54.41 94.848,50.75 100.7,55.04 92.89,51.36 46.41,25.74 44.25,24.61 98.79,54.65 93.32,50.98 103.32,55.27 104.73,54.26 101.72,50.59 34.53,16.64"
         style="fill:none;stroke:#5e81b5;stroke-width:11.52;stroke-linecap:square;stroke-linejoin:miter;stroke-miterlimit:3.25;stroke-dasharray:none;stroke-opacity:1"
         id="path118" /><path
         d="m 1880.12,1612.66 193.83,87.77 121.87,50.23 4.3,1.72 4.33,1.68 8.67,3.4 17.5,6.84 35.59,13.59 2.27,0.86 2.22,0.86 4.53,1.72 9.11,3.4 18.32,6.79 37.34,13.64 2.23,0.78 2.18,0.82 4.46,1.56 8.86,3.2 17.97,6.33 2.27,0.82 2.26,0.78 4.54,1.6 9.1,3.17 18.36,6.37 2.34,0.78 2.31,0.78 4.64,1.6 9.3,3.16 2.34,0.82 2.35,0.79 4.72,1.6 9.42,3.16 2.38,0.78 2.38,0.82 2.35,0.78 1.56,0.51"
         style="fill:none;stroke:#5e81b5;stroke-width:11.52;stroke-linecap:square;stroke-linejoin:miter;stroke-miterlimit:3.25;stroke-dasharray:none;stroke-opacity:1"
         id="path120" /><path
         d="m 133.711,1847.85 3.051,0.98 2.379,0.82 2.379,0.78 2.429,0.78 4.801,1.6 9.691,3.21 5.231,1.71 5.277,1.72 10.621,3.44 21.45,6.88 43.71,13.78 90.739,27.54 136.601,39.18"
         style="fill:none;stroke:#5e81b5;stroke-width:11.52;stroke-linecap:square;stroke-linejoin:miter;stroke-miterlimit:3.25;stroke-dasharray:none;stroke-opacity:1"
         id="path122" /><path
         d="m 478.012,1951.91 228.707,61.14 3.711,0.93"
         style="fill:none;stroke:#5e81b5;stroke-width:11.52;stroke-linecap:square;stroke-linejoin:miter;stroke-miterlimit:3.25;stroke-dasharray:none;stroke-opacity:1"
         id="path124" /><path
         d="m 716.801,2015.66 401.249,103.17 177.11,47.97 27.34,7.38 185.59,54.37 158.67,50.67 157.73,55 51.68,19.06"
         style="fill:none;stroke:#5e81b5;stroke-width:11.52;stroke-linecap:square;stroke-linejoin:miter;stroke-miterlimit:3.25;stroke-dasharray:none;stroke-opacity:1"
         id="path126" /><path
         d="m 1880.59,2354.92 205.39,80.9 129.53,54.61 116.95,50.9 2.03,0.9 1.99,0.89 4.03,1.76 8.08,3.56 16.1,7.11 32.07,14.22 2.03,0.89 1.99,0.9 3.99,1.76 24.02,10.66 3.98,1.8 4.03,1.76 8,3.55 2,0.9 1.99,0.86 5.98,2.7 2.03,0.86 3.98,1.79"
         style="fill:none;stroke:#5e81b5;stroke-width:11.52;stroke-linecap:square;stroke-linejoin:miter;stroke-miterlimit:3.25;stroke-dasharray:none;stroke-opacity:1"
         id="path128" /><path
         d="m 131.211,2598.2 1.09,-0.78 1.058,-0.82 2.153,-1.56 4.289,-3.2 8.558,-6.33 17.11,-12.7 33.91,-25.43 70.781,-55.08 60.781,-51.4 52.809,-50.43 1.641,-1.72 1.679,-1.72 3.282,-3.4 6.449,-6.83 12.418,-13.68 23.082,-27.34 0.668,-0.82 0.621,-0.78 3.75,-4.8 4.93,-6.37 9.41,-12.78 0.55,-0.78 0.579,-0.82 1.14,-1.56 2.223,-3.2 4.379,-6.37 8.277,-12.77 1.094,-1.72 1.098,-1.76 2.101,-3.44 4.109,-6.91 7.77,-13.83 0.469,-0.86 0.429,-0.86 0.942,-1.76 1.789,-3.43 3.48,-6.92 6.442,-13.83 0.359,-0.86 0.391,-0.85 0.738,-1.68 1.441,-3.4 2.739,-6.8 0.351,-0.86 0.352,-0.82 0.629,-1.72 1.289,-3.4 2.461,-6.75 0.308,-0.86 0.27,-0.86 0.59,-1.68 1.133,-3.4 2.109,-6.8 0.269,-0.86 0.239,-0.82 0.511,-1.72 0.969,-3.39 1.801,-6.8 0.391,-1.56 0.39,-1.61 0.739,-3.16 1.41,-6.33 0.308,-1.56 0.352,-1.6 0.59,-3.17 1.129,-6.32 0.121,-0.79 0.121,-0.82 0.23,-1.56 0.469,-3.16 0.121,-0.78 0.109,-0.82 0.2,-1.57 0.39,-3.16 0.121,-0.82 0.231,-2.34 0.117,-0.83 0.231,-2.34 0.082,-0.82 0.039,-0.78 0.16,-1.56 0.23,-3.21 0.078,-0.82 0.039,-0.86 0.122,-1.71 0.351,-7.74 v -0.86 l 0.039,-0.86 v -0.86 l 0.039,-0.86 v -3.43 l 0.031,-0.86 -0.031,-0.86 v -3.44 l -0.039,-0.86 v -0.86 l -0.039,-0.86 v -0.86 l -0.242,-5.15 -0.039,-0.82 -0.07,-1.72 -0.079,-0.86 -0.043,-0.86 -0.117,-1.72 -0.082,-0.86 -0.039,-0.86 -0.539,-6.01 -0.121,-0.86 -0.199,-1.72 -0.071,-0.86 -0.121,-0.86 -0.199,-1.72 -0.461,-3.44 -0.121,-0.78 -0.117,-0.82 -0.231,-1.6 -0.55,-3.2 -0.121,-0.79 -0.149,-0.82 -0.281,-1.6 -0.617,-3.2 -0.16,-0.82 -0.153,-0.78 -0.32,-1.6 -0.699,-3.21 -1.52,-6.4 -0.199,-0.82 -0.191,-0.78 -1.29,-4.81 -1.878,-6.41 -0.274,-0.82 -0.238,-0.78 -0.5,-1.6 -1.059,-3.24 -2.261,-6.41 -0.282,-0.78 -0.308,-0.78 -0.59,-1.56 -1.211,-3.17 -2.578,-6.25 -0.352,-0.82 -0.347,-0.78 -0.661,-1.56 -1.453,-3.12 -2.968,-6.29 -0.782,-1.57 -0.777,-1.6 -1.602,-3.12 -3.398,-6.29 -7.383,-12.58 -0.547,-0.82 -0.511,-0.86 -1.09,-1.72 -2.231,-3.4 -4.648,-6.83 -1.68,-2.39"
         style="fill:none;stroke:#5e81b5;stroke-width:11.52;stroke-linecap:square;stroke-linejoin:miter;stroke-miterlimit:3.25;stroke-dasharray:none;stroke-opacity:1"
         id="path130" /><path
         d="m 474.41,1950.27 -7.89,-10.47 -0.661,-0.85 -1.371,-1.68 -2.769,-3.4 -5.778,-6.84 -12.5,-13.63 -0.781,-0.78 -0.781,-0.82 -1.527,-1.6 -3.161,-3.17 -6.57,-6.37 -14.019,-12.73 -0.903,-0.78 -0.929,-0.78 -1.84,-1.6 -3.789,-3.17 -7.77,-6.37 -16.57,-12.73 -1.172,-0.86 -1.207,-0.86 -2.344,-1.72 -4.848,-3.47 -10,-6.88 -21.281,-13.79 -1.371,-0.86 -1.406,-0.86 -2.813,-1.75 -5.699,-3.44 -11.801,-6.88 -25.039,-13.79 -3.199,-1.72 -3.242,-1.67 -6.57,-3.4 -13.508,-6.76 -28.563,-13.56 -1.867,-0.82 -1.84,-0.86 -3.75,-1.67 -7.621,-3.4 -15.539,-6.76 -32.742,-13.56 -1.988,-0.78 -1.95,-0.78 -3.992,-1.6 -8.078,-3.16 -4.07,-1.57 -4.102,-1.56 -8.277,-3.16 -2.07,-0.78 -2.114,-0.82 -6.328,-2.35 -0.969,-0.39"
         style="fill:none;stroke:#5e81b5;stroke-width:11.52;stroke-linecap:square;stroke-linejoin:miter;stroke-miterlimit:3.25;stroke-dasharray:none;stroke-opacity:1"
         id="path132" /><path
         d="m 2458.55,1734.57 -3.12,-1.13 -2.15,-0.78 -4.3,-1.61 -8.75,-3.16 -2.18,-0.78 -2.23,-0.78 -4.41,-1.56 -8.99,-3.17 -18.24,-6.33 -37.7,-12.61 -5.23,-1.72 -5.27,-1.72 -10.63,-3.4 -21.52,-6.87 -44.3,-13.68 -92.26,-27.42 -177,-51.13 -129.25,-38.83"
         style="fill:none;stroke:#5e81b5;stroke-width:11.52;stroke-linecap:square;stroke-linejoin:miter;stroke-miterlimit:3.25;stroke-dasharray:none;stroke-opacity:1"
         id="path134" /><path
         d="m 1875.74,1556.25 -201.13,-69.34 -122.11,-50.74 -113.98,-55.04 -95.98,-51.36 -46.52,-25.79 -44.42,-24.57 -102.19,-54.64 -105.58,-50.98 -133.131,-55.27 -155.187,-54.26 -39.262,-12.5"
         style="fill:none;stroke:#5e81b5;stroke-width:11.52;stroke-linecap:square;stroke-linejoin:miter;stroke-miterlimit:3.25;stroke-dasharray:none;stroke-opacity:1"
         id="path136" /><path
         d="m 710.98,1050.12 -310.902,-91.331 -2.738,-0.82 -2.731,-0.778 -16.41,-4.812 -21.679,-6.399 -42.649,-12.82 -2.621,-0.781 -2.66,-0.82 -5.231,-1.598 -10.39,-3.199 -20.59,-6.41 -40.109,-12.813 -2.391,-0.777 -2.418,-0.782 -14.301,-4.691 -18.672,-6.289 -4.609,-1.559 -4.57,-1.562 -9.098,-3.168 -17.852,-6.25 -2.23,-0.781 -2.18,-0.821 -4.379,-1.558 -2.148,-0.781 -2.192,-0.79 -10.742,-3.902 -1.047,-0.387"
         style="fill:none;stroke:#5e81b5;stroke-width:11.52;stroke-linecap:square;stroke-linejoin:miter;stroke-miterlimit:3.25;stroke-dasharray:none;stroke-opacity:1"
         id="path138" /><path
         d="m 2458.55,871.762 -2.93,-1.102 -4.21,-1.558 -6.21,-2.34 -8.21,-3.133 -16.09,-6.289 -4.3,-1.719 -4.22,-1.672 -8.4,-3.437 -16.4,-6.801 -31.17,-13.633 -1.88,-0.816 -1.87,-0.864 -3.71,-1.718 -7.35,-3.399 -14.26,-6.801 -27.03,-13.628 -1.52,-0.821 -1.49,-0.781 -3,-1.602 -5.9,-3.168 -11.52,-6.359 -21.76,-12.699 -1.33,-0.781 -1.29,-0.821 -2.58,-1.558 -5.12,-3.211 -9.88,-6.321 -18.71,-12.742 -2.42,-1.718 -2.38,-1.719 -4.73,-3.43 -9.1,-6.883 -17.07,-13.789 -2.03,-1.719 -2,-1.71 -3.94,-3.481 -7.62,-6.879 -14.14,-13.781 -0.78,-0.789 -0.78,-0.82 -1.56,-1.598 -3.01,-3.203 -5.86,-6.449 -10.94,-12.848 -0.62,-0.82 -0.67,-0.821 -1.29,-1.601 -2.5,-3.2 -4.8,-6.449 -0.39,-0.551"
         style="fill:none;stroke:#5e81b5;stroke-width:11.52;stroke-linecap:square;stroke-linejoin:miter;stroke-miterlimit:3.25;stroke-dasharray:none;stroke-opacity:1"
         id="path140" /><path
         d="m 2116.37,656.09 -8.28,-12.262 -1.02,-1.558 -1.99,-3.168 -3.79,-6.293 -0.43,-0.778 -0.47,-0.781 -0.9,-1.602 -1.76,-3.168 -3.35,-6.281 -0.43,-0.789 -0.4,-0.781 -0.78,-1.598 -1.56,-3.121 -2.97,-6.332 -5.31,-12.617 -0.31,-0.859 -0.35,-0.864 -0.63,-1.679 -1.25,-3.438 -2.34,-6.832 -0.28,-0.859 -0.31,-0.86 -0.51,-1.718 -1.05,-3.403 -1.92,-6.828 -0.46,-1.723 -0.43,-1.718 -0.82,-3.442 -0.2,-0.816 -0.59,-2.582 -0.74,-3.43 -0.15,-0.859 -0.2,-0.821 -1.25,-6.878 -0.27,-1.68 -0.55,-3.442 -0.12,-0.781 -0.11,-0.82 -0.24,-1.598 -0.39,-3.16 -0.12,-0.82 -0.07,-0.781 -0.2,-1.61 -0.31,-3.199 -0.08,-0.781 -0.08,-0.821 -0.15,-1.597 -0.08,-0.782 -0.04,-0.781 -0.12,-1.609 -0.08,-0.82 -0.04,-0.782 -0.11,-1.597 -0.04,-0.782 -0.04,-0.82 -0.08,-1.598 -0.04,-0.781 -0.04,-0.82 -0.04,-0.789 v -0.781 l -0.04,-0.821 -0.04,-0.777 v -0.82 l -0.03,-0.782 v -1.601 l -0.04,-0.778 v -7.191 l 0.04,-0.82 v -0.782 l 0.03,-0.82 v -0.777 l 0.04,-0.821 v -0.781 l 0.04,-0.789 0.04,-0.82 0.04,-0.781 v -0.821 l 0.08,-1.597 0.08,-0.86 0.11,-2.582 0.08,-0.859 0.04,-0.86 0.16,-1.75 0.04,-0.859 0.23,-2.582 0.31,-3.48 0.12,-0.86 0.08,-0.859 0.19,-1.711 0.43,-3.481 0.12,-0.859 0.08,-0.859 0.27,-1.758 0.47,-3.442 0.16,-0.859 0.12,-0.851 0.31,-1.758 0.58,-3.442 0.32,-1.718 0.31,-1.762 0.66,-3.43 0.2,-0.859 0.15,-0.903 0.4,-1.718 0.74,-3.442 1.68,-6.949 0.19,-0.82 0.24,-0.86 0.43,-1.718 0.89,-3.403 1.96,-6.758 0.27,-0.851 0.24,-0.859 0.54,-1.68 1.06,-3.399 2.26,-6.8 0.63,-1.719 0.58,-1.684 1.25,-3.398 2.58,-6.789 5.67,-13.602 0.7,-1.558 0.7,-1.602 1.45,-3.168 2.97,-6.32 6.4,-12.699 0.86,-1.563 0.82,-1.598 1.72,-3.171 3.56,-6.321 7.46,-12.699 1.09,-1.719 1.06,-1.722 2.14,-3.399 4.46,-6.871 9.33,-13.75 20.63,-27.5 0.62,-0.777 0.67,-0.821 3.86,-4.812 5.32,-6.399 11.01,-12.859 23.56,-25.66 51.99,-50.27 64.02,-54.613 65.16,-50.9374 1.17,-0.8593 3.52,-2.6915 4.72,-3.5585 9.42,-7.0704 19.02,-14.2226 1.17,-0.8985 1.21,-0.8906 2.39,-1.7578 4.76,-3.5625 9.57,-7.1094 1.21,-0.8984 1.17,-0.8906 2.43,-1.7617 4.76,-3.5586 2.42,-1.7891 2.39,-1.7617 2.42,-1.8008 1.17,-0.8594 1.21,-0.89842"
         style="fill:none;stroke:#5e81b5;stroke-width:11.52;stroke-linecap:square;stroke-linejoin:miter;stroke-miterlimit:3.25;stroke-dasharray:none;stroke-opacity:1"
         id="path142" /><path
         d="m 131.211,9.80078 0.348,0.78902 0.39,0.8204 0.711,1.5586 1.399,3.1601 2.89,6.3711 5.711,12.6992 11.442,25.4219 24.957,55.0779 23.601,51.41 23.551,50.43 26.168,54.691 25.199,51.051 28.363,55.309 29.098,54.301 28.551,50.66 32.738,54.969 32.582,51.25 34.141,50.269 11.359,16.051"
         style="fill:none;stroke:#ff0000;stroke-width:11.52;stroke-linecap:square;stroke-linejoin:miter;stroke-miterlimit:3.25;stroke-dasharray:none;stroke-opacity:1"
         id="path144" /><path
         d="m 475.621,657.73 67.699,87.782 47.7,55.148 51.441,54.18 52.699,50.512 17.539,15.82"
         style="fill:none;stroke:#ff0000;stroke-width:11.52;stroke-linecap:square;stroke-linejoin:miter;stroke-miterlimit:3.25;stroke-dasharray:none;stroke-opacity:1"
         id="path146" /><path
         d="m 714.531,922.809 108.09,88.481 76.719,55.39 82.18,54.41 82.39,50.75 94.41,55.04 91.33,51.36 46.37,25.74 44.21,24.61 97.11,54.65 87.46,50.98 89.69,55.27 81.68,54.26 70.08,50.59 69.34,54.88 41.87,35.98"
         style="fill:none;stroke:#ff0000;stroke-width:11.52;stroke-linecap:square;stroke-linejoin:miter;stroke-miterlimit:3.25;stroke-dasharray:none;stroke-opacity:1"
         id="path148" /><path
         d="m 1879.34,1686.84 67.69,63.82 51.99,54.5 44.26,50.86 44.02,55.07 29.07,39.18"
         style="fill:none;stroke:#ff0000;stroke-width:11.52;stroke-linecap:square;stroke-linejoin:miter;stroke-miterlimit:3.25;stroke-dasharray:none;stroke-opacity:1"
         id="path150" /><path
         d="m 2117.58,1951.91 42.11,61.14 34.92,54.72 30.55,51.06 31.32,55.35 29.14,54.37 26.06,50.67 27.19,55 24.57,51.29 23.55,50.31 25.08,54.61 23.09,50.9 0.39,0.9 0.43,0.89 0.78,1.76 11.21,24.89 0.43,0.89 0.39,0.9 0.78,1.76 4.81,10.66 0.39,0.9 0.43,0.9 0.78,1.76 1.6,3.55 0.39,0.9 0.43,0.86 1.17,2.7 0.39,0.86 0.43,0.89 0.39,0.9"
         style="fill:none;stroke:#ff0000;stroke-width:11.52;stroke-linecap:square;stroke-linejoin:miter;stroke-miterlimit:3.25;stroke-dasharray:none;stroke-opacity:1"
         id="path152" /><path
         d="m 35.4297,1303.98 v 17.39"
         style="fill:none;stroke:#000000;stroke-width:3.6;stroke-linecap:butt;stroke-linejoin:miter;stroke-miterlimit:3.25;stroke-dasharray:none;stroke-opacity:1"
         id="path154" /><path
         d="m 109.57,1303.98 v 17.39"
         style="fill:none;stroke:#000000;stroke-width:3.6;stroke-linecap:butt;stroke-linejoin:miter;stroke-miterlimit:3.25;stroke-dasharray:none;stroke-opacity:1"
         id="path156" /><path
         d="m 183.711,1303.98 v 28.95"
         style="fill:none;stroke:#000000;stroke-width:3.6;stroke-linecap:butt;stroke-linejoin:miter;stroke-miterlimit:3.25;stroke-dasharray:none;stroke-opacity:1"
         id="path158" /><g
         id="g160"
         transform="scale(10)"><text
           transform="matrix(1,0,0,-1,14.8172,122.068)"
           style="font-variant:normal;font-size:6.47949px;font-family:f-0;-inkscape-font-specification:f-0-0;writing-mode:lr-tb;fill:#000000;fill-opacity:1;fill-rule:nonzero;stroke:none"
           id="text164"><tspan
             x="0"
             y="0"
             id="tspan162">-</tspan></text><text
           transform="matrix(1,0,0,-1,18.31603,122.068)"
           style="font-variant:normal;font-size:6.47949px;font-family:f-1;-inkscape-font-specification:f-1-0;writing-mode:lr-tb;fill:#000000;fill-opacity:1;fill-rule:nonzero;stroke:none"
           id="text168"><tspan
             x="0"
             y="0"
             id="tspan166">3</tspan></text></g><path
         d="m 257.852,1303.98 v 17.39"
         style="fill:none;stroke:#000000;stroke-width:3.6;stroke-linecap:butt;stroke-linejoin:miter;stroke-miterlimit:3.25;stroke-dasharray:none;stroke-opacity:1"
         id="path170" /><path
         d="m 332.031,1303.98 v 17.39"
         style="fill:none;stroke:#000000;stroke-width:3.6;stroke-linecap:butt;stroke-linejoin:miter;stroke-miterlimit:3.25;stroke-dasharray:none;stroke-opacity:1"
         id="path172" /><path
         d="m 406.172,1303.98 v 17.39"
         style="fill:none;stroke:#000000;stroke-width:3.6;stroke-linecap:butt;stroke-linejoin:miter;stroke-miterlimit:3.25;stroke-dasharray:none;stroke-opacity:1"
         id="path174" /><path
         d="m 480.309,1303.98 v 17.39"
         style="fill:none;stroke:#000000;stroke-width:3.6;stroke-linecap:butt;stroke-linejoin:miter;stroke-miterlimit:3.25;stroke-dasharray:none;stroke-opacity:1"
         id="path176" /><path
         d="m 554.488,1303.98 v 28.95"
         style="fill:none;stroke:#000000;stroke-width:3.6;stroke-linecap:butt;stroke-linejoin:miter;stroke-miterlimit:3.25;stroke-dasharray:none;stroke-opacity:1"
         id="path178" /><g
         id="g180"
         transform="scale(10)"><text
           transform="matrix(1,0,0,-1,51.893,122.068)"
           style="font-variant:normal;font-size:6.47949px;font-family:f-0;-inkscape-font-specification:f-0-0;writing-mode:lr-tb;fill:#000000;fill-opacity:1;fill-rule:nonzero;stroke:none"
           id="text184"><tspan
             x="0"
             y="0"
             id="tspan182">-</tspan></text><text
           transform="matrix(1,0,0,-1,55.39183,122.068)"
           style="font-variant:normal;font-size:6.47949px;font-family:f-1;-inkscape-font-specification:f-1-0;writing-mode:lr-tb;fill:#000000;fill-opacity:1;fill-rule:nonzero;stroke:none"
           id="text188"><tspan
             x="0"
             y="0"
             id="tspan186">2</tspan></text></g><path
         d="m 628.629,1303.98 v 17.39"
         style="fill:none;stroke:#000000;stroke-width:3.6;stroke-linecap:butt;stroke-linejoin:miter;stroke-miterlimit:3.25;stroke-dasharray:none;stroke-opacity:1"
         id="path190" /><path
         d="m 702.77,1303.98 v 17.39"
         style="fill:none;stroke:#000000;stroke-width:3.6;stroke-linecap:butt;stroke-linejoin:miter;stroke-miterlimit:3.25;stroke-dasharray:none;stroke-opacity:1"
         id="path192" /><path
         d="m 776.949,1303.98 v 17.39"
         style="fill:none;stroke:#000000;stroke-width:3.6;stroke-linecap:butt;stroke-linejoin:miter;stroke-miterlimit:3.25;stroke-dasharray:none;stroke-opacity:1"
         id="path194" /><path
         d="m 851.09,1303.98 v 17.39"
         style="fill:none;stroke:#000000;stroke-width:3.6;stroke-linecap:butt;stroke-linejoin:miter;stroke-miterlimit:3.25;stroke-dasharray:none;stroke-opacity:1"
         id="path196" /><path
         d="m 925.23,1303.98 v 28.95"
         style="fill:none;stroke:#000000;stroke-width:3.6;stroke-linecap:butt;stroke-linejoin:miter;stroke-miterlimit:3.25;stroke-dasharray:none;stroke-opacity:1"
         id="path198" /><g
         id="g200"
         transform="scale(10)"><text
           transform="matrix(1,0,0,-1,88.9691,122.068)"
           style="font-variant:normal;font-size:6.47949px;font-family:f-0;-inkscape-font-specification:f-0-0;writing-mode:lr-tb;fill:#000000;fill-opacity:1;fill-rule:nonzero;stroke:none"
           id="text204"><tspan
             x="0"
             y="0"
             id="tspan202">-</tspan></text><text
           transform="matrix(1,0,0,-1,92.46793,122.068)"
           style="font-variant:normal;font-size:6.47949px;font-family:f-1;-inkscape-font-specification:f-1-0;writing-mode:lr-tb;fill:#000000;fill-opacity:1;fill-rule:nonzero;stroke:none"
           id="text208"><tspan
             x="0"
             y="0"
             id="tspan206">1</tspan></text></g><path
         d="m 999.379,1303.98 v 17.39"
         style="fill:none;stroke:#000000;stroke-width:3.6;stroke-linecap:butt;stroke-linejoin:miter;stroke-miterlimit:3.25;stroke-dasharray:none;stroke-opacity:1"
         id="path210" /><path
         d="m 1073.55,1303.98 v 17.39"
         style="fill:none;stroke:#000000;stroke-width:3.6;stroke-linecap:butt;stroke-linejoin:miter;stroke-miterlimit:3.25;stroke-dasharray:none;stroke-opacity:1"
         id="path212" /><path
         d="m 1147.7,1303.98 v 17.39"
         style="fill:none;stroke:#000000;stroke-width:3.6;stroke-linecap:butt;stroke-linejoin:miter;stroke-miterlimit:3.25;stroke-dasharray:none;stroke-opacity:1"
         id="path214" /><path
         d="m 1221.84,1303.98 v 17.39"
         style="fill:none;stroke:#000000;stroke-width:3.6;stroke-linecap:butt;stroke-linejoin:miter;stroke-miterlimit:3.25;stroke-dasharray:none;stroke-opacity:1"
         id="path216" /><path
         d="m 1296.02,1303.98 v 28.95"
         style="fill:none;stroke:#000000;stroke-width:3.6;stroke-linecap:butt;stroke-linejoin:miter;stroke-miterlimit:3.25;stroke-dasharray:none;stroke-opacity:1"
         id="path218" /><path
         d="m 1370.16,1303.98 v 17.39"
         style="fill:none;stroke:#000000;stroke-width:3.6;stroke-linecap:butt;stroke-linejoin:miter;stroke-miterlimit:3.25;stroke-dasharray:none;stroke-opacity:1"
         id="path220" /><path
         d="m 1444.3,1303.98 v 17.39"
         style="fill:none;stroke:#000000;stroke-width:3.6;stroke-linecap:butt;stroke-linejoin:miter;stroke-miterlimit:3.25;stroke-dasharray:none;stroke-opacity:1"
         id="path222" /><path
         d="m 1518.44,1303.98 v 17.39"
         style="fill:none;stroke:#000000;stroke-width:3.6;stroke-linecap:butt;stroke-linejoin:miter;stroke-miterlimit:3.25;stroke-dasharray:none;stroke-opacity:1"
         id="path224" /><path
         d="m 1592.62,1303.98 v 17.39"
         style="fill:none;stroke:#000000;stroke-width:3.6;stroke-linecap:butt;stroke-linejoin:miter;stroke-miterlimit:3.25;stroke-dasharray:none;stroke-opacity:1"
         id="path226" /><path
         d="m 1666.76,1303.98 v 28.95"
         style="fill:none;stroke:#000000;stroke-width:3.6;stroke-linecap:butt;stroke-linejoin:miter;stroke-miterlimit:3.25;stroke-dasharray:none;stroke-opacity:1"
         id="path228" /><g
         id="g230"
         transform="scale(10)"><text
           transform="matrix(1,0,0,-1,164.873,122.068)"
           style="font-variant:normal;font-size:6.47949px;font-family:f-1;-inkscape-font-specification:f-1-0;writing-mode:lr-tb;fill:#000000;fill-opacity:1;fill-rule:nonzero;stroke:none"
           id="text234"><tspan
             x="0"
             y="0"
             id="tspan232">1</tspan></text></g><path
         d="m 1740.9,1303.98 v 17.39"
         style="fill:none;stroke:#000000;stroke-width:3.6;stroke-linecap:butt;stroke-linejoin:miter;stroke-miterlimit:3.25;stroke-dasharray:none;stroke-opacity:1"
         id="path236" /><path
         d="m 1815.08,1303.98 v 17.39"
         style="fill:none;stroke:#000000;stroke-width:3.6;stroke-linecap:butt;stroke-linejoin:miter;stroke-miterlimit:3.25;stroke-dasharray:none;stroke-opacity:1"
         id="path238" /><path
         d="m 1889.22,1303.98 v 17.39"
         style="fill:none;stroke:#000000;stroke-width:3.6;stroke-linecap:butt;stroke-linejoin:miter;stroke-miterlimit:3.25;stroke-dasharray:none;stroke-opacity:1"
         id="path240" /><path
         d="m 1963.36,1303.98 v 17.39"
         style="fill:none;stroke:#000000;stroke-width:3.6;stroke-linecap:butt;stroke-linejoin:miter;stroke-miterlimit:3.25;stroke-dasharray:none;stroke-opacity:1"
         id="path242" /><path
         d="m 2037.54,1303.98 v 28.95"
         style="fill:none;stroke:#000000;stroke-width:3.6;stroke-linecap:butt;stroke-linejoin:miter;stroke-miterlimit:3.25;stroke-dasharray:none;stroke-opacity:1"
         id="path244" /><g
         id="g246"
         transform="scale(10)"><text
           transform="matrix(1,0,0,-1,201.95,122.068)"
           style="font-variant:normal;font-size:6.47949px;font-family:f-1;-inkscape-font-specification:f-1-0;writing-mode:lr-tb;fill:#000000;fill-opacity:1;fill-rule:nonzero;stroke:none"
           id="text250"><tspan
             x="0"
             y="0"
             id="tspan248">2</tspan></text></g><path
         d="m 2111.68,1303.98 v 17.39"
         style="fill:none;stroke:#000000;stroke-width:3.6;stroke-linecap:butt;stroke-linejoin:miter;stroke-miterlimit:3.25;stroke-dasharray:none;stroke-opacity:1"
         id="path252" /><path
         d="m 2185.82,1303.98 v 17.39"
         style="fill:none;stroke:#000000;stroke-width:3.6;stroke-linecap:butt;stroke-linejoin:miter;stroke-miterlimit:3.25;stroke-dasharray:none;stroke-opacity:1"
         id="path254" /><path
         d="m 2259.96,1303.98 v 17.39"
         style="fill:none;stroke:#000000;stroke-width:3.6;stroke-linecap:butt;stroke-linejoin:miter;stroke-miterlimit:3.25;stroke-dasharray:none;stroke-opacity:1"
         id="path256" /><path
         d="m 2334.14,1303.98 v 17.39"
         style="fill:none;stroke:#000000;stroke-width:3.6;stroke-linecap:butt;stroke-linejoin:miter;stroke-miterlimit:3.25;stroke-dasharray:none;stroke-opacity:1"
         id="path258" /><path
         d="m 2408.28,1303.98 v 28.95"
         style="fill:none;stroke:#000000;stroke-width:3.6;stroke-linecap:butt;stroke-linejoin:miter;stroke-miterlimit:3.25;stroke-dasharray:none;stroke-opacity:1"
         id="path260" /><g
         id="g262"
         transform="scale(10)"><text
           transform="matrix(1,0,0,-1,239.025,122.068)"
           style="font-variant:normal;font-size:6.47949px;font-family:f-1;-inkscape-font-specification:f-1-0;writing-mode:lr-tb;fill:#000000;fill-opacity:1;fill-rule:nonzero;stroke:none"
           id="text266"><tspan
             x="0"
             y="0"
             id="tspan264">3</tspan></text></g><path
         d="m 2482.42,1303.98 v 17.39"
         style="fill:none;stroke:#000000;stroke-width:3.6;stroke-linecap:butt;stroke-linejoin:miter;stroke-miterlimit:3.25;stroke-dasharray:none;stroke-opacity:1"
         id="path268" /><path
         d="m 2556.6,1303.98 v 17.39"
         style="fill:none;stroke:#000000;stroke-width:3.6;stroke-linecap:butt;stroke-linejoin:miter;stroke-miterlimit:3.25;stroke-dasharray:none;stroke-opacity:1"
         id="path270" /><path
         d="M 1.80078,1303.98 H 2590.2"
         style="fill:none;stroke:#000000;stroke-width:3.6;stroke-linecap:butt;stroke-linejoin:miter;stroke-miterlimit:3.25;stroke-dasharray:none;stroke-opacity:1"
         id="path272" /><path
         d="m 1296.02,68.1211 h 28.9"
         style="fill:none;stroke:#000000;stroke-width:3.6;stroke-linecap:butt;stroke-linejoin:miter;stroke-miterlimit:3.25;stroke-dasharray:none;stroke-opacity:1"
         id="path274" /><g
         id="g276"
         transform="scale(10)"><text
           transform="matrix(1,0,0,-1,120.33,4.64883)"
           style="font-variant:normal;font-size:6.47949px;font-family:f-0;-inkscape-font-specification:f-0-0;writing-mode:lr-tb;fill:#000000;fill-opacity:1;fill-rule:nonzero;stroke:none"
           id="text280"><tspan
             x="0"
             y="0"
             id="tspan278">-</tspan></text><text
           transform="matrix(1,0,0,-1,123.82883,4.64883)"
           style="font-variant:normal;font-size:6.47949px;font-family:f-1;-inkscape-font-specification:f-1-0;writing-mode:lr-tb;fill:#000000;fill-opacity:1;fill-rule:nonzero;stroke:none"
           id="text284"><tspan
             x="0"
             y="0"
             id="tspan282">3</tspan></text></g><path
         d="m 1296.02,150.512 h 17.34"
         style="fill:none;stroke:#000000;stroke-width:3.6;stroke-linecap:butt;stroke-linejoin:miter;stroke-miterlimit:3.25;stroke-dasharray:none;stroke-opacity:1"
         id="path286" /><path
         d="m 1296.02,232.93 h 17.34"
         style="fill:none;stroke:#000000;stroke-width:3.6;stroke-linecap:butt;stroke-linejoin:miter;stroke-miterlimit:3.25;stroke-dasharray:none;stroke-opacity:1"
         id="path288" /><path
         d="m 1296.02,315.309 h 17.34"
         style="fill:none;stroke:#000000;stroke-width:3.6;stroke-linecap:butt;stroke-linejoin:miter;stroke-miterlimit:3.25;stroke-dasharray:none;stroke-opacity:1"
         id="path290" /><path
         d="m 1296.02,397.699 h 17.34"
         style="fill:none;stroke:#000000;stroke-width:3.6;stroke-linecap:butt;stroke-linejoin:miter;stroke-miterlimit:3.25;stroke-dasharray:none;stroke-opacity:1"
         id="path292" /><path
         d="m 1296.02,480.078 h 28.9"
         style="fill:none;stroke:#000000;stroke-width:3.6;stroke-linecap:butt;stroke-linejoin:miter;stroke-miterlimit:3.25;stroke-dasharray:none;stroke-opacity:1"
         id="path294" /><g
         id="g296"
         transform="scale(10)"><text
           transform="matrix(1,0,0,-1,120.33,45.8445)"
           style="font-variant:normal;font-size:6.47949px;font-family:f-0;-inkscape-font-specification:f-0-0;writing-mode:lr-tb;fill:#000000;fill-opacity:1;fill-rule:nonzero;stroke:none"
           id="text300"><tspan
             x="0"
             y="0"
             id="tspan298">-</tspan></text><text
           transform="matrix(1,0,0,-1,123.82883,45.8445)"
           style="font-variant:normal;font-size:6.47949px;font-family:f-1;-inkscape-font-specification:f-1-0;writing-mode:lr-tb;fill:#000000;fill-opacity:1;fill-rule:nonzero;stroke:none"
           id="text304"><tspan
             x="0"
             y="0"
             id="tspan302">2</tspan></text></g><path
         d="m 1296.02,562.461 h 17.34"
         style="fill:none;stroke:#000000;stroke-width:3.6;stroke-linecap:butt;stroke-linejoin:miter;stroke-miterlimit:3.25;stroke-dasharray:none;stroke-opacity:1"
         id="path306" /><path
         d="m 1296.02,644.879 h 17.34"
         style="fill:none;stroke:#000000;stroke-width:3.6;stroke-linecap:butt;stroke-linejoin:miter;stroke-miterlimit:3.25;stroke-dasharray:none;stroke-opacity:1"
         id="path308" /><path
         d="m 1296.02,727.27 h 17.34"
         style="fill:none;stroke:#000000;stroke-width:3.6;stroke-linecap:butt;stroke-linejoin:miter;stroke-miterlimit:3.25;stroke-dasharray:none;stroke-opacity:1"
         id="path310" /><path
         d="m 1296.02,809.648 h 17.34"
         style="fill:none;stroke:#000000;stroke-width:3.6;stroke-linecap:butt;stroke-linejoin:miter;stroke-miterlimit:3.25;stroke-dasharray:none;stroke-opacity:1"
         id="path312" /><path
         d="m 1296.02,892.031 h 28.9"
         style="fill:none;stroke:#000000;stroke-width:3.6;stroke-linecap:butt;stroke-linejoin:miter;stroke-miterlimit:3.25;stroke-dasharray:none;stroke-opacity:1"
         id="path314" /><g
         id="g316"
         transform="scale(10)"><text
           transform="matrix(1,0,0,-1,120.33,87.0402)"
           style="font-variant:normal;font-size:6.47949px;font-family:f-0;-inkscape-font-specification:f-0-0;writing-mode:lr-tb;fill:#000000;fill-opacity:1;fill-rule:nonzero;stroke:none"
           id="text320"><tspan
             x="0"
             y="0"
             id="tspan318">-</tspan></text><text
           transform="matrix(1,0,0,-1,123.82883,87.0402)"
           style="font-variant:normal;font-size:6.47949px;font-family:f-1;-inkscape-font-specification:f-1-0;writing-mode:lr-tb;fill:#000000;fill-opacity:1;fill-rule:nonzero;stroke:none"
           id="text324"><tspan
             x="0"
             y="0"
             id="tspan322">1</tspan></text></g><path
         d="m 1296.02,974.449 h 17.34"
         style="fill:none;stroke:#000000;stroke-width:3.6;stroke-linecap:butt;stroke-linejoin:miter;stroke-miterlimit:3.25;stroke-dasharray:none;stroke-opacity:1"
         id="path326" /><path
         d="m 1296.02,1056.84 h 17.34"
         style="fill:none;stroke:#000000;stroke-width:3.6;stroke-linecap:butt;stroke-linejoin:miter;stroke-miterlimit:3.25;stroke-dasharray:none;stroke-opacity:1"
         id="path328" /><path
         d="m 1296.02,1139.22 h 17.34"
         style="fill:none;stroke:#000000;stroke-width:3.6;stroke-linecap:butt;stroke-linejoin:miter;stroke-miterlimit:3.25;stroke-dasharray:none;stroke-opacity:1"
         id="path330" /><path
         d="m 1296.02,1221.6 h 17.34"
         style="fill:none;stroke:#000000;stroke-width:3.6;stroke-linecap:butt;stroke-linejoin:miter;stroke-miterlimit:3.25;stroke-dasharray:none;stroke-opacity:1"
         id="path332" /><path
         d="m 1296.02,1303.98 h 28.9"
         style="fill:none;stroke:#000000;stroke-width:3.6;stroke-linecap:butt;stroke-linejoin:miter;stroke-miterlimit:3.25;stroke-dasharray:none;stroke-opacity:1"
         id="path334" /><path
         d="m 1296.02,1386.41 h 17.34"
         style="fill:none;stroke:#000000;stroke-width:3.6;stroke-linecap:butt;stroke-linejoin:miter;stroke-miterlimit:3.25;stroke-dasharray:none;stroke-opacity:1"
         id="path336" /><path
         d="m 1296.02,1468.79 h 17.34"
         style="fill:none;stroke:#000000;stroke-width:3.6;stroke-linecap:butt;stroke-linejoin:miter;stroke-miterlimit:3.25;stroke-dasharray:none;stroke-opacity:1"
         id="path338" /><path
         d="m 1296.02,1551.17 h 17.34"
         style="fill:none;stroke:#000000;stroke-width:3.6;stroke-linecap:butt;stroke-linejoin:miter;stroke-miterlimit:3.25;stroke-dasharray:none;stroke-opacity:1"
         id="path340" /><path
         d="m 1296.02,1633.55 h 17.34"
         style="fill:none;stroke:#000000;stroke-width:3.6;stroke-linecap:butt;stroke-linejoin:miter;stroke-miterlimit:3.25;stroke-dasharray:none;stroke-opacity:1"
         id="path342" /><path
         d="m 1296.02,1715.94 h 28.9"
         style="fill:none;stroke:#000000;stroke-width:3.6;stroke-linecap:butt;stroke-linejoin:miter;stroke-miterlimit:3.25;stroke-dasharray:none;stroke-opacity:1"
         id="path344" /><g
         id="g346"
         transform="scale(10)"><text
           transform="matrix(1,0,0,-1,123.834,169.432)"
           style="font-variant:normal;font-size:6.47949px;font-family:f-1;-inkscape-font-specification:f-1-0;writing-mode:lr-tb;fill:#000000;fill-opacity:1;fill-rule:nonzero;stroke:none"
           id="text350"><tspan
             x="0"
             y="0"
             id="tspan348">1</tspan></text></g><path
         d="m 1296.02,1798.36 h 17.34"
         style="fill:none;stroke:#000000;stroke-width:3.6;stroke-linecap:butt;stroke-linejoin:miter;stroke-miterlimit:3.25;stroke-dasharray:none;stroke-opacity:1"
         id="path352" /><path
         d="m 1296.02,1880.74 h 17.34"
         style="fill:none;stroke:#000000;stroke-width:3.6;stroke-linecap:butt;stroke-linejoin:miter;stroke-miterlimit:3.25;stroke-dasharray:none;stroke-opacity:1"
         id="path354" /><path
         d="m 1296.02,1963.12 h 17.34"
         style="fill:none;stroke:#000000;stroke-width:3.6;stroke-linecap:butt;stroke-linejoin:miter;stroke-miterlimit:3.25;stroke-dasharray:none;stroke-opacity:1"
         id="path356" /><path
         d="m 1296.02,2045.51 h 17.34"
         style="fill:none;stroke:#000000;stroke-width:3.6;stroke-linecap:butt;stroke-linejoin:miter;stroke-miterlimit:3.25;stroke-dasharray:none;stroke-opacity:1"
         id="path358" /><path
         d="m 1296.02,2127.93 h 28.9"
         style="fill:none;stroke:#000000;stroke-width:3.6;stroke-linecap:butt;stroke-linejoin:miter;stroke-miterlimit:3.25;stroke-dasharray:none;stroke-opacity:1"
         id="path360" /><g
         id="g362"
         transform="scale(10)"><text
           transform="matrix(1,0,0,-1,123.834,210.627)"
           style="font-variant:normal;font-size:6.47949px;font-family:f-1;-inkscape-font-specification:f-1-0;writing-mode:lr-tb;fill:#000000;fill-opacity:1;fill-rule:nonzero;stroke:none"
           id="text366"><tspan
             x="0"
             y="0"
             id="tspan364">2</tspan></text></g><path
         d="m 1296.02,2210.31 h 17.34"
         style="fill:none;stroke:#000000;stroke-width:3.6;stroke-linecap:butt;stroke-linejoin:miter;stroke-miterlimit:3.25;stroke-dasharray:none;stroke-opacity:1"
         id="path368" /><path
         d="m 1296.02,2292.7 h 17.34"
         style="fill:none;stroke:#000000;stroke-width:3.6;stroke-linecap:butt;stroke-linejoin:miter;stroke-miterlimit:3.25;stroke-dasharray:none;stroke-opacity:1"
         id="path370" /><path
         d="m 1296.02,2375.08 h 17.34"
         style="fill:none;stroke:#000000;stroke-width:3.6;stroke-linecap:butt;stroke-linejoin:miter;stroke-miterlimit:3.25;stroke-dasharray:none;stroke-opacity:1"
         id="path372" /><path
         d="m 1296.02,2457.46 h 17.34"
         style="fill:none;stroke:#000000;stroke-width:3.6;stroke-linecap:butt;stroke-linejoin:miter;stroke-miterlimit:3.25;stroke-dasharray:none;stroke-opacity:1"
         id="path374" /><path
         d="m 1296.02,2539.88 h 28.9"
         style="fill:none;stroke:#000000;stroke-width:3.6;stroke-linecap:butt;stroke-linejoin:miter;stroke-miterlimit:3.25;stroke-dasharray:none;stroke-opacity:1"
         id="path376" /><g
         id="g378"
         transform="scale(10)"><text
           transform="matrix(1,0,0,-1,123.834,251.823)"
           style="font-variant:normal;font-size:6.47949px;font-family:f-1;-inkscape-font-specification:f-1-0;writing-mode:lr-tb;fill:#000000;fill-opacity:1;fill-rule:nonzero;stroke:none"
           id="text382"><tspan
             x="0"
             y="0"
             id="tspan380">3</tspan></text></g><path
         d="M 1296.02,9.80078 V 2598.2"
         style="fill:none;stroke:#000000;stroke-width:3.6;stroke-linecap:butt;stroke-linejoin:miter;stroke-miterlimit:3.25;stroke-dasharray:none;stroke-opacity:1"
         id="path384" /></g></g></svg>
