<?xml version="1.0" encoding="UTF-8" standalone="no"?>
<svg
   xmlns:dc="http://purl.org/dc/elements/1.1/"
   xmlns:cc="http://creativecommons.org/ns#"
   xmlns:rdf="http://www.w3.org/1999/02/22-rdf-syntax-ns#"
   xmlns:svg="http://www.w3.org/2000/svg"
   xmlns="http://www.w3.org/2000/svg"
   xmlns:sodipodi="http://sodipodi.sourceforge.net/DTD/sodipodi-0.dtd"
   xmlns:inkscape="http://www.inkscape.org/namespaces/inkscape"
   version="1.1"
   id="svg2"
   xml:space="preserve"
   width="346.66666"
   height="346.66666"
   viewBox="0 0 346.66666 346.66666"
   sodipodi:docname="AMY2iter.eps"><metadata
     id="metadata8"><rdf:RDF><cc:Work
         rdf:about=""><dc:format>image/svg+xml</dc:format><dc:type
           rdf:resource="http://purl.org/dc/dcmitype/StillImage" /></cc:Work></rdf:RDF></metadata><defs
     id="defs6" /><sodipodi:namedview
     pagecolor="#ffffff"
     bordercolor="#666666"
     borderopacity="1"
     objecttolerance="10"
     gridtolerance="10"
     guidetolerance="10"
     inkscape:pageopacity="0"
     inkscape:pageshadow="2"
     inkscape:window-width="640"
     inkscape:window-height="480"
     id="namedview4" /><g
     id="g10"
     inkscape:groupmode="layer"
     inkscape:label="ink_ext_XXXXXX"
     transform="matrix(1.3333333,0,0,-1.3333333,0,346.66667)"><g
       id="g12"
       transform="scale(0.1)"><path
         d="m 2443.32,2585.27 -0.35,-0.82 -1.06,-2.34 -1.36,-3.13 -2.82,-6.28 -5.54,-12.58 -11.14,-25.16 -24.41,-54.53 -23.12,-50.9 -23.17,-49.92 -25.86,-54.18 -24.92,-50.51 -28.12,-54.76 -28.99,-53.79 -28.4,-50.16 -32.69,-54.37 -32.5,-50.75 -34.1,-49.8 -6.72,-9.38"
         style="fill:none;stroke:#5e81b5;stroke-width:11.52;stroke-linecap:square;stroke-linejoin:miter;stroke-miterlimit:3.25;stroke-dasharray:none;stroke-opacity:1"
         id="path14" /><path
         d="m 2106.88,1950.27 -72.27,-93.36 -47.62,-54.61 -51.29,-53.63 -52.42,-50 -3.98,-3.63"
         style="fill:none;stroke:#5e81b5;stroke-width:11.52;stroke-linecap:square;stroke-linejoin:miter;stroke-miterlimit:3.25;stroke-dasharray:none;stroke-opacity:1"
         id="path16" /><path
         d="m 1877.5,1693.4 -120.59,-99.61 -75.93,-54.84 -81.49,-53.87 -83.98,-50.24 -1.56,-0.86 -1.57,-0.82 -3.16,-1.71 -6.52,-3.4 -3.36,-1.72 -3.48,-1.68 -7.27,-3.44 -1.95,-0.82 -1.99,-0.86 -4.18,-1.72 -2.23,-0.82 -2.34,-0.86 -5.12,-1.72 -2.89,-0.86 -3.12,-0.82 -3.52,-0.85 -4.02,-0.86 -4.73,-0.86 -5.78,-0.86 -7.38,-0.82 -10.2,-0.86 -15.47,-0.86 -27.62,-0.86 -67.14,-0.86 -69.73,-0.12 5.82,-0.19"
         style="fill:none;stroke:#5e81b5;stroke-width:11.52;stroke-linecap:square;stroke-linejoin:miter;stroke-miterlimit:3.25;stroke-dasharray:none;stroke-opacity:1"
         id="path18" /><path
         d="m 1657.7,1403.09 -75.75,-0.59 -43.55,-0.86 -21.06,-0.86 -12.77,-0.82 -8.79,-0.86 -6.64,-0.86 -5.27,-0.86 -4.42,-0.82 -3.83,-0.86 -3.35,-0.86 -3.05,-0.86 -2.77,-0.86 -2.62,-0.82 -4.77,-1.71 -2.18,-0.86 -2.15,-0.86 -4.07,-1.68 -1.95,-0.86 -1.91,-0.86 -3.71,-1.68 -7.07,-3.4 -3.21,-1.6 -3.16,-1.6 -6.17,-3.17 -12.07,-6.36 -23.44,-12.7 -46.02,-25.43 -45.93,-25.55 -43.87,-24.33 -1.53,-0.86 -1.52,-0.82 -3.05,-1.68 -6.09,-3.4 -12.23,-6.76 -24.53,-13.51 -1.56,-0.86 -1.52,-0.86 -3.09,-1.68 -6.25,-3.36 -12.58,-6.8 -1.56,-0.82 -1.6,-0.86 -3.2,-1.68 -6.53,-3.4 -13.59,-6.75 -1.64,-0.78 -1.68,-0.79 -3.44,-1.56 -1.8,-0.82 -1.79,-0.78 -3.75,-1.56 -2,-0.78 -2.03,-0.82 -2.11,-0.78 -2.22,-0.79 -2.31,-0.78 -2.5,-0.78 -2.65,-0.82 -2.89,-0.78 -3.21,-0.78 -3.59,-0.78 -4.14,-0.78 -4.88,-0.82 -6.02,-0.79 -7.81,-0.78 -10.78,-0.78 -16.53,-0.78 -29.61,-0.78 -72.301,-0.82 -144.84,-0.47"
         style="fill:none;stroke:#5e81b5;stroke-width:11.52;stroke-linecap:square;stroke-linejoin:miter;stroke-miterlimit:3.25;stroke-dasharray:none;stroke-opacity:1"
         id="path20" /><path
         d="m 1294.61,1203.09 -96.84,-1.18 -22.38,-0.82 -13.51,-0.78 -9.3,-0.78 -6.92,-0.78 -5.43,-0.78 -4.53,-0.82 -3.86,-0.78 -3.4,-0.78 -3.05,-0.79 -2.73,-0.78 -2.58,-0.82 -2.38,-0.78 -4.38,-1.56 -2.07,-0.78 -1.95,-0.82 -3.75,-1.56 -1.8,-0.79 -1.76,-0.78 -3.4,-1.6 -6.48,-3.12 -12.07,-6.33 -91.56,-54.73 -80.941,-53.71 -69.301,-50.08 -68.707,-54.33 -55,-47.621"
         style="fill:none;stroke:#5e81b5;stroke-width:11.52;stroke-linecap:square;stroke-linejoin:miter;stroke-miterlimit:3.25;stroke-dasharray:none;stroke-opacity:1"
         id="path22" /><path
         d="m 712.699,912.969 -53.91,-51.168 -51.801,-53.949 -44.179,-50.313 -43.981,-54.57 -33.707,-45.239"
         style="fill:none;stroke:#5e81b5;stroke-width:11.52;stroke-linecap:square;stroke-linejoin:miter;stroke-miterlimit:3.25;stroke-dasharray:none;stroke-opacity:1"
         id="path24" /><path
         d="M 483.949,656.09 446.559,602.07 411.68,547.891 381.172,497.301 350,442.5 321.02,388.711 295.199,338.52 268.238,284.102 243.98,233.281 220.781,183.48 196.211,129.449 173.629,79.0195 173.238,78.1602 172.852,77.2695 161.129,50.8984 160.738,50 l -0.386,-0.8594 -2.34,-5.2695 -3.09,-7.0703 -0.391,-0.8594 -0.39,-0.9023 -2.34,-5.2696 -0.391,-0.8593 -0.39,-0.8985 -0.79,-1.7617 -0.39,-0.8594 -0.391,-0.9023 -0.347,-0.8594 -0.391,-0.8984"
         style="fill:none;stroke:#5e81b5;stroke-width:11.52;stroke-linecap:square;stroke-linejoin:miter;stroke-miterlimit:3.25;stroke-dasharray:none;stroke-opacity:1"
         id="path26" /><path
         d="m 538.711,1200.86 c 0,2.85 -1.133,5.59 -3.121,7.58 -2.039,2.03 -4.77,3.16 -7.621,3.16 -2.848,0 -5.59,-1.13 -7.617,-3.16 -2.032,-1.99 -3.161,-4.73 -3.161,-7.58 0,-2.89 1.129,-5.63 3.161,-7.62 2.027,-2.03 4.769,-3.16 7.617,-3.16 2.851,0 5.582,1.13 7.621,3.16 1.988,1.99 3.121,4.73 3.121,7.62 z"
         style="fill:#5e81b5;fill-opacity:1;fill-rule:evenodd;stroke:none"
         id="path28" /><path
         d="m 131.211,9.80078 1.801,0.78902 1.789,0.8204 3.558,1.5586 7.153,3.1601 14.289,6.3711 28.597,12.6992 57.422,25.4219 126.25,55.0779 121.719,51.41 125,50.43 92.621,35.551"
         style="fill:none;stroke:#5e81b5;stroke-width:11.52;stroke-linecap:square;stroke-linejoin:miter;stroke-miterlimit:3.25;stroke-dasharray:none;stroke-opacity:1"
         id="path30" /><path
         d="m 715.82,254.73 193.051,68.551 172.219,55.309 185.24,54.301 30.51,8.32 155.86,42.34 212.3,54.969 200.27,51.25 9.93,2.57"
         style="fill:none;stroke:#5e81b5;stroke-width:11.52;stroke-linecap:square;stroke-linejoin:miter;stroke-miterlimit:3.25;stroke-dasharray:none;stroke-opacity:1"
         id="path32" /><path
         d="m 1881.56,594.02 232.42,62.07"
         style="fill:none;stroke:#5e81b5;stroke-width:11.52;stroke-linecap:square;stroke-linejoin:miter;stroke-miterlimit:3.25;stroke-dasharray:none;stroke-opacity:1"
         id="path34" /><path
         d="m 2119.96,657.73 134.22,38.481 5.35,1.559 10.7,3.21 21.22,6.36 41.67,12.699 2.58,0.82 2.58,0.782 5.12,1.597 10.19,3.172 20.28,6.36 39.76,12.742 10.63,3.437 10.54,3.43 2.62,0.859 2.62,0.903 7.85,2.578 2.58,0.859 2.62,0.863 2.57,0.86 2.62,0.859 h 0.04"
         style="fill:none;stroke:#5e81b5;stroke-width:11.52;stroke-linecap:square;stroke-linejoin:miter;stroke-miterlimit:3.25;stroke-dasharray:none;stroke-opacity:1"
         id="path36" /><path
         d="m 133.711,761.84 0.16,0.039 7.731,2.57 5.16,1.762 5.078,1.719 5.109,1.718 10.16,3.442 2.5,0.859 2.539,0.852 5.043,1.719 10,3.48 19.84,6.879 38.91,13.781 2.379,0.86 2.34,0.859 4.692,1.68 9.339,3.402 18.547,6.758 36.371,13.551 70.231,27.07 123.051,50.512 123.75,54.769 75.238,35.231"
         style="fill:none;stroke:#5e81b5;stroke-width:11.52;stroke-linecap:square;stroke-linejoin:miter;stroke-miterlimit:3.25;stroke-dasharray:none;stroke-opacity:1"
         id="path38" /><path
         d="m 715.352,996.988 140.976,69.692 104.844,54.41 94.848,50.75 100.7,55.04 92.89,51.36 46.41,25.74 44.25,24.61 98.79,54.65 93.32,50.98 103.32,55.27 104.73,54.26 101.72,50.59 34.53,16.64"
         style="fill:none;stroke:#5e81b5;stroke-width:11.52;stroke-linecap:square;stroke-linejoin:miter;stroke-miterlimit:3.25;stroke-dasharray:none;stroke-opacity:1"
         id="path40" /><path
         d="m 1880.12,1612.66 193.83,87.77 121.87,50.23 4.3,1.72 4.33,1.68 8.67,3.4 17.5,6.84 35.59,13.59 2.27,0.86 2.22,0.86 4.53,1.72 9.11,3.4 18.32,6.79 37.34,13.64 2.23,0.78 2.18,0.82 4.46,1.56 8.86,3.2 17.97,6.33 2.27,0.82 2.26,0.78 4.54,1.6 9.1,3.17 18.36,6.37 2.34,0.78 2.31,0.78 4.64,1.6 9.3,3.16 2.34,0.82 2.35,0.79 4.72,1.6 9.42,3.16 2.38,0.78 2.38,0.82 2.35,0.78 1.56,0.51"
         style="fill:none;stroke:#5e81b5;stroke-width:11.52;stroke-linecap:square;stroke-linejoin:miter;stroke-miterlimit:3.25;stroke-dasharray:none;stroke-opacity:1"
         id="path42" /><path
         d="m 133.711,1847.85 3.051,0.98 2.379,0.82 2.379,0.78 2.429,0.78 4.801,1.6 9.691,3.21 5.231,1.71 5.277,1.72 10.621,3.44 21.45,6.88 43.71,13.78 90.739,27.54 136.601,39.18"
         style="fill:none;stroke:#5e81b5;stroke-width:11.52;stroke-linecap:square;stroke-linejoin:miter;stroke-miterlimit:3.25;stroke-dasharray:none;stroke-opacity:1"
         id="path44" /><path
         d="m 478.012,1951.91 228.707,61.14 3.711,0.93"
         style="fill:none;stroke:#5e81b5;stroke-width:11.52;stroke-linecap:square;stroke-linejoin:miter;stroke-miterlimit:3.25;stroke-dasharray:none;stroke-opacity:1"
         id="path46" /><path
         d="m 716.801,2015.66 401.249,103.17 177.11,47.97 27.34,7.38 185.59,54.37 158.67,50.67 157.73,55 51.68,19.06"
         style="fill:none;stroke:#5e81b5;stroke-width:11.52;stroke-linecap:square;stroke-linejoin:miter;stroke-miterlimit:3.25;stroke-dasharray:none;stroke-opacity:1"
         id="path48" /><path
         d="m 1880.59,2354.92 205.39,80.9 129.53,54.61 116.95,50.9 2.03,0.9 1.99,0.89 4.03,1.76 8.08,3.56 16.1,7.11 32.07,14.22 2.03,0.89 1.99,0.9 3.99,1.76 24.02,10.66 3.98,1.8 4.03,1.76 8,3.55 2,0.9 1.99,0.86 5.98,2.7 2.03,0.86 3.98,1.79"
         style="fill:none;stroke:#5e81b5;stroke-width:11.52;stroke-linecap:square;stroke-linejoin:miter;stroke-miterlimit:3.25;stroke-dasharray:none;stroke-opacity:1"
         id="path50" /><path
         d="m 1296.02,1303.98 5.7,3.21 5.7,3.16 11.45,6.37 22.89,12.69 45.82,25.39 92.26,50.82 207,110.16 3.12,1.6 3.16,1.6 6.29,3.21 12.66,6.44 25.55,12.85 52.22,25.71 3.36,1.64 3.32,1.6 6.68,3.2 13.48,6.45 27.3,12.85 30.79,14.14"
         style="fill:none;stroke:#5e81b5;stroke-width:11.52;stroke-linecap:square;stroke-linejoin:miter;stroke-miterlimit:3.25;stroke-dasharray:none;stroke-opacity:1"
         id="path52" /><path
         d="m 1882.03,1610.35 25.63,11.45 7.18,3.12 14.5,6.33 29.64,12.58 62.35,25.23 4.06,1.56 4.06,1.61 8.25,3.12 16.68,6.33 34.49,12.58 74.53,25.23 5.35,1.68 5.43,1.72 10.94,3.44 22.5,6.83 47.58,13.68 6.25,1.68 6.25,1.71 12.77,3.44 26.37,6.84 56.52,13.67 7.46,1.72 7.58,1.68 15.39,3.44 7.85,1.71 7.97,1.68 16.21,3.44 8.28,1.72 8.4,1.68 8.52,1.72 1.4,0.27"
         style="fill:none;stroke:#5e81b5;stroke-width:11.52;stroke-linecap:square;stroke-linejoin:miter;stroke-miterlimit:3.25;stroke-dasharray:none;stroke-opacity:1"
         id="path54" /><path
         d="m 139.691,1796.56 8.039,1.53 8.989,1.71 9.14,1.72 9.301,1.72 9.41,1.68 19.258,3.44 40.231,6.84 88.32,13.67 11.062,1.6 11.168,1.6 22.852,3.16 47.699,6.41 103.512,12.74 13.707,1.6 13.871,1.6 28.199,3.2 58.281,6.37 54.93,5.82"
         style="fill:none;stroke:#5e81b5;stroke-width:11.52;stroke-linecap:square;stroke-linejoin:miter;stroke-miterlimit:3.25;stroke-dasharray:none;stroke-opacity:1"
         id="path56" /><path
         d="m 729.691,1876.25 67.809,6.84 32.07,3.2 64.731,6.37 129.649,12.77 16.01,1.6 15.98,1.6 31.68,3.17 62.18,6.4 118.13,12.78 15.27,1.72 12.78,1.44 2.3,0.27 29.53,3.48 56.76,6.91 13.67,1.72 13.48,1.72 9.3,1.21"
         style="fill:none;stroke:#5e81b5;stroke-width:11.52;stroke-linecap:square;stroke-linejoin:miter;stroke-miterlimit:3.25;stroke-dasharray:none;stroke-opacity:1"
         id="path58" /><path
         d="m 1884.65,2035.39 29.18,7.89 6.05,1.72 11.96,3.4 23.24,6.76 43.9,13.59 79.57,27.15 4.65,1.72 4.65,1.68 9.18,3.4 18.01,6.79 34.73,13.56 65.11,27.15 3.67,1.6 3.64,1.6 7.19,3.16 14.29,6.33 27.89,12.66 53.67,25.31 3.25,1.6 3.28,1.56 6.48,3.17 12.89,6.36 25.39,12.66 3.13,1.56 3.16,1.61 6.25,3.16 12.39,6.33 24.53,12.65 3.32,1.72 13.12,6.88 3.24,1.72 6.53,3.43 3.24,1.72 2.23,1.17"
         style="fill:none;stroke:#5e81b5;stroke-width:11.52;stroke-linecap:square;stroke-linejoin:miter;stroke-miterlimit:3.25;stroke-dasharray:none;stroke-opacity:1"
         id="path60" /><path
         d="m 134.34,2271.48 1.25,0.67 3.199,1.72 3.242,1.68 12.809,6.87 19.109,10.31 25.192,13.75 3.129,1.68 9.371,5.16 12.461,6.88 24.726,13.75 48.942,27.46 2.82,1.6 2.851,1.6 16.989,9.61 22.539,12.81 44.883,25.67 89.296,51.28 10.942,6.25 10.93,6.29 21.921,12.58 43.899,25.16 5.469,3.12 5.511,3.13 11.059,6.29 22.07,12.58 44.449,25.15 3.051,1.68 3,1.72 6.063,3.4 12.187,6.83 3,1.68 3.051,1.72 6.129,3.4 3.051,1.72 3.05,1.68 6.09,3.44 3.09,1.68 3.039,1.72 2.422,1.36"
         style="fill:none;stroke:#5e81b5;stroke-width:11.52;stroke-linecap:square;stroke-linejoin:miter;stroke-miterlimit:3.25;stroke-dasharray:none;stroke-opacity:1"
         id="path62" /><path
         d="m 716.602,11.4492 0.82,0.461 3.047,1.7187 6.172,3.4024 3.089,1.6796 3.079,1.7188 6.171,3.3984 12.391,6.8321 3.078,1.7187 3.09,1.6797 6.211,3.4023 12.5,6.8399 25.039,13.6289 50.781,27.2695 2.969,1.6016 3.012,1.5976 5.969,3.1602 12.031,6.3711 24.219,12.7303 49.07,25.43 101.25,50.898 236.36,110.352 9.53,3.988 249.38,104.332 265.04,101.02 62.97,23.09"
         style="fill:none;stroke:#5e81b5;stroke-width:11.52;stroke-linecap:square;stroke-linejoin:miter;stroke-miterlimit:3.25;stroke-dasharray:none;stroke-opacity:1"
         id="path64" /><path
         d="m 2230,658.551 32.97,12.039 8.71,3.199 17.38,6.41 34.61,12.77 17.19,6.41 17.15,6.359 34.06,12.813 4.61,1.719 4.57,1.718 9.18,3.481 4.57,1.722 4.57,1.758 9.1,3.43 4.53,1.762 4.57,1.718 4.53,1.719 4.54,1.762 4.53,1.711 4.49,1.719 0.62,0.242"
         style="fill:none;stroke:#5e81b5;stroke-width:11.52;stroke-linecap:square;stroke-linejoin:miter;stroke-miterlimit:3.25;stroke-dasharray:none;stroke-opacity:1"
         id="path66" /><path
         d="m 135.512,746.328 4.289,1.641 4.539,1.761 8.941,3.43 17.848,6.961 35.43,13.828 4.382,1.711 4.368,1.762 8.793,3.437 17.418,6.95 34.531,13.832 67.777,27.738 4.102,1.672 4.058,1.719 8.172,3.402 16.25,6.797 32.18,13.59 63.051,27.191 121.211,54.41 117.347,55.469"
         style="fill:none;stroke:#5e81b5;stroke-width:11.52;stroke-linecap:square;stroke-linejoin:miter;stroke-miterlimit:3.25;stroke-dasharray:none;stroke-opacity:1"
         id="path68" /><path
         d="m 717.031,996.91 297.969,152.82 188.09,102.73 92.89,51.52 88.67,49.22 200.15,109.26 195.9,101.99 94.3,46.64"
         style="fill:none;stroke:#5e81b5;stroke-width:11.52;stroke-linecap:square;stroke-linejoin:miter;stroke-miterlimit:3.25;stroke-dasharray:none;stroke-opacity:1"
         id="path70" /><path
         d="m 1881.8,1614.38 132.22,62.3 3.71,1.68 7.43,3.4 14.92,6.76 30.15,13.59 61.53,27.11 3.9,1.72 3.91,1.68 7.85,3.4 15.74,6.75 31.8,13.6 64.92,27.11 3.83,1.56 3.83,1.6 23.2,9.49 31.21,12.66 3.95,1.56 3.94,1.6 7.89,3.17 15.82,6.33 32,12.61 4.02,1.6 4.02,1.57 8.05,3.16 16.21,6.33 4.06,1.6 4.07,1.56 8.16,3.17 4.1,1.6 4.06,1.56 8.21,3.17 4.1,1.6 1.87,0.7"
         style="fill:none;stroke:#5e81b5;stroke-width:11.52;stroke-linecap:square;stroke-linejoin:miter;stroke-miterlimit:3.25;stroke-dasharray:none;stroke-opacity:1"
         id="path72" /><path
         d="m 135.512,1865 6.008,2.3 4.14,1.57 8.289,3.16 4.141,1.6 4.14,1.57 8.321,3.16 16.719,6.33 9.058,3.43 9.102,3.4 18.281,6.88 36.801,13.71 74.41,27.46 27.066,9.88"
         style="fill:none;stroke:#5e81b5;stroke-width:11.52;stroke-linecap:square;stroke-linejoin:miter;stroke-miterlimit:3.25;stroke-dasharray:none;stroke-opacity:1"
         id="path74" /><path
         d="m 371.051,1952.73 338.008,122.19"
         style="fill:none;stroke:#5e81b5;stroke-width:11.52;stroke-linecap:square;stroke-linejoin:miter;stroke-miterlimit:3.25;stroke-dasharray:none;stroke-opacity:1"
         id="path76" /><path
         d="m 718.121,2078.24 315.399,119.1 261.68,108.99 0.78,0.35 218.86,101.33 3.56,1.72 3.51,1.72 7.07,3.43 14.03,6.88 27.81,13.79 54.65,27.57 3.4,1.72 10.08,5.16 13.39,6.88 26.61,13.78 52.38,27.58 3.05,1.6 3,1.61 6.06,3.2 12.03,6.44 23.94,12.86 2.97,1.6 2.97,1.64 5.94,3.2 11.83,6.45 23.6,12.85 5.86,3.2 5.86,3.24 11.68,6.41 2.93,1.64 2.89,1.6 5.82,3.2 2.93,1.61 2.89,1.6 2.89,1.64 2.93,1.6 2.03,1.13"
         style="fill:none;stroke:#5e81b5;stroke-width:11.52;stroke-linecap:square;stroke-linejoin:miter;stroke-miterlimit:3.25;stroke-dasharray:none;stroke-opacity:1"
         id="path78" /><path
         d="m 1881.37,11.4492 3.59,1.9922 2.89,1.6367 8.67,4.8008 2.86,1.6016 2.89,1.6093 5.74,3.2383 11.48,6.4024 2.81,1.6093 2.82,1.5586 5.62,3.1602 11.17,6.293 22.35,12.6172 44.41,25.2304 88.13,50.4728 2.97,1.719 3,1.679 5.94,3.442 11.91,6.828 23.79,13.68 47.66,27.378 3.01,1.723 2.97,1.68 5.97,3.429 11.96,6.84 23.94,13.668 48.17,27.383 2.81,1.609 2.85,1.598 5.63,3.16 11.36,6.41 22.78,12.774 5.7,3.207 5.7,3.16 11.49,6.41 23.12,12.77 2.89,1.601 2.89,1.559 5.82,3.211 11.68,6.398 2.93,1.563 2.93,1.609 5.9,3.199 11.76,6.371 14.84,8 3.01,1.61 5.94,3.16 6.01,3.199 1.53,0.821"
         style="fill:none;stroke:#5e81b5;stroke-width:11.52;stroke-linecap:square;stroke-linejoin:miter;stroke-miterlimit:3.25;stroke-dasharray:none;stroke-opacity:1"
         id="path80" /><path
         d="m 134.34,339.84 4.25,2.269 6.058,3.161 3.282,1.761 3.32,1.719 6.602,3.441 13.277,6.95 26.922,13.828 55.39,27.652 3.547,1.758 10.672,5.16 14.41,6.949 29.41,13.832 61.489,27.66 3.91,1.719 3.941,1.68 7.891,3.391 16.059,6.8 33.039,13.59 4.222,1.68 4.258,1.719 8.59,3.402 17.461,6.801 36.25,13.59 4.691,1.679 4.688,1.719 9.531,3.359 19.41,6.801 40.711,13.59 90.469,27.191 5.699,1.559 5.781,1.602 11.758,3.168 6.012,1.601"
         style="fill:none;stroke:#5e81b5;stroke-width:11.52;stroke-linecap:square;stroke-linejoin:miter;stroke-miterlimit:3.25;stroke-dasharray:none;stroke-opacity:1"
         id="path82" /><path
         d="m 1170.98,658.551 73.63,9.219 14.3,1.718 29.25,3.442 8.01,0.898 52.74,5.973 129.61,13.75 277.14,27.5 17.35,1.719 17.26,1.679 34.26,3.442 37.81,3.871"
         style="fill:none;stroke:#5e81b5;stroke-width:11.52;stroke-linecap:square;stroke-linejoin:miter;stroke-miterlimit:3.25;stroke-dasharray:none;stroke-opacity:1"
         id="path84" /><path
         d="m 1894.34,735.039 124.68,13.481 15.16,1.71 14.92,1.719 29.3,3.442 56.29,6.879 103.16,13.75 11.21,1.601 11.1,1.598 21.68,3.203 41.52,6.406 10.04,1.602 9.88,1.601 19.3,3.199 37.07,6.45 8.94,1.601 8.79,1.598 8.71,1.601 8.6,1.61 8.43,1.601 8.36,1.598 0.82,0.16"
         style="fill:none;stroke:#5e81b5;stroke-width:11.52;stroke-linecap:square;stroke-linejoin:miter;stroke-miterlimit:3.25;stroke-dasharray:none;stroke-opacity:1"
         id="path86" /><path
         d="m 139.57,814.73 14.692,2.969 15.539,3.199 29.929,6.403 7.258,1.609 7.153,1.641 14.097,3.199 27.192,6.41 50.941,12.809 90.578,25.66 5.16,1.57 5.082,1.602 10.079,3.121 19.718,6.289 37.703,12.578 69.918,25.16 4.141,1.563 4.141,1.597 8.199,3.121 16.18,6.29 31.402,12.582 59.769,25.16 3.899,1.718 3.91,1.68 7.77,3.43 15.39,6.801 10.551,4.769"
         style="fill:none;stroke:#5e81b5;stroke-width:11.52;stroke-linecap:square;stroke-linejoin:miter;stroke-miterlimit:3.25;stroke-dasharray:none;stroke-opacity:1"
         id="path88" /><path
         d="m 717.27,1000.94 70.429,32.89 110.031,54.61 192.23,101.83 3.28,1.8 3.24,1.76 6.53,3.55 13.01,7.11 25.89,14.22 51.57,28.44 3.24,1.76 3.2,1.79 6.41,3.56 12.85,7.11 25.62,14.22 3.21,1.75 3.2,1.8 19.22,10.66 3.16,1.76 3.21,1.76 6.4,3.56 3.21,1.79 3.2,1.76 3.2,1.8 3.21,1.75"
         style="fill:none;stroke:#5e81b5;stroke-width:11.52;stroke-linecap:square;stroke-linejoin:miter;stroke-miterlimit:3.25;stroke-dasharray:none;stroke-opacity:1"
         id="path90" /><path
         d="m 1445.94,1952.73 42.54,5.9 12.11,1.72 11.91,1.72 23.32,3.48 44.45,6.91 81.02,13.83 9.45,1.72 9.34,1.72 18.2,3.47 34.84,6.92 64.18,13.83 7.54,1.71 7.46,1.72 14.61,3.48 28.21,6.91 16.91,4.3"
         style="fill:none;stroke:#5e81b5;stroke-width:11.52;stroke-linecap:square;stroke-linejoin:miter;stroke-miterlimit:3.25;stroke-dasharray:none;stroke-opacity:1"
         id="path92" /><path
         d="m 719.961,575.898 57.269,14.141 6.79,1.563 6.878,1.597 13.981,3.172 29.07,6.328 62.731,12.692 8.32,1.558 8.398,1.602 17.223,3.168 35.899,6.332 78.17,12.648 10.43,1.602 10.54,1.609 21.61,3.16 45.11,6.328 13.67,1.832"
         style="fill:none;stroke:#5e81b5;stroke-width:11.52;stroke-linecap:square;stroke-linejoin:miter;stroke-miterlimit:3.25;stroke-dasharray:none;stroke-opacity:1"
         id="path94" /><path
         d="m 1882.93,533.09 239.22,86.359 8.87,3.211 17.69,6.399 35.31,12.781 36.92,13.39"
         style="fill:none;stroke:#5e81b5;stroke-width:11.52;stroke-linecap:square;stroke-linejoin:miter;stroke-miterlimit:3.25;stroke-dasharray:none;stroke-opacity:1"
         id="path96" /><path
         d="m 1296.02,1303.98 -2.9,-1.56 -2.85,-1.6 -5.7,-3.16 -11.45,-6.37 -22.85,-12.7 -45.86,-25.39 -92.26,-50.82 -206.88,-110.15 -188.079,-92.07"
         style="fill:none;stroke:#5e81b5;stroke-width:11.52;stroke-linecap:square;stroke-linejoin:miter;stroke-miterlimit:3.25;stroke-dasharray:none;stroke-opacity:1"
         id="path98" /><path
         d="m 710.039,996.84 -23.32,-10.629 -6.949,-3.16 -14.11,-6.289 -28.59,-12.621 -59.179,-25.192 -3.789,-1.57 -3.793,-1.598 -7.649,-3.121 -15.43,-6.332 -31.531,-12.578 -65.66,-25.23 -4.57,-1.719 -4.61,-1.68 -9.3,-3.441 -18.75,-6.84 -38.469,-13.668 -4.891,-1.723 -4.918,-1.679 -9.883,-3.43 -20.078,-6.84 -41.129,-13.672 -10.472,-3.437 -10.59,-3.403 -21.481,-6.828 -5.386,-1.719 -5.473,-1.722 -10.937,-3.399 -22.192,-6.84 -5.582,-1.71 -5.629,-1.719 -11.32,-3.403 -5.668,-1.718 -5.742,-1.719 -11.489,-3.402 -5.781,-1.719 -5.82,-1.711 -5.82,-1.68 -5.86,-1.719 -1.289,-0.39"
         style="fill:none;stroke:#5e81b5;stroke-width:11.52;stroke-linecap:square;stroke-linejoin:miter;stroke-miterlimit:3.25;stroke-dasharray:none;stroke-opacity:1"
         id="path100" /><path
         d="m 2455.08,782.301 -5,-1.442 -5.94,-1.718 -11.17,-3.2 -11.21,-3.211 -22.66,-6.359 -46.25,-12.781 -95.58,-25.5 -199.46,-51.059 -13.67,-3.441 -13.67,-3.469 -27.31,-6.922 -18.36,-4.648"
         style="fill:none;stroke:#5e81b5;stroke-width:11.52;stroke-linecap:square;stroke-linejoin:miter;stroke-miterlimit:3.25;stroke-dasharray:none;stroke-opacity:1"
         id="path102" /><path
         d="m 1872.07,629.531 -36.29,-9.531 -6.52,-1.719 -12.97,-3.48 -25.67,-6.91 -50.39,-13.832 -96.05,-27.649 -5.66,-1.68 -5.67,-1.718 -11.21,-3.403 -22.15,-6.8 -42.93,-13.547 -80.7,-27.153 -4.84,-1.718 -4.77,-1.68 -9.49,-3.402 -18.71,-6.789 -36.14,-13.598 -67.53,-27.152 -3.76,-1.559 -3.74,-1.602 -7.43,-3.16 -14.57,-6.328 -8.75,-3.91 -19.53,-8.75 -53.16,-25.352 -3.17,-1.558 -3.2,-1.602 -6.25,-3.168 -12.38,-6.332 -24.06,-12.648 -45.43,-25.321 -2.97,-1.71 -8.79,-5.161 -11.49,-6.879 -22.38,-13.75 -42.3,-27.46 -76.329,-54.918 -8.281,-6.403 -8.172,-6.41 -15.968,-12.809 -30.79,-25.671 -57.218,-51.289 -3.364,-3.122 -3.32,-3.168 -6.598,-6.25 -13.011,-12.57 -25.309,-25.16 -3.129,-3.1289 -3.082,-3.1602 -6.14,-6.25 -12.149,-12.582 -23.75,-25.1484 -1.558,-1.6797 -1.602,-1.7227 -3.16,-3.3984 -6.25,-6.8399 -1.57,-1.7187 -1.559,-1.6719 -3.121,-3.3984 -1.57,-1.7227 -1.52,-1.7187 -3.09,-3.3985 -1.558,-1.7226 -1.524,-1.6797 -1.25,-1.3594"
         style="fill:none;stroke:#5e81b5;stroke-width:11.52;stroke-linecap:square;stroke-linejoin:miter;stroke-miterlimit:3.25;stroke-dasharray:none;stroke-opacity:1"
         id="path104" /><path
         d="m 712.109,2596.56 -0.39,-0.47 -1.52,-1.71 -3.09,-3.4 -1.519,-1.72 -1.488,-1.68 -3.051,-3.44 -6.051,-6.8 -1.48,-1.72 -1.532,-1.67 -3.008,-3.44 -5.968,-6.8 -11.883,-13.63 -23.43,-27.31 -1.371,-1.56 -1.328,-1.6 -2.73,-3.16 -5.391,-6.37 -10.75,-12.74 -21.359,-25.46 -42.391,-50.9 -92.609,-110.32 -96.411,-108.32 -99.839,-101.05 -1.84,-1.68 -1.801,-1.72 -3.629,-3.44 -7.301,-6.83 -14.847,-13.71 -30.582,-27.39 -3.911,-3.43 -3.949,-3.4 -7.89,-6.88 -16.09,-13.67 -2.071,-1.72 -2.031,-1.72 -4.098,-3.43 -8.25,-6.84 -16.789,-13.71 -3.992,-3.2 -3.98,-3.17 -3.989,-3.2 -2.031,-1.6 -1.129,-0.9"
         style="fill:none;stroke:#5e81b5;stroke-width:11.52;stroke-linecap:square;stroke-linejoin:miter;stroke-miterlimit:3.25;stroke-dasharray:none;stroke-opacity:1"
         id="path106" /><path
         d="m 2423.83,1949.45 -16.1,-12.07 -4.33,-3.16 -8.71,-6.41 -17.7,-12.77 -36.44,-25.59 -2.5,-1.72 -2.54,-1.75 -5.08,-3.44 -10.2,-6.92 -20.78,-13.86 -42.73,-27.7 -90.35,-55.43 -193.09,-108.79 -91.8,-49.25"
         style="fill:none;stroke:#5e81b5;stroke-width:11.52;stroke-linecap:square;stroke-linejoin:miter;stroke-miterlimit:3.25;stroke-dasharray:none;stroke-opacity:1"
         id="path108" /><path
         d="m 1875.27,1617.3 -298.67,-159.02 -187.69,-102.73 -92.89,-51.57 -88.68,-49.18 -199.68,-109.25 -191.211,-102 -99.73,-52.851"
         style="fill:none;stroke:#5e81b5;stroke-width:11.52;stroke-linecap:square;stroke-linejoin:miter;stroke-miterlimit:3.25;stroke-dasharray:none;stroke-opacity:1"
         id="path110" /><path
         d="M 710.512,987.379 417.5,824.531 l -2.621,-1.601 -2.649,-1.559 -5.281,-3.172 -10.5,-6.32 -20.711,-12.66 -40.508,-25.309 -2.46,-1.57 -2.5,-1.602 -4.918,-3.16 -9.84,-6.289 -19.383,-12.66 -37.731,-25.309 -10,-6.871 -9.878,-6.84 -19.461,-13.75 -2.379,-1.679 -2.418,-1.719 -4.774,-3.441 -9.488,-6.872 -18.629,-13.707 -4.609,-3.441 -4.571,-3.441 -4.031,-3.008"
         style="fill:none;stroke:#5e81b5;stroke-width:11.52;stroke-linecap:square;stroke-linejoin:miter;stroke-miterlimit:3.25;stroke-dasharray:none;stroke-opacity:1"
         id="path112" /><path
         d="m 2458.71,628.359 -1.37,-1.089 -2.18,-1.68 -6.45,-5.16 -8.48,-6.879 -1.99,-1.602 -1.95,-1.597 -3.95,-3.204 -7.77,-6.41 -15.35,-12.769 -29.77,-25.629 -56.29,-51.25 -99.88,-100.43 -97.34,-108.98 -85.51,-101.68 -2.89,-3.441 -2.85,-3.438 -5.71,-6.91 -11.48,-13.75 -22.93,-27.582 -2.89,-3.43 -2.85,-3.437 -5.78,-6.883 -11.57,-13.789 -23.28,-27.5705 -2.73,-3.2109 -2.77,-3.1992 -5.47,-6.4492 -11.1,-12.8516 -1.36,-1.6367 -1.41,-1.6016 -2.77,-3.1992 -5.59,-6.4492 -11.25,-12.8516 -1.41,-1.6015 -1.44,-1.6407 -2.81,-3.1992 -5.71,-6.4492 -1.44,-1.6016 -1.41,-1.5976 -4.33,-4.8086 -1.41,-1.6406 -2.89,-3.2032 -1.02,-1.1289"
         style="fill:none;stroke:#5e81b5;stroke-width:11.52;stroke-linecap:square;stroke-linejoin:miter;stroke-miterlimit:3.25;stroke-dasharray:none;stroke-opacity:1"
         id="path114" /><path
         d="m 1876.91,2596.56 -1.83,-2.03 -2.89,-3.2 -2.93,-3.21 -1.45,-1.6 -1.48,-1.64 -2.93,-3.2 -5.9,-6.45 -2.89,-3.12 -8.79,-9.49 -11.84,-12.62 -24.25,-25.2 -51.02,-50.46 -3.59,-3.44 -3.64,-3.4 -7.3,-6.84 -14.84,-13.71 -30.79,-27.34 -3.98,-3.44 -3.98,-3.4 -8.05,-6.83 -16.45,-13.71 -34.29,-27.35 -4.14,-3.2 -4.18,-3.2 -8.4,-6.37 -17.23,-12.77 -36.09,-25.55 -2.31,-1.6 -2.34,-1.6 -4.73,-3.17 -9.53,-6.4 -19.57,-12.78 -41.21,-25.51 -2.93,-1.75 -2.89,-1.72 -5.9,-3.48 -11.91,-6.91 -24.57,-13.83 -52.35,-27.7 -13.82,-6.91 -14.11,-6.91 -29.21,-13.83 -29.11,-12.89 -33.39,-14.81 -4.03,-1.68 -4.02,-1.72 -8.17,-3.36 -16.6,-6.79 -34.37,-13.6 -73.56,-27.18 -4.8,-1.68 -4.85,-1.72 -9.76,-3.4 -19.88,-6.8 -41.02,-13.55 -87.23,-27.19 -5.309,-1.6 -5.312,-1.56 -10.699,-3.17 -21.68,-6.33 -44.418,-12.69 -92.582,-25.35 -53.668,-14.18"
         style="fill:none;stroke:#5e81b5;stroke-width:11.52;stroke-linecap:square;stroke-linejoin:miter;stroke-miterlimit:3.25;stroke-dasharray:none;stroke-opacity:1"
         id="path116" /><path
         d="m 707.27,1975.16 -87.11,-22.43"
         style="fill:none;stroke:#5e81b5;stroke-width:11.52;stroke-linecap:square;stroke-linejoin:miter;stroke-miterlimit:3.25;stroke-dasharray:none;stroke-opacity:1"
         id="path118" /><path
         d="m 607.191,1949.45 -43.211,-10.93 -13.55,-3.44 -27.192,-6.88 -54.258,-13.75 -107.218,-27.5 -13.211,-3.43 -13.121,-3.44 -26.129,-6.88 -51.41,-13.71 -6.371,-1.72 -6.321,-1.72 -12.578,-3.43 -24.961,-6.88 -12.351,-3.44 -12.258,-3.43 -24.262,-6.88 -5.629,-1.6 -5.582,-1.6 -5.547,-1.6 -5.121,-1.49"
         style="fill:none;stroke:#5e81b5;stroke-width:11.52;stroke-linecap:square;stroke-linejoin:miter;stroke-miterlimit:3.25;stroke-dasharray:none;stroke-opacity:1"
         id="path120" /><path
         d="m 2455.12,1822.42 -5.63,-1.64 -5.51,-1.6 -10.86,-3.2 -10.82,-3.25 -21.4,-6.4 -10.55,-3.21 -10.51,-3.2 -20.74,-6.4 -40.51,-12.86 -9.92,-3.2 -9.84,-3.2 -19.49,-6.41 -38.01,-12.85 -72.58,-25.62 -4.3,-1.61 -4.29,-1.56 -8.52,-3.12 -16.87,-6.29 -33.01,-12.58 -63.4,-25.16 -117.62,-50.31 -38.75,-17.58"
         style="fill:none;stroke:#5e81b5;stroke-width:11.52;stroke-linecap:square;stroke-linejoin:miter;stroke-miterlimit:3.25;stroke-dasharray:none;stroke-opacity:1"
         id="path122" /><path
         d="m 1874.8,1607.85 -372.77,-190.15 -3.28,-1.76 -3.24,-1.8 -6.53,-3.55 -13,-7.07 -25.9,-14.22 -51.56,-28.44 -3.25,-1.8 -3.2,-1.76 -6.41,-3.55 -12.85,-7.11 -25.62,-14.22 -3.21,-1.76 -3.2,-1.79 -6.4,-3.56 -12.78,-7.11 -3.2,-1.75 -3.2,-1.8 -6.41,-3.56 -3.2,-1.75 -3.21,-1.8 -3.2,-1.76 -3.16,-1.8"
         style="fill:none;stroke:#5e81b5;stroke-width:11.52;stroke-linecap:square;stroke-linejoin:miter;stroke-miterlimit:3.25;stroke-dasharray:none;stroke-opacity:1"
         id="path124" /><path
         d="m 1971.84,655.23 -87.11,-22.378"
         style="fill:none;stroke:#5e81b5;stroke-width:11.52;stroke-linecap:square;stroke-linejoin:miter;stroke-miterlimit:3.25;stroke-dasharray:none;stroke-opacity:1"
         id="path126" /><path
         d="m 2458.67,1976.33 -2.77,-2.19 -4.06,-3.2 -2.04,-1.56 -12.42,-9.61 -8.36,-6.41 -0.82,-0.63"
         style="fill:none;stroke:#5e81b5;stroke-width:11.52;stroke-linecap:square;stroke-linejoin:miter;stroke-miterlimit:3.25;stroke-dasharray:none;stroke-opacity:1"
         id="path128" /><path
         d="m 163.789,655.23 -2.93,-2.218 -2.269,-1.723 -4.449,-3.437 -8.911,-6.832 -4.371,-3.442 -2.23,-1.719 -2.18,-1.718 -2.148,-1.719 -0.981,-0.742"
         style="fill:none;stroke:#5e81b5;stroke-width:11.52;stroke-linecap:square;stroke-linejoin:miter;stroke-miterlimit:3.25;stroke-dasharray:none;stroke-opacity:1"
         id="path130" /><path
         d="m 1296.02,9.80078 2.5,0.78902 2.5,0.8204 5,1.5586 10,3.1601 20,6.3711 40,12.6992 79.84,25.4219 172.23,55.0779 159.14,51.41 88.63,28.911"
         style="fill:none;stroke:#5e81b5;stroke-width:11.52;stroke-linecap:square;stroke-linejoin:miter;stroke-miterlimit:3.25;stroke-dasharray:none;stroke-opacity:1"
         id="path132" /><path
         d="m 1880.9,197.66 227.93,74.57 157.97,51.051 2.69,0.86 2.74,0.859 5.43,1.719 10.89,3.48 21.88,6.91 44.22,13.832 2.77,0.86 2.81,0.859 5.59,1.75 11.21,3.442 22.54,6.918 2.85,0.851 2.81,0.859 5.71,1.758 14.26,4.301 2.89,0.859 5.74,1.762 11.52,3.43 2.85,0.859 2.82,0.86 2.85,0.82 2.85,0.859 1.29,0.391"
         style="fill:none;stroke:#5e81b5;stroke-width:11.52;stroke-linecap:square;stroke-linejoin:miter;stroke-miterlimit:3.25;stroke-dasharray:none;stroke-opacity:1"
         id="path134" /><path
         d="m 134.02,384.02 1.718,0.511 2.891,0.86 2.851,0.859 2.899,0.82 5.781,1.719 11.602,3.402 2.886,0.821 2.93,0.859 5.82,1.719 11.762,3.359 23.75,6.789 3,0.864 2.969,0.859 6.019,1.68 12.114,3.398 24.527,6.801 50.352,13.551 2.968,0.82 9.02,2.34 12.152,3.211 24.649,6.328 50.898,12.648 3.281,0.782 3.243,0.781 6.597,1.609 13.25,3.16 26.992,6.328 56.25,12.653 3.899,0.859 3.949,0.86 7.93,1.718 16.051,3.442 32.89,6.871 69.34,13.719 4.488,0.859 4.532,0.851 9.109,1.719 18.43,3.442 21.211,3.871"
         style="fill:none;stroke:#5e81b5;stroke-width:11.52;stroke-linecap:square;stroke-linejoin:miter;stroke-miterlimit:3.25;stroke-dasharray:none;stroke-opacity:1"
         id="path136" /><path
         d="m 718.199,523.398 88.25,15.122 4.922,0.781 4.918,0.82 9.922,1.598 20.117,3.203 41.402,6.406 87.469,12.813 193.591,25.629 6.29,0.82 18.98,2.34 25.59,3.121 51.91,6.289 24.69,2.93 81.56,9.652 215.08,25.117 14.38,1.723 14.33,1.718 28.44,3.399 56.05,6.832 19.3,2.379"
         style="fill:none;stroke:#5e81b5;stroke-width:11.52;stroke-linecap:square;stroke-linejoin:miter;stroke-miterlimit:3.25;stroke-dasharray:none;stroke-opacity:1"
         id="path138" /><path
         d="m 1884.45,676.719 124.07,17.89 5.23,0.782 5.2,0.82 10.31,1.559 20.31,3.21 39.41,6.36 74.22,12.699 4.42,0.82 4.41,0.782 8.79,1.597 17.27,3.172 33.51,6.36 63.24,12.742 4.11,0.859 12.18,2.578 15.98,3.43 31.01,6.922 7.58,1.719 7.46,1.71 14.81,3.481 28.71,6.879 7.03,1.711 6.95,1.719 6.88,1.718 6.84,1.762 3.39,0.859 6.72,1.719 3.09,0.781"
         style="fill:none;stroke:#5e81b5;stroke-width:11.52;stroke-linecap:square;stroke-linejoin:miter;stroke-miterlimit:3.25;stroke-dasharray:none;stroke-opacity:1"
         id="path140" /><path
         d="m 134.41,785 0.551,0.16 3.277,0.86 3.321,0.859 3.281,0.851 9.73,2.579 12.809,3.48 25.043,6.871 6.019,1.719 5.969,1.68 11.84,3.402 23.129,6.758 44.332,13.551 82.23,27.07 136.047,50.512 130.282,54.769 79.57,36.328"
         style="fill:none;stroke:#5e81b5;stroke-width:11.52;stroke-linecap:square;stroke-linejoin:miter;stroke-miterlimit:3.25;stroke-dasharray:none;stroke-opacity:1"
         id="path142" /><path
         d="m 715.352,998.09 140.429,68.59 105.239,54.41 94.96,50.75 100.74,55.04 92.89,51.36 46.41,25.74 44.25,24.61 98.79,54.65 93.36,50.98 103.44,55.27 105.12,54.26 102.81,50.59 32.85,15.58"
         style="fill:none;stroke:#5e81b5;stroke-width:11.52;stroke-linecap:square;stroke-linejoin:miter;stroke-miterlimit:3.25;stroke-dasharray:none;stroke-opacity:1"
         id="path144" /><path
         d="m 1880.16,1611.56 204.29,88.87 134.38,50.23 4.92,1.72 4.92,1.68 9.96,3.4 20.24,6.84 41.99,13.59 2.69,0.86 2.74,0.86 5.43,1.72 10.98,3.4 22.38,6.79 46.8,13.64 2.81,0.78 2.81,0.82 5.66,1.56 11.49,3.2 2.93,0.78 2.89,0.79 5.86,1.6 11.83,3.16 2.97,0.82 6.02,1.56 3.01,0.82 6.09,1.57 1.37,0.35"
         style="fill:none;stroke:#5e81b5;stroke-width:11.52;stroke-linecap:square;stroke-linejoin:miter;stroke-miterlimit:3.25;stroke-dasharray:none;stroke-opacity:1"
         id="path146" /><path
         d="m 134.41,1824.65 4.57,1.17 6.219,1.56 12.61,3.21 3.171,0.78 3.2,0.78 6.41,1.6 13.039,3.16 26.723,6.37 56.367,12.74 3.941,0.86 3.988,0.85 8.051,1.72 16.321,3.44 33.71,6.88 71.84,13.78 4.692,0.86 4.718,0.86 9.54,1.72 19.371,3.44 40.078,6.91 85.582,13.75 5.238,0.82 5.27,0.82 10.589,1.61 21.481,3.2 44.262,6.44 52.187,7.27"
         style="fill:none;stroke:#5e81b5;stroke-width:11.52;stroke-linecap:square;stroke-linejoin:miter;stroke-miterlimit:3.25;stroke-dasharray:none;stroke-opacity:1"
         id="path148" /><path
         d="m 866.641,1951.91 427.929,50.82 86.76,10.32 6.99,0.86 6.91,0.82 13.83,1.72 27.35,3.43 53.59,6.84 102.11,13.67 12.27,1.72 12.14,1.72 23.95,3.4 46.6,6.83 87.81,13.71 4.92,0.78 4.89,0.83 9.72,1.56 19.14,3.2 37.27,6.41 22.97,4.02"
         style="fill:none;stroke:#5e81b5;stroke-width:11.52;stroke-linecap:square;stroke-linejoin:miter;stroke-miterlimit:3.25;stroke-dasharray:none;stroke-opacity:1"
         id="path150" /><path
         d="m 1882.97,2086.25 166.01,32.58 4.03,0.86 4.02,0.9 8.01,1.71 15.82,3.44 30.94,6.96 59.18,13.82 7.18,1.72 7.11,1.72 14.14,3.48 27.74,6.91 53.59,13.83 6.41,1.72 6.4,1.68 12.66,3.4 25.04,6.79 6.17,1.72 6.17,1.68 12.23,3.4 24.18,6.8 2.97,0.86 3.01,0.82 5.97,1.72 11.84,3.39 2.97,0.86 2.93,0.82 5.9,1.72 11.68,3.4 2.93,0.86 2.89,0.82 5.82,1.72 2.89,0.86 2.89,0.82 5.74,1.72 2.89,0.82 2.85,0.86 1.84,0.54"
         style="fill:none;stroke:#5e81b5;stroke-width:11.52;stroke-linecap:square;stroke-linejoin:miter;stroke-miterlimit:3.25;stroke-dasharray:none;stroke-opacity:1"
         id="path152" /><path
         d="m 133.98,2225.62 1.219,0.36 2.891,0.86 5.66,1.71 5.309,1.57 5.281,1.6 10.539,3.16 20.941,6.33 41.289,12.7 80.821,25.31 170.468,55 156.801,51.29 75.891,24.84"
         style="fill:none;stroke:#5e81b5;stroke-width:11.52;stroke-linecap:square;stroke-linejoin:miter;stroke-miterlimit:3.25;stroke-dasharray:none;stroke-opacity:1"
         id="path154" /><path
         d="m 716.129,2411.99 241.883,78.44 159.138,50.9 2.77,0.9 2.81,0.89 5.55,1.76 78.2,24.89 2.82,0.89 2.77,0.9 5.59,1.76 11.21,3.56 22.34,7.1 5.63,1.8 5.58,1.76 11.21,3.55 2.78,0.9 2.81,0.86 5.58,1.8 2.82,0.9 2.77,0.86 5.63,1.79"
         style="fill:none;stroke:#5e81b5;stroke-width:11.52;stroke-linecap:square;stroke-linejoin:miter;stroke-miterlimit:3.25;stroke-dasharray:none;stroke-opacity:1"
         id="path156" /><path
         d="m 1738.63,657.73 81.84,10.43 6.52,0.86 12.89,1.718 25.51,3.403 6.91,0.937"
         style="fill:none;stroke:#5e81b5;stroke-width:11.52;stroke-linecap:square;stroke-linejoin:miter;stroke-miterlimit:3.25;stroke-dasharray:none;stroke-opacity:1"
         id="path158" /><path
         d="m 719.691,1932.93 133.668,17.34"
         style="fill:none;stroke:#5e81b5;stroke-width:11.52;stroke-linecap:square;stroke-linejoin:miter;stroke-miterlimit:3.25;stroke-dasharray:none;stroke-opacity:1"
         id="path160" /><path
         d="m 1296.02,2598.2 0.35,-0.78 0.35,-0.82 0.7,-1.56 1.45,-3.2 2.85,-6.33 5.66,-12.7 11.14,-25.43 0.35,-0.86 0.39,-0.86 0.74,-1.71 4.34,-10.32 5.66,-13.79 0.35,-0.86 0.31,-0.86 0.71,-1.71 1.36,-3.44 2.66,-6.88 5.16,-13.79 0.27,-0.78 0.31,-0.82 0.55,-1.6 1.17,-3.2 2.23,-6.45 4.22,-12.85 0.23,-0.82 0.27,-0.78 0.47,-1.6 1.02,-3.24 1.87,-6.41 3.56,-12.85 0.19,-0.82 0.2,-0.78 0.43,-1.57 0.78,-3.16 1.48,-6.29 0.4,-1.56 0.35,-1.6 0.66,-3.13 1.29,-6.33 0.62,-3.12 0.59,-3.16 1.09,-6.29 0.12,-0.82 0.12,-0.79 0.27,-1.56 0.47,-3.16 0.86,-6.29 0.12,-0.86 0.08,-0.86 0.23,-1.72 0.35,-3.4 0.12,-0.86 0.23,-2.57 0.32,-3.4 0.15,-1.72 0.12,-1.72 0.16,-1.72 0.11,-1.68 0.08,-1.72 0.12,-1.72 0.08,-1.72 0.07,-1.68 0.08,-1.71 v -0.86 l 0.08,-1.72 v -0.86 l 0.04,-0.82 v -0.86 l 0.04,-0.86 v -2.58 l 0.04,-0.86 v -2.54 l -0.04,-0.86 v -2.57 l -0.04,-0.86 v -0.86 l -0.04,-0.82 v -0.86 l -0.08,-1.72 v -0.86 l -0.11,-2.58 -0.08,-1.68 -0.04,-0.82 -0.08,-0.78 -0.08,-1.6 -0.04,-0.78 -0.08,-0.82 -0.11,-1.6 -0.04,-0.79 -0.08,-0.82 -0.12,-1.56 -0.31,-3.2 -0.08,-0.78 -0.08,-0.82 -0.19,-1.61 -0.35,-3.16 -0.12,-0.82 -0.12,-0.78 -0.19,-1.6 -0.47,-3.21 -0.12,-0.78 -0.12,-0.82 -0.27,-1.56 -0.51,-3.2 -0.15,-0.82 -0.16,-0.78 -0.27,-1.61 -0.63,-3.16 -0.15,-0.82 -0.16,-0.78 -1.05,-4.81 -1.57,-6.36 -0.19,-0.86 -0.24,-0.86 -0.47,-1.76 -0.93,-3.44 -2.11,-6.91 -0.55,-1.72 -0.59,-1.76 -1.17,-3.44 -2.5,-6.91 -0.35,-0.86 -0.31,-0.86 -0.7,-1.76 -1.41,-3.43 -2.97,-6.92 -6.72,-13.83 -0.86,-1.71 -0.94,-1.68 -1.83,-3.4 -3.91,-6.8 -0.5,-0.86 -0.51,-0.82 -1.06,-1.72 -2.11,-3.4 -4.41,-6.75 -1.17,-1.72 -1.17,-1.68 -2.39,-3.4 -5,-6.8 -10.82,-13.59 -0.7,-0.78 -0.66,-0.78 -1.37,-1.61 -2.78,-3.16 -1.75,-1.95 -3.99,-4.38 -12.34,-12.65 -0.82,-0.79 -0.82,-0.82 -1.64,-1.56 -3.36,-3.16 -6.96,-6.33 -14.84,-12.7 -1.05,-0.82 -1.1,-0.86 -2.11,-1.71 -4.37,-3.44 -9.06,-6.88 -19.38,-13.75 -5.16,-3.43 -5.27,-3.4 -10.86,-6.88 -23.28,-13.75 -1.45,-0.78 -1.44,-0.82 -2.85,-1.6 -5.9,-3.2 -12.07,-6.41 -25.74,-12.81 -1.68,-0.82 -1.68,-0.78 -3.4,-1.61 -6.91,-3.2 -14.26,-6.41 -30.24,-12.85 -1.95,-0.78 -1.91,-0.78 -3.95,-1.56 -7.93,-3.17 -16.33,-6.25 -34.61,-12.57 -2.219,-0.79 -2.27,-0.78 -4.531,-1.6 -9.262,-3.12 -18.937,-6.29 -40,-12.58 -2.821,-0.82 -2.851,-0.86 -5.66,-1.72 -11.559,-3.4 -23.711,-6.83 -8.519,-2.39"
         style="fill:none;stroke:#5e81b5;stroke-width:11.52;stroke-linecap:square;stroke-linejoin:miter;stroke-miterlimit:3.25;stroke-dasharray:none;stroke-opacity:1"
         id="path162" /><path
         d="m 710.121,1913.01 -5.199,-1.21 -6.832,-1.6 -13.75,-3.17 -27.93,-6.37 -57.43,-12.73 -119.492,-25.43 -4.136,-0.86 -4.102,-0.86 -8.281,-1.72 -16.489,-3.47 -33.121,-6.88 -66.058,-13.79 -4.141,-0.86 -4.101,-0.86 -8.2,-1.75 -16.371,-3.44 -32.5,-6.88 -63.898,-13.79 -7.738,-1.72 -7.692,-1.67 -15.281,-3.4 -3.789,-0.82 -3.789,-0.86 -7.571,-1.68 -15,-3.4 -3.75,-0.86 -3.71,-0.82 -7.43,-1.72 -3.668,-0.82 -3.711,-0.86 -0.16,-0.04"
         style="fill:none;stroke:#5e81b5;stroke-width:11.52;stroke-linecap:square;stroke-linejoin:miter;stroke-miterlimit:3.25;stroke-dasharray:none;stroke-opacity:1"
         id="path164" /><path
         d="m 2457.19,1787.03 -3.67,-0.86 -3.64,-0.86 -7.26,-1.68 -14.46,-3.4 -3.55,-0.82 -3.59,-0.86 -7.11,-1.67 -14.11,-3.4 -27.73,-6.76 -53.52,-13.56 -3,-0.78 -3.05,-0.78 -6.02,-1.6 -11.95,-3.16 -23.48,-6.29 -45.23,-12.66 -84.14,-25.23 -2.7,-0.86 -2.73,-0.86 -5.35,-1.72 -10.67,-3.4 -20.89,-6.87 -40.28,-13.68 -75.04,-27.42 -103.71,-42.03"
         style="fill:none;stroke:#5e81b5;stroke-width:11.52;stroke-linecap:square;stroke-linejoin:miter;stroke-miterlimit:3.25;stroke-dasharray:none;stroke-opacity:1"
         id="path166" /><path
         d="m 1876.48,1604.14 -136.64,-62.81 -107.89,-54.42 -95.74,-50.74 -100.94,-55.04 -92.89,-51.36 -46.36,-25.79 -44.3,-24.57 -98.79,-54.64 -93.52,-50.98 -104.289,-55.27 -107.93,-54.26 -109.14,-50.59 -22.5,-9.84"
         style="fill:none;stroke:#5e81b5;stroke-width:11.52;stroke-linecap:square;stroke-linejoin:miter;stroke-miterlimit:3.25;stroke-dasharray:none;stroke-opacity:1"
         id="path168" /><path
         d="m 711.68,1002.19 -111.481,-44.999 -4.258,-1.601 -8.562,-3.211 -17.34,-6.399 -35.898,-12.82 -76.84,-25.621 -2.5,-0.777 -2.461,-0.782 -5,-1.57 -10.039,-3.121 -20.461,-6.289 -42.461,-12.539 -2.699,-0.781 -2.731,-0.821 -5.508,-1.558 -11.062,-3.129 -22.578,-6.293 -46.789,-12.539 -3.242,-0.86 -3.29,-0.859 -6.558,-1.672 -13.242,-3.437 -26.989,-6.801 -6.882,-1.723 -6.868,-1.679 -13.953,-3.399 -28.316,-6.832 -3.594,-0.816 -3.598,-0.864 -7.218,-1.718 -3.602,-0.86 -3.629,-0.82 -7.301,-1.719 -7.351,-1.722 -2.578,-0.579"
         style="fill:none;stroke:#5e81b5;stroke-width:11.52;stroke-linecap:square;stroke-linejoin:miter;stroke-miterlimit:3.25;stroke-dasharray:none;stroke-opacity:1"
         id="path170" /><path
         d="m 2457.19,819.34 -1.33,-0.32 -3.71,-0.86 -7.46,-1.68 -15,-3.429 -15.16,-3.403 -30.7,-6.796 -3.63,-0.821 -3.6,-0.781 -7.26,-1.602 -14.61,-3.168 -29.5,-6.359 -59.88,-12.699 -121.72,-25.434 -4.14,-0.859 -4.1,-0.859 -24.73,-5.149 -32.77,-6.883 -64.61,-13.789 -123.24,-27.57 -3.44,-0.789 -3.4,-0.82 -1.29,-0.309"
         style="fill:none;stroke:#5e81b5;stroke-width:11.52;stroke-linecap:square;stroke-linejoin:miter;stroke-miterlimit:3.25;stroke-dasharray:none;stroke-opacity:1"
         id="path172" /><path
         d="m 1729.06,656.09 -42.5,-12.262 -5.27,-1.558 -10.43,-3.168 -20.31,-6.293 -38.52,-12.61 -2.34,-0.789 -2.31,-0.781 -4.57,-1.598 -9.02,-3.121 -17.58,-6.332 -33.24,-12.617 -4.3,-1.723 -4.26,-1.679 -8.39,-3.438 -16.29,-6.832 -30.51,-13.668 -1.84,-0.859 -5.39,-2.582 -7.11,-3.442 -13.67,-6.828 -25.66,-13.68 -1.45,-0.781 -1.4,-0.82 -2.82,-1.598 -5.54,-3.16 -10.79,-6.41 -20.19,-12.77 -1.21,-0.781 -1.17,-0.82 -2.39,-1.57 -4.68,-3.2 -9.11,-6.41 -16.99,-12.769 -1.13,-0.86 -1.09,-0.859 -2.15,-1.723 -4.26,-3.469 -8.2,-6.921 -15.24,-13.829 -0.94,-0.859 -0.85,-0.851 -1.8,-1.758 -3.48,-3.442 -6.72,-6.91 -5.78,-6.449 -6.64,-7.422 -0.7,-0.82 -0.74,-0.86 -1.41,-1.718 -2.77,-3.403 -5.32,-6.758 -0.62,-0.851 -0.67,-0.859 -1.25,-1.68 -2.5,-3.399 -4.72,-6.8 -0.59,-0.86 -0.54,-0.859 -1.14,-1.684 -2.22,-3.398 -4.18,-6.789 -7.66,-13.602 -0.39,-0.777 -0.43,-0.781 -0.82,-1.602 -1.56,-3.168 -3.01,-6.32 -0.35,-0.821 -0.39,-0.781 -0.71,-1.57 -1.36,-3.16 -2.62,-6.367 -0.63,-1.563 -0.58,-1.598 -1.21,-3.171 -2.23,-6.321 -0.27,-0.789 -0.24,-0.82 -0.54,-1.559 -0.98,-3.16 -1.88,-6.371 -0.93,-3.441 -0.86,-3.399 -0.24,-0.859 -1.75,-7.731 -1.06,-5.16 -1.21,-6.871 -0.12,-0.859 -0.15,-0.86 -0.28,-1.718 -0.93,-6.872 -0.39,-3.441 -0.16,-1.719 -0.2,-1.718 -0.39,-4.301 -0.04,-0.852 -0.15,-1.719 -0.04,-0.859 -0.08,-0.859 -0.08,-1.723 -0.04,-0.777 -0.08,-0.821 -0.03,-0.781 -0.04,-0.82 -0.04,-0.789 v -0.821 l -0.08,-1.601 -0.04,-0.82 v -0.778 l -0.04,-0.82 v -0.781 l -0.04,-0.821 v -0.781 l -0.04,-0.816 v -8.793 l 0.04,-0.821 v -0.82 l 0.04,-0.777 v -0.821 l 0.04,-0.781 v -0.828 l 0.04,-0.781 0.04,-0.82 v -0.782 l 0.04,-0.816 0.04,-0.781 0.04,-0.821 0.07,-1.601 0.04,-0.778 0.04,-0.82 0.12,-1.601 0.19,-3.211 0.08,-0.821 0.08,-0.777 0.12,-1.602 0.27,-3.199 0.08,-0.82 0.08,-0.789 0.15,-1.602 0.36,-3.238 0.07,-0.781 0.12,-0.782 0.16,-1.558 0.43,-3.129 0.86,-6.289 0.11,-0.82 0.12,-0.782 0.27,-1.558 0.51,-3.133 1.1,-6.289 0.15,-0.82 0.16,-0.782 0.27,-1.558 0.63,-3.129 1.32,-6.281 2.93,-12.579 0.24,-0.863 0.19,-0.859 0.43,-1.719 0.9,-3.398 1.88,-6.832 4.02,-13.641 0.24,-0.859 0.27,-0.86 0.55,-1.68 1.09,-3.429 2.23,-6.801 4.76,-13.672 0.27,-0.777 0.32,-0.781 0.54,-1.61 1.18,-3.199 2.38,-6.371 4.96,-12.7306 10.47,-25.4688 0.39,-0.8593 0.35,-0.9024 0.78,-1.7891 1.53,-3.5585 3.08,-7.0704 6.25,-14.2226 0.78,-1.7891 0.78,-1.7578 1.61,-3.5625 3.16,-7.1094 0.78,-1.789 0.82,-1.7617 1.6,-3.5586 0.78,-1.7891 0.82,-1.7617 0.79,-1.8008 0.39,-0.8594 0.43,-0.89842"
         style="fill:none;stroke:#5e81b5;stroke-width:11.52;stroke-linecap:square;stroke-linejoin:miter;stroke-miterlimit:3.25;stroke-dasharray:none;stroke-opacity:1"
         id="path174" /><path
         d="M 856.988,1950.27 717.109,1914.69"
         style="fill:none;stroke:#5e81b5;stroke-width:11.52;stroke-linecap:square;stroke-linejoin:miter;stroke-miterlimit:3.25;stroke-dasharray:none;stroke-opacity:1"
         id="path176" /><path
         d="m 1874.88,693.32 -12.07,-2.851 -26.56,-6.449 -51.09,-12.848 -6.18,-1.641 -6.13,-1.601 -12.11,-3.2 -23.71,-6.449 -2.03,-0.551"
         style="fill:none;stroke:#5e81b5;stroke-width:11.52;stroke-linecap:square;stroke-linejoin:miter;stroke-miterlimit:3.25;stroke-dasharray:none;stroke-opacity:1"
         id="path178" /><path
         d="m 1296.02,9.80078 1.05,0.78902 1.05,0.8204 2.15,1.5586 4.3,3.1601 8.59,6.3711 17.15,12.6992 34.38,25.4219 75.04,55.0779 71.25,51.41 71.44,50.43 79.88,54.691 77.39,51.051 87.54,55.309 49.8,30.32"
         style="fill:none;stroke:#ff0000;stroke-width:11.52;stroke-linecap:square;stroke-linejoin:miter;stroke-miterlimit:3.25;stroke-dasharray:none;stroke-opacity:1"
         id="path180" /><path
         d="m 1879.77,410.59 125.82,72.961 100.39,54.969 98.12,51.25 99.96,50.269 1.72,0.859 1.76,0.864 3.44,1.718 6.91,3.399 13.87,6.832 4.88,2.379"
         style="fill:none;stroke:#ff0000;stroke-width:11.52;stroke-linecap:square;stroke-linejoin:miter;stroke-miterlimit:3.25;stroke-dasharray:none;stroke-opacity:1"
         id="path182" /><path
         d="m 2340,657.73 21.45,10.43 5.27,2.578 7.03,3.403 14.06,6.839 28.32,13.629 1.64,0.782 1.68,0.82 3.32,1.559 6.64,3.21 1.64,0.782 1.68,0.777 9.97,4.801 1.68,0.781 1.64,0.789 3.36,1.602 1.64,0.777 1.68,0.82 3.32,1.602 1.68,0.777 1.36,0.633"
         style="fill:none;stroke:#ff0000;stroke-width:11.52;stroke-linecap:square;stroke-linejoin:miter;stroke-miterlimit:3.25;stroke-dasharray:none;stroke-opacity:1"
         id="path184" /><path
         d="m 132.969,716.801 1.832,0.859 1.679,0.82 3.36,1.559 1.68,0.82 1.64,0.782 3.36,1.597 6.718,3.172 13.403,6.36 26.91,12.742 3.679,1.718 3.629,1.719 7.301,3.43 14.649,6.922 29.339,13.789 58.75,27.57 115.274,54.18 106.367,50.512 113.281,54.769 66.129,32.649"
         style="fill:none;stroke:#ff0000;stroke-width:11.52;stroke-linecap:square;stroke-linejoin:miter;stroke-miterlimit:3.25;stroke-dasharray:none;stroke-opacity:1"
         id="path186" /><path
         d="m 715.27,994.41 142.429,72.27 103.821,54.41 94.57,50.75 100.63,55.04 92.89,51.36 46.41,25.74 44.25,24.61 98.79,54.65 93.24,50.98 103.01,55.27 103.67,54.26 99.3,50.59 38.44,19.25"
         style="fill:none;stroke:#ff0000;stroke-width:11.52;stroke-linecap:square;stroke-linejoin:miter;stroke-miterlimit:3.25;stroke-dasharray:none;stroke-opacity:1"
         id="path188" /><path
         d="m 1880.04,1615.23 174.8,85.2 105.71,50.23 115.9,54.5 1.71,0.78 1.68,0.82 3.4,1.56 6.76,3.2 13.55,6.33 27.07,12.74 1.68,0.78 1.72,0.78 3.36,1.6 6.76,3.16 13.52,6.37 26.99,12.74 3.67,1.71 3.63,1.72 7.31,3.44 14.57,6.88 3.67,1.71 3.63,1.72 7.27,3.48 14.53,6.87 1.8,0.86 1.83,0.86 3.6,1.72 1.83,0.86 3.6,1.72 1.83,0.86 1.64,0.78"
         style="fill:none;stroke:#ff0000;stroke-width:11.52;stroke-linecap:square;stroke-linejoin:miter;stroke-miterlimit:3.25;stroke-dasharray:none;stroke-opacity:1"
         id="path190" /><path
         d="m 132.969,1892.89 0.312,0.12 1.797,0.9 1.801,0.86 1.832,0.85 5.391,2.58 1.839,0.86 25.149,12.03 3.359,1.64 3.36,1.61 6.679,3.2 13.364,6.44 26.597,12.86 27.539,13.43"
         style="fill:none;stroke:#ff0000;stroke-width:11.52;stroke-linecap:square;stroke-linejoin:miter;stroke-miterlimit:3.25;stroke-dasharray:none;stroke-opacity:1"
         id="path192" /><path
         d="m 255.352,1951.91 122.418,61.14 104.96,54.72 93.68,51.06 96.68,55.35 39.14,23.24"
         style="fill:none;stroke:#ff0000;stroke-width:11.52;stroke-linecap:square;stroke-linejoin:miter;stroke-miterlimit:3.25;stroke-dasharray:none;stroke-opacity:1"
         id="path194" /><path
         d="m 715,2199.06 128.789,80.16 83.551,55 75.16,51.29 71.45,50.31 75.7,54.61 69.49,50.9 1.17,0.9 1.21,0.89 2.43,1.76 4.8,3.56 9.65,7.11 19.22,14.22 1.17,0.89 1.21,0.9 2.42,1.76 4.81,3.56 9.57,7.1 2.42,1.8 2.38,1.76 4.81,3.55 1.21,0.9 1.17,0.86 2.42,1.8 1.17,0.9 1.21,0.86 2.43,1.79"
         style="fill:none;stroke:#ff0000;stroke-width:11.52;stroke-linecap:square;stroke-linejoin:miter;stroke-miterlimit:3.25;stroke-dasharray:none;stroke-opacity:1"
         id="path196" /><path
         d="m 35.4297,1303.98 v 17.39"
         style="fill:none;stroke:#000000;stroke-width:3.6;stroke-linecap:butt;stroke-linejoin:miter;stroke-miterlimit:3.25;stroke-dasharray:none;stroke-opacity:1"
         id="path198" /><path
         d="m 109.57,1303.98 v 17.39"
         style="fill:none;stroke:#000000;stroke-width:3.6;stroke-linecap:butt;stroke-linejoin:miter;stroke-miterlimit:3.25;stroke-dasharray:none;stroke-opacity:1"
         id="path200" /><path
         d="m 183.711,1303.98 v 28.95"
         style="fill:none;stroke:#000000;stroke-width:3.6;stroke-linecap:butt;stroke-linejoin:miter;stroke-miterlimit:3.25;stroke-dasharray:none;stroke-opacity:1"
         id="path202" /><g
         id="g204"
         transform="scale(10)"><text
           transform="matrix(1,0,0,-1,14.8172,122.068)"
           style="font-variant:normal;font-size:6.47949px;font-family:f-0;-inkscape-font-specification:f-0-0;writing-mode:lr-tb;fill:#000000;fill-opacity:1;fill-rule:nonzero;stroke:none"
           id="text208"><tspan
             x="0"
             y="0"
             id="tspan206">-</tspan></text><text
           transform="matrix(1,0,0,-1,18.31603,122.068)"
           style="font-variant:normal;font-size:6.47949px;font-family:f-1;-inkscape-font-specification:f-1-0;writing-mode:lr-tb;fill:#000000;fill-opacity:1;fill-rule:nonzero;stroke:none"
           id="text212"><tspan
             x="0"
             y="0"
             id="tspan210">3</tspan></text></g><path
         d="m 257.852,1303.98 v 17.39"
         style="fill:none;stroke:#000000;stroke-width:3.6;stroke-linecap:butt;stroke-linejoin:miter;stroke-miterlimit:3.25;stroke-dasharray:none;stroke-opacity:1"
         id="path214" /><path
         d="m 332.031,1303.98 v 17.39"
         style="fill:none;stroke:#000000;stroke-width:3.6;stroke-linecap:butt;stroke-linejoin:miter;stroke-miterlimit:3.25;stroke-dasharray:none;stroke-opacity:1"
         id="path216" /><path
         d="m 406.172,1303.98 v 17.39"
         style="fill:none;stroke:#000000;stroke-width:3.6;stroke-linecap:butt;stroke-linejoin:miter;stroke-miterlimit:3.25;stroke-dasharray:none;stroke-opacity:1"
         id="path218" /><path
         d="m 480.309,1303.98 v 17.39"
         style="fill:none;stroke:#000000;stroke-width:3.6;stroke-linecap:butt;stroke-linejoin:miter;stroke-miterlimit:3.25;stroke-dasharray:none;stroke-opacity:1"
         id="path220" /><path
         d="m 554.488,1303.98 v 28.95"
         style="fill:none;stroke:#000000;stroke-width:3.6;stroke-linecap:butt;stroke-linejoin:miter;stroke-miterlimit:3.25;stroke-dasharray:none;stroke-opacity:1"
         id="path222" /><g
         id="g224"
         transform="scale(10)"><text
           transform="matrix(1,0,0,-1,51.893,122.068)"
           style="font-variant:normal;font-size:6.47949px;font-family:f-0;-inkscape-font-specification:f-0-0;writing-mode:lr-tb;fill:#000000;fill-opacity:1;fill-rule:nonzero;stroke:none"
           id="text228"><tspan
             x="0"
             y="0"
             id="tspan226">-</tspan></text><text
           transform="matrix(1,0,0,-1,55.39183,122.068)"
           style="font-variant:normal;font-size:6.47949px;font-family:f-1;-inkscape-font-specification:f-1-0;writing-mode:lr-tb;fill:#000000;fill-opacity:1;fill-rule:nonzero;stroke:none"
           id="text232"><tspan
             x="0"
             y="0"
             id="tspan230">2</tspan></text></g><path
         d="m 628.629,1303.98 v 17.39"
         style="fill:none;stroke:#000000;stroke-width:3.6;stroke-linecap:butt;stroke-linejoin:miter;stroke-miterlimit:3.25;stroke-dasharray:none;stroke-opacity:1"
         id="path234" /><path
         d="m 702.77,1303.98 v 17.39"
         style="fill:none;stroke:#000000;stroke-width:3.6;stroke-linecap:butt;stroke-linejoin:miter;stroke-miterlimit:3.25;stroke-dasharray:none;stroke-opacity:1"
         id="path236" /><path
         d="m 776.949,1303.98 v 17.39"
         style="fill:none;stroke:#000000;stroke-width:3.6;stroke-linecap:butt;stroke-linejoin:miter;stroke-miterlimit:3.25;stroke-dasharray:none;stroke-opacity:1"
         id="path238" /><path
         d="m 851.09,1303.98 v 17.39"
         style="fill:none;stroke:#000000;stroke-width:3.6;stroke-linecap:butt;stroke-linejoin:miter;stroke-miterlimit:3.25;stroke-dasharray:none;stroke-opacity:1"
         id="path240" /><path
         d="m 925.23,1303.98 v 28.95"
         style="fill:none;stroke:#000000;stroke-width:3.6;stroke-linecap:butt;stroke-linejoin:miter;stroke-miterlimit:3.25;stroke-dasharray:none;stroke-opacity:1"
         id="path242" /><g
         id="g244"
         transform="scale(10)"><text
           transform="matrix(1,0,0,-1,88.9691,122.068)"
           style="font-variant:normal;font-size:6.47949px;font-family:f-0;-inkscape-font-specification:f-0-0;writing-mode:lr-tb;fill:#000000;fill-opacity:1;fill-rule:nonzero;stroke:none"
           id="text248"><tspan
             x="0"
             y="0"
             id="tspan246">-</tspan></text><text
           transform="matrix(1,0,0,-1,92.46793,122.068)"
           style="font-variant:normal;font-size:6.47949px;font-family:f-1;-inkscape-font-specification:f-1-0;writing-mode:lr-tb;fill:#000000;fill-opacity:1;fill-rule:nonzero;stroke:none"
           id="text252"><tspan
             x="0"
             y="0"
             id="tspan250">1</tspan></text></g><path
         d="m 999.379,1303.98 v 17.39"
         style="fill:none;stroke:#000000;stroke-width:3.6;stroke-linecap:butt;stroke-linejoin:miter;stroke-miterlimit:3.25;stroke-dasharray:none;stroke-opacity:1"
         id="path254" /><path
         d="m 1073.55,1303.98 v 17.39"
         style="fill:none;stroke:#000000;stroke-width:3.6;stroke-linecap:butt;stroke-linejoin:miter;stroke-miterlimit:3.25;stroke-dasharray:none;stroke-opacity:1"
         id="path256" /><path
         d="m 1147.7,1303.98 v 17.39"
         style="fill:none;stroke:#000000;stroke-width:3.6;stroke-linecap:butt;stroke-linejoin:miter;stroke-miterlimit:3.25;stroke-dasharray:none;stroke-opacity:1"
         id="path258" /><path
         d="m 1221.84,1303.98 v 17.39"
         style="fill:none;stroke:#000000;stroke-width:3.6;stroke-linecap:butt;stroke-linejoin:miter;stroke-miterlimit:3.25;stroke-dasharray:none;stroke-opacity:1"
         id="path260" /><path
         d="m 1296.02,1303.98 v 28.95"
         style="fill:none;stroke:#000000;stroke-width:3.6;stroke-linecap:butt;stroke-linejoin:miter;stroke-miterlimit:3.25;stroke-dasharray:none;stroke-opacity:1"
         id="path262" /><path
         d="m 1370.16,1303.98 v 17.39"
         style="fill:none;stroke:#000000;stroke-width:3.6;stroke-linecap:butt;stroke-linejoin:miter;stroke-miterlimit:3.25;stroke-dasharray:none;stroke-opacity:1"
         id="path264" /><path
         d="m 1444.3,1303.98 v 17.39"
         style="fill:none;stroke:#000000;stroke-width:3.6;stroke-linecap:butt;stroke-linejoin:miter;stroke-miterlimit:3.25;stroke-dasharray:none;stroke-opacity:1"
         id="path266" /><path
         d="m 1518.44,1303.98 v 17.39"
         style="fill:none;stroke:#000000;stroke-width:3.6;stroke-linecap:butt;stroke-linejoin:miter;stroke-miterlimit:3.25;stroke-dasharray:none;stroke-opacity:1"
         id="path268" /><path
         d="m 1592.62,1303.98 v 17.39"
         style="fill:none;stroke:#000000;stroke-width:3.6;stroke-linecap:butt;stroke-linejoin:miter;stroke-miterlimit:3.25;stroke-dasharray:none;stroke-opacity:1"
         id="path270" /><path
         d="m 1666.76,1303.98 v 28.95"
         style="fill:none;stroke:#000000;stroke-width:3.6;stroke-linecap:butt;stroke-linejoin:miter;stroke-miterlimit:3.25;stroke-dasharray:none;stroke-opacity:1"
         id="path272" /><g
         id="g274"
         transform="scale(10)"><text
           transform="matrix(1,0,0,-1,164.873,122.068)"
           style="font-variant:normal;font-size:6.47949px;font-family:f-1;-inkscape-font-specification:f-1-0;writing-mode:lr-tb;fill:#000000;fill-opacity:1;fill-rule:nonzero;stroke:none"
           id="text278"><tspan
             x="0"
             y="0"
             id="tspan276">1</tspan></text></g><path
         d="m 1740.9,1303.98 v 17.39"
         style="fill:none;stroke:#000000;stroke-width:3.6;stroke-linecap:butt;stroke-linejoin:miter;stroke-miterlimit:3.25;stroke-dasharray:none;stroke-opacity:1"
         id="path280" /><path
         d="m 1815.08,1303.98 v 17.39"
         style="fill:none;stroke:#000000;stroke-width:3.6;stroke-linecap:butt;stroke-linejoin:miter;stroke-miterlimit:3.25;stroke-dasharray:none;stroke-opacity:1"
         id="path282" /><path
         d="m 1889.22,1303.98 v 17.39"
         style="fill:none;stroke:#000000;stroke-width:3.6;stroke-linecap:butt;stroke-linejoin:miter;stroke-miterlimit:3.25;stroke-dasharray:none;stroke-opacity:1"
         id="path284" /><path
         d="m 1963.36,1303.98 v 17.39"
         style="fill:none;stroke:#000000;stroke-width:3.6;stroke-linecap:butt;stroke-linejoin:miter;stroke-miterlimit:3.25;stroke-dasharray:none;stroke-opacity:1"
         id="path286" /><path
         d="m 2037.54,1303.98 v 28.95"
         style="fill:none;stroke:#000000;stroke-width:3.6;stroke-linecap:butt;stroke-linejoin:miter;stroke-miterlimit:3.25;stroke-dasharray:none;stroke-opacity:1"
         id="path288" /><g
         id="g290"
         transform="scale(10)"><text
           transform="matrix(1,0,0,-1,201.95,122.068)"
           style="font-variant:normal;font-size:6.47949px;font-family:f-1;-inkscape-font-specification:f-1-0;writing-mode:lr-tb;fill:#000000;fill-opacity:1;fill-rule:nonzero;stroke:none"
           id="text294"><tspan
             x="0"
             y="0"
             id="tspan292">2</tspan></text></g><path
         d="m 2111.68,1303.98 v 17.39"
         style="fill:none;stroke:#000000;stroke-width:3.6;stroke-linecap:butt;stroke-linejoin:miter;stroke-miterlimit:3.25;stroke-dasharray:none;stroke-opacity:1"
         id="path296" /><path
         d="m 2185.82,1303.98 v 17.39"
         style="fill:none;stroke:#000000;stroke-width:3.6;stroke-linecap:butt;stroke-linejoin:miter;stroke-miterlimit:3.25;stroke-dasharray:none;stroke-opacity:1"
         id="path298" /><path
         d="m 2259.96,1303.98 v 17.39"
         style="fill:none;stroke:#000000;stroke-width:3.6;stroke-linecap:butt;stroke-linejoin:miter;stroke-miterlimit:3.25;stroke-dasharray:none;stroke-opacity:1"
         id="path300" /><path
         d="m 2334.14,1303.98 v 17.39"
         style="fill:none;stroke:#000000;stroke-width:3.6;stroke-linecap:butt;stroke-linejoin:miter;stroke-miterlimit:3.25;stroke-dasharray:none;stroke-opacity:1"
         id="path302" /><path
         d="m 2408.28,1303.98 v 28.95"
         style="fill:none;stroke:#000000;stroke-width:3.6;stroke-linecap:butt;stroke-linejoin:miter;stroke-miterlimit:3.25;stroke-dasharray:none;stroke-opacity:1"
         id="path304" /><g
         id="g306"
         transform="scale(10)"><text
           transform="matrix(1,0,0,-1,239.025,122.068)"
           style="font-variant:normal;font-size:6.47949px;font-family:f-1;-inkscape-font-specification:f-1-0;writing-mode:lr-tb;fill:#000000;fill-opacity:1;fill-rule:nonzero;stroke:none"
           id="text310"><tspan
             x="0"
             y="0"
             id="tspan308">3</tspan></text></g><path
         d="m 2482.42,1303.98 v 17.39"
         style="fill:none;stroke:#000000;stroke-width:3.6;stroke-linecap:butt;stroke-linejoin:miter;stroke-miterlimit:3.25;stroke-dasharray:none;stroke-opacity:1"
         id="path312" /><path
         d="m 2556.6,1303.98 v 17.39"
         style="fill:none;stroke:#000000;stroke-width:3.6;stroke-linecap:butt;stroke-linejoin:miter;stroke-miterlimit:3.25;stroke-dasharray:none;stroke-opacity:1"
         id="path314" /><path
         d="M 1.80078,1303.98 H 2590.2"
         style="fill:none;stroke:#000000;stroke-width:3.6;stroke-linecap:butt;stroke-linejoin:miter;stroke-miterlimit:3.25;stroke-dasharray:none;stroke-opacity:1"
         id="path316" /><path
         d="m 1296.02,68.1211 h 28.9"
         style="fill:none;stroke:#000000;stroke-width:3.6;stroke-linecap:butt;stroke-linejoin:miter;stroke-miterlimit:3.25;stroke-dasharray:none;stroke-opacity:1"
         id="path318" /><g
         id="g320"
         transform="scale(10)"><text
           transform="matrix(1,0,0,-1,120.33,4.64883)"
           style="font-variant:normal;font-size:6.47949px;font-family:f-0;-inkscape-font-specification:f-0-0;writing-mode:lr-tb;fill:#000000;fill-opacity:1;fill-rule:nonzero;stroke:none"
           id="text324"><tspan
             x="0"
             y="0"
             id="tspan322">-</tspan></text><text
           transform="matrix(1,0,0,-1,123.82883,4.64883)"
           style="font-variant:normal;font-size:6.47949px;font-family:f-1;-inkscape-font-specification:f-1-0;writing-mode:lr-tb;fill:#000000;fill-opacity:1;fill-rule:nonzero;stroke:none"
           id="text328"><tspan
             x="0"
             y="0"
             id="tspan326">3</tspan></text></g><path
         d="m 1296.02,150.512 h 17.34"
         style="fill:none;stroke:#000000;stroke-width:3.6;stroke-linecap:butt;stroke-linejoin:miter;stroke-miterlimit:3.25;stroke-dasharray:none;stroke-opacity:1"
         id="path330" /><path
         d="m 1296.02,232.93 h 17.34"
         style="fill:none;stroke:#000000;stroke-width:3.6;stroke-linecap:butt;stroke-linejoin:miter;stroke-miterlimit:3.25;stroke-dasharray:none;stroke-opacity:1"
         id="path332" /><path
         d="m 1296.02,315.309 h 17.34"
         style="fill:none;stroke:#000000;stroke-width:3.6;stroke-linecap:butt;stroke-linejoin:miter;stroke-miterlimit:3.25;stroke-dasharray:none;stroke-opacity:1"
         id="path334" /><path
         d="m 1296.02,397.699 h 17.34"
         style="fill:none;stroke:#000000;stroke-width:3.6;stroke-linecap:butt;stroke-linejoin:miter;stroke-miterlimit:3.25;stroke-dasharray:none;stroke-opacity:1"
         id="path336" /><path
         d="m 1296.02,480.078 h 28.9"
         style="fill:none;stroke:#000000;stroke-width:3.6;stroke-linecap:butt;stroke-linejoin:miter;stroke-miterlimit:3.25;stroke-dasharray:none;stroke-opacity:1"
         id="path338" /><g
         id="g340"
         transform="scale(10)"><text
           transform="matrix(1,0,0,-1,120.33,45.8445)"
           style="font-variant:normal;font-size:6.47949px;font-family:f-0;-inkscape-font-specification:f-0-0;writing-mode:lr-tb;fill:#000000;fill-opacity:1;fill-rule:nonzero;stroke:none"
           id="text344"><tspan
             x="0"
             y="0"
             id="tspan342">-</tspan></text><text
           transform="matrix(1,0,0,-1,123.82883,45.8445)"
           style="font-variant:normal;font-size:6.47949px;font-family:f-1;-inkscape-font-specification:f-1-0;writing-mode:lr-tb;fill:#000000;fill-opacity:1;fill-rule:nonzero;stroke:none"
           id="text348"><tspan
             x="0"
             y="0"
             id="tspan346">2</tspan></text></g><path
         d="m 1296.02,562.461 h 17.34"
         style="fill:none;stroke:#000000;stroke-width:3.6;stroke-linecap:butt;stroke-linejoin:miter;stroke-miterlimit:3.25;stroke-dasharray:none;stroke-opacity:1"
         id="path350" /><path
         d="m 1296.02,644.879 h 17.34"
         style="fill:none;stroke:#000000;stroke-width:3.6;stroke-linecap:butt;stroke-linejoin:miter;stroke-miterlimit:3.25;stroke-dasharray:none;stroke-opacity:1"
         id="path352" /><path
         d="m 1296.02,727.27 h 17.34"
         style="fill:none;stroke:#000000;stroke-width:3.6;stroke-linecap:butt;stroke-linejoin:miter;stroke-miterlimit:3.25;stroke-dasharray:none;stroke-opacity:1"
         id="path354" /><path
         d="m 1296.02,809.648 h 17.34"
         style="fill:none;stroke:#000000;stroke-width:3.6;stroke-linecap:butt;stroke-linejoin:miter;stroke-miterlimit:3.25;stroke-dasharray:none;stroke-opacity:1"
         id="path356" /><path
         d="m 1296.02,892.031 h 28.9"
         style="fill:none;stroke:#000000;stroke-width:3.6;stroke-linecap:butt;stroke-linejoin:miter;stroke-miterlimit:3.25;stroke-dasharray:none;stroke-opacity:1"
         id="path358" /><g
         id="g360"
         transform="scale(10)"><text
           transform="matrix(1,0,0,-1,120.33,87.0402)"
           style="font-variant:normal;font-size:6.47949px;font-family:f-0;-inkscape-font-specification:f-0-0;writing-mode:lr-tb;fill:#000000;fill-opacity:1;fill-rule:nonzero;stroke:none"
           id="text364"><tspan
             x="0"
             y="0"
             id="tspan362">-</tspan></text><text
           transform="matrix(1,0,0,-1,123.82883,87.0402)"
           style="font-variant:normal;font-size:6.47949px;font-family:f-1;-inkscape-font-specification:f-1-0;writing-mode:lr-tb;fill:#000000;fill-opacity:1;fill-rule:nonzero;stroke:none"
           id="text368"><tspan
             x="0"
             y="0"
             id="tspan366">1</tspan></text></g><path
         d="m 1296.02,974.449 h 17.34"
         style="fill:none;stroke:#000000;stroke-width:3.6;stroke-linecap:butt;stroke-linejoin:miter;stroke-miterlimit:3.25;stroke-dasharray:none;stroke-opacity:1"
         id="path370" /><path
         d="m 1296.02,1056.84 h 17.34"
         style="fill:none;stroke:#000000;stroke-width:3.6;stroke-linecap:butt;stroke-linejoin:miter;stroke-miterlimit:3.25;stroke-dasharray:none;stroke-opacity:1"
         id="path372" /><path
         d="m 1296.02,1139.22 h 17.34"
         style="fill:none;stroke:#000000;stroke-width:3.6;stroke-linecap:butt;stroke-linejoin:miter;stroke-miterlimit:3.25;stroke-dasharray:none;stroke-opacity:1"
         id="path374" /><path
         d="m 1296.02,1221.6 h 17.34"
         style="fill:none;stroke:#000000;stroke-width:3.6;stroke-linecap:butt;stroke-linejoin:miter;stroke-miterlimit:3.25;stroke-dasharray:none;stroke-opacity:1"
         id="path376" /><path
         d="m 1296.02,1303.98 h 28.9"
         style="fill:none;stroke:#000000;stroke-width:3.6;stroke-linecap:butt;stroke-linejoin:miter;stroke-miterlimit:3.25;stroke-dasharray:none;stroke-opacity:1"
         id="path378" /><path
         d="m 1296.02,1386.41 h 17.34"
         style="fill:none;stroke:#000000;stroke-width:3.6;stroke-linecap:butt;stroke-linejoin:miter;stroke-miterlimit:3.25;stroke-dasharray:none;stroke-opacity:1"
         id="path380" /><path
         d="m 1296.02,1468.79 h 17.34"
         style="fill:none;stroke:#000000;stroke-width:3.6;stroke-linecap:butt;stroke-linejoin:miter;stroke-miterlimit:3.25;stroke-dasharray:none;stroke-opacity:1"
         id="path382" /><path
         d="m 1296.02,1551.17 h 17.34"
         style="fill:none;stroke:#000000;stroke-width:3.6;stroke-linecap:butt;stroke-linejoin:miter;stroke-miterlimit:3.25;stroke-dasharray:none;stroke-opacity:1"
         id="path384" /><path
         d="m 1296.02,1633.55 h 17.34"
         style="fill:none;stroke:#000000;stroke-width:3.6;stroke-linecap:butt;stroke-linejoin:miter;stroke-miterlimit:3.25;stroke-dasharray:none;stroke-opacity:1"
         id="path386" /><path
         d="m 1296.02,1715.94 h 28.9"
         style="fill:none;stroke:#000000;stroke-width:3.6;stroke-linecap:butt;stroke-linejoin:miter;stroke-miterlimit:3.25;stroke-dasharray:none;stroke-opacity:1"
         id="path388" /><g
         id="g390"
         transform="scale(10)"><text
           transform="matrix(1,0,0,-1,123.834,169.432)"
           style="font-variant:normal;font-size:6.47949px;font-family:f-1;-inkscape-font-specification:f-1-0;writing-mode:lr-tb;fill:#000000;fill-opacity:1;fill-rule:nonzero;stroke:none"
           id="text394"><tspan
             x="0"
             y="0"
             id="tspan392">1</tspan></text></g><path
         d="m 1296.02,1798.36 h 17.34"
         style="fill:none;stroke:#000000;stroke-width:3.6;stroke-linecap:butt;stroke-linejoin:miter;stroke-miterlimit:3.25;stroke-dasharray:none;stroke-opacity:1"
         id="path396" /><path
         d="m 1296.02,1880.74 h 17.34"
         style="fill:none;stroke:#000000;stroke-width:3.6;stroke-linecap:butt;stroke-linejoin:miter;stroke-miterlimit:3.25;stroke-dasharray:none;stroke-opacity:1"
         id="path398" /><path
         d="m 1296.02,1963.12 h 17.34"
         style="fill:none;stroke:#000000;stroke-width:3.6;stroke-linecap:butt;stroke-linejoin:miter;stroke-miterlimit:3.25;stroke-dasharray:none;stroke-opacity:1"
         id="path400" /><path
         d="m 1296.02,2045.51 h 17.34"
         style="fill:none;stroke:#000000;stroke-width:3.6;stroke-linecap:butt;stroke-linejoin:miter;stroke-miterlimit:3.25;stroke-dasharray:none;stroke-opacity:1"
         id="path402" /><path
         d="m 1296.02,2127.93 h 28.9"
         style="fill:none;stroke:#000000;stroke-width:3.6;stroke-linecap:butt;stroke-linejoin:miter;stroke-miterlimit:3.25;stroke-dasharray:none;stroke-opacity:1"
         id="path404" /><g
         id="g406"
         transform="scale(10)"><text
           transform="matrix(1,0,0,-1,123.834,210.627)"
           style="font-variant:normal;font-size:6.47949px;font-family:f-1;-inkscape-font-specification:f-1-0;writing-mode:lr-tb;fill:#000000;fill-opacity:1;fill-rule:nonzero;stroke:none"
           id="text410"><tspan
             x="0"
             y="0"
             id="tspan408">2</tspan></text></g><path
         d="m 1296.02,2210.31 h 17.34"
         style="fill:none;stroke:#000000;stroke-width:3.6;stroke-linecap:butt;stroke-linejoin:miter;stroke-miterlimit:3.25;stroke-dasharray:none;stroke-opacity:1"
         id="path412" /><path
         d="m 1296.02,2292.7 h 17.34"
         style="fill:none;stroke:#000000;stroke-width:3.6;stroke-linecap:butt;stroke-linejoin:miter;stroke-miterlimit:3.25;stroke-dasharray:none;stroke-opacity:1"
         id="path414" /><path
         d="m 1296.02,2375.08 h 17.34"
         style="fill:none;stroke:#000000;stroke-width:3.6;stroke-linecap:butt;stroke-linejoin:miter;stroke-miterlimit:3.25;stroke-dasharray:none;stroke-opacity:1"
         id="path416" /><path
         d="m 1296.02,2457.46 h 17.34"
         style="fill:none;stroke:#000000;stroke-width:3.6;stroke-linecap:butt;stroke-linejoin:miter;stroke-miterlimit:3.25;stroke-dasharray:none;stroke-opacity:1"
         id="path418" /><path
         d="m 1296.02,2539.88 h 28.9"
         style="fill:none;stroke:#000000;stroke-width:3.6;stroke-linecap:butt;stroke-linejoin:miter;stroke-miterlimit:3.25;stroke-dasharray:none;stroke-opacity:1"
         id="path420" /><g
         id="g422"
         transform="scale(10)"><text
           transform="matrix(1,0,0,-1,123.834,251.823)"
           style="font-variant:normal;font-size:6.47949px;font-family:f-1;-inkscape-font-specification:f-1-0;writing-mode:lr-tb;fill:#000000;fill-opacity:1;fill-rule:nonzero;stroke:none"
           id="text426"><tspan
             x="0"
             y="0"
             id="tspan424">3</tspan></text></g><path
         d="M 1296.02,9.80078 V 2598.2"
         style="fill:none;stroke:#000000;stroke-width:3.6;stroke-linecap:butt;stroke-linejoin:miter;stroke-miterlimit:3.25;stroke-dasharray:none;stroke-opacity:1"
         id="path428" /></g></g></svg>
