<?xml version="1.0" encoding="UTF-8" standalone="no"?>
<svg
   xmlns:dc="http://purl.org/dc/elements/1.1/"
   xmlns:cc="http://creativecommons.org/ns#"
   xmlns:rdf="http://www.w3.org/1999/02/22-rdf-syntax-ns#"
   xmlns:svg="http://www.w3.org/2000/svg"
   xmlns="http://www.w3.org/2000/svg"
   xmlns:sodipodi="http://sodipodi.sourceforge.net/DTD/sodipodi-0.dtd"
   xmlns:inkscape="http://www.inkscape.org/namespaces/inkscape"
   version="1.1"
   id="svg2"
   xml:space="preserve"
   width="346.66666"
   height="346.66666"
   viewBox="0 0 346.66666 346.66666"
   sodipodi:docname="AMY3iter.eps"><metadata
     id="metadata8"><rdf:RDF><cc:Work
         rdf:about=""><dc:format>image/svg+xml</dc:format><dc:type
           rdf:resource="http://purl.org/dc/dcmitype/StillImage" /></cc:Work></rdf:RDF></metadata><defs
     id="defs6" /><sodipodi:namedview
     pagecolor="#ffffff"
     bordercolor="#666666"
     borderopacity="1"
     objecttolerance="10"
     gridtolerance="10"
     guidetolerance="10"
     inkscape:pageopacity="0"
     inkscape:pageshadow="2"
     inkscape:window-width="640"
     inkscape:window-height="480"
     id="namedview4" /><g
     id="g10"
     inkscape:groupmode="layer"
     inkscape:label="ink_ext_XXXXXX"
     transform="matrix(1.3333333,0,0,-1.3333333,0,346.66667)"><g
       id="g12"
       transform="scale(0.1)"><path
         d="m 1266.88,2585.27 -1.06,-0.82 -7.38,-5.47 -25.32,-18.86 -33.86,-25.16 -74.06,-54.53 -70.43,-50.9 -70.75,-49.92 -79.18,-54.18 -76.789,-50.51 -86.84,-54.76 -26.25,-16.06"
         style="fill:none;stroke:#5e81b5;stroke-width:11.52;stroke-linecap:square;stroke-linejoin:miter;stroke-miterlimit:3.25;stroke-dasharray:none;stroke-opacity:1"
         id="path14" /><path
         d="m 712.27,2202.46 -147.93,-86.25 -99.418,-54.37 -97.031,-50.75 -98.711,-49.8 -1.68,-0.82 -1.719,-0.86 -3.402,-1.68 -6.828,-3.36 -5.321,-2.66"
         style="fill:none;stroke:#5e81b5;stroke-width:11.52;stroke-linecap:square;stroke-linejoin:miter;stroke-miterlimit:3.25;stroke-dasharray:none;stroke-opacity:1"
         id="path16" /><path
         d="m 246.91,1950.27 -32.57,-15.97 -1.719,-0.82 -1.723,-0.86 -3.476,-1.68 -6.91,-3.4 -13.91,-6.72 -27.891,-13.52 -1.641,-0.78 -1.601,-0.78 -3.278,-1.6 -6.531,-3.12 -1.64,-0.79 -1.641,-0.82 -8.199,-3.9 -1.25,-0.63"
         style="fill:none;stroke:#5e81b5;stroke-width:11.52;stroke-linecap:square;stroke-linejoin:miter;stroke-miterlimit:3.25;stroke-dasharray:none;stroke-opacity:1"
         id="path18" /><path
         d="m 2459.06,1893.24 -1.87,-0.9 -3.28,-1.56 -1.64,-0.82 -9.85,-4.69 -6.6,-3.16 -3.28,-1.56 -3.32,-1.6 -6.6,-3.13 -13.21,-6.33 -26.48,-12.58 -3.59,-1.71 -3.6,-1.68 -7.19,-3.44 -14.41,-6.84 -28.83,-13.63 -57.81,-27.31 -113.28,-53.63 -104.65,-50 -111.45,-54.26 -58.08,-28.79"
         style="fill:none;stroke:#5e81b5;stroke-width:11.52;stroke-linecap:square;stroke-linejoin:miter;stroke-miterlimit:3.25;stroke-dasharray:none;stroke-opacity:1"
         id="path20" /><path
         d="m 1876.76,1613.98 -147.42,-75.03 -102.5,-53.87 -93.48,-50.24 -55.55,-29.49"
         style="fill:none;stroke:#5e81b5;stroke-width:11.52;stroke-linecap:square;stroke-linejoin:miter;stroke-miterlimit:3.25;stroke-dasharray:none;stroke-opacity:1"
         id="path22" /><path
         d="m 1477.77,1403.75 -135.82,-74.22 -45.93,-25.55 -43.87,-24.33 -97.77,-54.1 -40.16,-21.29"
         style="fill:none;stroke:#5e81b5;stroke-width:11.52;stroke-linecap:square;stroke-linejoin:miter;stroke-miterlimit:3.25;stroke-dasharray:none;stroke-opacity:1"
         id="path24" /><path
         d="m 1114.18,1202.62 -153.789,-82.27 -102.34,-53.71 -97.93,-50.08 -44.891,-22.54"
         style="fill:none;stroke:#5e81b5;stroke-width:11.52;stroke-linecap:square;stroke-linejoin:miter;stroke-miterlimit:3.25;stroke-dasharray:none;stroke-opacity:1"
         id="path26" /><path
         d="M 711.988,992.379 546.949,911.52 443.012,861.801 329.02,807.852 l -1.641,-0.782 -1.68,-0.781 -3.32,-1.559 -6.68,-3.171 -13.32,-6.289 -26.598,-12.571 -1.679,-0.789 -1.641,-0.781 -3.359,-1.598 -6.641,-3.121 -39.84,-18.871 -7.191,-3.437 -7.192,-3.403 -14.328,-6.828 -1.801,-0.82 -5.39,-2.582 -7.149,-3.399 -14.3,-6.84 -1.79,-0.851 -1.761,-0.828 -3.598,-1.711 -7.101,-3.399 -1.801,-0.863 -1.758,-0.859 -3.551,-1.719 -1.801,-0.859 -1.8,-0.821 -3.547,-1.718 -1.762,-0.864 -1.801,-0.859 -0.269,-0.109"
         style="fill:none;stroke:#5e81b5;stroke-width:11.52;stroke-linecap:square;stroke-linejoin:miter;stroke-miterlimit:3.25;stroke-dasharray:none;stroke-opacity:1"
         id="path28" /><path
         d="m 2459.06,713.121 -1.6,-0.781 -1.8,-0.86 -3.51,-1.71 -1.8,-0.821 -1.76,-0.859 -3.55,-1.719 -7.07,-3.402 -1.64,-0.821 -1.68,-0.777 -3.28,-1.601 -6.6,-3.168 -13.17,-6.372 -26.17,-12.73 -40.35,-19.77"
         style="fill:none;stroke:#5e81b5;stroke-width:11.52;stroke-linecap:square;stroke-linejoin:miter;stroke-miterlimit:3.25;stroke-dasharray:none;stroke-opacity:1"
         id="path30" /><path
         d="m 2341.8,656.09 -107.7,-54.02 -103.79,-54.179 -92.73,-50.59 -95.86,-54.801 -61.99,-36.949"
         style="fill:none;stroke:#5e81b5;stroke-width:11.52;stroke-linecap:square;stroke-linejoin:miter;stroke-miterlimit:3.25;stroke-dasharray:none;stroke-opacity:1"
         id="path32" /><path
         d="m 1877.03,403.91 -104.65,-65.39 -82.89,-54.418 -74.49,-50.821 -70.78,-49.801 -74.84,-54.031 -68.56,-50.4295 -1.17,-0.8593 -1.21,-0.8907 -2.35,-1.7578 -4.76,-3.5234 -9.49,-7.0274 -18.95,-14.0625 -1.17,-0.8984 -1.17,-0.8594 -2.39,-1.7617 -4.72,-3.5078 -9.46,-7.0703 -1.17,-0.8594 -1.17,-0.9023 -2.34,-1.7578 -4.73,-3.5118 -1.21,-0.8593 -1.17,-0.8985 -2.35,-1.7617 -1.17,-0.8594 -1.21,-0.9023 -1.17,-0.8594 -1.17,-0.8984"
         style="fill:none;stroke:#5e81b5;stroke-width:11.52;stroke-linecap:square;stroke-linejoin:miter;stroke-miterlimit:3.25;stroke-dasharray:none;stroke-opacity:1"
         id="path34" /><path
         d="m 1296.02,9.80078 2.5,0.78902 2.5,0.8204 5,1.5586 10,3.1601 20,6.3711 40,12.6992 79.84,25.4219 172.23,55.0779 159.14,51.41 88.63,28.911"
         style="fill:none;stroke:#5e81b5;stroke-width:11.52;stroke-linecap:square;stroke-linejoin:miter;stroke-miterlimit:3.25;stroke-dasharray:none;stroke-opacity:1"
         id="path36" /><path
         d="m 1880.9,197.66 227.93,74.57 157.97,51.051 2.69,0.86 2.74,0.859 5.43,1.719 10.89,3.48 21.88,6.91 44.22,13.832 2.77,0.86 2.81,0.859 5.59,1.75 11.21,3.442 22.54,6.918 2.85,0.851 2.81,0.859 5.71,1.758 14.26,4.301 2.89,0.859 5.74,1.762 11.52,3.43 2.85,0.859 2.82,0.86 2.85,0.82 2.85,0.859 1.29,0.391"
         style="fill:none;stroke:#5e81b5;stroke-width:11.52;stroke-linecap:square;stroke-linejoin:miter;stroke-miterlimit:3.25;stroke-dasharray:none;stroke-opacity:1"
         id="path38" /><path
         d="m 134.02,384.02 1.718,0.511 2.891,0.86 2.851,0.859 2.899,0.82 5.781,1.719 11.602,3.402 2.886,0.821 2.93,0.859 5.82,1.719 11.762,3.359 23.75,6.789 3,0.864 2.969,0.859 6.019,1.68 12.114,3.398 24.527,6.801 50.352,13.551 2.968,0.82 9.02,2.34 12.152,3.211 24.649,6.328 50.898,12.648 3.281,0.782 3.243,0.781 6.597,1.609 13.25,3.16 26.992,6.328 56.25,12.653 3.899,0.859 3.949,0.86 7.93,1.718 16.051,3.442 32.89,6.871 69.34,13.719 4.488,0.859 4.532,0.851 9.109,1.719 18.43,3.442 21.211,3.871"
         style="fill:none;stroke:#5e81b5;stroke-width:11.52;stroke-linecap:square;stroke-linejoin:miter;stroke-miterlimit:3.25;stroke-dasharray:none;stroke-opacity:1"
         id="path40" /><path
         d="m 718.199,523.398 88.25,15.122 4.922,0.781 4.918,0.82 9.922,1.598 20.117,3.203 41.402,6.406 87.469,12.813 193.591,25.629 6.29,0.82 18.98,2.34 25.59,3.121 51.91,6.289 24.69,2.93 81.56,9.652 215.08,25.117 14.38,1.723 14.33,1.718 28.44,3.399 56.05,6.832 19.3,2.379"
         style="fill:none;stroke:#5e81b5;stroke-width:11.52;stroke-linecap:square;stroke-linejoin:miter;stroke-miterlimit:3.25;stroke-dasharray:none;stroke-opacity:1"
         id="path42" /><path
         d="m 1884.45,676.719 124.07,17.89 5.23,0.782 5.2,0.82 10.31,1.559 20.31,3.21 39.41,6.36 74.22,12.699 4.42,0.82 4.41,0.782 8.79,1.597 17.27,3.172 33.51,6.36 63.24,12.742 4.11,0.859 12.18,2.578 15.98,3.43 31.01,6.922 7.58,1.719 7.46,1.71 14.81,3.481 28.71,6.879 7.03,1.711 6.95,1.719 6.88,1.718 6.84,1.762 3.39,0.859 6.72,1.719 3.09,0.781"
         style="fill:none;stroke:#5e81b5;stroke-width:11.52;stroke-linecap:square;stroke-linejoin:miter;stroke-miterlimit:3.25;stroke-dasharray:none;stroke-opacity:1"
         id="path44" /><path
         d="m 134.41,785 0.551,0.16 3.277,0.86 3.321,0.859 3.281,0.851 9.73,2.579 12.809,3.48 25.043,6.871 6.019,1.719 5.969,1.68 11.84,3.402 23.129,6.758 44.332,13.551 82.23,27.07 136.047,50.512 130.282,54.769 79.57,36.328"
         style="fill:none;stroke:#5e81b5;stroke-width:11.52;stroke-linecap:square;stroke-linejoin:miter;stroke-miterlimit:3.25;stroke-dasharray:none;stroke-opacity:1"
         id="path46" /><path
         d="m 715.352,998.09 140.429,68.59 105.239,54.41 94.96,50.75 100.74,55.04 92.89,51.36 46.41,25.74 44.25,24.61 98.79,54.65 93.36,50.98 103.44,55.27 105.12,54.26 102.81,50.59 32.85,15.58"
         style="fill:none;stroke:#5e81b5;stroke-width:11.52;stroke-linecap:square;stroke-linejoin:miter;stroke-miterlimit:3.25;stroke-dasharray:none;stroke-opacity:1"
         id="path48" /><path
         d="m 1880.16,1611.56 204.29,88.87 134.38,50.23 4.92,1.72 4.92,1.68 9.96,3.4 20.24,6.84 41.99,13.59 2.69,0.86 2.74,0.86 5.43,1.72 10.98,3.4 22.38,6.79 46.8,13.64 2.81,0.78 2.81,0.82 5.66,1.56 11.49,3.2 2.93,0.78 2.89,0.79 5.86,1.6 11.83,3.16 2.97,0.82 6.02,1.56 3.01,0.82 6.09,1.57 1.37,0.35"
         style="fill:none;stroke:#5e81b5;stroke-width:11.52;stroke-linecap:square;stroke-linejoin:miter;stroke-miterlimit:3.25;stroke-dasharray:none;stroke-opacity:1"
         id="path50" /><path
         d="m 134.41,1824.65 4.57,1.17 6.219,1.56 12.61,3.21 3.171,0.78 3.2,0.78 6.41,1.6 13.039,3.16 26.723,6.37 56.367,12.74 3.941,0.86 3.988,0.85 8.051,1.72 16.321,3.44 33.71,6.88 71.84,13.78 4.692,0.86 4.718,0.86 9.54,1.72 19.371,3.44 40.078,6.91 85.582,13.75 5.238,0.82 5.27,0.82 10.589,1.61 21.481,3.2 44.262,6.44 52.187,7.27"
         style="fill:none;stroke:#5e81b5;stroke-width:11.52;stroke-linecap:square;stroke-linejoin:miter;stroke-miterlimit:3.25;stroke-dasharray:none;stroke-opacity:1"
         id="path52" /><path
         d="m 866.641,1951.91 427.929,50.82 86.76,10.32 6.99,0.86 6.91,0.82 13.83,1.72 27.35,3.43 53.59,6.84 102.11,13.67 12.27,1.72 12.14,1.72 23.95,3.4 46.6,6.83 87.81,13.71 4.92,0.78 4.89,0.83 9.72,1.56 19.14,3.2 37.27,6.41 22.97,4.02"
         style="fill:none;stroke:#5e81b5;stroke-width:11.52;stroke-linecap:square;stroke-linejoin:miter;stroke-miterlimit:3.25;stroke-dasharray:none;stroke-opacity:1"
         id="path54" /><path
         d="m 1882.97,2086.25 166.01,32.58 4.03,0.86 4.02,0.9 8.01,1.71 15.82,3.44 30.94,6.96 59.18,13.82 7.18,1.72 7.11,1.72 14.14,3.48 27.74,6.91 53.59,13.83 6.41,1.72 6.4,1.68 12.66,3.4 25.04,6.79 6.17,1.72 6.17,1.68 12.23,3.4 24.18,6.8 2.97,0.86 3.01,0.82 5.97,1.72 11.84,3.39 2.97,0.86 2.93,0.82 5.9,1.72 11.68,3.4 2.93,0.86 2.89,0.82 5.82,1.72 2.89,0.86 2.89,0.82 5.74,1.72 2.89,0.82 2.85,0.86 1.84,0.54"
         style="fill:none;stroke:#5e81b5;stroke-width:11.52;stroke-linecap:square;stroke-linejoin:miter;stroke-miterlimit:3.25;stroke-dasharray:none;stroke-opacity:1"
         id="path56" /><path
         d="m 133.98,2225.62 1.219,0.36 2.891,0.86 5.66,1.71 5.309,1.57 5.281,1.6 10.539,3.16 20.941,6.33 41.289,12.7 80.821,25.31 170.468,55 156.801,51.29 75.891,24.84"
         style="fill:none;stroke:#5e81b5;stroke-width:11.52;stroke-linecap:square;stroke-linejoin:miter;stroke-miterlimit:3.25;stroke-dasharray:none;stroke-opacity:1"
         id="path58" /><path
         d="m 716.129,2411.99 241.883,78.44 159.138,50.9 2.77,0.9 2.81,0.89 5.55,1.76 78.2,24.89 2.82,0.89 2.77,0.9 5.59,1.76 11.21,3.56 22.34,7.1 5.63,1.8 5.58,1.76 11.21,3.55 2.78,0.9 2.81,0.86 5.58,1.8 2.82,0.9 2.77,0.86 5.63,1.79"
         style="fill:none;stroke:#5e81b5;stroke-width:11.52;stroke-linecap:square;stroke-linejoin:miter;stroke-miterlimit:3.25;stroke-dasharray:none;stroke-opacity:1"
         id="path60" /><path
         d="m 1738.63,657.73 81.84,10.43 6.52,0.86 12.89,1.718 25.51,3.403 6.91,0.937"
         style="fill:none;stroke:#5e81b5;stroke-width:11.52;stroke-linecap:square;stroke-linejoin:miter;stroke-miterlimit:3.25;stroke-dasharray:none;stroke-opacity:1"
         id="path62" /><path
         d="m 719.691,1932.93 133.668,17.34"
         style="fill:none;stroke:#5e81b5;stroke-width:11.52;stroke-linecap:square;stroke-linejoin:miter;stroke-miterlimit:3.25;stroke-dasharray:none;stroke-opacity:1"
         id="path64" /><path
         d="m 1296.02,1303.98 5.7,3.21 5.7,3.16 11.45,6.37 22.89,12.69 45.82,25.39 92.26,50.82 206.45,110.16 6.25,3.2 6.21,3.21 12.58,6.44 25.27,12.85 51.52,25.71 86.72,41.64"
         style="fill:none;stroke:#5e81b5;stroke-width:11.52;stroke-linecap:square;stroke-linejoin:miter;stroke-miterlimit:3.25;stroke-dasharray:none;stroke-opacity:1"
         id="path66" /><path
         d="m 1881.95,1612.15 20.9,9.65 6.88,3.12 13.94,6.33 28.32,12.58 58.91,25.23 3.79,1.56 3.83,1.61 7.65,3.12 15.55,6.33 31.95,12.58 68.13,25.23 4.88,1.68 4.92,1.72 9.92,3.44 20.36,6.83 42.96,13.68 5.63,1.68 5.66,1.71 11.57,3.44 23.94,6.84 51.91,13.67 6.92,1.72 7.07,1.68 14.45,3.44 30.55,6.83 8.01,1.72 8.2,1.68 16.91,3.44 8.72,1.72 8.94,1.68 9.14,1.71 9.02,1.65"
         style="fill:none;stroke:#5e81b5;stroke-width:11.52;stroke-linecap:square;stroke-linejoin:miter;stroke-miterlimit:3.25;stroke-dasharray:none;stroke-opacity:1"
         id="path68" /><path
         d="m 140.738,1804.77 1.063,0.15 10.109,1.72 10.43,1.72 10.711,1.72 11.051,1.68 23.128,3.44 12.11,1.71 12.5,1.68 26.359,3.44 58.871,6.84 15.078,1.6 15.704,1.6 33.32,3.16 17.699,1.61 18.43,1.6 39.34,3.2 20.98,1.6 21.949,1.56 46.95,3.21 25.121,1.6 26.328,1.6 56.293,3.17 26.949,1.44"
         style="fill:none;stroke:#5e81b5;stroke-width:11.52;stroke-linecap:square;stroke-linejoin:miter;stroke-miterlimit:3.25;stroke-dasharray:none;stroke-opacity:1"
         id="path70" /><path
         d="m 1898.98,1912.66 27.78,2.34 35.23,3.2 16.64,1.6 16.02,1.57 30.31,3.2 54.77,6.41 13.63,1.72 13.24,1.71 25.24,3.48 46.32,6.91 10.82,1.72 10.55,1.72 7.23,1.21"
         style="fill:none;stroke:#5e81b5;stroke-width:11.52;stroke-linecap:square;stroke-linejoin:miter;stroke-miterlimit:3.25;stroke-dasharray:none;stroke-opacity:1"
         id="path72" /><path
         d="m 137.461,2006.41 2.309,0.62 12.89,3.44 12.731,3.48 6.328,1.71 6.25,1.72 12.422,3.48 24.488,6.91 47.621,13.83 5.738,1.68 5.742,1.72 11.411,3.4 22.578,6.76 44.453,13.59 86.988,27.15 169.77,54.3 99.34,32.18"
         style="fill:none;stroke:#5e81b5;stroke-width:11.52;stroke-linecap:square;stroke-linejoin:miter;stroke-miterlimit:3.25;stroke-dasharray:none;stroke-opacity:1"
         id="path74" /><path
         d="m 718.672,2185.7 527.108,175.71 48.83,17.46 237.73,85.11 4.26,1.57 12.66,4.68 16.83,6.29 33.44,12.58 66.02,25.16 4.06,1.56 4.1,1.56 8.17,3.13 16.24,6.29 32.31,12.58 63.83,25.15 4.29,1.68 4.3,1.72 8.56,3.4 17.11,6.83 4.25,1.68 4.26,1.72 8.52,3.4 4.22,1.72 4.25,1.68 8.48,3.44 4.22,1.68 4.22,1.72 3.36,1.36"
         style="fill:none;stroke:#5e81b5;stroke-width:11.52;stroke-linecap:square;stroke-linejoin:miter;stroke-miterlimit:3.25;stroke-dasharray:none;stroke-opacity:1"
         id="path76" /><path
         d="m 1882.46,11.4492 1.13,0.461 4.22,1.7187 8.44,3.4024 4.18,1.6796 4.22,1.7188 8.4,3.3984 16.72,6.8321 4.18,1.7187 4.17,1.6797 8.33,3.4023 16.64,6.8399 33.16,13.6289 65.94,27.2695 7.65,3.1992 7.66,3.1602 15.27,6.3711 30.59,12.7303 61.02,25.43 7.65,3.211 7.62,3.16 15.27,6.367 30.59,12.731 61.48,25.429 4.22,1.723 4.18,1.758 8.36,3.441 16.84,6.871 33.79,13.828 8.51,3.442 8.48,3.429 17.11,6.918 4.29,1.723 4.26,1.719 8.59,3.43 17.27,6.921 8.67,3.43 4.38,1.719 0.66,0.281"
         style="fill:none;stroke:#5e81b5;stroke-width:11.52;stroke-linecap:square;stroke-linejoin:miter;stroke-miterlimit:3.25;stroke-dasharray:none;stroke-opacity:1"
         id="path78" /><path
         d="m 135.391,250.941 4.058,1.598 13.129,5.16 4.41,1.711 8.793,3.442 17.739,6.918 4.449,1.71 4.492,1.719 8.949,3.442 18,6.91 36.57,13.789 4.532,1.68 4.527,1.718 9.141,3.364 18.359,6.796 37.422,13.512 77.699,27.11 5.039,1.679 5,1.68 10.11,3.402 20.429,6.758 41.922,13.551 88.512,27.07 5.387,1.61 5.429,1.558 10.864,3.16 22.109,6.332 45.629,12.621 39.18,10.43"
         style="fill:none;stroke:#5e81b5;stroke-width:11.52;stroke-linecap:square;stroke-linejoin:miter;stroke-miterlimit:3.25;stroke-dasharray:none;stroke-opacity:1"
         id="path80" /><path
         d="m 720,444.648 58.48,14.692 12.969,3.16 26.481,6.328 54.961,12.621 118.629,25.231 8.48,1.718 8.52,1.723 17.26,3.43 35.2,6.84 73.2,13.711 156.95,27.378 5.08,0.821 336.52,53.988 10.08,1.563 10.12,1.597 20.12,3.211 40.07,6.399 79.03,12.781 76.48,12.73"
         style="fill:none;stroke:#5e81b5;stroke-width:11.52;stroke-linecap:square;stroke-linejoin:miter;stroke-miterlimit:3.25;stroke-dasharray:none;stroke-opacity:1"
         id="path82" /><path
         d="m 1888.09,657.852 73.28,12.738 17.93,3.199 35.19,6.41 67.93,12.77 125.86,25.582 8.05,1.719 8.01,1.718 15.78,3.481 30.93,6.91 59.18,13.871 7.15,1.719 7.11,1.761 14.06,3.43 27.5,6.961 6.76,1.719 6.72,1.711 13.28,3.48 6.57,1.719 6.52,1.719 12.93,3.48 6.4,1.711 6.37,1.762 3.17,0.859"
         style="fill:none;stroke:#5e81b5;stroke-width:11.52;stroke-linecap:square;stroke-linejoin:miter;stroke-miterlimit:3.25;stroke-dasharray:none;stroke-opacity:1"
         id="path84" /><path
         d="m 137.191,781.602 3.629,1.019 6.211,1.719 12.231,3.469 12.109,3.441 11.91,3.48 23.438,6.911 5.781,1.757 5.699,1.723 11.371,3.469 22.34,6.922 43.09,13.867 5.199,1.672 5.11,1.719 10.203,3.402 20.039,6.797 38.937,13.59 73.672,27.191 134.141,54.41 3.719,1.61 3.671,1.558 7.34,3.16 14.571,6.371 28.628,12.692 55.668,25.359 14.18,6.641"
         style="fill:none;stroke:#5e81b5;stroke-width:11.52;stroke-linecap:square;stroke-linejoin:miter;stroke-miterlimit:3.25;stroke-dasharray:none;stroke-opacity:1"
         id="path86" /><path
         d="m 717.109,998.828 297.771,150.902 188.21,102.73 92.89,51.52 88.67,49.22 200.27,109.26 197.42,101.99 3.52,1.72 3.48,1.72 6.99,3.48 14.1,6.87 28.52,13.83 35.93,17.11"
         style="fill:none;stroke:#5e81b5;stroke-width:11.52;stroke-linecap:square;stroke-linejoin:miter;stroke-miterlimit:3.25;stroke-dasharray:none;stroke-opacity:1"
         id="path88" /><path
         d="m 1881.91,1612.46 139.81,62.5 3.98,1.72 4.03,1.68 8.08,3.4 16.29,6.76 33.24,13.59 69.61,27.11 4.5,1.72 4.53,1.68 9.06,3.4 18.44,6.75 37.93,13.6 80.43,27.11 4.88,1.56 4.92,1.6 9.92,3.16 20.2,6.33 5.12,1.57 5.11,1.6 10.39,3.16 21.06,6.33 5.35,1.56 5.39,1.6 10.82,3.17 5.47,1.56 5.51,1.6 11.09,3.17 5.63,1.56 5.62,1.6 5.66,1.56 0.82,0.24"
         style="fill:none;stroke:#5e81b5;stroke-width:11.52;stroke-linecap:square;stroke-linejoin:miter;stroke-miterlimit:3.25;stroke-dasharray:none;stroke-opacity:1"
         id="path90" /><path
         d="m 137.23,1829.73 10.192,2.77 5.859,1.56 5.86,1.6 5.937,1.57 11.953,3.16 24.34,6.33 50.617,12.66 109.653,25.31 15.781,3.43 16.058,3.4 32.731,6.88 68.359,13.71 148.282,27.46 61.058,10.59"
         style="fill:none;stroke:#5e81b5;stroke-width:11.52;stroke-linecap:square;stroke-linejoin:miter;stroke-miterlimit:3.25;stroke-dasharray:none;stroke-opacity:1"
         id="path92" /><path
         d="m 723.359,1953.44 273.36,44.22 20.311,3.2 40.59,6.37 80.82,12.81 157.34,25.62 19.06,3.21 18.87,3.2 37.31,6.41 72.34,12.81 135.16,25.59 7.85,1.6 7.81,1.56 15.47,3.12 30.39,6.29 58.51,12.54 108.64,25.12 6.44,1.56 6.37,1.56 12.7,3.17 24.96,6.25 14.37,3.71"
         style="fill:none;stroke:#5e81b5;stroke-width:11.52;stroke-linecap:square;stroke-linejoin:miter;stroke-miterlimit:3.25;stroke-dasharray:none;stroke-opacity:1"
         id="path94" /><path
         d="m 1884.73,2166.64 111.44,30.7 5.86,1.68 5.86,1.72 11.56,3.4 22.82,6.8 44.25,13.63 83.95,27.27 5.08,1.68 5.04,1.71 10.03,3.4 19.85,6.8 38.91,13.63 75,27.27 4.29,1.56 4.26,1.6 8.48,3.17 16.87,6.36 33.32,12.7 4.14,1.6 4.1,1.6 8.25,3.17 16.32,6.36 4.07,1.57 4.06,1.6 8.12,3.16 4.03,1.6 4.06,1.6 4.02,1.57 3.83,1.52"
         style="fill:none;stroke:#5e81b5;stroke-width:11.52;stroke-linecap:square;stroke-linejoin:miter;stroke-miterlimit:3.25;stroke-dasharray:none;stroke-opacity:1"
         id="path96" /><path
         d="m 135.391,2360.39 3.871,1.52 4.019,1.61 3.989,1.56 3.98,1.6 7.969,3.16 3.98,1.61 3.949,1.6 7.93,3.16 15.781,6.37 3.942,1.6 3.91,1.56 7.848,3.21 15.671,6.32 31.129,12.74 4.18,1.72 4.223,1.72 8.398,3.43 16.719,6.88 33.32,13.79 66.321,27.57 16.57,6.88 16.519,6.88 33.051,13.78 66.168,27.58 7.731,3.21 7.781,3.2 15.5,6.44 31.101,12.86 3.899,1.6 3.871,1.64 7.809,3.2 15.628,6.45 31.372,12.85 3.902,1.6 3.949,1.6 7.891,3.24 15.777,6.41 3.941,1.64 3.95,1.6 7.929,3.2 3.981,1.61 3.949,1.6 3.981,1.64 3.949,1.6 2.812,1.13"
         style="fill:none;stroke:#5e81b5;stroke-width:11.52;stroke-linecap:square;stroke-linejoin:miter;stroke-miterlimit:3.25;stroke-dasharray:none;stroke-opacity:1"
         id="path98" /><path
         d="m 717.699,11.4492 4.961,1.9922 3.981,1.6367 3.98,1.6016 8.008,3.1992 4.031,1.6016 3.981,1.6093 8.05,3.2383 16.047,6.4024 3.992,1.6093 3.942,1.5586 7.93,3.1602 15.859,6.293 31.949,12.6172 64.692,25.2304 132.698,50.4728 265.47,95.469 38.9,13.98 302.23,102.149 234.92,77.031"
         style="fill:none;stroke:#5e81b5;stroke-width:11.52;stroke-linecap:square;stroke-linejoin:miter;stroke-miterlimit:3.25;stroke-dasharray:none;stroke-opacity:1"
         id="path100" /><path
         d="m 1883.48,425.59 99.02,32.109 5.27,1.68 10.51,3.391 21.1,6.8 42.3,13.59 85.31,27.192 5.39,1.679 5.39,1.719 10.78,3.359 21.65,6.801 43.71,13.59 89.72,27.191 5.39,1.559 5.36,1.602 10.82,3.168 21.87,6.32 5.51,1.609 5.54,1.563 11.18,3.16 22.61,6.367 5.75,1.563 5.78,1.597 11.6,3.172 5.9,1.559 5.9,1.601 5.93,1.598 1.76,0.473"
         style="fill:none;stroke:#5e81b5;stroke-width:11.52;stroke-linecap:square;stroke-linejoin:miter;stroke-miterlimit:3.25;stroke-dasharray:none;stroke-opacity:1"
         id="path102" /><path
         d="m 385.27,658.551 47.109,7.5 11.531,1.719 11.871,1.718 24.809,3.442 12.961,1.718 13.398,1.723 28.211,3.43 14.84,1.719 15.43,1.718 32.582,3.442 73.707,6.871 20.511,1.719 0.782,0.082"
         style="fill:none;stroke:#5e81b5;stroke-width:11.52;stroke-linecap:square;stroke-linejoin:miter;stroke-miterlimit:3.25;stroke-dasharray:none;stroke-opacity:1"
         id="path104" /><path
         d="m 1910.78,752.191 59.02,3.2 29.42,1.718 28.05,1.719 52.07,3.442 24.21,1.71 23.09,1.719 42.97,3.442 20.08,1.718 19.18,1.719 35.9,3.442 15.74,1.601 15.15,1.598 28.68,3.203 13.59,1.598 13.12,1.601 24.97,3.207 11.87,1.602 11.52,1.601 22.04,3.199 10.54,1.61 10.28,1.601 19.68,3.239 9.3,1.558"
         style="fill:none;stroke:#5e81b5;stroke-width:11.52;stroke-linecap:square;stroke-linejoin:miter;stroke-miterlimit:3.25;stroke-dasharray:none;stroke-opacity:1"
         id="path106" /><path
         d="m 140.512,806.52 17.027,3.171 8.402,1.598 16.329,3.199 7.89,1.602 7.731,1.609 15.039,3.199 28.519,6.403 6.789,1.609 6.723,1.641 13.129,3.199 25.109,6.41 46.449,12.809 5.512,1.601 5.43,1.602 10.699,3.238 20.82,6.41 39.371,12.809 4.692,1.57 4.609,1.602 9.141,3.121 17.887,6.289 34.421,12.578 64.532,25.16 117.109,50.313 3.75,1.718 3.789,1.68 7.461,3.43 14.84,6.801 6.367,2.968"
         style="fill:none;stroke:#5e81b5;stroke-width:11.52;stroke-linecap:square;stroke-linejoin:miter;stroke-miterlimit:3.25;stroke-dasharray:none;stroke-opacity:1"
         id="path108" /><path
         d="m 717.148,999.141 72.543,34.689 108.629,54.61 191.68,101.83 3.24,1.8 3.28,1.76 6.49,3.55 13.01,7.11 25.93,14.22 51.53,28.44 3.24,1.76 3.2,1.79 6.41,3.56 12.85,7.11 25.62,14.22 3.21,1.75 3.2,1.8 19.22,10.66 3.16,1.76 3.21,1.76 6.4,3.56 3.21,1.79 3.2,1.76 3.2,1.8 3.21,1.75"
         style="fill:none;stroke:#5e81b5;stroke-width:11.52;stroke-linecap:square;stroke-linejoin:miter;stroke-miterlimit:3.25;stroke-dasharray:none;stroke-opacity:1"
         id="path110" /><path
         d="m 747.422,1859.14 35.156,1.64 149.141,6.37 40.121,1.6 40.97,1.6 83.99,3.17 170.15,6.4 28.99,1.1 12.81,0.5 41.05,1.57 79.38,3.2 38.09,1.6 36.83,1.6 69.81,3.17 32.93,1.6 31.6,1.6 59.22,3.2 27.73,1.6 26.52,1.57 49.61,3.2 23.17,1.6 22.19,1.6 9.96,0.75"
         style="fill:none;stroke:#5e81b5;stroke-width:11.52;stroke-linecap:square;stroke-linejoin:miter;stroke-miterlimit:3.25;stroke-dasharray:none;stroke-opacity:1"
         id="path112" /><path
         d="m 2225.94,1952.73 32.18,5.9 9.07,1.72 8.9,1.72 17.35,3.48 33.04,6.91 60.79,13.83 7.22,1.72 7.11,1.72 14.02,3.47 6.92,1.72 6.84,1.72 13.55,3.48 6.64,1.72 4.92,1.28"
         style="fill:none;stroke:#5e81b5;stroke-width:11.52;stroke-linecap:square;stroke-linejoin:miter;stroke-miterlimit:3.25;stroke-dasharray:none;stroke-opacity:1"
         id="path114" /><path
         d="m 137.5,604.879 9.879,2.582 6.141,1.559 6.21,1.601 6.25,1.57 12.649,3.2 6.449,1.558 6.442,1.602 13.128,3.168 27.114,6.332 6.949,1.597 7.07,1.563 14.34,3.168 29.879,6.32 7.73,1.602 7.86,1.609 16.129,3.16 33.941,6.328 8.871,1.563 1.559,0.269"
         style="fill:none;stroke:#5e81b5;stroke-width:11.52;stroke-linecap:square;stroke-linejoin:miter;stroke-miterlimit:3.25;stroke-dasharray:none;stroke-opacity:1"
         id="path116" /><path
         d="m 735.16,698.629 49.059,3.519 25.859,1.723 55.582,3.43 29.852,1.719 31.328,1.718 67.14,3.442 152.7,6.871 41.72,1.719 42.97,1.679 64.96,2.539 23.94,0.903 183.21,6.879 45.35,1.71 44.72,1.719 86.49,3.442 157.11,6.879 7.42,0.351"
         style="fill:none;stroke:#5e81b5;stroke-width:11.52;stroke-linecap:square;stroke-linejoin:miter;stroke-miterlimit:3.25;stroke-dasharray:none;stroke-opacity:1"
         id="path118" /><path
         d="m 1296.02,1303.98 -2.9,-1.56 -2.85,-1.6 -5.7,-3.16 -11.45,-6.37 -22.85,-12.7 -45.86,-25.39 -92.26,-50.82 -206.451,-110.15 -188.551,-93.128"
         style="fill:none;stroke:#5e81b5;stroke-width:11.52;stroke-linecap:square;stroke-linejoin:miter;stroke-miterlimit:3.25;stroke-dasharray:none;stroke-opacity:1"
         id="path120" /><path
         d="m 710.078,995.781 -20.699,-9.57 -6.879,-3.16 -13.871,-6.289 -28.199,-12.621 -58.399,-25.192 -3.75,-1.57 -3.793,-1.598 -7.578,-3.121 -15.269,-6.332 -31.332,-12.578 -65.969,-25.23 -4.649,-1.719 -4.691,-1.68 -9.41,-3.441 -19.219,-6.84 -39.851,-13.668 -5.149,-1.723 -5.16,-1.679 -10.43,-3.43 -21.332,-6.84 -44.609,-13.672 -11.641,-3.437 -11.789,-3.403 -24.262,-6.828 -6.207,-1.719 -6.25,-1.722 -12.703,-3.399 -26.168,-6.84 -6.679,-1.71 -6.762,-1.719 -13.75,-3.403 -6.988,-1.718 -7.071,-1.719 -7.148,-1.68 -4.184,-1.011"
         style="fill:none;stroke:#5e81b5;stroke-width:11.52;stroke-linecap:square;stroke-linejoin:miter;stroke-miterlimit:3.25;stroke-dasharray:none;stroke-opacity:1"
         id="path122" /><path
         d="m 2453.67,790.23 -3.59,-0.851 -7.46,-1.68 -7.54,-1.719 -7.62,-1.718 -7.73,-1.723 -15.75,-3.398 -7.46,-1.602 -7.57,-1.598 -15.36,-3.211 -31.87,-6.359 -68.56,-12.781 -9.06,-1.559 -9.18,-1.601 -18.71,-3.2 -38.87,-6.371 -84.14,-12.769 -11.13,-1.61 -11.29,-1.601 -23.01,-3.16 -47.77,-6.41 -102.62,-12.731 -24.76,-2.93"
         style="fill:none;stroke:#5e81b5;stroke-width:11.52;stroke-linecap:square;stroke-linejoin:miter;stroke-miterlimit:3.25;stroke-dasharray:none;stroke-opacity:1"
         id="path124" /><path
         d="m 1864.02,696.328 -193.47,-21.019 -16.57,-1.719 -33.32,-3.469 -67.03,-6.922 -45.27,-4.648"
         style="fill:none;stroke:#5e81b5;stroke-width:11.52;stroke-linecap:square;stroke-linejoin:miter;stroke-miterlimit:3.25;stroke-dasharray:none;stroke-opacity:1"
         id="path126" /><path
         d="m 1476.41,655.23 -72.78,-7.57 -16.36,-1.719 -32.47,-3.48 -58.75,-6.41 -4.72,-0.5 -120.16,-13.832 -14.29,-1.719 -14.11,-1.719 -27.73,-3.48 -53.32,-6.91 -98.322,-13.832 -11.558,-1.719 -11.328,-1.719 -22.274,-3.473 -42.617,-6.918 -78.32,-13.82 -9.02,-1.68 -8.871,-1.718 -17.461,-3.403 -33.551,-6.8 -6.949,-1.438"
         style="fill:none;stroke:#5e81b5;stroke-width:11.52;stroke-linecap:square;stroke-linejoin:miter;stroke-miterlimit:3.25;stroke-dasharray:none;stroke-opacity:1"
         id="path128" /><path
         d="m 705.898,548.09 -47.109,-10.551 -7.269,-1.68 -14.29,-3.398 -27.66,-6.801 -51.84,-13.551 -6.21,-1.718 -6.09,-1.68 -12.071,-3.402 -23.48,-6.789 -44.488,-13.598 -80.743,-27.152 -4.449,-1.559 -4.379,-1.602 -8.711,-3.16 -17.109,-6.328 -33.051,-12.66 -62.027,-25.352 -3.75,-1.558 -3.711,-1.602 -7.34,-3.168 -14.531,-6.332 -28.36,-12.648 -3.48,-1.602 -3.48,-1.57 -6.911,-3.16 -13.629,-6.328 -3.402,-1.602 -3.359,-1.559 -6.719,-3.171 -3.32,-1.598 -3.321,-1.563 -6.597,-3.168 -3.602,-1.71 -3.551,-1.719 -1.25,-0.629"
         style="fill:none;stroke:#5e81b5;stroke-width:11.52;stroke-linecap:square;stroke-linejoin:miter;stroke-miterlimit:3.25;stroke-dasharray:none;stroke-opacity:1"
         id="path130" /><path
         d="m 2457.38,349.141 -2.54,-1.25 -3.51,-1.719 -13.91,-6.871 -6.87,-3.442 -13.64,-6.879 -3.39,-1.71 -3.36,-1.68 -6.72,-3.442 -13.32,-6.878 -26.21,-13.75 -6.49,-3.43 -6.4,-3.442 -12.78,-6.839 -25.19,-13.75 -49.1,-27.457 -11.25,-6.403 -11.14,-6.41 -22.15,-12.809 -43.43,-25.671 -84.5,-51.289 -2.53,-1.559 -2.58,-1.563 -5.08,-3.168 -10.12,-6.25 -20.23,-12.57 -40.08,-25.16 -5,-3.1289 -5,-3.1602 -9.96,-6.25 -19.85,-12.582 -39.64,-25.1484 -2.7,-1.6797 -2.66,-1.7227 -5.39,-3.3984 -10.7,-6.8399 -2.69,-1.7187 -2.7,-1.6719 -5.35,-3.3984 -2.7,-1.7227 -2.65,-1.7187 -5.39,-3.3985 -2.66,-1.7226 -2.7,-1.6797 -2.14,-1.3594"
         style="fill:none;stroke:#5e81b5;stroke-width:11.52;stroke-linecap:square;stroke-linejoin:miter;stroke-miterlimit:3.25;stroke-dasharray:none;stroke-opacity:1"
         id="path132" /><path
         d="m 1875.78,2596.56 -0.7,-0.47 -2.7,-1.71 -5.39,-3.4 -2.65,-1.72 -2.7,-1.68 -5.39,-3.44 -10.74,-6.8 -2.7,-1.72 -2.69,-1.67 -5.39,-3.44 -10.82,-6.8 -21.64,-13.63 -43.56,-27.31 -2.58,-1.56 -2.54,-1.6 -5.11,-3.16 -10.28,-6.37 -20.62,-12.74 -41.72,-25.46 -85.82,-50.9 -202.27,-110.32 -3.32,-1.71 -3.36,-1.68 -6.68,-3.4 -13.51,-6.76 -27.46,-13.56 -37.7,-18 -18.94,-9.07 -121.21,-54.14 -3.71,-1.6 -3.72,-1.56 -7.42,-3.16 -15.04,-6.33 -30.58,-12.62 -63.13,-25.27 -134.451,-50.51 -178.988,-62.07"
         style="fill:none;stroke:#5e81b5;stroke-width:11.52;stroke-linecap:square;stroke-linejoin:miter;stroke-miterlimit:3.25;stroke-dasharray:none;stroke-opacity:1"
         id="path134" /><path
         d="m 442.852,1949.45 -37.383,-12.07 -9.918,-3.16 -19.77,-6.41 -39.371,-12.77 -77.93,-25.59 -5.199,-1.72 -5.23,-1.75 -10.43,-3.44 -20.711,-6.92 -5.148,-1.75 -5.16,-1.72 -10.313,-3.48 -20.43,-6.91 -5.121,-1.72 -5.078,-1.76 -10.109,-3.44 -5.082,-1.75 -10.078,-3.44 -4.371,-1.53"
         style="fill:none;stroke:#5e81b5;stroke-width:11.52;stroke-linecap:square;stroke-linejoin:miter;stroke-miterlimit:3.25;stroke-dasharray:none;stroke-opacity:1"
         id="path136" /><path
         d="m 2456.02,1844.8 -1.1,-0.35 -5,-1.75 -5,-1.72 -4.96,-1.72 -4.96,-1.76 -9.92,-3.44 -4.92,-1.76 -4.93,-1.71 -9.8,-3.48 -19.49,-6.91 -38.48,-13.87 -74.76,-27.7 -4.5,-1.68 -4.45,-1.72 -8.95,-3.39 -17.73,-6.8 -34.92,-13.59 -67.81,-27.19 -127.97,-54.42 -124.49,-56.95"
         style="fill:none;stroke:#5e81b5;stroke-width:11.52;stroke-linecap:square;stroke-linejoin:miter;stroke-miterlimit:3.25;stroke-dasharray:none;stroke-opacity:1"
         id="path138" /><path
         d="m 1874.92,1609.61 -297.81,-151.33 -188.2,-102.73 -92.89,-51.57 -88.68,-49.18 -200.23,-109.25 -197.188,-102 -92.852,-45.152"
         style="fill:none;stroke:#5e81b5;stroke-width:11.52;stroke-linecap:square;stroke-linejoin:miter;stroke-miterlimit:3.25;stroke-dasharray:none;stroke-opacity:1"
         id="path140" /><path
         d="m 710.121,995.121 -140,-63.793 -3.91,-1.68 -7.77,-3.398 -15.671,-6.801 -31.829,-13.551 -65.511,-27.109 -4.18,-1.719 -4.18,-1.679 -8.398,-3.403 -16.953,-6.789 -34.379,-13.558 -70.891,-27.11 -4.219,-1.601 -4.218,-1.559 -8.481,-3.172 -17.109,-6.32 -34.613,-12.66 -4.368,-1.559 -4.382,-1.609 -8.789,-3.16 -17.649,-6.332 -4.461,-1.559 -4.449,-1.602 -8.91,-3.168 -17.961,-6.32 -4.539,-1.57 -4.531,-1.602 -4.532,-1.558 -4.527,-1.602 -4.57,-1.558 -4.532,-1.61 -3.629,-1.25"
         style="fill:none;stroke:#5e81b5;stroke-width:11.52;stroke-linecap:square;stroke-linejoin:miter;stroke-miterlimit:3.25;stroke-dasharray:none;stroke-opacity:1"
         id="path142" /><path
         d="m 2456.02,759.879 -5.16,-1.758 -9.22,-3.16 -18.52,-6.332 -4.64,-1.598 -4.65,-1.562 -9.34,-3.168 -18.75,-6.321 -37.85,-12.66 -10.31,-3.441 -10.35,-3.43 -20.82,-6.84 -41.88,-13.75 -84.69,-27.418 -30.66,-9.89"
         style="fill:none;stroke:#5e81b5;stroke-width:11.52;stroke-linecap:square;stroke-linejoin:miter;stroke-miterlimit:3.25;stroke-dasharray:none;stroke-opacity:1"
         id="path144" /><path
         d="M 2138.91,655.23 1883.32,572.07"
         style="fill:none;stroke:#5e81b5;stroke-width:11.52;stroke-linecap:square;stroke-linejoin:miter;stroke-miterlimit:3.25;stroke-dasharray:none;stroke-opacity:1"
         id="path146" /><path
         d="m 1873.44,568.75 -175.43,-60.781 -8.67,-3.129 -17.27,-6.289 -33.98,-12.531 -65.98,-25.122 -123.95,-50.238 -4.02,-1.68 -3.98,-1.71 -7.97,-3.399 -15.82,-6.84 -31.1,-13.59 -60.04,-27.269 -28.32,-13.711 -84.14,-40.781 -188.28,-101.68 -6.01,-3.441 -5.98,-3.438 -11.88,-6.91 -23.589,-13.75 -46.332,-27.582 -22.808,-13.75 L 885.309,117.34 840.621,89.7695 830.309,83.3594 820,76.9102 799.449,64.0586 l -2.57,-1.6367 -2.539,-1.6016 -5.121,-3.1992 -10.239,-6.4492 -20.39,-12.8516 -2.539,-1.6015 -2.531,-1.6407 -5.079,-3.1992 -10.16,-6.4492 -12.691,-8.0078 -2.539,-1.6406 -5.082,-3.2032 -1.758,-1.1289"
         style="fill:none;stroke:#5e81b5;stroke-width:11.52;stroke-linecap:square;stroke-linejoin:miter;stroke-miterlimit:3.25;stroke-dasharray:none;stroke-opacity:1"
         id="path148" /><path
         d="m 711.02,2596.56 -3.168,-2.03 -5.082,-3.2 -5.04,-3.21 -2.531,-1.6 -2.539,-1.64 -5.039,-3.2 -10.16,-6.45 -2.461,-1.56 -2.5,-1.56 -14.879,-9.49 -19.891,-12.62 -39.839,-25.2 -80.59,-50.46 -183.16,-109.46 -2.77,-1.6 -8.441,-4.8 -11.328,-6.37 -22.852,-12.77 -46.871,-25.55 -3.008,-1.6 -2.973,-1.6 -6.019,-3.17 -12.109,-6.4 -24.532,-12.78 -3.117,-1.6 -3.133,-1.56 -6.25,-3.2 -12.617,-6.41 -3.16,-1.56 -3.199,-1.61 -6.371,-3.2 -3.243,-1.6 -3.199,-1.6 -6.488,-3.17 -3.512,-1.75 -3.558,-1.72 -0.782,-0.39"
         style="fill:none;stroke:#5e81b5;stroke-width:11.52;stroke-linecap:square;stroke-linejoin:miter;stroke-miterlimit:3.25;stroke-dasharray:none;stroke-opacity:1"
         id="path150" /><path
         d="m 2457.38,2255.59 -3.12,-1.53 -3.6,-1.72 -7.18,-3.47 -7.27,-3.44 -7.34,-3.48 -14.81,-6.91 -3.75,-1.72 -3.75,-1.76 -7.58,-3.44 -15.31,-6.91 -31.4,-13.87 -8.05,-3.43 -8.13,-3.48 -16.52,-6.91 -34.02,-13.83 -73.17,-27.7 -4.76,-1.68 -4.77,-1.72 -9.65,-3.36 -19.72,-6.79 -41.29,-13.6 -5.35,-1.72 -5.39,-1.67 -10.9,-3.4 -22.46,-6.8 -47.39,-13.59 -6.21,-1.68 -6.25,-1.72 -12.69,-3.4 -26.17,-6.8 -55.98,-13.55 -7.35,-1.72 -7.46,-1.68 -15.19,-3.4 -17.31,-3.79"
         style="fill:none;stroke:#5e81b5;stroke-width:11.52;stroke-linecap:square;stroke-linejoin:miter;stroke-miterlimit:3.25;stroke-dasharray:none;stroke-opacity:1"
         id="path152" /><path
         d="m 1870.59,2056.64 -66.72,-13.32 -8.44,-1.6 -8.52,-1.56 -17.38,-3.17 -36.09,-6.33 -78.17,-12.69 -10.35,-1.56 -10.47,-1.61 -21.4,-3.16 -44.53,-6.33 -96.06,-12.69 -12.66,-1.57 -12.81,-1.6 -26.05,-3.16 -53.83,-6.33 -71.95,-8.05 -41.76,-4.64 -137.81,-14.54"
         style="fill:none;stroke:#5e81b5;stroke-width:11.52;stroke-linecap:square;stroke-linejoin:miter;stroke-miterlimit:3.25;stroke-dasharray:none;stroke-opacity:1"
         id="path154" /><path
         d="m 1083.63,1949.45 -89.65,-9.25 -16.64,-1.68 -33.121,-3.44 -65.508,-6.88 -126.133,-13.75 -15.199,-1.72 -9.41,-1.09"
         style="fill:none;stroke:#5e81b5;stroke-width:11.52;stroke-linecap:square;stroke-linejoin:miter;stroke-miterlimit:3.25;stroke-dasharray:none;stroke-opacity:1"
         id="path156" /><path
         d="m 699.41,1908.36 -63.898,-7.66 -106.371,-13.75 -12.539,-1.72 -12.34,-1.71 -24.223,-3.44 -46.449,-6.88 -85.469,-13.71 -10,-1.72 -9.883,-1.72 -19.41,-3.43 -37.226,-6.88 -68.872,-13.75 -7.57,-1.6 -7.5,-1.6 -14.769,-3.2 -7.27,-1.61 -7.18,-1.6 -7.113,-1.6 -7.027,-1.6 -5.981,-1.41"
         style="fill:none;stroke:#5e81b5;stroke-width:11.52;stroke-linecap:square;stroke-linejoin:miter;stroke-miterlimit:3.25;stroke-dasharray:none;stroke-opacity:1"
         id="path158" /><path
         d="m 2453.75,1814.49 -7.27,-1.76 -6.64,-1.6 -6.6,-1.6 -13.01,-3.2 -6.4,-1.6 -6.37,-1.61 -12.5,-3.2 -24.34,-6.4 -46.17,-12.86 -11.09,-3.2 -10.9,-3.2 -21.29,-6.41 -40.78,-12.85 -75.47,-25.62 -4.37,-1.61 -4.38,-1.56 -8.71,-3.12 -17.11,-6.29 -33.2,-12.58 -63.13,-25.16 -116.17,-50.31 -3.75,-1.72 -3.71,-1.72 -7.46,-3.4 -14.81,-6.83 -6.21,-2.85"
         style="fill:none;stroke:#5e81b5;stroke-width:11.52;stroke-linecap:square;stroke-linejoin:miter;stroke-miterlimit:3.25;stroke-dasharray:none;stroke-opacity:1"
         id="path160" /><path
         d="m 1874.84,1608.91 -72.57,-34.77 -108.6,-54.57 -191.68,-101.87 -3.24,-1.76 -3.24,-1.8 -6.53,-3.55 -13,-7.07 -25.9,-14.22 -51.56,-28.44 -3.25,-1.8 -3.2,-1.76 -6.41,-3.55 -12.85,-7.11 -25.62,-14.22 -3.21,-1.76 -3.2,-1.79 -6.4,-3.56 -12.78,-7.11 -3.2,-1.75 -3.2,-1.8 -6.41,-3.56 -3.2,-1.75 -3.21,-1.8 -3.2,-1.76 -3.16,-1.8"
         style="fill:none;stroke:#5e81b5;stroke-width:11.52;stroke-linecap:square;stroke-linejoin:miter;stroke-miterlimit:3.25;stroke-dasharray:none;stroke-opacity:1"
         id="path162" /><path
         d="m 708.672,2035.94 -144.57,-47.42 -9.883,-3.17 -19.77,-6.4 -39.679,-12.78 -41.68,-13.44"
         style="fill:none;stroke:#5e81b5;stroke-width:11.52;stroke-linecap:square;stroke-linejoin:miter;stroke-miterlimit:3.25;stroke-dasharray:none;stroke-opacity:1"
         id="path164" /><path
         d="m 131.211,9.80078 2.848,0.78902 2.89,0.8204 5.711,1.5586 11.442,3.1601 22.847,6.3711 45.821,12.6992 92.109,25.4219 204.301,55.0779 191.129,49.18"
         style="fill:none;stroke:#5e81b5;stroke-width:11.52;stroke-linecap:square;stroke-linejoin:miter;stroke-miterlimit:3.25;stroke-dasharray:none;stroke-opacity:1"
         id="path166" /><path
         d="m 716.91,166.559 209.809,50.98 238.201,54.691 131.76,29.098 99.41,21.953 253.29,55.309 225.31,49.89"
         style="fill:none;stroke:#5e81b5;stroke-width:11.52;stroke-linecap:square;stroke-linejoin:miter;stroke-miterlimit:3.25;stroke-dasharray:none;stroke-opacity:1"
         id="path168" /><path
         d="m 1882.07,430.121 238.01,53.43 3.83,0.859 3.86,0.86 7.66,1.718 15.39,3.442 30.9,6.871 62.46,13.719 15.78,3.429 15.9,3.442 32.11,6.879 65.86,13.75 3.94,0.781 3.95,0.82 7.89,1.598 15.94,3.203 4.02,0.777 4.02,0.821 8.09,1.601 16.33,3.207 4.14,0.781 4.1,0.821 4.18,0.781 4.14,0.82 1.91,0.348"
         style="fill:none;stroke:#5e81b5;stroke-width:11.52;stroke-linecap:square;stroke-linejoin:miter;stroke-miterlimit:3.25;stroke-dasharray:none;stroke-opacity:1"
         id="path170" /><path
         d="m 135.551,556.52 6.289,1.21 4.25,0.79 4.262,0.82 8.558,1.601 17.379,3.2 4.371,0.82 4.418,0.777 8.902,1.602 18.008,3.211 37.192,6.398 80,12.821 5.199,0.82 5.191,0.781 10.59,1.559 21.602,3.121 45.308,6.289 5.86,0.781 5.941,0.789 12.027,1.602 24.723,3.117 52.309,6.293 13.75,1.558 14.058,1.571 28.953,3.16 61.868,6.289 8.171,0.781 8.2,0.778 16.761,1.562 34.571,3.129"
         style="fill:none;stroke:#5e81b5;stroke-width:11.52;stroke-linecap:square;stroke-linejoin:miter;stroke-miterlimit:3.25;stroke-dasharray:none;stroke-opacity:1"
         id="path172" /><path
         d="m 723.09,635.43 66.172,5.468 10.777,0.864 21.91,1.718 45.473,3.399 97.578,6.832 36.09,2.379"
         style="fill:none;stroke:#5e81b5;stroke-width:11.52;stroke-linecap:square;stroke-linejoin:miter;stroke-miterlimit:3.25;stroke-dasharray:none;stroke-opacity:1"
         id="path174" /><path
         d="m 1026.72,657.73 171.72,10.43 14.53,0.86 29.3,1.718 53.75,3.09 5.23,0.313 118.24,6.839 224.89,13.629 12.26,0.782 12.15,0.82 23.94,1.559 46.49,3.21 87.03,6.36 10.31,0.781 10.16,0.789 20,1.602 1.48,0.109"
         style="fill:none;stroke:#5e81b5;stroke-width:11.52;stroke-linecap:square;stroke-linejoin:miter;stroke-miterlimit:3.25;stroke-dasharray:none;stroke-opacity:1"
         id="path176" /><path
         d="m 1888.44,712.27 88.36,7.769 8.43,0.82 8.32,0.782 16.37,1.597 31.49,3.172 58.47,6.36 6.92,0.781 6.83,0.828 13.4,1.601 25.94,3.161 48.44,6.371 6.25,0.859 6.17,0.859 12.15,1.719 23.43,3.43 43.95,6.922 5.23,0.859 5.2,0.86 10.23,1.71 19.85,3.481 37.54,6.879 8.98,1.711 8.83,1.719 17.19,3.48 4.21,0.859 4.18,0.86 8.29,1.722 16.13,3.438 3.98,0.851 3.95,0.86 3.87,0.859 3.9,0.86 2.19,0.511"
         style="fill:none;stroke:#5e81b5;stroke-width:11.52;stroke-linecap:square;stroke-linejoin:miter;stroke-miterlimit:3.25;stroke-dasharray:none;stroke-opacity:1"
         id="path178" /><path
         d="m 134.879,792.461 1.922,0.469 3.789,0.859 3.75,0.859 3.711,0.864 7.34,1.718 14.449,3.43 3.48,0.86 3.442,0.859 6.867,1.68 13.48,3.402 26.051,6.758 48.91,13.551 87.77,27.07 2.43,0.781 2.378,0.789 4.762,1.602 9.418,3.117 18.473,6.332 35.711,12.617 67.187,25.274 131.602,54.769 80.039,36.399"
         style="fill:none;stroke:#5e81b5;stroke-width:11.52;stroke-linecap:square;stroke-linejoin:miter;stroke-miterlimit:3.25;stroke-dasharray:none;stroke-opacity:1"
         id="path180" /><path
         d="m 715.391,998.16 140.39,68.52 105.239,54.41 94.96,50.75 100.74,55.04 92.89,51.36 46.41,25.74 44.25,24.61 98.79,54.65 93.36,50.98 103.44,55.27 105.16,54.26 102.85,50.59 32.77,15.5"
         style="fill:none;stroke:#5e81b5;stroke-width:11.52;stroke-linecap:square;stroke-linejoin:miter;stroke-miterlimit:3.25;stroke-dasharray:none;stroke-opacity:1"
         id="path182" /><path
         d="m 1880.16,1611.48 206.01,88.95 2.03,0.78 2,0.82 4.02,1.56 8.08,3.13 16.41,6.29 33.79,12.54 4.3,1.56 4.33,1.6 8.75,3.13 17.82,6.28 36.87,12.54 5.16,1.72 5.15,1.68 10.51,3.4 21.45,6.84 45.04,13.59 2.92,0.86 2.97,0.86 5.9,1.72 11.99,3.4 24.77,6.79 6.33,1.72 6.44,1.68 13.05,3.44 27.03,6.8 3.24,0.78 3.25,0.82 6.56,1.56 3.32,0.82 3.36,0.78 6.72,1.6 3.39,0.78 3.44,0.79 3.44,0.82 3.44,0.78 3.47,0.78 0.24,0.08"
         style="fill:none;stroke:#5e81b5;stroke-width:11.52;stroke-linecap:square;stroke-linejoin:miter;stroke-miterlimit:3.25;stroke-dasharray:none;stroke-opacity:1"
         id="path184" /><path
         d="m 134.879,1817.19 6.641,1.48 3.64,0.78 7.262,1.6 14.848,3.17 31.05,6.37 3.981,0.78 4.07,0.78 8.16,1.6 16.758,3.16 35.27,6.37 78.671,12.74 5.79,0.86 5.859,0.85 11.91,1.72 24.609,3.44 52.973,6.88 6.988,0.85 7.071,0.86 14.449,1.72 30,3.48 65.043,6.87 8.629,0.86 8.75,0.86 17.859,1.72 37.262,3.44 61.129,5.27"
         style="fill:none;stroke:#5e81b5;stroke-width:11.52;stroke-linecap:square;stroke-linejoin:miter;stroke-miterlimit:3.25;stroke-dasharray:none;stroke-opacity:1"
         id="path186" /><path
         d="m 723.789,1897.38 10.27,0.82 10.902,0.86 22.187,1.72 46.211,3.44 99.371,6.87 12.192,0.82 12.308,0.82 24.961,1.61 51.209,3.2 106.87,6.44 175.82,10.16 46.49,2.7 13.87,0.82 13.78,0.78 27.5,1.64 54.22,3.2 104.46,6.45 8.86,0.54"
         style="fill:none;stroke:#5e81b5;stroke-width:11.52;stroke-linecap:square;stroke-linejoin:miter;stroke-miterlimit:3.25;stroke-dasharray:none;stroke-opacity:1"
         id="path188" /><path
         d="m 1590.9,1951.91 15.31,1.02 47.93,3.2 90.08,6.45 10.51,0.78 10.35,0.78 20.43,1.6 39.41,3.13 43.99,3.71"
         style="fill:none;stroke:#5e81b5;stroke-width:11.52;stroke-linecap:square;stroke-linejoin:miter;stroke-miterlimit:3.25;stroke-dasharray:none;stroke-opacity:1"
         id="path190" /><path
         d="m 1887.77,1974.22 28.05,2.54 16.95,1.6 32.74,3.12 61.21,6.33 7.3,0.78 7.19,0.79 14.22,1.6 27.5,3.12 51.84,6.33 93.12,12.62 5.9,0.86 5.82,0.82 11.52,1.72 22.5,3.43 43.13,6.84 10.39,1.72 10.27,1.68 20.2,3.43 38.98,6.84 4.77,0.86 4.72,0.86 9.42,1.72 9.29,1.72 9.22,1.68 9.14,1.72 9.07,1.71 4.22,0.79"
         style="fill:none;stroke:#5e81b5;stroke-width:11.52;stroke-linecap:square;stroke-linejoin:miter;stroke-miterlimit:3.25;stroke-dasharray:none;stroke-opacity:1"
         id="path192" /><path
         d="m 135.551,2053.12 0.578,0.12 4.461,0.82 8.82,1.72 8.789,1.72 17.352,3.44 34.097,6.83 3.903,0.78 3.91,0.83 7.769,1.56 15.508,3.2 30.512,6.41 59.691,12.77 115.938,25.51 246.601,55.35 16.442,3.71"
         style="fill:none;stroke:#5e81b5;stroke-width:11.52;stroke-linecap:square;stroke-linejoin:miter;stroke-miterlimit:3.25;stroke-dasharray:none;stroke-opacity:1"
         id="path194" /><path
         d="m 717.301,2179.53 453.479,99.69 124.45,27.46 124.89,27.54 224.18,51.29 208.24,50.31 22.54,5.63"
         style="fill:none;stroke:#5e81b5;stroke-width:11.52;stroke-linecap:square;stroke-linejoin:miter;stroke-miterlimit:3.25;stroke-dasharray:none;stroke-opacity:1"
         id="path196" /><path
         d="m 1881.68,2443.09 373.36,98.24 6.48,1.79 6.49,1.76 12.97,3.56 25.86,7.11 51.48,14.22 6.41,1.79 6.4,1.76 12.85,3.56 25.63,7.1 3.2,0.9 3.17,0.9 6.4,1.76 12.82,3.55 3.2,0.9 3.2,0.86 6.37,1.8 3.2,0.9 3.21,0.86 6.4,1.79"
         style="fill:none;stroke:#5e81b5;stroke-width:11.52;stroke-linecap:square;stroke-linejoin:miter;stroke-miterlimit:3.25;stroke-dasharray:none;stroke-opacity:1"
         id="path198" /><path
         d="m 2460.78,2598.2 v -17.46 l -0.04,-0.82 v -7.93 l -0.04,-0.78 v -3.16 l -0.04,-1.6 v -3.17 l -0.04,-0.82 v -2.38 l -0.03,-0.78 v -0.78 l -0.04,-1.61 v -1.6 l -0.04,-1.56 v -0.78 l -0.04,-0.82 -0.04,-1.56 -0.08,-3.21 v -0.86 l -0.04,-0.86 -0.11,-5.15 -0.08,-1.72 -0.04,-1.72 -0.16,-3.44 v -0.86 l -0.12,-2.57 -0.15,-3.48 -0.08,-1.72 -0.12,-1.72 -0.15,-3.44 -0.08,-0.86 -0.04,-0.86 -0.12,-1.71 -0.19,-3.44 -0.08,-0.86 -0.04,-0.86 -0.12,-1.72 -0.27,-3.44 -0.16,-1.71 -0.11,-1.72 -0.32,-3.48 -0.66,-6.88 -0.08,-0.78 -0.08,-0.82 -0.19,-1.6 -0.35,-3.2 -0.79,-6.45 -0.07,-0.82 -0.12,-0.78 -0.23,-1.6 -0.43,-3.24 -0.94,-6.41 -0.16,-0.82 -0.12,-0.78 -0.27,-1.6 -0.51,-3.24 -1.17,-6.41 -2.58,-12.85 -0.19,-0.82 -0.16,-0.78 -0.35,-1.57 -0.74,-3.16 -1.53,-6.29 -0.39,-1.56 -0.43,-1.6 -0.82,-3.13 -1.75,-6.33 -0.94,-3.12 -0.94,-3.16 -1.99,-6.29 -4.38,-12.62 -1.25,-3.44 -1.32,-3.4 -2.7,-6.83 -5.94,-13.68 -1.56,-3.43 -1.64,-3.4 -3.36,-6.84 -7.26,-13.67 -0.43,-0.82 -0.43,-0.78 -0.9,-1.6 -1.84,-3.2 -3.79,-6.37 -8.01,-12.78 -0.54,-0.78 -0.51,-0.82 -1.05,-1.56 -2.15,-3.2 -4.42,-6.37 -9.37,-12.77 -0.63,-0.86 -0.66,-0.86 -1.33,-1.76 -2.73,-3.44 -5.55,-6.91 -11.76,-13.83 -1.56,-1.72 -1.52,-1.76 -3.17,-3.43 -6.44,-6.92 -13.6,-13.83 -1.72,-1.71 -1.75,-1.68 -3.52,-3.4 -7.27,-6.8 -15.31,-13.55 -0.97,-0.86 -1.02,-0.86 -1.99,-1.68 -4.03,-3.4 -8.32,-6.8 -17.46,-13.59 -2.11,-1.56 -2.11,-1.61 -4.33,-3.16 -8.83,-6.33 -18.48,-12.65 -1.21,-0.79 -1.21,-0.82 -2.38,-1.56 -4.92,-3.16 -10,-6.33 -21.06,-12.7 -1.48,-0.82 -1.49,-0.86 -3,-1.71 -6.06,-3.44 -12.5,-6.88 -26.48,-13.75 -1.72,-0.86 -1.76,-0.86 -3.48,-1.71 -7.11,-3.4 -14.68,-6.88 -31.29,-13.75 -1.92,-0.78 -1.91,-0.82 -3.91,-1.6 -7.89,-3.2 -16.29,-6.41 -35.04,-12.81 -2.3,-0.82 -2.3,-0.78 -4.69,-1.61 -9.57,-3.2 -19.85,-6.41 -43.08,-12.85 -5.63,-1.56 -5.74,-1.56 -11.68,-3.17 -22.46,-5.78"
         style="fill:none;stroke:#5e81b5;stroke-width:11.52;stroke-linecap:square;stroke-linejoin:miter;stroke-miterlimit:3.25;stroke-dasharray:none;stroke-opacity:1"
         id="path200" /><path
         d="m 1875.04,2004.49 -8.13,-1.99 -13.24,-3.12 -27.77,-6.29 -3.6,-0.79 -3.63,-0.78 -7.38,-1.6 -15.12,-3.12 -31.87,-6.29 -71.37,-12.58 -5.23,-0.82 -5.28,-0.86 -10.78,-1.72 -22.23,-3.4 -47.46,-6.83 -6.25,-0.86 -6.29,-0.82 -5.03,-0.71"
         style="fill:none;stroke:#5e81b5;stroke-width:11.52;stroke-linecap:square;stroke-linejoin:miter;stroke-miterlimit:3.25;stroke-dasharray:none;stroke-opacity:1"
         id="path202" /><path
         d="m 1571.88,1950.27 -21.72,-2.77 -56.49,-6.84 -7.42,-0.86 -7.46,-0.85 -15.24,-1.68 -31.4,-3.4 -66.68,-6.84 -71.88,-6.6 -76.71,-7.03 -9.22,-0.78 -9.3,-0.82 -18.75,-1.6 -38.05,-3.17 -78.08,-6.37 -159.808,-12.73 -10,-0.78 -9.922,-0.78 -19.84,-1.6 -39.379,-3.17 -76.953,-6.37 -24.34,-2.07"
         style="fill:none;stroke:#5e81b5;stroke-width:11.52;stroke-linecap:square;stroke-linejoin:miter;stroke-miterlimit:3.25;stroke-dasharray:none;stroke-opacity:1"
         id="path204" /><path
         d="m 704.02,1871.52 -109.372,-9.88 -9.058,-0.86 -17.93,-1.72 -34.851,-3.47 -65.821,-6.88 -7.847,-0.86 -7.813,-0.86 -15.308,-1.72 -29.731,-3.47 -55.898,-6.88 -6.641,-0.86 -6.602,-0.86 -12.968,-1.75 -25.16,-3.44 -47.301,-6.88 -5.668,-0.86 -5.582,-0.86 -11.02,-1.75 -21.398,-3.44 -5.242,-0.86 -5.188,-0.86 -10.199,-1.72 -19.801,-3.44 -4.769,-0.86 -4.731,-0.86 -4.641,-0.82 -4.652,-0.85 -4.566,-0.86 -4.571,-0.82 -4.101,-0.79"
         style="fill:none;stroke:#5e81b5;stroke-width:11.52;stroke-linecap:square;stroke-linejoin:miter;stroke-miterlimit:3.25;stroke-dasharray:none;stroke-opacity:1"
         id="path206" /><path
         d="m 2456.45,1799.84 -0.59,-0.11 -4.41,-0.86 -8.68,-1.68 -16.91,-3.4 -4.14,-0.86 -4.14,-0.82 -8.13,-1.72 -15.86,-3.36 -30.35,-6.8 -3.67,-0.82 -3.63,-0.86 -7.23,-1.67 -14.1,-3.4 -27.15,-6.76 -50.43,-13.56 -5.55,-1.56 -5.54,-1.6 -10.9,-3.16 -21.13,-6.29 -40.16,-12.66 -73.24,-25.23 -4.69,-1.72 -4.65,-1.72 -9.22,-3.4 -18.12,-6.87 -35,-13.68 -66.02,-27.42 -82.61,-36.83"
         style="fill:none;stroke:#5e81b5;stroke-width:11.52;stroke-linecap:square;stroke-linejoin:miter;stroke-miterlimit:3.25;stroke-dasharray:none;stroke-opacity:1"
         id="path208" /><path
         d="m 1876.6,1609.34 -140.23,-68.01 -105.35,-54.42 -95,-50.74 -100.75,-55.04 -92.89,-51.36 -46.36,-25.79 -44.3,-24.57 -98.79,-54.64 -93.36,-50.98 -103.441,-55.27 -105.309,-54.26 -103.398,-50.59 -32.031,-15.041"
         style="fill:none;stroke:#5e81b5;stroke-width:11.52;stroke-linecap:square;stroke-linejoin:miter;stroke-miterlimit:3.25;stroke-dasharray:none;stroke-opacity:1"
         id="path210" /><path
         d="m 711.84,996.988 -89.539,-39.797 -3.781,-1.601 -7.54,-3.211 -15.32,-6.399 -31.398,-12.82 -66.762,-25.621 -2.109,-0.777 -2.153,-0.782 -4.328,-1.57 -8.711,-3.121 -17.738,-6.289 -37.031,-12.539 -2.379,-0.781 -2.43,-0.821 -4.801,-1.558 -9.769,-3.129 -20.031,-6.293 -42.27,-12.539 -2.969,-0.86 -3.011,-0.859 -6.051,-1.672 -12.309,-3.437 -25.5,-6.801 -6.57,-1.723 -6.68,-1.679 -13.551,-3.399 -28.281,-6.832 -3.668,-0.816 -3.68,-0.864 -7.421,-1.718 -15.149,-3.399 -3.871,-0.859 -3.91,-0.863 -7.891,-1.68 -16.129,-3.399 -4.097,-0.859 -4.141,-0.851 -8.402,-1.719 -4.258,-0.821 -4.301,-0.859 -8.672,-1.723 -4.41,-0.859 -3.277,-0.629"
         style="fill:none;stroke:#5e81b5;stroke-width:11.52;stroke-linecap:square;stroke-linejoin:miter;stroke-miterlimit:3.25;stroke-dasharray:none;stroke-opacity:1"
         id="path212" /><path
         d="m 2456.41,806.52 -1.45,-0.27 -4.53,-0.859 -4.61,-0.86 -9.3,-1.679 -4.41,-0.821 -4.45,-0.781 -8.99,-1.602 -18.44,-3.168 -38.9,-6.359 -10.16,-1.57 -10.39,-1.602 -21.29,-3.16 -45.08,-6.367 -5.89,-0.781 -5.94,-0.821 -12.03,-1.558 -24.85,-3.211 -52.58,-6.321 -117.85,-12.742 -8.63,-0.859 -8.71,-0.859 -17.66,-1.719 -36.25,-3.43 -76.21,-6.883 -19.84,-1.758"
         style="fill:none;stroke:#5e81b5;stroke-width:11.52;stroke-linecap:square;stroke-linejoin:miter;stroke-miterlimit:3.25;stroke-dasharray:none;stroke-opacity:1"
         id="path214" /><path
         d="m 1868.75,734.84 -136.29,-11.25 -32.23,-2.57 -43.28,-3.481 -86.72,-6.879 -168.43,-13.781 -9.46,-0.789 -9.37,-0.82 -18.63,-1.598 -36.45,-3.203 -31.37,-2.891 -38.43,-3.558 -8.4,-0.821 -8.32,-0.777 -16.49,-1.602 -32.07,-3.242 -60.62,-6.406 -7.23,-0.82 -7.19,-0.821 -14.18,-1.601 -27.46,-3.2 -51.68,-6.449 -4.33,-0.551"
         style="fill:none;stroke:#5e81b5;stroke-width:11.52;stroke-linecap:square;stroke-linejoin:miter;stroke-miterlimit:3.25;stroke-dasharray:none;stroke-opacity:1"
         id="path216" /><path
         d="m 710.309,601.84 -29.758,-7.738 -3.172,-0.864 -6.25,-1.679 -12.149,-3.438 -23.281,-6.832 -42.609,-13.668 -2.539,-0.859 -2.461,-0.864 -4.969,-1.718 -9.68,-3.442 -18.601,-6.828 -34.61,-13.68 -1.91,-0.781 -1.91,-0.82 -3.789,-1.598 -7.461,-3.16 -14.461,-6.41 -27.219,-12.77 -1.64,-0.781 -1.641,-0.82 -3.211,-1.57 -6.367,-3.2 -12.383,-6.41 -23.437,-12.769 -1.563,-0.86 -1.519,-0.859 -3.008,-1.723 -5.981,-3.469 -11.601,-6.921 -21.949,-13.829 -2.66,-1.71 -2.61,-1.758 -5.16,-3.442 -10.078,-6.91 -19.102,-13.871 -1.129,-0.82 -1.14,-0.86 -2.223,-1.718 -4.457,-3.403 -8.59,-6.758 -16.441,-13.589 -1.961,-1.719 -1.988,-1.684 -3.871,-3.398 -7.54,-6.789 -14.371,-13.602 -0.781,-0.777 -0.816,-0.781 -4.774,-4.77 -6.168,-6.32 -11.761,-12.699 -1.399,-1.563 -1.41,-1.598 -2.77,-3.171 -5.429,-6.321 -10.281,-12.699 -2.649,-3.441 -2.621,-3.399 -5.078,-6.871 -9.57,-13.75 -0.582,-0.859 -0.551,-0.86 -1.129,-1.718 -2.231,-3.442 -4.3,-6.871 -8.079,-13.75 -0.429,-0.777 -0.473,-0.821 -0.898,-1.601 -1.719,-3.211 -3.359,-6.399 -6.293,-12.859 -0.387,-0.781 -0.391,-0.82 -0.703,-1.598 -1.449,-3.203 -2.809,-6.41 -5.16,-12.848 -0.308,-0.781 -0.274,-0.782 -1.758,-4.687 -2.191,-6.289 -0.27,-0.82 -0.269,-0.782 -0.512,-1.558 -1.058,-3.133 -1.95,-6.289 -0.23,-0.82 -0.711,-2.34 -0.899,-3.129 -1.71,-6.281 -3.168,-12.579 -0.391,-1.722 -0.352,-1.719 -0.738,-3.398 -1.41,-6.832 -0.191,-0.86 -0.161,-0.82 -0.308,-1.719 -0.629,-3.402 -1.172,-6.84 -0.16,-0.859 -0.11,-0.86 -0.281,-1.68 -0.5,-3.429 -0.98,-6.801 -0.239,-1.719 -0.191,-1.722 -0.43,-3.399 -0.781,-6.832 -0.156,-1.558 -0.473,-4.809 -0.148,-1.563 -0.16,-1.597 -0.27,-3.211 -0.043,-0.781 -0.078,-0.778 -0.352,-4.8005 -0.429,-6.3711 -0.078,-0.7813 -0.039,-0.7773 -0.082,-1.6016 -0.192,-3.2109 -0.078,-1.5586 -0.23,-4.8008 -0.079,-1.5703 -0.043,-1.5977 -0.16,-3.1992 v -0.7812 l -0.039,-0.7813 -0.039,-1.6094 -0.109,-3.1992 -0.039,-0.8593 v -0.9024 l -0.082,-1.7891 v -0.8593 l -0.039,-0.9024 -0.039,-1.7968 v -0.8594 l -0.043,-0.9024 -0.039,-1.789 -0.071,-3.5196 v -1.8007 l -0.039,-1.75 v -0.8985 l -0.039,-0.9023 v -2.6602 l -0.043,-0.8984 V 40.8984 L 131.289,40 v -4.4492 l -0.039,-0.8594 v -9.7695 l -0.039,-0.9024 V 10.6992 L 2460.78,9.80078"
         style="fill:none;stroke:#5e81b5;stroke-width:11.52;stroke-linecap:square;stroke-linejoin:miter;stroke-miterlimit:3.25;stroke-dasharray:none;stroke-opacity:1"
         id="path218" /><path
         d="m 1007.62,656.09 -84.811,-12.262 -10.039,-1.558 -19.45,-3.168 -36.718,-6.293 -8.75,-1.559 -8.59,-1.602 -16.684,-3.168 -31.68,-6.281 -3.789,-0.789 -3.75,-0.781 -7.461,-1.598 -14.488,-3.121 -27.582,-6.332 -16.879,-4.058"
         style="fill:none;stroke:#5e81b5;stroke-width:11.52;stroke-linecap:square;stroke-linejoin:miter;stroke-miterlimit:3.25;stroke-dasharray:none;stroke-opacity:1"
         id="path220" /><path
         d="m 35.4297,1303.98 v 17.39"
         style="fill:none;stroke:#000000;stroke-width:3.6;stroke-linecap:butt;stroke-linejoin:miter;stroke-miterlimit:3.25;stroke-dasharray:none;stroke-opacity:1"
         id="path222" /><path
         d="m 109.57,1303.98 v 17.39"
         style="fill:none;stroke:#000000;stroke-width:3.6;stroke-linecap:butt;stroke-linejoin:miter;stroke-miterlimit:3.25;stroke-dasharray:none;stroke-opacity:1"
         id="path224" /><path
         d="m 183.711,1303.98 v 28.95"
         style="fill:none;stroke:#000000;stroke-width:3.6;stroke-linecap:butt;stroke-linejoin:miter;stroke-miterlimit:3.25;stroke-dasharray:none;stroke-opacity:1"
         id="path226" /><g
         id="g228"
         transform="scale(10)"><text
           transform="matrix(1,0,0,-1,14.8172,122.068)"
           style="font-variant:normal;font-size:6.47949px;font-family:f-0;-inkscape-font-specification:f-0-0;writing-mode:lr-tb;fill:#000000;fill-opacity:1;fill-rule:nonzero;stroke:none"
           id="text232"><tspan
             x="0"
             y="0"
             id="tspan230">-</tspan></text><text
           transform="matrix(1,0,0,-1,18.31603,122.068)"
           style="font-variant:normal;font-size:6.47949px;font-family:f-1;-inkscape-font-specification:f-1-0;writing-mode:lr-tb;fill:#000000;fill-opacity:1;fill-rule:nonzero;stroke:none"
           id="text236"><tspan
             x="0"
             y="0"
             id="tspan234">3</tspan></text></g><path
         d="m 257.852,1303.98 v 17.39"
         style="fill:none;stroke:#000000;stroke-width:3.6;stroke-linecap:butt;stroke-linejoin:miter;stroke-miterlimit:3.25;stroke-dasharray:none;stroke-opacity:1"
         id="path238" /><path
         d="m 332.031,1303.98 v 17.39"
         style="fill:none;stroke:#000000;stroke-width:3.6;stroke-linecap:butt;stroke-linejoin:miter;stroke-miterlimit:3.25;stroke-dasharray:none;stroke-opacity:1"
         id="path240" /><path
         d="m 406.172,1303.98 v 17.39"
         style="fill:none;stroke:#000000;stroke-width:3.6;stroke-linecap:butt;stroke-linejoin:miter;stroke-miterlimit:3.25;stroke-dasharray:none;stroke-opacity:1"
         id="path242" /><path
         d="m 480.309,1303.98 v 17.39"
         style="fill:none;stroke:#000000;stroke-width:3.6;stroke-linecap:butt;stroke-linejoin:miter;stroke-miterlimit:3.25;stroke-dasharray:none;stroke-opacity:1"
         id="path244" /><path
         d="m 554.488,1303.98 v 28.95"
         style="fill:none;stroke:#000000;stroke-width:3.6;stroke-linecap:butt;stroke-linejoin:miter;stroke-miterlimit:3.25;stroke-dasharray:none;stroke-opacity:1"
         id="path246" /><g
         id="g248"
         transform="scale(10)"><text
           transform="matrix(1,0,0,-1,51.893,122.068)"
           style="font-variant:normal;font-size:6.47949px;font-family:f-0;-inkscape-font-specification:f-0-0;writing-mode:lr-tb;fill:#000000;fill-opacity:1;fill-rule:nonzero;stroke:none"
           id="text252"><tspan
             x="0"
             y="0"
             id="tspan250">-</tspan></text><text
           transform="matrix(1,0,0,-1,55.39183,122.068)"
           style="font-variant:normal;font-size:6.47949px;font-family:f-1;-inkscape-font-specification:f-1-0;writing-mode:lr-tb;fill:#000000;fill-opacity:1;fill-rule:nonzero;stroke:none"
           id="text256"><tspan
             x="0"
             y="0"
             id="tspan254">2</tspan></text></g><path
         d="m 628.629,1303.98 v 17.39"
         style="fill:none;stroke:#000000;stroke-width:3.6;stroke-linecap:butt;stroke-linejoin:miter;stroke-miterlimit:3.25;stroke-dasharray:none;stroke-opacity:1"
         id="path258" /><path
         d="m 702.77,1303.98 v 17.39"
         style="fill:none;stroke:#000000;stroke-width:3.6;stroke-linecap:butt;stroke-linejoin:miter;stroke-miterlimit:3.25;stroke-dasharray:none;stroke-opacity:1"
         id="path260" /><path
         d="m 776.949,1303.98 v 17.39"
         style="fill:none;stroke:#000000;stroke-width:3.6;stroke-linecap:butt;stroke-linejoin:miter;stroke-miterlimit:3.25;stroke-dasharray:none;stroke-opacity:1"
         id="path262" /><path
         d="m 851.09,1303.98 v 17.39"
         style="fill:none;stroke:#000000;stroke-width:3.6;stroke-linecap:butt;stroke-linejoin:miter;stroke-miterlimit:3.25;stroke-dasharray:none;stroke-opacity:1"
         id="path264" /><path
         d="m 925.23,1303.98 v 28.95"
         style="fill:none;stroke:#000000;stroke-width:3.6;stroke-linecap:butt;stroke-linejoin:miter;stroke-miterlimit:3.25;stroke-dasharray:none;stroke-opacity:1"
         id="path266" /><g
         id="g268"
         transform="scale(10)"><text
           transform="matrix(1,0,0,-1,88.9691,122.068)"
           style="font-variant:normal;font-size:6.47949px;font-family:f-0;-inkscape-font-specification:f-0-0;writing-mode:lr-tb;fill:#000000;fill-opacity:1;fill-rule:nonzero;stroke:none"
           id="text272"><tspan
             x="0"
             y="0"
             id="tspan270">-</tspan></text><text
           transform="matrix(1,0,0,-1,92.46793,122.068)"
           style="font-variant:normal;font-size:6.47949px;font-family:f-1;-inkscape-font-specification:f-1-0;writing-mode:lr-tb;fill:#000000;fill-opacity:1;fill-rule:nonzero;stroke:none"
           id="text276"><tspan
             x="0"
             y="0"
             id="tspan274">1</tspan></text></g><path
         d="m 999.379,1303.98 v 17.39"
         style="fill:none;stroke:#000000;stroke-width:3.6;stroke-linecap:butt;stroke-linejoin:miter;stroke-miterlimit:3.25;stroke-dasharray:none;stroke-opacity:1"
         id="path278" /><path
         d="m 1073.55,1303.98 v 17.39"
         style="fill:none;stroke:#000000;stroke-width:3.6;stroke-linecap:butt;stroke-linejoin:miter;stroke-miterlimit:3.25;stroke-dasharray:none;stroke-opacity:1"
         id="path280" /><path
         d="m 1147.7,1303.98 v 17.39"
         style="fill:none;stroke:#000000;stroke-width:3.6;stroke-linecap:butt;stroke-linejoin:miter;stroke-miterlimit:3.25;stroke-dasharray:none;stroke-opacity:1"
         id="path282" /><path
         d="m 1221.84,1303.98 v 17.39"
         style="fill:none;stroke:#000000;stroke-width:3.6;stroke-linecap:butt;stroke-linejoin:miter;stroke-miterlimit:3.25;stroke-dasharray:none;stroke-opacity:1"
         id="path284" /><path
         d="m 1296.02,1303.98 v 28.95"
         style="fill:none;stroke:#000000;stroke-width:3.6;stroke-linecap:butt;stroke-linejoin:miter;stroke-miterlimit:3.25;stroke-dasharray:none;stroke-opacity:1"
         id="path286" /><path
         d="m 1370.16,1303.98 v 17.39"
         style="fill:none;stroke:#000000;stroke-width:3.6;stroke-linecap:butt;stroke-linejoin:miter;stroke-miterlimit:3.25;stroke-dasharray:none;stroke-opacity:1"
         id="path288" /><path
         d="m 1444.3,1303.98 v 17.39"
         style="fill:none;stroke:#000000;stroke-width:3.6;stroke-linecap:butt;stroke-linejoin:miter;stroke-miterlimit:3.25;stroke-dasharray:none;stroke-opacity:1"
         id="path290" /><path
         d="m 1518.44,1303.98 v 17.39"
         style="fill:none;stroke:#000000;stroke-width:3.6;stroke-linecap:butt;stroke-linejoin:miter;stroke-miterlimit:3.25;stroke-dasharray:none;stroke-opacity:1"
         id="path292" /><path
         d="m 1592.62,1303.98 v 17.39"
         style="fill:none;stroke:#000000;stroke-width:3.6;stroke-linecap:butt;stroke-linejoin:miter;stroke-miterlimit:3.25;stroke-dasharray:none;stroke-opacity:1"
         id="path294" /><path
         d="m 1666.76,1303.98 v 28.95"
         style="fill:none;stroke:#000000;stroke-width:3.6;stroke-linecap:butt;stroke-linejoin:miter;stroke-miterlimit:3.25;stroke-dasharray:none;stroke-opacity:1"
         id="path296" /><g
         id="g298"
         transform="scale(10)"><text
           transform="matrix(1,0,0,-1,164.873,122.068)"
           style="font-variant:normal;font-size:6.47949px;font-family:f-1;-inkscape-font-specification:f-1-0;writing-mode:lr-tb;fill:#000000;fill-opacity:1;fill-rule:nonzero;stroke:none"
           id="text302"><tspan
             x="0"
             y="0"
             id="tspan300">1</tspan></text></g><path
         d="m 1740.9,1303.98 v 17.39"
         style="fill:none;stroke:#000000;stroke-width:3.6;stroke-linecap:butt;stroke-linejoin:miter;stroke-miterlimit:3.25;stroke-dasharray:none;stroke-opacity:1"
         id="path304" /><path
         d="m 1815.08,1303.98 v 17.39"
         style="fill:none;stroke:#000000;stroke-width:3.6;stroke-linecap:butt;stroke-linejoin:miter;stroke-miterlimit:3.25;stroke-dasharray:none;stroke-opacity:1"
         id="path306" /><path
         d="m 1889.22,1303.98 v 17.39"
         style="fill:none;stroke:#000000;stroke-width:3.6;stroke-linecap:butt;stroke-linejoin:miter;stroke-miterlimit:3.25;stroke-dasharray:none;stroke-opacity:1"
         id="path308" /><path
         d="m 1963.36,1303.98 v 17.39"
         style="fill:none;stroke:#000000;stroke-width:3.6;stroke-linecap:butt;stroke-linejoin:miter;stroke-miterlimit:3.25;stroke-dasharray:none;stroke-opacity:1"
         id="path310" /><path
         d="m 2037.54,1303.98 v 28.95"
         style="fill:none;stroke:#000000;stroke-width:3.6;stroke-linecap:butt;stroke-linejoin:miter;stroke-miterlimit:3.25;stroke-dasharray:none;stroke-opacity:1"
         id="path312" /><g
         id="g314"
         transform="scale(10)"><text
           transform="matrix(1,0,0,-1,201.95,122.068)"
           style="font-variant:normal;font-size:6.47949px;font-family:f-1;-inkscape-font-specification:f-1-0;writing-mode:lr-tb;fill:#000000;fill-opacity:1;fill-rule:nonzero;stroke:none"
           id="text318"><tspan
             x="0"
             y="0"
             id="tspan316">2</tspan></text></g><path
         d="m 2111.68,1303.98 v 17.39"
         style="fill:none;stroke:#000000;stroke-width:3.6;stroke-linecap:butt;stroke-linejoin:miter;stroke-miterlimit:3.25;stroke-dasharray:none;stroke-opacity:1"
         id="path320" /><path
         d="m 2185.82,1303.98 v 17.39"
         style="fill:none;stroke:#000000;stroke-width:3.6;stroke-linecap:butt;stroke-linejoin:miter;stroke-miterlimit:3.25;stroke-dasharray:none;stroke-opacity:1"
         id="path322" /><path
         d="m 2259.96,1303.98 v 17.39"
         style="fill:none;stroke:#000000;stroke-width:3.6;stroke-linecap:butt;stroke-linejoin:miter;stroke-miterlimit:3.25;stroke-dasharray:none;stroke-opacity:1"
         id="path324" /><path
         d="m 2334.14,1303.98 v 17.39"
         style="fill:none;stroke:#000000;stroke-width:3.6;stroke-linecap:butt;stroke-linejoin:miter;stroke-miterlimit:3.25;stroke-dasharray:none;stroke-opacity:1"
         id="path326" /><path
         d="m 2408.28,1303.98 v 28.95"
         style="fill:none;stroke:#000000;stroke-width:3.6;stroke-linecap:butt;stroke-linejoin:miter;stroke-miterlimit:3.25;stroke-dasharray:none;stroke-opacity:1"
         id="path328" /><g
         id="g330"
         transform="scale(10)"><text
           transform="matrix(1,0,0,-1,239.025,122.068)"
           style="font-variant:normal;font-size:6.47949px;font-family:f-1;-inkscape-font-specification:f-1-0;writing-mode:lr-tb;fill:#000000;fill-opacity:1;fill-rule:nonzero;stroke:none"
           id="text334"><tspan
             x="0"
             y="0"
             id="tspan332">3</tspan></text></g><path
         d="m 2482.42,1303.98 v 17.39"
         style="fill:none;stroke:#000000;stroke-width:3.6;stroke-linecap:butt;stroke-linejoin:miter;stroke-miterlimit:3.25;stroke-dasharray:none;stroke-opacity:1"
         id="path336" /><path
         d="m 2556.6,1303.98 v 17.39"
         style="fill:none;stroke:#000000;stroke-width:3.6;stroke-linecap:butt;stroke-linejoin:miter;stroke-miterlimit:3.25;stroke-dasharray:none;stroke-opacity:1"
         id="path338" /><path
         d="M 1.80078,1303.98 H 2590.2"
         style="fill:none;stroke:#000000;stroke-width:3.6;stroke-linecap:butt;stroke-linejoin:miter;stroke-miterlimit:3.25;stroke-dasharray:none;stroke-opacity:1"
         id="path340" /><path
         d="m 1296.02,68.1211 h 28.9"
         style="fill:none;stroke:#000000;stroke-width:3.6;stroke-linecap:butt;stroke-linejoin:miter;stroke-miterlimit:3.25;stroke-dasharray:none;stroke-opacity:1"
         id="path342" /><g
         id="g344"
         transform="scale(10)"><text
           transform="matrix(1,0,0,-1,120.33,4.64883)"
           style="font-variant:normal;font-size:6.47949px;font-family:f-0;-inkscape-font-specification:f-0-0;writing-mode:lr-tb;fill:#000000;fill-opacity:1;fill-rule:nonzero;stroke:none"
           id="text348"><tspan
             x="0"
             y="0"
             id="tspan346">-</tspan></text><text
           transform="matrix(1,0,0,-1,123.82883,4.64883)"
           style="font-variant:normal;font-size:6.47949px;font-family:f-1;-inkscape-font-specification:f-1-0;writing-mode:lr-tb;fill:#000000;fill-opacity:1;fill-rule:nonzero;stroke:none"
           id="text352"><tspan
             x="0"
             y="0"
             id="tspan350">3</tspan></text></g><path
         d="m 1296.02,150.512 h 17.34"
         style="fill:none;stroke:#000000;stroke-width:3.6;stroke-linecap:butt;stroke-linejoin:miter;stroke-miterlimit:3.25;stroke-dasharray:none;stroke-opacity:1"
         id="path354" /><path
         d="m 1296.02,232.93 h 17.34"
         style="fill:none;stroke:#000000;stroke-width:3.6;stroke-linecap:butt;stroke-linejoin:miter;stroke-miterlimit:3.25;stroke-dasharray:none;stroke-opacity:1"
         id="path356" /><path
         d="m 1296.02,315.309 h 17.34"
         style="fill:none;stroke:#000000;stroke-width:3.6;stroke-linecap:butt;stroke-linejoin:miter;stroke-miterlimit:3.25;stroke-dasharray:none;stroke-opacity:1"
         id="path358" /><path
         d="m 1296.02,397.699 h 17.34"
         style="fill:none;stroke:#000000;stroke-width:3.6;stroke-linecap:butt;stroke-linejoin:miter;stroke-miterlimit:3.25;stroke-dasharray:none;stroke-opacity:1"
         id="path360" /><path
         d="m 1296.02,480.078 h 28.9"
         style="fill:none;stroke:#000000;stroke-width:3.6;stroke-linecap:butt;stroke-linejoin:miter;stroke-miterlimit:3.25;stroke-dasharray:none;stroke-opacity:1"
         id="path362" /><g
         id="g364"
         transform="scale(10)"><text
           transform="matrix(1,0,0,-1,120.33,45.8445)"
           style="font-variant:normal;font-size:6.47949px;font-family:f-0;-inkscape-font-specification:f-0-0;writing-mode:lr-tb;fill:#000000;fill-opacity:1;fill-rule:nonzero;stroke:none"
           id="text368"><tspan
             x="0"
             y="0"
             id="tspan366">-</tspan></text><text
           transform="matrix(1,0,0,-1,123.82883,45.8445)"
           style="font-variant:normal;font-size:6.47949px;font-family:f-1;-inkscape-font-specification:f-1-0;writing-mode:lr-tb;fill:#000000;fill-opacity:1;fill-rule:nonzero;stroke:none"
           id="text372"><tspan
             x="0"
             y="0"
             id="tspan370">2</tspan></text></g><path
         d="m 1296.02,562.461 h 17.34"
         style="fill:none;stroke:#000000;stroke-width:3.6;stroke-linecap:butt;stroke-linejoin:miter;stroke-miterlimit:3.25;stroke-dasharray:none;stroke-opacity:1"
         id="path374" /><path
         d="m 1296.02,644.879 h 17.34"
         style="fill:none;stroke:#000000;stroke-width:3.6;stroke-linecap:butt;stroke-linejoin:miter;stroke-miterlimit:3.25;stroke-dasharray:none;stroke-opacity:1"
         id="path376" /><path
         d="m 1296.02,727.27 h 17.34"
         style="fill:none;stroke:#000000;stroke-width:3.6;stroke-linecap:butt;stroke-linejoin:miter;stroke-miterlimit:3.25;stroke-dasharray:none;stroke-opacity:1"
         id="path378" /><path
         d="m 1296.02,809.648 h 17.34"
         style="fill:none;stroke:#000000;stroke-width:3.6;stroke-linecap:butt;stroke-linejoin:miter;stroke-miterlimit:3.25;stroke-dasharray:none;stroke-opacity:1"
         id="path380" /><path
         d="m 1296.02,892.031 h 28.9"
         style="fill:none;stroke:#000000;stroke-width:3.6;stroke-linecap:butt;stroke-linejoin:miter;stroke-miterlimit:3.25;stroke-dasharray:none;stroke-opacity:1"
         id="path382" /><g
         id="g384"
         transform="scale(10)"><text
           transform="matrix(1,0,0,-1,120.33,87.0402)"
           style="font-variant:normal;font-size:6.47949px;font-family:f-0;-inkscape-font-specification:f-0-0;writing-mode:lr-tb;fill:#000000;fill-opacity:1;fill-rule:nonzero;stroke:none"
           id="text388"><tspan
             x="0"
             y="0"
             id="tspan386">-</tspan></text><text
           transform="matrix(1,0,0,-1,123.82883,87.0402)"
           style="font-variant:normal;font-size:6.47949px;font-family:f-1;-inkscape-font-specification:f-1-0;writing-mode:lr-tb;fill:#000000;fill-opacity:1;fill-rule:nonzero;stroke:none"
           id="text392"><tspan
             x="0"
             y="0"
             id="tspan390">1</tspan></text></g><path
         d="m 1296.02,974.449 h 17.34"
         style="fill:none;stroke:#000000;stroke-width:3.6;stroke-linecap:butt;stroke-linejoin:miter;stroke-miterlimit:3.25;stroke-dasharray:none;stroke-opacity:1"
         id="path394" /><path
         d="m 1296.02,1056.84 h 17.34"
         style="fill:none;stroke:#000000;stroke-width:3.6;stroke-linecap:butt;stroke-linejoin:miter;stroke-miterlimit:3.25;stroke-dasharray:none;stroke-opacity:1"
         id="path396" /><path
         d="m 1296.02,1139.22 h 17.34"
         style="fill:none;stroke:#000000;stroke-width:3.6;stroke-linecap:butt;stroke-linejoin:miter;stroke-miterlimit:3.25;stroke-dasharray:none;stroke-opacity:1"
         id="path398" /><path
         d="m 1296.02,1221.6 h 17.34"
         style="fill:none;stroke:#000000;stroke-width:3.6;stroke-linecap:butt;stroke-linejoin:miter;stroke-miterlimit:3.25;stroke-dasharray:none;stroke-opacity:1"
         id="path400" /><path
         d="m 1296.02,1303.98 h 28.9"
         style="fill:none;stroke:#000000;stroke-width:3.6;stroke-linecap:butt;stroke-linejoin:miter;stroke-miterlimit:3.25;stroke-dasharray:none;stroke-opacity:1"
         id="path402" /><path
         d="m 1296.02,1386.41 h 17.34"
         style="fill:none;stroke:#000000;stroke-width:3.6;stroke-linecap:butt;stroke-linejoin:miter;stroke-miterlimit:3.25;stroke-dasharray:none;stroke-opacity:1"
         id="path404" /><path
         d="m 1296.02,1468.79 h 17.34"
         style="fill:none;stroke:#000000;stroke-width:3.6;stroke-linecap:butt;stroke-linejoin:miter;stroke-miterlimit:3.25;stroke-dasharray:none;stroke-opacity:1"
         id="path406" /><path
         d="m 1296.02,1551.17 h 17.34"
         style="fill:none;stroke:#000000;stroke-width:3.6;stroke-linecap:butt;stroke-linejoin:miter;stroke-miterlimit:3.25;stroke-dasharray:none;stroke-opacity:1"
         id="path408" /><path
         d="m 1296.02,1633.55 h 17.34"
         style="fill:none;stroke:#000000;stroke-width:3.6;stroke-linecap:butt;stroke-linejoin:miter;stroke-miterlimit:3.25;stroke-dasharray:none;stroke-opacity:1"
         id="path410" /><path
         d="m 1296.02,1715.94 h 28.9"
         style="fill:none;stroke:#000000;stroke-width:3.6;stroke-linecap:butt;stroke-linejoin:miter;stroke-miterlimit:3.25;stroke-dasharray:none;stroke-opacity:1"
         id="path412" /><g
         id="g414"
         transform="scale(10)"><text
           transform="matrix(1,0,0,-1,123.834,169.432)"
           style="font-variant:normal;font-size:6.47949px;font-family:f-1;-inkscape-font-specification:f-1-0;writing-mode:lr-tb;fill:#000000;fill-opacity:1;fill-rule:nonzero;stroke:none"
           id="text418"><tspan
             x="0"
             y="0"
             id="tspan416">1</tspan></text></g><path
         d="m 1296.02,1798.36 h 17.34"
         style="fill:none;stroke:#000000;stroke-width:3.6;stroke-linecap:butt;stroke-linejoin:miter;stroke-miterlimit:3.25;stroke-dasharray:none;stroke-opacity:1"
         id="path420" /><path
         d="m 1296.02,1880.74 h 17.34"
         style="fill:none;stroke:#000000;stroke-width:3.6;stroke-linecap:butt;stroke-linejoin:miter;stroke-miterlimit:3.25;stroke-dasharray:none;stroke-opacity:1"
         id="path422" /><path
         d="m 1296.02,1963.12 h 17.34"
         style="fill:none;stroke:#000000;stroke-width:3.6;stroke-linecap:butt;stroke-linejoin:miter;stroke-miterlimit:3.25;stroke-dasharray:none;stroke-opacity:1"
         id="path424" /><path
         d="m 1296.02,2045.51 h 17.34"
         style="fill:none;stroke:#000000;stroke-width:3.6;stroke-linecap:butt;stroke-linejoin:miter;stroke-miterlimit:3.25;stroke-dasharray:none;stroke-opacity:1"
         id="path426" /><path
         d="m 1296.02,2127.93 h 28.9"
         style="fill:none;stroke:#000000;stroke-width:3.6;stroke-linecap:butt;stroke-linejoin:miter;stroke-miterlimit:3.25;stroke-dasharray:none;stroke-opacity:1"
         id="path428" /><g
         id="g430"
         transform="scale(10)"><text
           transform="matrix(1,0,0,-1,123.834,210.627)"
           style="font-variant:normal;font-size:6.47949px;font-family:f-1;-inkscape-font-specification:f-1-0;writing-mode:lr-tb;fill:#000000;fill-opacity:1;fill-rule:nonzero;stroke:none"
           id="text434"><tspan
             x="0"
             y="0"
             id="tspan432">2</tspan></text></g><path
         d="m 1296.02,2210.31 h 17.34"
         style="fill:none;stroke:#000000;stroke-width:3.6;stroke-linecap:butt;stroke-linejoin:miter;stroke-miterlimit:3.25;stroke-dasharray:none;stroke-opacity:1"
         id="path436" /><path
         d="m 1296.02,2292.7 h 17.34"
         style="fill:none;stroke:#000000;stroke-width:3.6;stroke-linecap:butt;stroke-linejoin:miter;stroke-miterlimit:3.25;stroke-dasharray:none;stroke-opacity:1"
         id="path438" /><path
         d="m 1296.02,2375.08 h 17.34"
         style="fill:none;stroke:#000000;stroke-width:3.6;stroke-linecap:butt;stroke-linejoin:miter;stroke-miterlimit:3.25;stroke-dasharray:none;stroke-opacity:1"
         id="path440" /><path
         d="m 1296.02,2457.46 h 17.34"
         style="fill:none;stroke:#000000;stroke-width:3.6;stroke-linecap:butt;stroke-linejoin:miter;stroke-miterlimit:3.25;stroke-dasharray:none;stroke-opacity:1"
         id="path442" /><path
         d="m 1296.02,2539.88 h 28.9"
         style="fill:none;stroke:#000000;stroke-width:3.6;stroke-linecap:butt;stroke-linejoin:miter;stroke-miterlimit:3.25;stroke-dasharray:none;stroke-opacity:1"
         id="path444" /><g
         id="g446"
         transform="scale(10)"><text
           transform="matrix(1,0,0,-1,123.834,251.823)"
           style="font-variant:normal;font-size:6.47949px;font-family:f-1;-inkscape-font-specification:f-1-0;writing-mode:lr-tb;fill:#000000;fill-opacity:1;fill-rule:nonzero;stroke:none"
           id="text450"><tspan
             x="0"
             y="0"
             id="tspan448">3</tspan></text></g><path
         d="M 1296.02,9.80078 V 2598.2"
         style="fill:none;stroke:#000000;stroke-width:3.6;stroke-linecap:butt;stroke-linejoin:miter;stroke-miterlimit:3.25;stroke-dasharray:none;stroke-opacity:1"
         id="path452" /></g></g></svg>
