<?xml version="1.0" encoding="UTF-8" standalone="no"?>
<svg
   xmlns:dc="http://purl.org/dc/elements/1.1/"
   xmlns:cc="http://creativecommons.org/ns#"
   xmlns:rdf="http://www.w3.org/1999/02/22-rdf-syntax-ns#"
   xmlns:svg="http://www.w3.org/2000/svg"
   xmlns="http://www.w3.org/2000/svg"
   xmlns:sodipodi="http://sodipodi.sourceforge.net/DTD/sodipodi-0.dtd"
   xmlns:inkscape="http://www.inkscape.org/namespaces/inkscape"
   version="1.1"
   id="svg2"
   xml:space="preserve"
   width="346.66666"
   height="346.66666"
   viewBox="0 0 346.66666 346.66666"
   sodipodi:docname="AMY4iter.eps"><metadata
     id="metadata8"><rdf:RDF><cc:Work
         rdf:about=""><dc:format>image/svg+xml</dc:format><dc:type
           rdf:resource="http://purl.org/dc/dcmitype/StillImage" /></cc:Work></rdf:RDF></metadata><defs
     id="defs6" /><sodipodi:namedview
     pagecolor="#ffffff"
     bordercolor="#666666"
     borderopacity="1"
     objecttolerance="10"
     gridtolerance="10"
     guidetolerance="10"
     inkscape:pageopacity="0"
     inkscape:pageshadow="2"
     inkscape:window-width="640"
     inkscape:window-height="480"
     id="namedview4" /><g
     id="g10"
     inkscape:groupmode="layer"
     inkscape:label="ink_ext_XXXXXX"
     transform="matrix(1.3333333,0,0,-1.3333333,0,346.66667)"><g
       id="g12"
       transform="scale(0.1)"><path
         d="m 2425.82,2585.27 -1.41,-0.82 -9.84,-5.47 -11.29,-6.28 -22.62,-12.58 -45.46,-25.16 -100.47,-54.53 -97.62,-50.9 -101.21,-49.92 -118.63,-54.18 -36.96,-15.82"
         style="fill:none;stroke:#5e81b5;stroke-width:11.52;stroke-linecap:square;stroke-linejoin:miter;stroke-miterlimit:3.25;stroke-dasharray:none;stroke-opacity:1"
         id="path14" /><path
         d="m 1876.45,2307.97 -230.79,-87.81 -169.06,-53.79 -180.66,-49.89 -0.9,-0.27 -223.16,-54.37 -225.47,-50.75 -129.14,-28.67"
         style="fill:none;stroke:#5e81b5;stroke-width:11.52;stroke-linecap:square;stroke-linejoin:miter;stroke-miterlimit:3.25;stroke-dasharray:none;stroke-opacity:1"
         id="path16" /><path
         d="M 709.961,1980.78 582.578,1951.91"
         style="fill:none;stroke:#5e81b5;stroke-width:11.52;stroke-linecap:square;stroke-linejoin:miter;stroke-miterlimit:3.25;stroke-dasharray:none;stroke-opacity:1"
         id="path18" /><path
         d="m 575.469,1950.27 -185.27,-44.53 -6.25,-1.6 -12.429,-3.12 -24.571,-6.33 -48,-12.58 -2.969,-0.78 -2.929,-0.78 -5.903,-1.6 -11.679,-3.13 -23.09,-6.33 -45.039,-12.58 -6.012,-1.71 -5.937,-1.68 -11.871,-3.44 -2.93,-0.86 -2.969,-0.86 -5.859,-1.68 -11.641,-3.44 -2.891,-0.82 -2.89,-0.86 -5.75,-1.72 -2.852,-0.86 -2.886,-0.86 -5.704,-1.67 -2.808,-0.86 -0.391,-0.12"
         style="fill:none;stroke:#5e81b5;stroke-width:11.52;stroke-linecap:square;stroke-linejoin:miter;stroke-miterlimit:3.25;stroke-dasharray:none;stroke-opacity:1"
         id="path20" /><path
         d="m 2458.09,1833.83 -2.7,-0.82 -2.81,-0.86 -2.81,-0.82 -5.63,-1.72 -5.55,-1.72 -5.58,-1.72 -11.02,-3.4 -21.79,-6.83 -42.43,-13.64 -2.54,-0.85 -2.53,-0.83 -5.08,-1.67 -10.12,-3.36 -19.96,-6.68 -38.95,-13.44 -74.25,-26.8 -127.58,-50 -125.78,-54.26 -70.86,-32.61"
         style="fill:none;stroke:#5e81b5;stroke-width:11.52;stroke-linecap:square;stroke-linejoin:miter;stroke-miterlimit:3.25;stroke-dasharray:none;stroke-opacity:1"
         id="path22" /><path
         d="m 1876.64,1610.16 -145.19,-71.21 -103.95,-53.87 -93.95,-50.24 -54.14,-29.45"
         style="fill:none;stroke:#5e81b5;stroke-width:11.52;stroke-linecap:square;stroke-linejoin:miter;stroke-miterlimit:3.25;stroke-dasharray:none;stroke-opacity:1"
         id="path24" /><path
         d="m 1476.45,1403.75 -134.5,-74.22 -45.93,-25.55 -43.87,-24.33 -97.77,-54.1 -38.83,-21.29"
         style="fill:none;stroke:#5e81b5;stroke-width:11.52;stroke-linecap:square;stroke-linejoin:miter;stroke-miterlimit:3.25;stroke-dasharray:none;stroke-opacity:1"
         id="path26" /><path
         d="M 1112.58,1202.62 959.691,1120.35 855.82,1066.64 754.57,1016.56 715.352,997.852"
         style="fill:none;stroke:#5e81b5;stroke-width:11.52;stroke-linecap:square;stroke-linejoin:miter;stroke-miterlimit:3.25;stroke-dasharray:none;stroke-opacity:1"
         id="path28" /><path
         d="m 711.879,996.211 -191.328,-84.691 -126.25,-49.719 -2.27,-0.821 -2.23,-0.859 -4.531,-1.68 -9.141,-3.363 -18.43,-6.758 -37.738,-13.48 -4.762,-1.719 -14.539,-5.031 -19.64,-6.762 -40.282,-13.476 -4.758,-1.563 -4.808,-1.559 -9.692,-3.171 -19.57,-6.289 -4.922,-1.559 -4.957,-1.602 -10,-3.129 -20.191,-6.281 -2.539,-0.789 -2.582,-0.781 -5.117,-1.598 -10.313,-3.121 -2.617,-0.789 -2.582,-0.781 -2.141,-0.66"
         style="fill:none;stroke:#5e81b5;stroke-width:11.52;stroke-linecap:square;stroke-linejoin:miter;stroke-miterlimit:3.25;stroke-dasharray:none;stroke-opacity:1"
         id="path30" /><path
         d="m 2458.05,772.539 -2.85,-0.859 -5.24,-1.559 -2.66,-0.781 -2.61,-0.82 -5.31,-1.571 -10.67,-3.121 -21.6,-6.289 -2.93,-0.859 -8.91,-2.578 -11.95,-3.403 -24.26,-6.828 -49.76,-13.641 -104.77,-27.261 -188.01,-45.239"
         style="fill:none;stroke:#5e81b5;stroke-width:11.52;stroke-linecap:square;stroke-linejoin:miter;stroke-miterlimit:3.25;stroke-dasharray:none;stroke-opacity:1"
         id="path32" /><path
         d="M 2009.45,656.09 1882.03,627.23"
         style="fill:none;stroke:#5e81b5;stroke-width:11.52;stroke-linecap:square;stroke-linejoin:miter;stroke-miterlimit:3.25;stroke-dasharray:none;stroke-opacity:1"
         id="path34" /><path
         d="M 1874.73,625.59 1527.54,547.891 1318.48,497.301 1297.34,491.52 1118.4,442.5 948.828,388.711 810.898,338.52 715.551,300.039"
         style="fill:none;stroke:#5e81b5;stroke-width:11.52;stroke-linecap:square;stroke-linejoin:miter;stroke-miterlimit:3.25;stroke-dasharray:none;stroke-opacity:1"
         id="path36" /><path
         d="M 711.68,298.398 566.41,233.281 464.77,183.48 360.82,129.449 267.699,79.0195 266.09,78.1602 264.488,77.2695 261.289,75.5117 254.922,71.9883 242.148,64.9609 216.719,50.8984 215.16,50 l -1.609,-0.8594 -9.492,-5.2695 -12.649,-7.0703 -1.57,-0.8594 -1.602,-0.9023 -3.117,-1.7578 -6.332,-3.5118 -1.559,-0.8593 -1.609,-0.8985 -3.16,-1.7617 -1.563,-0.8594 -1.558,-0.9023 -1.61,-0.8594 -1.558,-0.8984"
         style="fill:none;stroke:#5e81b5;stroke-width:11.52;stroke-linecap:square;stroke-linejoin:miter;stroke-miterlimit:3.25;stroke-dasharray:none;stroke-opacity:1"
         id="path38" /><path
         d="m 131.211,9.80078 2.848,0.78902 2.89,0.8204 5.711,1.5586 11.442,3.1601 22.847,6.3711 45.821,12.6992 92.109,25.4219 204.301,55.0779 191.129,49.18"
         style="fill:none;stroke:#5e81b5;stroke-width:11.52;stroke-linecap:square;stroke-linejoin:miter;stroke-miterlimit:3.25;stroke-dasharray:none;stroke-opacity:1"
         id="path40" /><path
         d="m 716.91,166.559 209.809,50.98 238.201,54.691 131.76,29.098 99.41,21.953 253.29,55.309 225.31,49.89"
         style="fill:none;stroke:#5e81b5;stroke-width:11.52;stroke-linecap:square;stroke-linejoin:miter;stroke-miterlimit:3.25;stroke-dasharray:none;stroke-opacity:1"
         id="path42" /><path
         d="m 1882.07,430.121 238.01,53.43 3.83,0.859 3.86,0.86 7.66,1.718 15.39,3.442 30.9,6.871 62.46,13.719 15.78,3.429 15.9,3.442 32.11,6.879 65.86,13.75 3.94,0.781 3.95,0.82 7.89,1.598 15.94,3.203 4.02,0.777 4.02,0.821 8.09,1.601 16.33,3.207 4.14,0.781 4.1,0.821 4.18,0.781 4.14,0.82 1.91,0.348"
         style="fill:none;stroke:#5e81b5;stroke-width:11.52;stroke-linecap:square;stroke-linejoin:miter;stroke-miterlimit:3.25;stroke-dasharray:none;stroke-opacity:1"
         id="path44" /><path
         d="m 135.551,556.52 6.289,1.21 4.25,0.79 4.262,0.82 8.558,1.601 17.379,3.2 4.371,0.82 4.418,0.777 8.902,1.602 18.008,3.211 37.192,6.398 80,12.821 5.199,0.82 5.191,0.781 10.59,1.559 21.602,3.121 45.308,6.289 5.86,0.781 5.941,0.789 12.027,1.602 24.723,3.117 52.309,6.293 13.75,1.558 14.058,1.571 28.953,3.16 61.868,6.289 8.171,0.781 8.2,0.778 16.761,1.562 34.571,3.129"
         style="fill:none;stroke:#5e81b5;stroke-width:11.52;stroke-linecap:square;stroke-linejoin:miter;stroke-miterlimit:3.25;stroke-dasharray:none;stroke-opacity:1"
         id="path46" /><path
         d="m 723.09,635.43 66.172,5.468 10.777,0.864 21.91,1.718 45.473,3.399 97.578,6.832 36.09,2.379"
         style="fill:none;stroke:#5e81b5;stroke-width:11.52;stroke-linecap:square;stroke-linejoin:miter;stroke-miterlimit:3.25;stroke-dasharray:none;stroke-opacity:1"
         id="path48" /><path
         d="m 1026.72,657.73 171.72,10.43 14.53,0.86 29.3,1.718 53.75,3.09 5.23,0.313 118.24,6.839 224.89,13.629 12.26,0.782 12.15,0.82 23.94,1.559 46.49,3.21 87.03,6.36 10.31,0.781 10.16,0.789 20,1.602 1.48,0.109"
         style="fill:none;stroke:#5e81b5;stroke-width:11.52;stroke-linecap:square;stroke-linejoin:miter;stroke-miterlimit:3.25;stroke-dasharray:none;stroke-opacity:1"
         id="path50" /><path
         d="m 1888.44,712.27 88.36,7.769 8.43,0.82 8.32,0.782 16.37,1.597 31.49,3.172 58.47,6.36 6.92,0.781 6.83,0.828 13.4,1.601 25.94,3.161 48.44,6.371 6.25,0.859 6.17,0.859 12.15,1.719 23.43,3.43 43.95,6.922 5.23,0.859 5.2,0.86 10.23,1.71 19.85,3.481 37.54,6.879 8.98,1.711 8.83,1.719 17.19,3.48 4.21,0.859 4.18,0.86 8.29,1.722 16.13,3.438 3.98,0.851 3.95,0.86 3.87,0.859 3.9,0.86 2.19,0.511"
         style="fill:none;stroke:#5e81b5;stroke-width:11.52;stroke-linecap:square;stroke-linejoin:miter;stroke-miterlimit:3.25;stroke-dasharray:none;stroke-opacity:1"
         id="path52" /><path
         d="m 134.879,792.461 1.922,0.469 3.789,0.859 3.75,0.859 3.711,0.864 7.34,1.718 14.449,3.43 3.48,0.86 3.442,0.859 6.867,1.68 13.48,3.402 26.051,6.758 48.91,13.551 87.77,27.07 2.43,0.781 2.378,0.789 4.762,1.602 9.418,3.117 18.473,6.332 35.711,12.617 67.187,25.274 131.602,54.769 80.039,36.399"
         style="fill:none;stroke:#5e81b5;stroke-width:11.52;stroke-linecap:square;stroke-linejoin:miter;stroke-miterlimit:3.25;stroke-dasharray:none;stroke-opacity:1"
         id="path54" /><path
         d="m 715.391,998.16 140.39,68.52 105.239,54.41 94.96,50.75 100.74,55.04 92.89,51.36 46.41,25.74 44.25,24.61 98.79,54.65 93.36,50.98 103.44,55.27 105.16,54.26 102.85,50.59 32.77,15.5"
         style="fill:none;stroke:#5e81b5;stroke-width:11.52;stroke-linecap:square;stroke-linejoin:miter;stroke-miterlimit:3.25;stroke-dasharray:none;stroke-opacity:1"
         id="path56" /><path
         d="m 1880.16,1611.48 206.01,88.95 2.03,0.78 2,0.82 4.02,1.56 8.08,3.13 16.41,6.29 33.79,12.54 4.3,1.56 4.33,1.6 8.75,3.13 17.82,6.28 36.87,12.54 5.16,1.72 5.15,1.68 10.51,3.4 21.45,6.84 45.04,13.59 2.92,0.86 2.97,0.86 5.9,1.72 11.99,3.4 24.77,6.79 6.33,1.72 6.44,1.68 13.05,3.44 27.03,6.8 3.24,0.78 3.25,0.82 6.56,1.56 3.32,0.82 3.36,0.78 6.72,1.6 3.39,0.78 3.44,0.79 3.44,0.82 3.44,0.78 3.47,0.78 0.24,0.08"
         style="fill:none;stroke:#5e81b5;stroke-width:11.52;stroke-linecap:square;stroke-linejoin:miter;stroke-miterlimit:3.25;stroke-dasharray:none;stroke-opacity:1"
         id="path58" /><path
         d="m 134.879,1817.19 6.641,1.48 3.64,0.78 7.262,1.6 14.848,3.17 31.05,6.37 3.981,0.78 4.07,0.78 8.16,1.6 16.758,3.16 35.27,6.37 78.671,12.74 5.79,0.86 5.859,0.85 11.91,1.72 24.609,3.44 52.973,6.88 6.988,0.85 7.071,0.86 14.449,1.72 30,3.48 65.043,6.87 8.629,0.86 8.75,0.86 17.859,1.72 37.262,3.44 61.129,5.27"
         style="fill:none;stroke:#5e81b5;stroke-width:11.52;stroke-linecap:square;stroke-linejoin:miter;stroke-miterlimit:3.25;stroke-dasharray:none;stroke-opacity:1"
         id="path60" /><path
         d="m 723.789,1897.38 10.27,0.82 10.902,0.86 22.187,1.72 46.211,3.44 99.371,6.87 12.192,0.82 12.308,0.82 24.961,1.61 51.209,3.2 106.87,6.44 175.82,10.16 46.49,2.7 13.87,0.82 13.78,0.78 27.5,1.64 54.22,3.2 104.46,6.45 8.86,0.54"
         style="fill:none;stroke:#5e81b5;stroke-width:11.52;stroke-linecap:square;stroke-linejoin:miter;stroke-miterlimit:3.25;stroke-dasharray:none;stroke-opacity:1"
         id="path62" /><path
         d="m 1590.9,1951.91 15.31,1.02 47.93,3.2 90.08,6.45 10.51,0.78 10.35,0.78 20.43,1.6 39.41,3.13 43.99,3.71"
         style="fill:none;stroke:#5e81b5;stroke-width:11.52;stroke-linecap:square;stroke-linejoin:miter;stroke-miterlimit:3.25;stroke-dasharray:none;stroke-opacity:1"
         id="path64" /><path
         d="m 1887.77,1974.22 28.05,2.54 16.95,1.6 32.74,3.12 61.21,6.33 7.3,0.78 7.19,0.79 14.22,1.6 27.5,3.12 51.84,6.33 93.12,12.62 5.9,0.86 5.82,0.82 11.52,1.72 22.5,3.43 43.13,6.84 10.39,1.72 10.27,1.68 20.2,3.43 38.98,6.84 4.77,0.86 4.72,0.86 9.42,1.72 9.29,1.72 9.22,1.68 9.14,1.72 9.07,1.71 4.22,0.79"
         style="fill:none;stroke:#5e81b5;stroke-width:11.52;stroke-linecap:square;stroke-linejoin:miter;stroke-miterlimit:3.25;stroke-dasharray:none;stroke-opacity:1"
         id="path66" /><path
         d="m 135.551,2053.12 0.578,0.12 4.461,0.82 8.82,1.72 8.789,1.72 17.352,3.44 34.097,6.83 3.903,0.78 3.91,0.83 7.769,1.56 15.508,3.2 30.512,6.41 59.691,12.77 115.938,25.51 246.601,55.35 16.442,3.71"
         style="fill:none;stroke:#5e81b5;stroke-width:11.52;stroke-linecap:square;stroke-linejoin:miter;stroke-miterlimit:3.25;stroke-dasharray:none;stroke-opacity:1"
         id="path68" /><path
         d="m 717.301,2179.53 453.479,99.69 124.45,27.46 124.89,27.54 224.18,51.29 208.24,50.31 22.54,5.63"
         style="fill:none;stroke:#5e81b5;stroke-width:11.52;stroke-linecap:square;stroke-linejoin:miter;stroke-miterlimit:3.25;stroke-dasharray:none;stroke-opacity:1"
         id="path70" /><path
         d="m 1881.68,2443.09 373.36,98.24 6.48,1.79 6.49,1.76 12.97,3.56 25.86,7.11 51.48,14.22 6.41,1.79 6.4,1.76 12.85,3.56 25.63,7.1 3.2,0.9 3.17,0.9 6.4,1.76 12.82,3.55 3.2,0.9 3.2,0.86 6.37,1.8 3.2,0.9 3.21,0.86 6.4,1.79"
         style="fill:none;stroke:#5e81b5;stroke-width:11.52;stroke-linecap:square;stroke-linejoin:miter;stroke-miterlimit:3.25;stroke-dasharray:none;stroke-opacity:1"
         id="path72" /><path
         d="m 1296.02,1303.98 5.7,3.21 5.7,3.16 11.45,6.37 22.89,12.69 45.82,25.39 92.26,50.82 206.45,110.16 188.55,93.2"
         style="fill:none;stroke:#5e81b5;stroke-width:11.52;stroke-linecap:square;stroke-linejoin:miter;stroke-miterlimit:3.25;stroke-dasharray:none;stroke-opacity:1"
         id="path74" /><path
         d="m 2084.22,1699.34 58.12,21.83 4.73,1.72 9.57,3.44 19.57,6.83 41.06,13.68 5.31,1.68 5.39,1.71 10.94,3.44 22.61,6.84 48.68,13.67 6.48,1.72 6.6,1.68 13.48,3.44 28.55,6.83 7.5,1.72 7.66,1.68 15.86,3.44 8.24,1.72 8.44,1.68 17.58,3.43 9.21,1.72 9.46,1.68 1.99,0.39"
         style="fill:none;stroke:#5e81b5;stroke-width:11.52;stroke-linecap:square;stroke-linejoin:miter;stroke-miterlimit:3.25;stroke-dasharray:none;stroke-opacity:1"
         id="path76" /><path
         d="m 141.051,1808.59 9.07,1.49 10.899,1.68 23.16,3.44 12.379,1.71 12.929,1.68 27.934,3.44 15.156,1.72 16.051,1.72 35.281,3.4 18.16,1.6 19.45,1.6 20.902,1.6 22.539,1.56 24.418,1.61 13.242,0.82"
         style="fill:none;stroke:#5e81b5;stroke-width:11.52;stroke-linecap:square;stroke-linejoin:miter;stroke-miterlimit:3.25;stroke-dasharray:none;stroke-opacity:1"
         id="path78" /><path
         d="m 141.602,1920.98 12.457,1.99 9.652,1.6 9.488,1.6 9.34,1.6 18.402,3.21 9.758,1.72 9.653,1.71 19.027,3.48 37.07,6.91 24.449,4.65"
         style="fill:none;stroke:#5e81b5;stroke-width:11.52;stroke-linecap:square;stroke-linejoin:miter;stroke-miterlimit:3.25;stroke-dasharray:none;stroke-opacity:1"
         id="path80" /><path
         d="m 722.578,2030.66 571.442,100.86 105.78,18.68 8.68,1.6 8.59,1.6 17.19,3.16 34.02,6.33 66.64,12.66 127.23,25.31 7.69,1.6 7.66,1.56 15.2,3.17 29.96,6.36 58.47,12.66 90.2,20.47"
         style="fill:none;stroke:#5e81b5;stroke-width:11.52;stroke-linecap:square;stroke-linejoin:miter;stroke-miterlimit:3.25;stroke-dasharray:none;stroke-opacity:1"
         id="path82" /><path
         d="m 1885.43,2249.96 13.91,3.28 7.18,1.72 14.34,3.44 28.28,6.87 55.12,13.71 104.92,27.5 6.33,1.68 6.33,1.72 12.57,3.44 24.89,6.88 48.82,13.75 94.22,27.46 21.41,6.4 21.25,6.41 10.55,3.2 10.5,3.2 20.9,6.41 10.39,3.2 10.36,3.21 5.19,1.6 5.16,1.6 10.27,3.2 5.12,1.61 5.15,1.64 10.24,3.2 5.08,1.6 1.64,0.51"
         style="fill:none;stroke:#5e81b5;stroke-width:11.52;stroke-linecap:square;stroke-linejoin:miter;stroke-miterlimit:3.25;stroke-dasharray:none;stroke-opacity:1"
         id="path84" /><path
         d="m 136.449,2411.68 8.242,2.62 5.079,1.6 10.109,3.2 20.16,6.41 40.082,12.81 79.328,25.66 4.813,1.57 14.527,4.68 19.301,6.29 38.512,12.58 76.949,25.16 4.847,1.56 14.411,4.69 57.89,18.87 77.66,25.15 5.27,1.68 5.32,1.72 10.582,3.4 21.25,6.83 5.309,1.68 5.32,1.72 10.66,3.4 5.352,1.72 5.308,1.68 10.711,3.44 5.348,1.68 5.352,1.72 4.257,1.36"
         style="fill:none;stroke:#5e81b5;stroke-width:11.52;stroke-linecap:square;stroke-linejoin:miter;stroke-miterlimit:3.25;stroke-dasharray:none;stroke-opacity:1"
         id="path86" /><path
         d="m 718.828,11.4492 1.442,0.461 5.351,1.7187 10.789,3.4024 5.391,1.6796 5.39,1.7188 10.821,3.3984 21.679,6.8321 5.43,1.7187 5.469,1.6797 10.89,3.4023 21.84,6.8399 43.981,13.6289 89.109,27.2695 5.231,1.6016 5.269,1.5976 10.512,3.1602 21.098,6.3711 42.42,12.7303 85.82,25.43 169.29,49.18 5.94,1.718 389.89,110.352 6.01,1.68 6.06,1.718 12.03,3.364 24.1,6.796 48.24,13.512 84.18,23.641"
         style="fill:none;stroke:#5e81b5;stroke-width:11.52;stroke-linecap:square;stroke-linejoin:miter;stroke-miterlimit:3.25;stroke-dasharray:none;stroke-opacity:1"
         id="path88" /><path
         d="m 1884.3,351.328 6.6,1.871 6.05,1.68 12.07,3.402 24.18,6.758 48.48,13.551 97.42,27.07 5.74,1.61 5.71,1.558 11.44,3.16 22.97,6.332 46.29,12.621 5.82,1.559 5.82,1.602 11.68,3.128 23.48,6.321 47.5,12.621 6.01,1.598 6.02,1.57 12.07,3.16 24.33,6.328 6.14,1.563 6.17,1.558 12.34,3.172 24.96,6.328 6.33,1.563 6.29,1.597 12.74,3.161 6.4,1.57 6.45,1.558 12.93,3.161 6.52,1.601 6.52,1.57 6.61,1.559 6.6,1.602 6.64,1.558 6.13,1.449"
         style="fill:none;stroke:#5e81b5;stroke-width:11.52;stroke-linecap:square;stroke-linejoin:miter;stroke-miterlimit:3.25;stroke-dasharray:none;stroke-opacity:1"
         id="path90" /><path
         d="m 138.281,506.719 7.27,1.679 7.418,1.723 14.961,3.43 30.55,6.84 64.02,13.711 8.281,1.718 8.399,1.68 17.031,3.441 35.117,6.829 75.152,13.71 9.93,1.719 10.07,1.723 20.551,3.398 42.848,6.879 11.141,1.68 11.281,1.711 23.168,3.441 48.59,6.84 12.703,1.719 12.886,1.711 26.481,3.437 55.98,6.84 7.27,0.863"
         style="fill:none;stroke:#5e81b5;stroke-width:11.52;stroke-linecap:square;stroke-linejoin:miter;stroke-miterlimit:3.25;stroke-dasharray:none;stroke-opacity:1"
         id="path92" /><path
         d="m 1895.39,704.262 134.38,14.289 14.8,1.719 14.45,1.718 28.09,3.481 52.89,6.91 12.58,1.762 12.3,1.718 23.99,3.481 45.27,6.91 10.78,1.719 10.63,1.761 20.7,3.43 39.3,6.961 71.44,13.828 8.32,1.711 8.24,1.762 16.1,3.437 7.93,1.762 7.77,1.719 7.7,1.711 7.57,1.758 3.05,0.711"
         style="fill:none;stroke:#5e81b5;stroke-width:11.52;stroke-linecap:square;stroke-linejoin:miter;stroke-miterlimit:3.25;stroke-dasharray:none;stroke-opacity:1"
         id="path94" /><path
         d="m 138.238,791.801 5,1.211 7.231,1.718 7.152,1.719 7.027,1.75 13.872,3.442 6.832,1.757 6.718,1.723 13.282,3.469 25.699,6.922 48.558,13.867 5.743,1.672 5.668,1.719 11.21,3.402 21.872,6.797 41.878,13.59 77.54,27.191 4.601,1.719 4.578,1.679 9.141,3.403 17.93,6.789 34.878,13.64 66.332,27.18 3.75,1.61 3.711,1.558 7.418,3.16 14.731,6.371 28.898,12.692 56.024,25.359 14.566,6.75"
         style="fill:none;stroke:#5e81b5;stroke-width:11.52;stroke-linecap:square;stroke-linejoin:miter;stroke-miterlimit:3.25;stroke-dasharray:none;stroke-opacity:1"
         id="path96" /><path
         d="m 717.148,998.98 297.732,150.75 188.21,102.73 92.89,51.52 88.67,49.22 200.27,109.26 197.5,101.99 3.52,1.72 3.47,1.72 7.04,3.48 14.14,6.87 28.55,13.83 35.74,16.95"
         style="fill:none;stroke:#5e81b5;stroke-width:11.52;stroke-linecap:square;stroke-linejoin:miter;stroke-miterlimit:3.25;stroke-dasharray:none;stroke-opacity:1"
         id="path98" /><path
         d="m 1881.91,1612.3 19.65,9.15 3.79,1.71 7.5,3.44 15.24,6.92 30.89,13.82 64.26,27.62 4.06,1.72 4.07,1.68 8.2,3.4 16.6,6.76 34.03,13.59 71.95,27.11 4.69,1.72 4.72,1.68 9.57,3.4 19.38,6.75 40.35,13.6 88.09,27.11 5.46,1.56 5.55,1.6 11.25,3.16 23.09,6.33 5.9,1.57 5.97,1.6 12.07,3.16 24.92,6.33 6.41,1.56 6.45,1.6 6.56,1.57 6.6,1.6 4.57,1.09"
         style="fill:none;stroke:#5e81b5;stroke-width:11.52;stroke-linecap:square;stroke-linejoin:miter;stroke-miterlimit:3.25;stroke-dasharray:none;stroke-opacity:1"
         id="path100" /><path
         d="m 138.32,1819.49 8.442,1.96 6.988,1.56 7.07,1.6 14.41,3.16 29.93,6.29 7.731,1.6 7.847,1.57 15.981,3.16 33.359,6.33 8.633,1.6 8.789,1.56 17.969,3.17 37.652,6.33 9.77,1.6 9.961,1.56 20.429,3.16 43.047,6.33 95.863,12.66 14.098,1.72 14.41,1.71 29.731,3.4 63.16,6.88 16.609,1.72 16.949,1.72 19.454,1.91"
         style="fill:none;stroke:#5e81b5;stroke-width:11.52;stroke-linecap:square;stroke-linejoin:miter;stroke-miterlimit:3.25;stroke-dasharray:none;stroke-opacity:1"
         id="path102" /><path
         d="m 1310.2,1952.73 186.68,14.26 21.36,1.72 21.1,1.72 41.25,3.44 78.71,6.83 141.6,13.75 15.15,1.6 14.93,1.61 29.06,3.2 3.83,0.43"
         style="fill:none;stroke:#5e81b5;stroke-width:11.52;stroke-linecap:square;stroke-linejoin:miter;stroke-miterlimit:3.25;stroke-dasharray:none;stroke-opacity:1"
         id="path104" /><path
         d="m 1892.66,2004.57 48.63,5.86 25.31,3.2 48.09,6.41 11.56,1.6 11.37,1.6 22.22,3.21 42.5,6.4 78.25,12.81 9.21,1.61 9.15,1.6 17.89,3.2 34.64,6.41 65.24,12.81 7.81,1.6 7.74,1.6 15.31,3.21 29.88,6.4 7.34,1.6 7.27,1.6 14.41,3.17 7.15,1.6 7.07,1.6 14.03,3.21 6.83,1.6 6.76,1.56 5.39,1.25"
         style="fill:none;stroke:#5e81b5;stroke-width:11.52;stroke-linecap:square;stroke-linejoin:miter;stroke-miterlimit:3.25;stroke-dasharray:none;stroke-opacity:1"
         id="path106" /><path
         d="m 138.238,2104.57 7.274,1.72 13.16,3.16 6.558,1.57 6.489,1.56 12.929,3.12 25.473,6.29 6.328,1.56 6.281,1.61 12.5,3.12 24.731,6.29 48.559,12.54 11.949,3.12 11.91,3.17 23.672,6.25 46.801,12.58 91.918,25.11 6.171,1.68 6.168,1.72 36.911,10.2 48.992,13.63 97.457,27.27 17.261,4.8"
         style="fill:none;stroke:#5e81b5;stroke-width:11.52;stroke-linecap:square;stroke-linejoin:miter;stroke-miterlimit:3.25;stroke-dasharray:none;stroke-opacity:1"
         id="path108" /><path
         d="m 719.488,2259.96 525.122,148.05 6.05,1.72 18.05,5.15 24.02,6.88 3.25,0.94 44.57,12.85 94.76,27.57 5.86,1.72 5.9,1.72 11.72,3.44 23.4,6.88 46.48,13.78 91.84,27.58 10.62,3.21 10.59,3.2 21.13,6.44 42.03,12.86 5.2,1.6 5.23,1.64 10.43,3.2 20.78,6.45 41.37,12.85 5.12,1.6 5.15,1.6 10.28,3.24 20.47,6.41 5.11,1.64 5.08,1.6 10.2,3.2 10.15,3.21 5.12,1.64 5.04,1.6 3.59,1.13"
         style="fill:none;stroke:#5e81b5;stroke-width:11.52;stroke-linecap:square;stroke-linejoin:miter;stroke-miterlimit:3.25;stroke-dasharray:none;stroke-opacity:1"
         id="path110" /><path
         d="m 1883.59,11.4492 6.29,1.9922 5.08,1.6367 25.2,8.0117 10.04,3.2383 20.07,6.4024 4.93,1.6093 4.92,1.5586 9.8,3.1602 19.57,6.293 38.99,12.6172 77.61,25.2304 4.85,1.6016 4.8,1.5703 9.69,3.1602 19.34,6.289 38.59,12.6207 77.3,25.231 5.28,1.719 5.23,1.679 10.55,3.442 21.05,6.828 42.27,13.68 21.25,6.871 21.33,6.839 5.31,1.68 5.35,1.711 10.74,3.438 21.49,6.839 5.39,1.723 5.39,1.68 5.43,1.719 5.39,1.71 3.44,1.098"
         style="fill:none;stroke:#5e81b5;stroke-width:11.52;stroke-linecap:square;stroke-linejoin:miter;stroke-miterlimit:3.25;stroke-dasharray:none;stroke-opacity:1"
         id="path112" /><path
         d="m 136.48,199.609 2.391,0.743 5.43,1.718 10.929,3.442 10.942,3.398 22.027,6.828 5.551,1.723 5.512,1.719 11.129,3.441 22.339,6.828 45.321,13.672 5.308,1.609 5.352,1.598 10.738,3.16 21.641,6.41 43.91,12.774 90.898,25.547 5.821,1.601 5.859,1.559 11.762,3.211 23.781,6.398 48.52,12.742 101.64,25.54 7.149,1.761 7.148,1.719 14.41,3.441 24.571,5.86"
         style="fill:none;stroke:#5e81b5;stroke-width:11.52;stroke-linecap:square;stroke-linejoin:miter;stroke-miterlimit:3.25;stroke-dasharray:none;stroke-opacity:1"
         id="path114" /><path
         d="m 720.66,361.328 177.891,39.293 283.829,55.359 116.29,20.469 501.13,88.242 8.75,1.559 8.79,1.602 17.46,3.168 34.61,6.32"
         style="fill:none;stroke:#5e81b5;stroke-width:11.52;stroke-linecap:square;stroke-linejoin:miter;stroke-miterlimit:3.25;stroke-dasharray:none;stroke-opacity:1"
         id="path116" /><path
         d="m 2291.09,658.551 48.87,9.219 9.3,1.718 18.83,3.442 9.53,1.718 9.68,1.723 19.69,3.43 10.04,1.719 10.2,1.718 10.39,1.723 10.58,1.719 2.19,0.351"
         style="fill:none;stroke:#5e81b5;stroke-width:11.52;stroke-linecap:square;stroke-linejoin:miter;stroke-miterlimit:3.25;stroke-dasharray:none;stroke-opacity:1"
         id="path118" /><path
         d="m 2169.38,770.352 8.32,0.507 26.64,1.719 46.91,3.442 19.49,1.601 18.24,1.598 33.13,3.203 15.16,1.598 14.33,1.601 26.56,3.207 12.39,1.602 11.79,1.601 11.33,1.598 10.9,1.601 10.47,1.61 10.08,1.601 5.82,0.969"
         style="fill:none;stroke:#5e81b5;stroke-width:11.52;stroke-linecap:square;stroke-linejoin:miter;stroke-miterlimit:3.25;stroke-dasharray:none;stroke-opacity:1"
         id="path120" /><path
         d="m 140.738,802.699 12.032,2.18 16.96,3.211 31.481,6.398 7.379,1.602 7.269,1.609 14.063,3.199 26.637,6.403 6.371,1.609 6.289,1.641 12.23,3.199 23.512,6.41 43.711,12.809 78.047,25.66 4.453,1.57 4.449,1.602 8.828,3.121 17.27,6.289 33.48,12.578 12.571,4.883"
         style="fill:none;stroke:#5e81b5;stroke-width:11.52;stroke-linecap:square;stroke-linejoin:miter;stroke-miterlimit:3.25;stroke-dasharray:none;stroke-opacity:1"
         id="path122" /><path
         d="m 516.211,911.949 158.168,67.313 3.742,1.718 3.719,1.68 7.461,3.43 14.758,6.801 6.019,2.808"
         style="fill:none;stroke:#5e81b5;stroke-width:11.52;stroke-linecap:square;stroke-linejoin:miter;stroke-miterlimit:3.25;stroke-dasharray:none;stroke-opacity:1"
         id="path124" /><path
         d="m 717.148,999.02 72.653,34.81 108.558,54.61 191.641,101.83 3.24,1.8 3.28,1.76 6.49,3.55 13.01,7.11 25.93,14.22 51.53,28.44 3.24,1.76 3.2,1.79 6.41,3.56 12.85,7.11 25.62,14.22 3.21,1.75 3.2,1.8 19.22,10.66 3.16,1.76 3.21,1.76 6.4,3.56 3.21,1.79 3.2,1.76 3.2,1.8 3.21,1.75"
         style="fill:none;stroke:#5e81b5;stroke-width:11.52;stroke-linecap:square;stroke-linejoin:miter;stroke-miterlimit:3.25;stroke-dasharray:none;stroke-opacity:1"
         id="path126" /><path
         d="m 1881.91,1612.3 20.51,9.5 6.88,3.12 13.82,6.33 28.13,12.58 58.32,25.23 3.75,1.56 3.75,1.61 7.58,3.12 15.31,6.33 31.33,12.58 4.49,1.79"
         style="fill:none;stroke:#5e81b5;stroke-width:11.52;stroke-linecap:square;stroke-linejoin:miter;stroke-miterlimit:3.25;stroke-dasharray:none;stroke-opacity:1"
         id="path128" /><path
         d="m 1928.28,1875.39 76.52,2.93 35.98,1.6 32.7,1.6 29.84,1.57 27.42,1.6 25.28,1.6 23.39,1.6 21.8,1.6 39.49,3.17 18.01,1.6 17.03,1.6 31.56,3.2 14.69,1.6 14.06,1.57 26.57,3.2 12.58,1.6 12.14,1.6 23.25,3.17 11.17,1.6 10.86,1.6 10.62,1.6 6.96,1.06"
         style="fill:none;stroke:#5e81b5;stroke-width:11.52;stroke-linecap:square;stroke-linejoin:miter;stroke-miterlimit:3.25;stroke-dasharray:none;stroke-opacity:1"
         id="path130" /><path
         d="m 318.051,1952.73 170.929,33.56 215.668,41.05"
         style="fill:none;stroke:#5e81b5;stroke-width:11.52;stroke-linecap:square;stroke-linejoin:miter;stroke-miterlimit:3.25;stroke-dasharray:none;stroke-opacity:1"
         id="path132" /><path
         d="m 730.941,1907.07 74.411,6.76 19.687,1.72 40.391,3.43 84.492,6.88 180.668,13.71 23.28,1.72 23.36,1.72 46.83,3.4 41.33,3.04"
         style="fill:none;stroke:#5e81b5;stroke-width:11.52;stroke-linecap:square;stroke-linejoin:miter;stroke-miterlimit:3.25;stroke-dasharray:none;stroke-opacity:1"
         id="path134" /><path
         d="m 1887.34,580.66 183.13,34.731 8.12,1.558 8.13,1.602 16.21,3.168 32.34,6.332 64.38,12.648 16.09,3.211 16.17,3.16 32.47,6.328 9.57,1.832"
         style="fill:none;stroke:#5e81b5;stroke-width:11.52;stroke-linecap:square;stroke-linejoin:miter;stroke-miterlimit:3.25;stroke-dasharray:none;stroke-opacity:1"
         id="path136" /><path
         d="m 141.84,690.352 9.801,1.488 11.519,1.711 11.84,1.719 12.148,1.718 25.473,3.442 13.399,1.718 13.902,1.723 29.566,3.43 15.821,1.719 16.64,1.718 17.539,1.723 18.602,1.719 19.762,1.718 21.058,1.723 47.031,3.43 26.399,1.719 28.789,1.679 31.531,1.723 34.719,1.719 38.441,1.718 42.77,1.719 35.121,1.293"
         style="fill:none;stroke:#5e81b5;stroke-width:11.52;stroke-linecap:square;stroke-linejoin:miter;stroke-miterlimit:3.25;stroke-dasharray:none;stroke-opacity:1"
         id="path138" /><path
         d="m 775.27,1851.21 66.289,1.6 73.211,1.57 79.921,1.6 85.929,1.6 183.68,3.2 31.6,0.55 61.64,1.05 90.98,1.57 167.26,3.2 74.1,1.6 67.23,1.6 60.62,1.6 4.93,0.12"
         style="fill:none;stroke:#5e81b5;stroke-width:11.52;stroke-linecap:square;stroke-linejoin:miter;stroke-miterlimit:3.25;stroke-dasharray:none;stroke-opacity:1"
         id="path140" /><path
         d="m 728.121,606.719 121.367,12.73 33.211,3.211 69.84,6.399 153.121,12.781 176.14,13.39"
         style="fill:none;stroke:#5e81b5;stroke-width:11.52;stroke-linecap:square;stroke-linejoin:miter;stroke-miterlimit:3.25;stroke-dasharray:none;stroke-opacity:1"
         id="path142" /><path
         d="m 1326.6,658.551 164.02,12.039 42.78,3.199 83.59,6.41 20.39,1.602 20.16,1.597 39.57,3.161 75.9,6.41 18.24,1.601 17.97,1.602 35.04,3.207 16.79,1.562"
         style="fill:none;stroke:#5e81b5;stroke-width:11.52;stroke-linecap:square;stroke-linejoin:miter;stroke-miterlimit:3.25;stroke-dasharray:none;stroke-opacity:1"
         id="path144" /><path
         d="m 769.379,735.941 20.699,0.539 67.461,1.719 75.231,1.723 83.17,1.719 90.47,1.718 96.32,1.719 93.6,1.602 106.87,1.84 98.05,1.71 92.97,1.719 86.05,1.723 78.25,1.719 58.2,1.41"
         style="fill:none;stroke:#5e81b5;stroke-width:11.52;stroke-linecap:square;stroke-linejoin:miter;stroke-miterlimit:3.25;stroke-dasharray:none;stroke-opacity:1"
         id="path146" /><path
         d="m 483.051,1840.98 48.898,2.26 38.871,1.56 43.129,1.61 44.531,1.48"
         style="fill:none;stroke:#5e81b5;stroke-width:11.52;stroke-linecap:square;stroke-linejoin:miter;stroke-miterlimit:3.25;stroke-dasharray:none;stroke-opacity:1"
         id="path148" /><path
         d="m 1933.52,760.121 13.75,0.43 49.64,1.719 44.26,1.71 39.57,1.719 28.21,1.332"
         style="fill:none;stroke:#5e81b5;stroke-width:11.52;stroke-linecap:square;stroke-linejoin:miter;stroke-miterlimit:3.25;stroke-dasharray:none;stroke-opacity:1"
         id="path150" /><path
         d="m 1296.02,1303.98 -2.9,-1.56 -2.85,-1.6 -5.7,-3.16 -11.45,-6.37 -22.85,-12.7 -45.86,-25.39 -92.26,-50.82 -206.412,-110.15 -188.59,-93.25"
         style="fill:none;stroke:#5e81b5;stroke-width:11.52;stroke-linecap:square;stroke-linejoin:miter;stroke-miterlimit:3.25;stroke-dasharray:none;stroke-opacity:1"
         id="path152" /><path
         d="m 710.078,995.699 -20.469,-9.488 -6.879,-3.16 -13.82,-6.289 -28.129,-12.621 -58.242,-25.192 -3.75,-1.57 -3.75,-1.598 -7.539,-3.121 -15.27,-6.332 -31.21,-12.578 -65.86,-25.23 -4.648,-1.719 -4.692,-1.68 -9.41,-3.441 -19.262,-6.84 -40.117,-13.668 -5.152,-1.723 -5.238,-1.679 -10.551,-3.43 -21.68,-6.84 -45.738,-13.672 -5.973,-1.719 -6.058,-1.718 -12.262,-3.403 -25.43,-6.828 -6.57,-1.719 -6.598,-1.722 -13.551,-3.399 -28.171,-6.84 -7.297,-1.71 -7.422,-1.719 -7.539,-1.68 -7.66,-1.723 -7.77,-1.718 -7.391,-1.602"
         style="fill:none;stroke:#5e81b5;stroke-width:11.52;stroke-linecap:square;stroke-linejoin:miter;stroke-miterlimit:3.25;stroke-dasharray:none;stroke-opacity:1"
         id="path154" /><path
         d="m 2452.89,793.051 -1.09,-0.242 -8.36,-1.719 -8.48,-1.711 -17.46,-3.399 -37.07,-6.839 -9.1,-1.602 -9.3,-1.598 -19.22,-3.211 -41.09,-6.359 -10.9,-1.601 -11.17,-1.61 -23.2,-3.16 -50.32,-6.41 -13.47,-1.559 -13.87,-1.601 -29.02,-3.2 -15.2,-1.609 -15.66,-1.601 -32.89,-3.161 -17.23,-1.597 -17.85,-1.602 -37.5,-3.211 -83.01,-6.359 -22.58,-1.61 -5.12,-0.351"
         style="fill:none;stroke:#5e81b5;stroke-width:11.52;stroke-linecap:square;stroke-linejoin:miter;stroke-miterlimit:3.25;stroke-dasharray:none;stroke-opacity:1"
         id="path156" /><path
         d="m 1853.16,722.852 -125.74,-7.543 -29.02,-1.559 -29.77,-1.602 -61.79,-3.199 -130.9,-6.371 -33.87,-1.598 -34.06,-1.601 -68.6,-3.207 -43.04,-1.992 -92.85,-4.379 -33.13,-1.602 -32.66,-1.597 -63.47,-3.161 -118.479,-6.41 -29.961,-1.722 -28.98,-1.719 -55.16,-3.469 -26.211,-1.723 -25.27,-1.718 -47.929,-3.481 -7.192,-0.539"
         style="fill:none;stroke:#5e81b5;stroke-width:11.52;stroke-linecap:square;stroke-linejoin:miter;stroke-miterlimit:3.25;stroke-dasharray:none;stroke-opacity:1"
         id="path158" /><path
         d="m 2453.16,578.91 -1.83,-0.39 -7.89,-1.719 -15.55,-3.481 -30.31,-6.91 -7.31,-1.68 -7.22,-1.718 -14.34,-3.403 -28.12,-6.8 -54.38,-13.547 -103.32,-27.153 -194.1,-54.339 -104.81,-30.5"
         style="fill:none;stroke:#5e81b5;stroke-width:11.52;stroke-linecap:square;stroke-linejoin:miter;stroke-miterlimit:3.25;stroke-dasharray:none;stroke-opacity:1"
         id="path160" /><path
         d="m 1872.81,423.949 -559.14,-177.347 -16.72,-6.133 -262.38,-96.449 -4.02,-1.559 -3.99,-1.563 -8.01,-3.168 -15.93,-6.25 -31.53,-12.57 -61.75,-25.16 -3.789,-1.5586 -3.832,-1.5703 -7.578,-3.1602 -15.082,-6.25 -29.879,-12.582 -58.789,-25.1484 -3.942,-1.6797 -3.91,-1.7227 -7.848,-3.3984 -15.632,-6.8399 -3.899,-1.7187 -3.871,-1.6719 -7.769,-3.3984 -7.739,-3.4414 -7.691,-3.3985 -3.871,-1.7226 -3.828,-1.6797 -3.051,-1.3594"
         style="fill:none;stroke:#5e81b5;stroke-width:11.52;stroke-linecap:square;stroke-linejoin:miter;stroke-miterlimit:3.25;stroke-dasharray:none;stroke-opacity:1"
         id="path162" /><path
         d="m 709.879,2596.56 -1.008,-0.47 -3.832,-1.71 -7.66,-3.4 -3.789,-1.72 -3.82,-1.68 -7.579,-3.44 -15.203,-6.8 -3.75,-1.72 -3.789,-1.67 -7.539,-3.44 -15.031,-6.8 -29.891,-13.63 -59.179,-27.31 -3.43,-1.56 -3.438,-1.6 -6.882,-3.16 -13.668,-6.37 -27.301,-12.74 -54.418,-25.46 -3.402,-1.57 -3.391,-1.6 -6.801,-3.16 -13.598,-6.37 -27.14,-12.73 -54.539,-25.47 -3.711,-1.72 -3.668,-1.72 -7.422,-3.44 -14.879,-6.91 -29.851,-13.79 -7.5,-3.44 -7.54,-3.44 -15.031,-6.91 -30.359,-13.79 -3.82,-1.72 -3.79,-1.72 -7.66,-3.43 -15.39,-6.92 -7.731,-3.44 -7.738,-3.47 -15.59,-6.88 -7.812,-3.44 -3.938,-1.75 -1.371,-0.59"
         style="fill:none;stroke:#5e81b5;stroke-width:11.52;stroke-linecap:square;stroke-linejoin:miter;stroke-miterlimit:3.25;stroke-dasharray:none;stroke-opacity:1"
         id="path164" /><path
         d="m 2456.99,2329.14 -2.89,-1.25 -7.89,-3.44 -7.97,-3.43 -7.97,-3.48 -16.09,-6.88 -3.98,-1.71 -3.95,-1.68 -8.01,-3.4 -16.09,-6.76 -32.7,-13.56 -67.77,-27.07 -4.38,-1.68 -4.37,-1.71 -8.79,-3.36 -17.81,-6.8 -36.45,-13.52 -77.03,-27.07 -4.69,-1.6 -14.18,-4.72 -19.25,-6.33 -39.77,-12.62 -85.43,-25.27 -5.62,-1.57 -5.67,-1.56 -11.48,-3.16 -23.36,-6.33 -38.48,-10"
         style="fill:none;stroke:#5e81b5;stroke-width:11.52;stroke-linecap:square;stroke-linejoin:miter;stroke-miterlimit:3.25;stroke-dasharray:none;stroke-opacity:1"
         id="path166" /><path
         d="m 1871.84,2125.86 -104.38,-24.57 -7.77,-1.68 -7.81,-1.72 -15.9,-3.44 -32.62,-6.83 -68.95,-13.71 -8.94,-1.72 -9.06,-1.72 -18.36,-3.4 -37.74,-6.87 -79.57,-13.68 -10.35,-1.72 -10.39,-1.71 -21.09,-3.4 -43.21,-6.88 -90.15,-13.67 -9.93,-1.44 -182.53,-25.98 -11.57,-1.6 -11.6,-1.6 -23.2,-3.17 -46.56,-6.4 -93.012,-12.78 -96.097,-13.44"
         style="fill:none;stroke:#5e81b5;stroke-width:11.52;stroke-linecap:square;stroke-linejoin:miter;stroke-miterlimit:3.25;stroke-dasharray:none;stroke-opacity:1"
         id="path168" /><path
         d="m 702.578,1934.1 -41.367,-6.29 -80.941,-12.77 -147.692,-25.59 -9.297,-1.72 -9.222,-1.75 -18.2,-3.44 -35.39,-6.92 -66.989,-13.86 -8.05,-1.72 -7.969,-1.76 -15.66,-3.44 -30.59,-6.95 -7.461,-1.72 -7.422,-1.72 -14.609,-3.47 -28.481,-6.92 -6.988,-1.76 -6.91,-1.71 -6.879,-1.72 -6.801,-1.76 -6.711,-1.72 -1.371,-0.35"
         style="fill:none;stroke:#5e81b5;stroke-width:11.52;stroke-linecap:square;stroke-linejoin:miter;stroke-miterlimit:3.25;stroke-dasharray:none;stroke-opacity:1"
         id="path170" /><path
         d="m 2454.45,1821.76 -5.86,-1.56 -6.52,-1.72 -6.48,-1.76 -12.82,-3.44 -25,-6.95 -6.17,-1.72 -6.09,-1.72 -12.03,-3.48 -23.6,-6.91 -45.27,-13.87 -5.39,-1.68 -5.35,-1.72 -10.63,-3.39 -20.82,-6.8 -40.27,-13.59 -75.55,-27.19 -135.98,-54.42 -3.74,-1.6 -3.72,-1.56 -7.38,-3.2 -14.65,-6.33 -28.83,-12.7 -55.89,-25.35 -14.5,-6.76"
         style="fill:none;stroke:#5e81b5;stroke-width:11.52;stroke-linecap:square;stroke-linejoin:miter;stroke-miterlimit:3.25;stroke-dasharray:none;stroke-opacity:1"
         id="path172" /><path
         d="m 1874.88,1609.06 -297.77,-150.78 -188.2,-102.73 -92.89,-51.57 -88.68,-49.18 -200.27,-109.25 -197.5,-102 -3.48,-1.71 -3.512,-1.72 -6.988,-3.48 -14.141,-6.91 -28.558,-13.79 -35.743,-16.991"
         style="fill:none;stroke:#5e81b5;stroke-width:11.52;stroke-linecap:square;stroke-linejoin:miter;stroke-miterlimit:3.25;stroke-dasharray:none;stroke-opacity:1"
         id="path174" /><path
         d="m 710.078,995.66 -19.566,-9.101 -3.75,-1.719 -7.5,-3.469 -15.203,-6.883 -30.821,-13.828 -63.976,-27.609 -4.032,-1.723 -4.058,-1.68 -8.16,-3.398 -16.453,-6.801 -33.707,-13.551 -70.864,-27.109 -4.566,-1.719 -4.652,-1.679 -9.29,-3.403 -18.91,-6.789 -39.058,-13.558 -83.672,-27.11 -5.121,-1.601 -5.199,-1.559 -10.43,-3.172 -21.289,-6.32 -5.391,-1.609 -5.43,-1.559 -11.011,-3.16 -22.418,-6.332 -5.711,-1.559 -5.738,-1.609 -11.641,-3.16 -5.859,-1.563 -5.903,-1.598 -5.969,-1.57 -5.98,-1.601 -1.211,-0.309"
         style="fill:none;stroke:#5e81b5;stroke-width:11.52;stroke-linecap:square;stroke-linejoin:miter;stroke-miterlimit:3.25;stroke-dasharray:none;stroke-opacity:1"
         id="path176" /><path
         d="m 2454.41,782.969 -10.54,-2.739 -6.25,-1.558 -6.25,-1.602 -12.7,-3.16 -6.44,-1.57 -6.45,-1.602 -13.12,-3.16 -26.8,-6.289 -56.33,-12.66 -124.65,-25.309 -9.06,-1.718 -9.18,-1.723 -18.55,-3.43 -38.17,-6.84 -80.43,-13.75 -140.04,-21.949"
         style="fill:none;stroke:#5e81b5;stroke-width:11.52;stroke-linecap:square;stroke-linejoin:miter;stroke-miterlimit:3.25;stroke-dasharray:none;stroke-opacity:1"
         id="path178" /><path
         d="m 1760.94,655.23 -102.11,-14.21 -199.45,-27.469 -22.97,-3.199 -22.89,-3.204 -45.24,-6.41 -71.99,-10.468 -16.09,-2.301 -10.75,-1.598 -10.7,-1.601 -21.17,-3.211 -41.53,-6.399 -79.64,-12.82 -9.65,-1.602 -9.53,-1.597 -18.87,-3.2 -36.84,-6.41 -70.11,-12.812 -126.719,-25.629 -7.23,-1.559 -7.152,-1.562 -14.18,-3.129 -27.609,-6.289 -52.7,-12.531 -15.621,-3.911"
         style="fill:none;stroke:#5e81b5;stroke-width:11.52;stroke-linecap:square;stroke-linejoin:miter;stroke-miterlimit:3.25;stroke-dasharray:none;stroke-opacity:1"
         id="path180" /><path
         d="M 707.109,478.828 628.051,457.73 616.91,454.609 595,448.32 l -42.191,-12.539 -78.75,-25.121 -5.11,-1.68 -5.078,-1.71 -10.082,-3.399 -19.809,-6.84 -38.511,-13.59 -73.09,-27.269 -4.41,-1.684 -4.379,-1.718 -8.75,-3.391 -17.301,-6.801 -33.949,-13.629 -4.211,-1.719 -4.149,-1.679 -8.32,-3.442 -16.48,-6.8 -32.418,-13.629 -3.711,-1.559 -3.75,-1.601 -7.43,-3.168 -7.422,-3.204 -7.379,-3.168 -3.672,-1.601 -3.668,-1.559 -3.679,-1.601 -3.629,-1.598 -3.672,-1.57 -3.629,-1.602 -1.371,-0.578"
         style="fill:none;stroke:#5e81b5;stroke-width:11.52;stroke-linecap:square;stroke-linejoin:miter;stroke-miterlimit:3.25;stroke-dasharray:none;stroke-opacity:1"
         id="path182" /><path
         d="m 2457.03,275.551 -5.62,-2.461 -7.19,-3.168 -14.38,-6.371 -28.43,-12.692 -3.56,-1.597 -3.51,-1.602 -7.07,-3.172 -14.03,-6.367 -27.89,-12.691 -55.19,-25.43 -14.85,-6.879 -14.8,-6.91 -29.53,-13.75 -58.87,-27.582 -3.71,-1.719 -11.02,-5.148 -14.72,-6.883 -29.46,-13.789 -59.14,-27.5705 -13.9,-6.4101 -13.91,-6.4492 -27.93,-12.8516 -3.52,-1.6367 -3.47,-1.6016 -7.03,-3.1992 -14.07,-6.4492 -28.32,-12.8516 -3.55,-1.6015 -3.56,-1.6407 -7.1,-3.1992 -14.3,-6.4492 -3.6,-1.6016 -3.55,-1.5976 -10.78,-4.8086 -3.63,-1.6406 -7.19,-3.2032 -2.54,-1.1289"
         style="fill:none;stroke:#5e81b5;stroke-width:11.52;stroke-linecap:square;stroke-linejoin:miter;stroke-miterlimit:3.25;stroke-dasharray:none;stroke-opacity:1"
         id="path184" /><path
         d="m 1874.69,2596.56 -4.53,-2.03 -14.54,-6.41 -3.67,-1.6 -3.63,-1.64 -7.34,-3.2 -14.69,-6.45 -3.59,-1.56 -3.64,-1.56 -21.79,-9.49 -29.38,-12.62 -59.8,-25.2 -124.26,-50.46 -288.28,-106.8 -7.19,-2.66 -310.309,-102.15 -258.832,-78.71"
         style="fill:none;stroke:#5e81b5;stroke-width:11.52;stroke-linecap:square;stroke-linejoin:miter;stroke-miterlimit:3.25;stroke-dasharray:none;stroke-opacity:1"
         id="path186" /><path
         d="m 708.012,2180.74 -104.461,-30.43 -5.891,-1.72 -11.84,-3.36 -23.75,-6.79 -48.05,-13.6 -98.399,-27.18 -6.281,-1.68 -6.289,-1.72 -12.66,-3.4 -25.551,-6.8 -52.219,-13.55 -6.641,-1.72 -6.679,-1.68 -13.442,-3.4 -27.339,-6.8 -56.68,-13.59 -6.801,-1.6 -6.84,-1.56 -13.859,-3.17 -7.039,-1.6 -7.071,-1.56 -14.289,-3.17 -7.113,-1.56"
         style="fill:none;stroke:#5e81b5;stroke-width:11.52;stroke-linecap:square;stroke-linejoin:miter;stroke-miterlimit:3.25;stroke-dasharray:none;stroke-opacity:1"
         id="path188" /><path
         d="m 1856.91,1945.31 -71.32,-5.11 -25.71,-1.68 -54.14,-3.44 -119.41,-6.88 -32.15,-1.72 -32.97,-1.71 -68.32,-3.44 -143.79,-6.88 -13.12,-0.62 -23.71,-1.1 -36.96,-1.71 -73.75,-3.44 -143.36,-6.88 -34.329,-1.72 -33.601,-1.71 -64.68,-3.44 -118.289,-6.88 -27.18,-1.72 -1.293,-0.07"
         style="fill:none;stroke:#5e81b5;stroke-width:11.52;stroke-linecap:square;stroke-linejoin:miter;stroke-miterlimit:3.25;stroke-dasharray:none;stroke-opacity:1"
         id="path190" /><path
         d="m 689.262,1881.88 -48.75,-3.52 -22.703,-1.72 -43.008,-3.44 -20.391,-1.68 -19.64,-1.72 -37.27,-3.43 -67.23,-6.88 -15.469,-1.72 -14.961,-1.72 -28.59,-3.43 -52.34,-6.88 -12.191,-1.72 -11.879,-1.72 -22.809,-3.43 -42.422,-6.88 -9.339,-1.6 -9.141,-1.6 -17.77,-3.2 -8.629,-1.61 -8.441,-1.6 -16.488,-3.2 -8,-1.6 -7.852,-1.6 -4.847,-1.02"
         style="fill:none;stroke:#5e81b5;stroke-width:11.52;stroke-linecap:square;stroke-linejoin:miter;stroke-miterlimit:3.25;stroke-dasharray:none;stroke-opacity:1"
         id="path192" /><path
         d="m 2453.01,1811.68 -9.77,-2.15 -14.41,-3.2 -7.03,-1.6 -6.96,-1.61 -13.63,-3.2 -26.13,-6.4 -48.67,-12.86 -5.79,-1.6 -5.7,-1.6 -11.29,-3.2 -21.91,-6.41 -41.56,-12.85 -76.02,-25.62 -4.41,-1.61 -4.38,-1.56 -8.71,-3.12 -17.11,-6.29 -33.16,-12.58 -62.97,-25.16 -115.78,-50.31 -7.5,-3.44 -7.42,-3.4 -14.77,-6.83 -6.02,-2.78"
         style="fill:none;stroke:#5e81b5;stroke-width:11.52;stroke-linecap:square;stroke-linejoin:miter;stroke-miterlimit:3.25;stroke-dasharray:none;stroke-opacity:1"
         id="path194" /><path
         d="m 1874.88,1608.98 -72.69,-34.84 -108.56,-54.57 -191.64,-101.87 -3.24,-1.76 -3.24,-1.8 -6.53,-3.55 -13,-7.07 -25.9,-14.22 -51.56,-28.44 -3.25,-1.8 -3.2,-1.76 -6.41,-3.55 -12.85,-7.11 -25.62,-14.22 -3.21,-1.76 -3.2,-1.79 -6.4,-3.56 -12.78,-7.11 -3.2,-1.75 -3.2,-1.8 -6.41,-3.56 -3.2,-1.75 -3.21,-1.8 -3.2,-1.76 -3.16,-1.8"
         style="fill:none;stroke:#5e81b5;stroke-width:11.52;stroke-linecap:square;stroke-linejoin:miter;stroke-miterlimit:3.25;stroke-dasharray:none;stroke-opacity:1"
         id="path196" /><path
         d="m 643.91,655.23 -63.09,-5.851 -17.3,-1.719 -16.758,-1.719 -31.992,-3.48 -58.68,-6.91 -13.711,-1.723 -13.32,-1.719 -25.661,-3.48 -47.886,-6.91 -11.332,-1.719 -11.09,-1.719 -21.57,-3.48 -40.782,-6.91 -9.758,-1.719 -9.609,-1.723 -18.793,-3.469 -35.976,-6.921 -8.711,-1.719 -8.59,-1.719 -8.481,-1.75 -8.398,-1.723 -8.32,-1.718 -8.204,-1.719 -6.988,-1.52"
         style="fill:none;stroke:#5e81b5;stroke-width:11.52;stroke-linecap:square;stroke-linejoin:miter;stroke-miterlimit:3.25;stroke-dasharray:none;stroke-opacity:1"
         id="path198" /><path
         d="m 1867.27,670.621 -26.45,-3.902 -11.76,-1.719 -23.71,-3.441 -21.17,-3.008"
         style="fill:none;stroke:#5e81b5;stroke-width:11.52;stroke-linecap:square;stroke-linejoin:miter;stroke-miterlimit:3.25;stroke-dasharray:none;stroke-opacity:1"
         id="path200" /><path
         d="m 2453.09,2025.78 -14.5,-3.05 -7.57,-1.6 -15.43,-3.16 -7.86,-1.56 -7.93,-1.61 -16.13,-3.16 -33.51,-6.33 -73.13,-12.69 -9.84,-1.57 -10,-1.6 -20.59,-3.16 -43.71,-6.33 -11.52,-1.6 -11.76,-1.56 -24.41,-3.17 -52.5,-6.36 -13.99,-1.57 -14.37,-1.6 -30,-3.16 -15.67,-1.56 -16.13,-1.61 -33.71,-3.16 -17.66,-1.6 -18.24,-1.56"
         style="fill:none;stroke:#5e81b5;stroke-width:11.52;stroke-linecap:square;stroke-linejoin:miter;stroke-miterlimit:3.25;stroke-dasharray:none;stroke-opacity:1"
         id="path202" /><path
         d="m 807.809,1949.45 -83.008,-12.07 h -0.071"
         style="fill:none;stroke:#5e81b5;stroke-width:11.52;stroke-linecap:square;stroke-linejoin:miter;stroke-miterlimit:3.25;stroke-dasharray:none;stroke-opacity:1"
         id="path204" /><path
         d="M 692.852,659.379 682.77,658.551"
         style="fill:none;stroke:#5e81b5;stroke-width:11.52;stroke-linecap:square;stroke-linejoin:miter;stroke-miterlimit:3.25;stroke-dasharray:none;stroke-opacity:1"
         id="path206" /><path
         d="m 1296.02,9.80078 3.55,0.78902 3.59,0.8204 7.11,1.5586 14.3,3.1601 28.59,6.3711 57.07,12.6992 113.87,25.4219 244.22,55.0779 L 1874.8,140"
         style="fill:none;stroke:#5e81b5;stroke-width:11.52;stroke-linecap:square;stroke-linejoin:miter;stroke-miterlimit:3.25;stroke-dasharray:none;stroke-opacity:1"
         id="path208" /><path
         d="m 1881.99,141.641 330.39,75.898 15,3.441 15.04,3.399 30.2,6.832 60.86,13.668 7.65,1.723 7.7,1.718 15.39,3.399 30.98,6.832 3.86,0.859 3.91,0.86 7.77,1.718 15.67,3.403 3.9,0.859 11.84,2.578 3.9,0.863 3.99,0.821 3.94,0.859 2.97,0.66"
         style="fill:none;stroke:#5e81b5;stroke-width:11.52;stroke-linecap:square;stroke-linejoin:miter;stroke-miterlimit:3.25;stroke-dasharray:none;stroke-opacity:1"
         id="path210" /><path
         d="m 135.039,273.672 4.449,0.937 3.711,0.821 3.711,0.781 3.711,0.82 7.469,1.598 3.75,0.781 3.711,0.789 7.5,1.602 15.07,3.199 3.789,0.781 3.75,0.821 7.578,1.597 15.242,3.172 30.782,6.399 7.726,1.57 7.782,1.601 15.621,3.2 31.597,6.371 64.653,12.769 8.91,1.719 8.937,1.719 18.051,3.48 36.602,6.91 75.39,13.832 160.739,27.649 23.25,3.832"
         style="fill:none;stroke:#5e81b5;stroke-width:11.52;stroke-linecap:square;stroke-linejoin:miter;stroke-miterlimit:3.25;stroke-dasharray:none;stroke-opacity:1"
         id="path212" /><path
         d="m 718.711,384.059 583.989,83.519 111.91,15.973 391.95,54.969 5.43,0.781 5.39,0.82 10.82,1.598 21.45,3.203 23.28,3.476"
         style="fill:none;stroke:#5e81b5;stroke-width:11.52;stroke-linecap:square;stroke-linejoin:miter;stroke-miterlimit:3.25;stroke-dasharray:none;stroke-opacity:1"
         id="path214" /><path
         d="m 1883.83,550.078 91.56,14.063 5.12,0.82 5.11,0.777 10.28,1.602 20.39,3.211 40.55,6.398 80.39,12.821 4.88,0.82 34.45,5.461 39.49,6.289 9.93,1.57 9.96,1.602 20,3.117 40.51,6.293 5.11,0.777 15.47,2.352 20.86,3.16 10.55,1.559 10.66,1.57 21.56,3.16 10.94,1.559 11.1,1.562 5.58,0.789 5.63,0.781 11.32,1.598 11.49,1.563 5.82,0.777 11.72,1.57 0.27,0.031"
         style="fill:none;stroke:#5e81b5;stroke-width:11.52;stroke-linecap:square;stroke-linejoin:miter;stroke-miterlimit:3.25;stroke-dasharray:none;stroke-opacity:1"
         id="path216" /><path
         d="m 137.5,639.379 11.762,1.519 6.679,0.864 13.508,1.718 27.891,3.399 7.191,0.851 7.231,0.86 14.797,1.68 30.711,3.441 7.929,0.82 8.039,0.86 6.492,0.699"
         style="fill:none;stroke:#5e81b5;stroke-width:11.52;stroke-linecap:square;stroke-linejoin:miter;stroke-miterlimit:3.25;stroke-dasharray:none;stroke-opacity:1"
         id="path218" /><path
         d="m 731.328,687.621 22.891,1.008 19.332,0.859 40.238,1.723 86.52,3.398 21.332,0.782 21.757,0.82 44.723,1.559 93.829,3.21 198.64,6.36 15.39,0.469 9.76,0.312 25.04,0.789 49.73,1.602 96.91,3.199 177.03,6.328 20.24,0.82 19.72,0.782 38.17,1.597 70.9,3.172 16.6,0.82 16.21,0.782 26.41,1.328"
         style="fill:none;stroke:#5e81b5;stroke-width:11.52;stroke-linecap:square;stroke-linejoin:miter;stroke-miterlimit:3.25;stroke-dasharray:none;stroke-opacity:1"
         id="path220" /><path
         d="m 1893.63,731.02 58.21,3.359 25.35,1.601 47.07,3.161 11.05,0.781 10.78,0.816 20.86,1.563 38.91,3.211 9.96,0.859 9.73,0.859 18.79,1.719 35.19,3.43 8.32,0.859 8.17,0.903 15.82,1.718 29.84,3.442 7.11,0.859 6.99,0.86 13.63,1.71 25.86,3.481 47.03,6.879 5.51,0.859 5.43,0.852 10.63,1.719 20.43,3.48 4.96,0.859 4.88,0.86 9.61,1.722 18.55,3.438 4.5,0.851 4.45,0.86 8.79,1.719 4.34,0.863 4.25,0.898 4.26,0.86 3.91,0.781"
         style="fill:none;stroke:#5e81b5;stroke-width:11.52;stroke-linecap:square;stroke-linejoin:miter;stroke-miterlimit:3.25;stroke-dasharray:none;stroke-opacity:1"
         id="path222" /><path
         d="m 135.16,795.352 0.621,0.16 4.098,0.859 4.031,0.859 7.969,1.719 7.812,1.711 7.579,1.719 7.421,1.68 14.489,3.402 27.73,6.758 51.25,13.551 3.051,0.82 3.008,0.859 6.011,1.68 11.801,3.402 22.891,6.758 43.359,13.551 2.457,0.781 2.422,0.789 4.852,1.602 9.527,3.117 18.75,6.332 36.051,12.617 67.539,25.274 131.84,54.769 80.121,36.399"
         style="fill:none;stroke:#5e81b5;stroke-width:11.52;stroke-linecap:square;stroke-linejoin:miter;stroke-miterlimit:3.25;stroke-dasharray:none;stroke-opacity:1"
         id="path224" /><path
         d="m 715.391,998.16 140.39,68.52 105.239,54.41 94.96,50.75 100.74,55.04 92.89,51.36 46.41,25.74 44.25,24.61 98.79,54.65 93.36,50.98 103.44,55.27 105.16,54.26 102.89,50.59 32.73,15.5"
         style="fill:none;stroke:#5e81b5;stroke-width:11.52;stroke-linecap:square;stroke-linejoin:miter;stroke-miterlimit:3.25;stroke-dasharray:none;stroke-opacity:1"
         id="path226" /><path
         d="m 1880.16,1611.48 206.32,88.95 2,0.78 1.99,0.82 12.19,4.69 16.48,6.29 33.98,12.54 4.38,1.56 4.38,1.6 8.78,3.13 18.01,6.28 37.35,12.54 5.23,1.72 5.27,1.68 10.67,3.4 21.91,6.84 46.41,13.59 3.01,0.86 3.04,0.86 6.14,1.72 12.53,3.4 25.94,6.79 6.72,1.72 6.8,1.68 13.86,3.44 29.07,6.8 3.51,0.78 3.56,0.82 7.15,1.56 3.63,0.82 3.67,0.78 7.38,1.6 3.75,0.78 1.57,0.32"
         style="fill:none;stroke:#5e81b5;stroke-width:11.52;stroke-linecap:square;stroke-linejoin:miter;stroke-miterlimit:3.25;stroke-dasharray:none;stroke-opacity:1"
         id="path228" /><path
         d="m 135.199,1814.3 5.852,1.17 3.949,0.82 7.93,1.56 4.019,0.82 4.102,0.78 8.25,1.6 17.07,3.17 36.399,6.37 4.808,0.78 4.844,0.78 9.879,1.6 20.59,3.16 5.308,0.82 5.391,0.79 11.019,1.6 23.012,3.16 5.969,0.78 6.058,0.82 12.422,1.57 26.129,3.2 58.172,6.37 8.59,0.86 8.75,0.85 18.129,1.72 38.859,3.44 10.321,0.86 10.539,0.86 21.921,1.72 47.34,3.44 12.621,0.85 13.008,0.86 27.031,1.72 58.79,3.48 6.089,0.31"
         style="fill:none;stroke:#5e81b5;stroke-width:11.52;stroke-linecap:square;stroke-linejoin:miter;stroke-miterlimit:3.25;stroke-dasharray:none;stroke-opacity:1"
         id="path230" /><path
         d="m 729.301,1878.63 28.75,1.49 73.551,3.43 19.687,0.86 20.191,0.86 42.04,1.72 90.39,3.44 202.69,6.91 26.84,0.86 26.99,0.86 35.59,1.14 18.75,0.58 108.63,3.44 205.9,6.87 22.38,0.82 21.91,0.82 42.58,1.61 79.77,3.2 18.83,0.82 18.35,0.78 27.58,1.25"
         style="fill:none;stroke:#5e81b5;stroke-width:11.52;stroke-linecap:square;stroke-linejoin:miter;stroke-miterlimit:3.25;stroke-dasharray:none;stroke-opacity:1"
         id="path232" /><path
         d="m 2312.27,1951.91 9.57,1.02 29.64,3.2 55.2,6.45 6.44,0.78 6.37,0.78 12.58,1.6 12.34,1.56 6.1,0.79 3.98,0.54"
         style="fill:none;stroke:#5e81b5;stroke-width:11.52;stroke-linecap:square;stroke-linejoin:miter;stroke-miterlimit:3.25;stroke-dasharray:none;stroke-opacity:1"
         id="path234" /><path
         d="m 137.461,1970.27 7.379,0.98 5.859,0.78 5.821,0.78 5.781,0.82 11.449,1.57 5.66,0.78 5.629,0.78 11.172,1.6 21.949,3.12 42.66,6.33 10.469,1.57 10.391,1.6 20.59,3.12 40.5,6.33 79.57,12.62 5.359,0.86 5.352,0.82 32.109,5.15 42.852,6.84 86.476,13.67 113.672,17.54"
         style="fill:none;stroke:#5e81b5;stroke-width:11.52;stroke-linecap:square;stroke-linejoin:miter;stroke-miterlimit:3.25;stroke-dasharray:none;stroke-opacity:1"
         id="path236" /><path
         d="m 719.059,2059.57 417.031,59.26 158.36,21.6 247.54,33.75 331.29,49.77"
         style="fill:none;stroke:#5e81b5;stroke-width:11.52;stroke-linecap:square;stroke-linejoin:miter;stroke-miterlimit:3.25;stroke-dasharray:none;stroke-opacity:1"
         id="path238" /><path
         d="m 1883.48,2225.59 303.43,53.63 4.5,0.86 13.36,2.58 17.69,3.43 34.96,6.88 68.17,13.75 4.21,0.86 4.18,0.86 24.97,5.15 32.85,6.88 4.1,0.86 12.19,2.58 16.21,3.43 8.04,1.72 8.01,1.72 8.05,1.72 7.97,1.72 0.58,0.12"
         style="fill:none;stroke:#5e81b5;stroke-width:11.52;stroke-linecap:square;stroke-linejoin:miter;stroke-miterlimit:3.25;stroke-dasharray:none;stroke-opacity:1"
         id="path240" /><path
         d="m 135.039,2335.98 6.641,1.44 3.711,0.78 3.668,0.82 7.421,1.6 3.68,0.79 3.668,0.82 22.031,4.8 3.629,0.82 3.672,0.78 7.309,1.6 14.531,3.21 28.91,6.4 3.629,0.82 3.59,0.79 7.191,1.64 14.34,3.2 28.551,6.41 56.719,12.81 3.441,0.78 3.469,0.82 6.879,1.56 13.832,3.13 27.539,6.29 54.84,12.57 109.34,25.16 132.73,30.51"
         style="fill:none;stroke:#5e81b5;stroke-width:11.52;stroke-linecap:square;stroke-linejoin:miter;stroke-miterlimit:3.25;stroke-dasharray:none;stroke-opacity:1"
         id="path242" /><path
         d="m 717.23,2468.01 323.63,73.32 3.98,0.9 3.95,0.89 7.97,1.76 15.86,3.56 31.79,7.11 63.75,14.22 7.97,1.79 8.01,1.76 15.94,3.56 31.95,7.1 4.02,0.9 3.99,0.9 8.01,1.76 15.97,3.55 3.99,0.9 4.02,0.86 7.97,1.8 4.02,0.9 3.99,0.86 3.98,0.89 4.03,0.9"
         style="fill:none;stroke:#5e81b5;stroke-width:11.52;stroke-linecap:square;stroke-linejoin:miter;stroke-miterlimit:3.25;stroke-dasharray:none;stroke-opacity:1"
         id="path244" /><path
         d="m 295.898,657.73 28.403,2.782 76.91,6.828 10.469,0.82 10.699,0.86 22.109,1.718 47.274,3.403 12.5,0.859 12.847,0.859 26.563,1.719 57.379,3.402 15.277,0.86 15.703,0.82 32.617,1.719 31.723,1.562"
         style="fill:none;stroke:#5e81b5;stroke-width:11.52;stroke-linecap:square;stroke-linejoin:miter;stroke-miterlimit:3.25;stroke-dasharray:none;stroke-opacity:1"
         id="path246" /><path
         d="m 1895.66,1922.03 69.14,3.56 29.03,1.6 53.98,3.24 12.74,0.78 12.42,0.82 24.02,1.6 44.96,3.21 10.67,0.82 10.43,0.78 20.27,1.64 38.24,3.2 68.91,6.45 5.66,0.54"
         style="fill:none;stroke:#5e81b5;stroke-width:11.52;stroke-linecap:square;stroke-linejoin:miter;stroke-miterlimit:3.25;stroke-dasharray:none;stroke-opacity:1"
         id="path248" /><path
         d="m 1296.02,2598.2 -0.75,-0.78 -0.7,-0.82 -1.45,-1.56 -2.85,-3.2 -5.7,-6.33 -11.48,-12.7 -23.32,-25.43 -53.52,-55.08 -56.21,-51.4 -63.32,-50.43 -80.161,-54.69 -86.911,-51.05 -108.437,-55.32 -85.699,-39.14"
         style="fill:none;stroke:#5e81b5;stroke-width:11.52;stroke-linecap:square;stroke-linejoin:miter;stroke-miterlimit:3.25;stroke-dasharray:none;stroke-opacity:1"
         id="path250" /><path
         d="m 711.719,2188.63 -157.27,-64.22 -150.777,-54.92 -2.301,-0.78 -2.351,-0.82 -4.641,-1.6 -9.418,-3.2 -18.941,-6.41 -38.829,-12.81 -2.461,-0.82 -2.5,-0.78 -4.96,-1.61 -9.969,-3.2 -20.27,-6.41 -41.761,-12.85 -5.231,-1.56 -5.269,-1.56 -10.629,-3.17 -21.719,-6.25 -2.731,-0.82 -8.32,-2.34 -11.211,-3.12 -23.012,-6.29 -2.886,-0.79 -2.973,-0.78 -5.898,-1.6 -2.969,-0.78 -6.012,-1.56 -2,-0.51"
         style="fill:none;stroke:#5e81b5;stroke-width:11.52;stroke-linecap:square;stroke-linejoin:miter;stroke-miterlimit:3.25;stroke-dasharray:none;stroke-opacity:1"
         id="path252" /><path
         d="m 2457.58,1985.39 -3.79,-0.94 -3.09,-0.78 -3.08,-0.82 -3.09,-0.78 -6.29,-1.56 -6.33,-1.56 -6.4,-1.57 -13.05,-3.16 -27.07,-6.29 -3.79,-0.82 -3.83,-0.86 -7.73,-1.72 -15.78,-3.4 -33.4,-6.83 -4.34,-0.86 -4.41,-0.82 -3.52,-0.71"
         style="fill:none;stroke:#5e81b5;stroke-width:11.52;stroke-linecap:square;stroke-linejoin:miter;stroke-miterlimit:3.25;stroke-dasharray:none;stroke-opacity:1"
         id="path254" /><path
         d="m 2299.88,1950.27 -15.19,-2.77 -39.69,-6.84 -5.27,-0.86 -5.32,-0.85 -10.89,-1.68 -22.78,-3.4 -5.9,-0.86 -6.01,-0.86 -12.35,-1.72 -25.97,-3.4 -6.76,-0.86 -6.91,-0.86 -14.26,-1.68 -30.24,-3.43 -7.96,-0.82 -8.13,-0.86 -16.8,-1.72 -36.05,-3.4 -8.91,-0.78 -9.14,-0.82 -18.9,-1.6 -40.67,-3.17 -10.82,-0.78 -11.09,-0.82 -23.09,-1.56 -9.65,-0.67"
         style="fill:none;stroke:#5e81b5;stroke-width:11.52;stroke-linecap:square;stroke-linejoin:miter;stroke-miterlimit:3.25;stroke-dasharray:none;stroke-opacity:1"
         id="path256" /><path
         d="m 1865.31,1901.56 -41.6,-2.5 -28.63,-1.56 -62.23,-3.2 -16.68,-0.78 -17.11,-0.79 -35.62,-1.6 -77.07,-3.2 -20.47,-0.78 -20.98,-0.78 -43.32,-1.6 -91.87,-3.17 -115.32,-3.71 -83.2,-2.66 -25.43,-0.82 -25.43,-0.78 -50.62,-1.6 -99.11,-3.16 -24.061,-0.82 -23.75,-0.78 -46.289,-1.61 -87.418,-3.16 -22.422,-0.86 -21.84,-0.86 -41.91,-1.72 -10.352,-0.47"
         style="fill:none;stroke:#5e81b5;stroke-width:11.52;stroke-linecap:square;stroke-linejoin:miter;stroke-miterlimit:3.25;stroke-dasharray:none;stroke-opacity:1"
         id="path258" /><path
         d="m 403.98,1839.38 -11.992,-1.02 -38.629,-3.44 -9.097,-0.86 -8.832,-0.86 -17.11,-1.75 -31.91,-3.44 -7.539,-0.86 -7.391,-0.86 -14.332,-1.72 -26.949,-3.44 -6.449,-0.86 -6.289,-0.86 -12.301,-1.75 -23.281,-3.44 -5.629,-0.86 -5.469,-0.86 -10.742,-1.72 -5.269,-0.86 -5.161,-0.86 -5.078,-0.86 -5.043,-0.86 -3.59,-0.62"
         style="fill:none;stroke:#5e81b5;stroke-width:11.52;stroke-linecap:square;stroke-linejoin:miter;stroke-miterlimit:3.25;stroke-dasharray:none;stroke-opacity:1"
         id="path260" /><path
         d="m 2456.13,1805.04 -1.44,-0.24 -4.69,-0.85 -4.57,-0.86 -4.57,-0.82 -8.91,-1.72 -4.37,-0.82 -4.34,-0.86 -8.51,-1.68 -16.41,-3.4 -4.02,-0.86 -3.95,-0.82 -7.77,-1.72 -15.12,-3.36 -28.59,-6.8 -3.44,-0.82 -10.16,-2.53 -13.16,-3.4 -25.2,-6.76 -46.68,-13.56 -2.61,-0.78 -2.58,-0.78 -5.12,-1.6 -10.08,-3.16 -19.64,-6.29 -37.47,-12.66 -69.14,-25.23 -2.26,-0.86 -2.23,-0.86 -4.41,-1.72 -8.83,-3.4 -17.34,-6.87 -33.72,-13.68 -64.25,-27.42 -80.39,-36.4"
         style="fill:none;stroke:#5e81b5;stroke-width:11.52;stroke-linecap:square;stroke-linejoin:miter;stroke-miterlimit:3.25;stroke-dasharray:none;stroke-opacity:1"
         id="path262" /><path
         d="m 1876.64,1609.8 -140.39,-68.47 -105.27,-54.42 -94.96,-50.74 -100.75,-55.04 -92.89,-51.36 -46.36,-25.79 -44.3,-24.57 -98.79,-54.64 -93.32,-50.98 -103.481,-55.27 -105.149,-54.26 -102.929,-50.59 -32.66,-15.471"
         style="fill:none;stroke:#5e81b5;stroke-width:11.52;stroke-linecap:square;stroke-linejoin:miter;stroke-miterlimit:3.25;stroke-dasharray:none;stroke-opacity:1"
         id="path264" /><path
         d="m 711.84,996.559 -207.66,-89.02 -2.032,-0.777 -2.07,-0.782 -4.098,-1.57 -8.281,-3.121 -16.84,-6.289 -34.839,-12.539 -2.27,-0.781 -2.23,-0.821 -4.532,-1.558 -9.136,-3.129 -18.672,-6.293 -39.258,-12.539 -2.731,-0.86 -2.812,-0.859 -5.59,-1.672 -11.41,-3.437 -23.629,-6.801 -3.012,-0.859 -3.039,-0.864 -6.179,-1.679 -12.61,-3.399 -26.332,-6.832 -3.398,-0.816 -3.442,-0.864 -6.988,-1.718 -14.262,-3.399 -30.226,-6.801 -7.973,-1.71 -8.129,-1.719 -16.75,-3.403 -4.34,-0.859 -4.371,-0.82 -8.91,-1.719 -4.527,-0.859 -4.614,-0.86 -4.648,-0.82 -4.141,-0.781"
         style="fill:none;stroke:#5e81b5;stroke-width:11.52;stroke-linecap:square;stroke-linejoin:miter;stroke-miterlimit:3.25;stroke-dasharray:none;stroke-opacity:1"
         id="path266" /><path
         d="m 2167.42,766.988 -52.73,-3.867 -23.71,-1.601 -51.49,-3.161 -13.79,-0.781 -14.14,-0.816 -29.57,-1.563 -64.26,-3.211 -18.63,-0.859 -2.22,-0.078"
         style="fill:none;stroke:#5e81b5;stroke-width:11.52;stroke-linecap:square;stroke-linejoin:miter;stroke-miterlimit:3.25;stroke-dasharray:none;stroke-opacity:1"
         id="path268" /><path
         d="m 700.859,704.801 -27.621,-1.871 -12.148,-0.86 -23.32,-1.718 -43,-3.473 -9.418,-0.789 -9.18,-0.82 -17.774,-1.598 -33.238,-3.203 -7.859,-0.821 -7.731,-0.82 -14.961,-1.598 -28.199,-3.21 -6.719,-0.821 -6.64,-0.777 -12.852,-1.602 -24.461,-3.242 -44.566,-6.406 -5.192,-0.82 -5.16,-0.821 -10.082,-1.601 -19.41,-3.2 -36.168,-6.449 -3.012,-0.551"
         style="fill:none;stroke:#5e81b5;stroke-width:11.52;stroke-linecap:square;stroke-linejoin:miter;stroke-miterlimit:3.25;stroke-dasharray:none;stroke-opacity:1"
         id="path270" /><path
         d="m 2457.58,620.941 -5.86,-1.531 -3.01,-0.781 -5.94,-1.598 -11.75,-3.121 -22.97,-6.332 -43.91,-12.617 -5.78,-1.723 -5.74,-1.679 -11.41,-3.438 -22.38,-6.832 -43.32,-13.668 -82.15,-27.391 -141.21,-51.089 -138.24,-55.352 -33.64,-14.41"
         style="fill:none;stroke:#5e81b5;stroke-width:11.52;stroke-linecap:square;stroke-linejoin:miter;stroke-miterlimit:3.25;stroke-dasharray:none;stroke-opacity:1"
         id="path272" /><path
         d="m 1876.48,417.699 -184.02,-88.949 -94.57,-54.961 -75.86,-51.328 -64.14,-50.27 -60.19,-54.613 -49.85,-50.9374 -0.82,-0.8593 -0.82,-0.9024 -1.68,-1.7891 -3.28,-3.5585 -6.56,-7.0704 -13.01,-14.2226 -1.64,-1.7891 -1.6,-1.7578 -3.21,-3.5625 -6.44,-7.1094 -0.78,-0.8984 -0.82,-0.8906 -1.6,-1.7617 -3.21,-3.5586 -0.78,-0.8907 -0.82,-0.8984 -1.6,-1.7617 -1.56,-1.8008 -0.82,-0.8594 -0.78,-0.89842"
         style="fill:none;stroke:#5e81b5;stroke-width:11.52;stroke-linecap:square;stroke-linejoin:miter;stroke-miterlimit:3.25;stroke-dasharray:none;stroke-opacity:1"
         id="path274" /><path
         d="m 2456.09,801.289 -4.8,-0.82 -4.65,-0.821 -4.73,-0.777 -4.76,-0.781 -9.73,-1.61 -4.96,-0.781 -5.04,-0.82 -10.35,-1.559 -21.6,-3.199 -5.63,-0.781 -5.7,-0.789 -11.76,-1.602 -24.72,-3.16 -55.47,-6.367 -7.62,-0.781 -7.73,-0.821 -16.02,-1.558 -34.3,-3.211 -9.1,-0.781 -9.3,-0.782 -10.07,-0.859"
         style="fill:none;stroke:#5e81b5;stroke-width:11.52;stroke-linecap:square;stroke-linejoin:miter;stroke-miterlimit:3.25;stroke-dasharray:none;stroke-opacity:1"
         id="path276" /><path
         d="m 1859.41,749.379 -106.79,-4.258 -23.17,-0.859 -23.75,-0.864 -49.02,-1.718 -103.44,-3.442 -26.76,-0.859 -27.03,-0.899 -54.68,-1.71 -110.04,-3.442 -37.31,-1.207 -172.81,-5.672 -24.41,-0.859 -23.91,-0.86 -46.21,-1.71 -85.592,-3.481 -19.957,-0.859 -19.41,-0.86 -37.191,-1.718 -68.09,-3.442 -15.781,-0.859 -15.309,-0.852 -29.34,-1.719 -12.691,-0.781"
         style="fill:none;stroke:#5e81b5;stroke-width:11.52;stroke-linecap:square;stroke-linejoin:miter;stroke-miterlimit:3.25;stroke-dasharray:none;stroke-opacity:1"
         id="path278" /><path
         d="m 695.16,1856.95 -29.301,-1.36 -17.89,-0.86 -17.348,-0.86 -33.199,-1.72 -60.66,-3.44 -14.063,-0.86 -13.679,-0.86 -26.129,-1.72 -47.969,-3.47 -10.352,-0.78"
         style="fill:none;stroke:#5e81b5;stroke-width:11.52;stroke-linecap:square;stroke-linejoin:miter;stroke-miterlimit:3.25;stroke-dasharray:none;stroke-opacity:1"
         id="path280" /><path
         d="m 283.398,656.09 -59.726,-12.262 -7.152,-1.558 -14.02,-3.168 -3.48,-0.782 -10.192,-2.34 -13.316,-3.171 -3.282,-0.778 -3.25,-0.781 -6.48,-1.602 -3.199,-0.777 -3.172,-0.781 -6.328,-1.61 -6.25,-1.558 -6.172,-1.563 -2.969,-0.781"
         style="fill:none;stroke:#5e81b5;stroke-width:11.52;stroke-linecap:square;stroke-linejoin:miter;stroke-miterlimit:3.25;stroke-dasharray:none;stroke-opacity:1"
         id="path282" /><path
         d="m 35.4297,1303.98 v 17.39"
         style="fill:none;stroke:#000000;stroke-width:3.6;stroke-linecap:butt;stroke-linejoin:miter;stroke-miterlimit:3.25;stroke-dasharray:none;stroke-opacity:1"
         id="path284" /><path
         d="m 109.57,1303.98 v 17.39"
         style="fill:none;stroke:#000000;stroke-width:3.6;stroke-linecap:butt;stroke-linejoin:miter;stroke-miterlimit:3.25;stroke-dasharray:none;stroke-opacity:1"
         id="path286" /><path
         d="m 183.711,1303.98 v 28.95"
         style="fill:none;stroke:#000000;stroke-width:3.6;stroke-linecap:butt;stroke-linejoin:miter;stroke-miterlimit:3.25;stroke-dasharray:none;stroke-opacity:1"
         id="path288" /><g
         id="g290"
         transform="scale(10)"><text
           transform="matrix(1,0,0,-1,14.8172,122.068)"
           style="font-variant:normal;font-size:6.47949px;font-family:f-0;-inkscape-font-specification:f-0-0;writing-mode:lr-tb;fill:#000000;fill-opacity:1;fill-rule:nonzero;stroke:none"
           id="text294"><tspan
             x="0"
             y="0"
             id="tspan292">-</tspan></text><text
           transform="matrix(1,0,0,-1,18.31603,122.068)"
           style="font-variant:normal;font-size:6.47949px;font-family:f-1;-inkscape-font-specification:f-1-0;writing-mode:lr-tb;fill:#000000;fill-opacity:1;fill-rule:nonzero;stroke:none"
           id="text298"><tspan
             x="0"
             y="0"
             id="tspan296">3</tspan></text></g><path
         d="m 257.852,1303.98 v 17.39"
         style="fill:none;stroke:#000000;stroke-width:3.6;stroke-linecap:butt;stroke-linejoin:miter;stroke-miterlimit:3.25;stroke-dasharray:none;stroke-opacity:1"
         id="path300" /><path
         d="m 332.031,1303.98 v 17.39"
         style="fill:none;stroke:#000000;stroke-width:3.6;stroke-linecap:butt;stroke-linejoin:miter;stroke-miterlimit:3.25;stroke-dasharray:none;stroke-opacity:1"
         id="path302" /><path
         d="m 406.172,1303.98 v 17.39"
         style="fill:none;stroke:#000000;stroke-width:3.6;stroke-linecap:butt;stroke-linejoin:miter;stroke-miterlimit:3.25;stroke-dasharray:none;stroke-opacity:1"
         id="path304" /><path
         d="m 480.309,1303.98 v 17.39"
         style="fill:none;stroke:#000000;stroke-width:3.6;stroke-linecap:butt;stroke-linejoin:miter;stroke-miterlimit:3.25;stroke-dasharray:none;stroke-opacity:1"
         id="path306" /><path
         d="m 554.488,1303.98 v 28.95"
         style="fill:none;stroke:#000000;stroke-width:3.6;stroke-linecap:butt;stroke-linejoin:miter;stroke-miterlimit:3.25;stroke-dasharray:none;stroke-opacity:1"
         id="path308" /><g
         id="g310"
         transform="scale(10)"><text
           transform="matrix(1,0,0,-1,51.893,122.068)"
           style="font-variant:normal;font-size:6.47949px;font-family:f-0;-inkscape-font-specification:f-0-0;writing-mode:lr-tb;fill:#000000;fill-opacity:1;fill-rule:nonzero;stroke:none"
           id="text314"><tspan
             x="0"
             y="0"
             id="tspan312">-</tspan></text><text
           transform="matrix(1,0,0,-1,55.39183,122.068)"
           style="font-variant:normal;font-size:6.47949px;font-family:f-1;-inkscape-font-specification:f-1-0;writing-mode:lr-tb;fill:#000000;fill-opacity:1;fill-rule:nonzero;stroke:none"
           id="text318"><tspan
             x="0"
             y="0"
             id="tspan316">2</tspan></text></g><path
         d="m 628.629,1303.98 v 17.39"
         style="fill:none;stroke:#000000;stroke-width:3.6;stroke-linecap:butt;stroke-linejoin:miter;stroke-miterlimit:3.25;stroke-dasharray:none;stroke-opacity:1"
         id="path320" /><path
         d="m 702.77,1303.98 v 17.39"
         style="fill:none;stroke:#000000;stroke-width:3.6;stroke-linecap:butt;stroke-linejoin:miter;stroke-miterlimit:3.25;stroke-dasharray:none;stroke-opacity:1"
         id="path322" /><path
         d="m 776.949,1303.98 v 17.39"
         style="fill:none;stroke:#000000;stroke-width:3.6;stroke-linecap:butt;stroke-linejoin:miter;stroke-miterlimit:3.25;stroke-dasharray:none;stroke-opacity:1"
         id="path324" /><path
         d="m 851.09,1303.98 v 17.39"
         style="fill:none;stroke:#000000;stroke-width:3.6;stroke-linecap:butt;stroke-linejoin:miter;stroke-miterlimit:3.25;stroke-dasharray:none;stroke-opacity:1"
         id="path326" /><path
         d="m 925.23,1303.98 v 28.95"
         style="fill:none;stroke:#000000;stroke-width:3.6;stroke-linecap:butt;stroke-linejoin:miter;stroke-miterlimit:3.25;stroke-dasharray:none;stroke-opacity:1"
         id="path328" /><g
         id="g330"
         transform="scale(10)"><text
           transform="matrix(1,0,0,-1,88.9691,122.068)"
           style="font-variant:normal;font-size:6.47949px;font-family:f-0;-inkscape-font-specification:f-0-0;writing-mode:lr-tb;fill:#000000;fill-opacity:1;fill-rule:nonzero;stroke:none"
           id="text334"><tspan
             x="0"
             y="0"
             id="tspan332">-</tspan></text><text
           transform="matrix(1,0,0,-1,92.46793,122.068)"
           style="font-variant:normal;font-size:6.47949px;font-family:f-1;-inkscape-font-specification:f-1-0;writing-mode:lr-tb;fill:#000000;fill-opacity:1;fill-rule:nonzero;stroke:none"
           id="text338"><tspan
             x="0"
             y="0"
             id="tspan336">1</tspan></text></g><path
         d="m 999.379,1303.98 v 17.39"
         style="fill:none;stroke:#000000;stroke-width:3.6;stroke-linecap:butt;stroke-linejoin:miter;stroke-miterlimit:3.25;stroke-dasharray:none;stroke-opacity:1"
         id="path340" /><path
         d="m 1073.55,1303.98 v 17.39"
         style="fill:none;stroke:#000000;stroke-width:3.6;stroke-linecap:butt;stroke-linejoin:miter;stroke-miterlimit:3.25;stroke-dasharray:none;stroke-opacity:1"
         id="path342" /><path
         d="m 1147.7,1303.98 v 17.39"
         style="fill:none;stroke:#000000;stroke-width:3.6;stroke-linecap:butt;stroke-linejoin:miter;stroke-miterlimit:3.25;stroke-dasharray:none;stroke-opacity:1"
         id="path344" /><path
         d="m 1221.84,1303.98 v 17.39"
         style="fill:none;stroke:#000000;stroke-width:3.6;stroke-linecap:butt;stroke-linejoin:miter;stroke-miterlimit:3.25;stroke-dasharray:none;stroke-opacity:1"
         id="path346" /><path
         d="m 1296.02,1303.98 v 28.95"
         style="fill:none;stroke:#000000;stroke-width:3.6;stroke-linecap:butt;stroke-linejoin:miter;stroke-miterlimit:3.25;stroke-dasharray:none;stroke-opacity:1"
         id="path348" /><path
         d="m 1370.16,1303.98 v 17.39"
         style="fill:none;stroke:#000000;stroke-width:3.6;stroke-linecap:butt;stroke-linejoin:miter;stroke-miterlimit:3.25;stroke-dasharray:none;stroke-opacity:1"
         id="path350" /><path
         d="m 1444.3,1303.98 v 17.39"
         style="fill:none;stroke:#000000;stroke-width:3.6;stroke-linecap:butt;stroke-linejoin:miter;stroke-miterlimit:3.25;stroke-dasharray:none;stroke-opacity:1"
         id="path352" /><path
         d="m 1518.44,1303.98 v 17.39"
         style="fill:none;stroke:#000000;stroke-width:3.6;stroke-linecap:butt;stroke-linejoin:miter;stroke-miterlimit:3.25;stroke-dasharray:none;stroke-opacity:1"
         id="path354" /><path
         d="m 1592.62,1303.98 v 17.39"
         style="fill:none;stroke:#000000;stroke-width:3.6;stroke-linecap:butt;stroke-linejoin:miter;stroke-miterlimit:3.25;stroke-dasharray:none;stroke-opacity:1"
         id="path356" /><path
         d="m 1666.76,1303.98 v 28.95"
         style="fill:none;stroke:#000000;stroke-width:3.6;stroke-linecap:butt;stroke-linejoin:miter;stroke-miterlimit:3.25;stroke-dasharray:none;stroke-opacity:1"
         id="path358" /><g
         id="g360"
         transform="scale(10)"><text
           transform="matrix(1,0,0,-1,164.873,122.068)"
           style="font-variant:normal;font-size:6.47949px;font-family:f-1;-inkscape-font-specification:f-1-0;writing-mode:lr-tb;fill:#000000;fill-opacity:1;fill-rule:nonzero;stroke:none"
           id="text364"><tspan
             x="0"
             y="0"
             id="tspan362">1</tspan></text></g><path
         d="m 1740.9,1303.98 v 17.39"
         style="fill:none;stroke:#000000;stroke-width:3.6;stroke-linecap:butt;stroke-linejoin:miter;stroke-miterlimit:3.25;stroke-dasharray:none;stroke-opacity:1"
         id="path366" /><path
         d="m 1815.08,1303.98 v 17.39"
         style="fill:none;stroke:#000000;stroke-width:3.6;stroke-linecap:butt;stroke-linejoin:miter;stroke-miterlimit:3.25;stroke-dasharray:none;stroke-opacity:1"
         id="path368" /><path
         d="m 1889.22,1303.98 v 17.39"
         style="fill:none;stroke:#000000;stroke-width:3.6;stroke-linecap:butt;stroke-linejoin:miter;stroke-miterlimit:3.25;stroke-dasharray:none;stroke-opacity:1"
         id="path370" /><path
         d="m 1963.36,1303.98 v 17.39"
         style="fill:none;stroke:#000000;stroke-width:3.6;stroke-linecap:butt;stroke-linejoin:miter;stroke-miterlimit:3.25;stroke-dasharray:none;stroke-opacity:1"
         id="path372" /><path
         d="m 2037.54,1303.98 v 28.95"
         style="fill:none;stroke:#000000;stroke-width:3.6;stroke-linecap:butt;stroke-linejoin:miter;stroke-miterlimit:3.25;stroke-dasharray:none;stroke-opacity:1"
         id="path374" /><g
         id="g376"
         transform="scale(10)"><text
           transform="matrix(1,0,0,-1,201.95,122.068)"
           style="font-variant:normal;font-size:6.47949px;font-family:f-1;-inkscape-font-specification:f-1-0;writing-mode:lr-tb;fill:#000000;fill-opacity:1;fill-rule:nonzero;stroke:none"
           id="text380"><tspan
             x="0"
             y="0"
             id="tspan378">2</tspan></text></g><path
         d="m 2111.68,1303.98 v 17.39"
         style="fill:none;stroke:#000000;stroke-width:3.6;stroke-linecap:butt;stroke-linejoin:miter;stroke-miterlimit:3.25;stroke-dasharray:none;stroke-opacity:1"
         id="path382" /><path
         d="m 2185.82,1303.98 v 17.39"
         style="fill:none;stroke:#000000;stroke-width:3.6;stroke-linecap:butt;stroke-linejoin:miter;stroke-miterlimit:3.25;stroke-dasharray:none;stroke-opacity:1"
         id="path384" /><path
         d="m 2259.96,1303.98 v 17.39"
         style="fill:none;stroke:#000000;stroke-width:3.6;stroke-linecap:butt;stroke-linejoin:miter;stroke-miterlimit:3.25;stroke-dasharray:none;stroke-opacity:1"
         id="path386" /><path
         d="m 2334.14,1303.98 v 17.39"
         style="fill:none;stroke:#000000;stroke-width:3.6;stroke-linecap:butt;stroke-linejoin:miter;stroke-miterlimit:3.25;stroke-dasharray:none;stroke-opacity:1"
         id="path388" /><path
         d="m 2408.28,1303.98 v 28.95"
         style="fill:none;stroke:#000000;stroke-width:3.6;stroke-linecap:butt;stroke-linejoin:miter;stroke-miterlimit:3.25;stroke-dasharray:none;stroke-opacity:1"
         id="path390" /><g
         id="g392"
         transform="scale(10)"><text
           transform="matrix(1,0,0,-1,239.025,122.068)"
           style="font-variant:normal;font-size:6.47949px;font-family:f-1;-inkscape-font-specification:f-1-0;writing-mode:lr-tb;fill:#000000;fill-opacity:1;fill-rule:nonzero;stroke:none"
           id="text396"><tspan
             x="0"
             y="0"
             id="tspan394">3</tspan></text></g><path
         d="m 2482.42,1303.98 v 17.39"
         style="fill:none;stroke:#000000;stroke-width:3.6;stroke-linecap:butt;stroke-linejoin:miter;stroke-miterlimit:3.25;stroke-dasharray:none;stroke-opacity:1"
         id="path398" /><path
         d="m 2556.6,1303.98 v 17.39"
         style="fill:none;stroke:#000000;stroke-width:3.6;stroke-linecap:butt;stroke-linejoin:miter;stroke-miterlimit:3.25;stroke-dasharray:none;stroke-opacity:1"
         id="path400" /><path
         d="M 1.80078,1303.98 H 2590.2"
         style="fill:none;stroke:#000000;stroke-width:3.6;stroke-linecap:butt;stroke-linejoin:miter;stroke-miterlimit:3.25;stroke-dasharray:none;stroke-opacity:1"
         id="path402" /><path
         d="m 1296.02,68.1211 h 28.9"
         style="fill:none;stroke:#000000;stroke-width:3.6;stroke-linecap:butt;stroke-linejoin:miter;stroke-miterlimit:3.25;stroke-dasharray:none;stroke-opacity:1"
         id="path404" /><g
         id="g406"
         transform="scale(10)"><text
           transform="matrix(1,0,0,-1,120.33,4.64883)"
           style="font-variant:normal;font-size:6.47949px;font-family:f-0;-inkscape-font-specification:f-0-0;writing-mode:lr-tb;fill:#000000;fill-opacity:1;fill-rule:nonzero;stroke:none"
           id="text410"><tspan
             x="0"
             y="0"
             id="tspan408">-</tspan></text><text
           transform="matrix(1,0,0,-1,123.82883,4.64883)"
           style="font-variant:normal;font-size:6.47949px;font-family:f-1;-inkscape-font-specification:f-1-0;writing-mode:lr-tb;fill:#000000;fill-opacity:1;fill-rule:nonzero;stroke:none"
           id="text414"><tspan
             x="0"
             y="0"
             id="tspan412">3</tspan></text></g><path
         d="m 1296.02,150.512 h 17.34"
         style="fill:none;stroke:#000000;stroke-width:3.6;stroke-linecap:butt;stroke-linejoin:miter;stroke-miterlimit:3.25;stroke-dasharray:none;stroke-opacity:1"
         id="path416" /><path
         d="m 1296.02,232.93 h 17.34"
         style="fill:none;stroke:#000000;stroke-width:3.6;stroke-linecap:butt;stroke-linejoin:miter;stroke-miterlimit:3.25;stroke-dasharray:none;stroke-opacity:1"
         id="path418" /><path
         d="m 1296.02,315.309 h 17.34"
         style="fill:none;stroke:#000000;stroke-width:3.6;stroke-linecap:butt;stroke-linejoin:miter;stroke-miterlimit:3.25;stroke-dasharray:none;stroke-opacity:1"
         id="path420" /><path
         d="m 1296.02,397.699 h 17.34"
         style="fill:none;stroke:#000000;stroke-width:3.6;stroke-linecap:butt;stroke-linejoin:miter;stroke-miterlimit:3.25;stroke-dasharray:none;stroke-opacity:1"
         id="path422" /><path
         d="m 1296.02,480.078 h 28.9"
         style="fill:none;stroke:#000000;stroke-width:3.6;stroke-linecap:butt;stroke-linejoin:miter;stroke-miterlimit:3.25;stroke-dasharray:none;stroke-opacity:1"
         id="path424" /><g
         id="g426"
         transform="scale(10)"><text
           transform="matrix(1,0,0,-1,120.33,45.8445)"
           style="font-variant:normal;font-size:6.47949px;font-family:f-0;-inkscape-font-specification:f-0-0;writing-mode:lr-tb;fill:#000000;fill-opacity:1;fill-rule:nonzero;stroke:none"
           id="text430"><tspan
             x="0"
             y="0"
             id="tspan428">-</tspan></text><text
           transform="matrix(1,0,0,-1,123.82883,45.8445)"
           style="font-variant:normal;font-size:6.47949px;font-family:f-1;-inkscape-font-specification:f-1-0;writing-mode:lr-tb;fill:#000000;fill-opacity:1;fill-rule:nonzero;stroke:none"
           id="text434"><tspan
             x="0"
             y="0"
             id="tspan432">2</tspan></text></g><path
         d="m 1296.02,562.461 h 17.34"
         style="fill:none;stroke:#000000;stroke-width:3.6;stroke-linecap:butt;stroke-linejoin:miter;stroke-miterlimit:3.25;stroke-dasharray:none;stroke-opacity:1"
         id="path436" /><path
         d="m 1296.02,644.879 h 17.34"
         style="fill:none;stroke:#000000;stroke-width:3.6;stroke-linecap:butt;stroke-linejoin:miter;stroke-miterlimit:3.25;stroke-dasharray:none;stroke-opacity:1"
         id="path438" /><path
         d="m 1296.02,727.27 h 17.34"
         style="fill:none;stroke:#000000;stroke-width:3.6;stroke-linecap:butt;stroke-linejoin:miter;stroke-miterlimit:3.25;stroke-dasharray:none;stroke-opacity:1"
         id="path440" /><path
         d="m 1296.02,809.648 h 17.34"
         style="fill:none;stroke:#000000;stroke-width:3.6;stroke-linecap:butt;stroke-linejoin:miter;stroke-miterlimit:3.25;stroke-dasharray:none;stroke-opacity:1"
         id="path442" /><path
         d="m 1296.02,892.031 h 28.9"
         style="fill:none;stroke:#000000;stroke-width:3.6;stroke-linecap:butt;stroke-linejoin:miter;stroke-miterlimit:3.25;stroke-dasharray:none;stroke-opacity:1"
         id="path444" /><g
         id="g446"
         transform="scale(10)"><text
           transform="matrix(1,0,0,-1,120.33,87.0402)"
           style="font-variant:normal;font-size:6.47949px;font-family:f-0;-inkscape-font-specification:f-0-0;writing-mode:lr-tb;fill:#000000;fill-opacity:1;fill-rule:nonzero;stroke:none"
           id="text450"><tspan
             x="0"
             y="0"
             id="tspan448">-</tspan></text><text
           transform="matrix(1,0,0,-1,123.82883,87.0402)"
           style="font-variant:normal;font-size:6.47949px;font-family:f-1;-inkscape-font-specification:f-1-0;writing-mode:lr-tb;fill:#000000;fill-opacity:1;fill-rule:nonzero;stroke:none"
           id="text454"><tspan
             x="0"
             y="0"
             id="tspan452">1</tspan></text></g><path
         d="m 1296.02,974.449 h 17.34"
         style="fill:none;stroke:#000000;stroke-width:3.6;stroke-linecap:butt;stroke-linejoin:miter;stroke-miterlimit:3.25;stroke-dasharray:none;stroke-opacity:1"
         id="path456" /><path
         d="m 1296.02,1056.84 h 17.34"
         style="fill:none;stroke:#000000;stroke-width:3.6;stroke-linecap:butt;stroke-linejoin:miter;stroke-miterlimit:3.25;stroke-dasharray:none;stroke-opacity:1"
         id="path458" /><path
         d="m 1296.02,1139.22 h 17.34"
         style="fill:none;stroke:#000000;stroke-width:3.6;stroke-linecap:butt;stroke-linejoin:miter;stroke-miterlimit:3.25;stroke-dasharray:none;stroke-opacity:1"
         id="path460" /><path
         d="m 1296.02,1221.6 h 17.34"
         style="fill:none;stroke:#000000;stroke-width:3.6;stroke-linecap:butt;stroke-linejoin:miter;stroke-miterlimit:3.25;stroke-dasharray:none;stroke-opacity:1"
         id="path462" /><path
         d="m 1296.02,1303.98 h 28.9"
         style="fill:none;stroke:#000000;stroke-width:3.6;stroke-linecap:butt;stroke-linejoin:miter;stroke-miterlimit:3.25;stroke-dasharray:none;stroke-opacity:1"
         id="path464" /><path
         d="m 1296.02,1386.41 h 17.34"
         style="fill:none;stroke:#000000;stroke-width:3.6;stroke-linecap:butt;stroke-linejoin:miter;stroke-miterlimit:3.25;stroke-dasharray:none;stroke-opacity:1"
         id="path466" /><path
         d="m 1296.02,1468.79 h 17.34"
         style="fill:none;stroke:#000000;stroke-width:3.6;stroke-linecap:butt;stroke-linejoin:miter;stroke-miterlimit:3.25;stroke-dasharray:none;stroke-opacity:1"
         id="path468" /><path
         d="m 1296.02,1551.17 h 17.34"
         style="fill:none;stroke:#000000;stroke-width:3.6;stroke-linecap:butt;stroke-linejoin:miter;stroke-miterlimit:3.25;stroke-dasharray:none;stroke-opacity:1"
         id="path470" /><path
         d="m 1296.02,1633.55 h 17.34"
         style="fill:none;stroke:#000000;stroke-width:3.6;stroke-linecap:butt;stroke-linejoin:miter;stroke-miterlimit:3.25;stroke-dasharray:none;stroke-opacity:1"
         id="path472" /><path
         d="m 1296.02,1715.94 h 28.9"
         style="fill:none;stroke:#000000;stroke-width:3.6;stroke-linecap:butt;stroke-linejoin:miter;stroke-miterlimit:3.25;stroke-dasharray:none;stroke-opacity:1"
         id="path474" /><g
         id="g476"
         transform="scale(10)"><text
           transform="matrix(1,0,0,-1,123.834,169.432)"
           style="font-variant:normal;font-size:6.47949px;font-family:f-1;-inkscape-font-specification:f-1-0;writing-mode:lr-tb;fill:#000000;fill-opacity:1;fill-rule:nonzero;stroke:none"
           id="text480"><tspan
             x="0"
             y="0"
             id="tspan478">1</tspan></text></g><path
         d="m 1296.02,1798.36 h 17.34"
         style="fill:none;stroke:#000000;stroke-width:3.6;stroke-linecap:butt;stroke-linejoin:miter;stroke-miterlimit:3.25;stroke-dasharray:none;stroke-opacity:1"
         id="path482" /><path
         d="m 1296.02,1880.74 h 17.34"
         style="fill:none;stroke:#000000;stroke-width:3.6;stroke-linecap:butt;stroke-linejoin:miter;stroke-miterlimit:3.25;stroke-dasharray:none;stroke-opacity:1"
         id="path484" /><path
         d="m 1296.02,1963.12 h 17.34"
         style="fill:none;stroke:#000000;stroke-width:3.6;stroke-linecap:butt;stroke-linejoin:miter;stroke-miterlimit:3.25;stroke-dasharray:none;stroke-opacity:1"
         id="path486" /><path
         d="m 1296.02,2045.51 h 17.34"
         style="fill:none;stroke:#000000;stroke-width:3.6;stroke-linecap:butt;stroke-linejoin:miter;stroke-miterlimit:3.25;stroke-dasharray:none;stroke-opacity:1"
         id="path488" /><path
         d="m 1296.02,2127.93 h 28.9"
         style="fill:none;stroke:#000000;stroke-width:3.6;stroke-linecap:butt;stroke-linejoin:miter;stroke-miterlimit:3.25;stroke-dasharray:none;stroke-opacity:1"
         id="path490" /><g
         id="g492"
         transform="scale(10)"><text
           transform="matrix(1,0,0,-1,123.834,210.627)"
           style="font-variant:normal;font-size:6.47949px;font-family:f-1;-inkscape-font-specification:f-1-0;writing-mode:lr-tb;fill:#000000;fill-opacity:1;fill-rule:nonzero;stroke:none"
           id="text496"><tspan
             x="0"
             y="0"
             id="tspan494">2</tspan></text></g><path
         d="m 1296.02,2210.31 h 17.34"
         style="fill:none;stroke:#000000;stroke-width:3.6;stroke-linecap:butt;stroke-linejoin:miter;stroke-miterlimit:3.25;stroke-dasharray:none;stroke-opacity:1"
         id="path498" /><path
         d="m 1296.02,2292.7 h 17.34"
         style="fill:none;stroke:#000000;stroke-width:3.6;stroke-linecap:butt;stroke-linejoin:miter;stroke-miterlimit:3.25;stroke-dasharray:none;stroke-opacity:1"
         id="path500" /><path
         d="m 1296.02,2375.08 h 17.34"
         style="fill:none;stroke:#000000;stroke-width:3.6;stroke-linecap:butt;stroke-linejoin:miter;stroke-miterlimit:3.25;stroke-dasharray:none;stroke-opacity:1"
         id="path502" /><path
         d="m 1296.02,2457.46 h 17.34"
         style="fill:none;stroke:#000000;stroke-width:3.6;stroke-linecap:butt;stroke-linejoin:miter;stroke-miterlimit:3.25;stroke-dasharray:none;stroke-opacity:1"
         id="path504" /><path
         d="m 1296.02,2539.88 h 28.9"
         style="fill:none;stroke:#000000;stroke-width:3.6;stroke-linecap:butt;stroke-linejoin:miter;stroke-miterlimit:3.25;stroke-dasharray:none;stroke-opacity:1"
         id="path506" /><g
         id="g508"
         transform="scale(10)"><text
           transform="matrix(1,0,0,-1,123.834,251.823)"
           style="font-variant:normal;font-size:6.47949px;font-family:f-1;-inkscape-font-specification:f-1-0;writing-mode:lr-tb;fill:#000000;fill-opacity:1;fill-rule:nonzero;stroke:none"
           id="text512"><tspan
             x="0"
             y="0"
             id="tspan510">3</tspan></text></g><path
         d="M 1296.02,9.80078 V 2598.2"
         style="fill:none;stroke:#000000;stroke-width:3.6;stroke-linecap:butt;stroke-linejoin:miter;stroke-miterlimit:3.25;stroke-dasharray:none;stroke-opacity:1"
         id="path514" /></g></g></svg>
