<?xml version="1.0" encoding="UTF-8" standalone="no"?>
<svg
   xmlns:dc="http://purl.org/dc/elements/1.1/"
   xmlns:cc="http://creativecommons.org/ns#"
   xmlns:rdf="http://www.w3.org/1999/02/22-rdf-syntax-ns#"
   xmlns:svg="http://www.w3.org/2000/svg"
   xmlns="http://www.w3.org/2000/svg"
   xmlns:sodipodi="http://sodipodi.sourceforge.net/DTD/sodipodi-0.dtd"
   xmlns:inkscape="http://www.inkscape.org/namespaces/inkscape"
   version="1.1"
   id="svg2"
   xml:space="preserve"
   width="346.66666"
   height="346.66666"
   viewBox="0 0 346.66666 346.66666"
   sodipodi:docname="AMY5iter.eps"><metadata
     id="metadata8"><rdf:RDF><cc:Work
         rdf:about=""><dc:format>image/svg+xml</dc:format><dc:type
           rdf:resource="http://purl.org/dc/dcmitype/StillImage" /></cc:Work></rdf:RDF></metadata><defs
     id="defs6" /><sodipodi:namedview
     pagecolor="#ffffff"
     bordercolor="#666666"
     borderopacity="1"
     objecttolerance="10"
     gridtolerance="10"
     guidetolerance="10"
     inkscape:pageopacity="0"
     inkscape:pageshadow="2"
     inkscape:window-width="640"
     inkscape:window-height="480"
     id="namedview4" /><g
     id="g10"
     inkscape:groupmode="layer"
     inkscape:label="ink_ext_XXXXXX"
     transform="matrix(1.3333333,0,0,-1.3333333,0,346.66667)"><g
       id="g12"
       transform="scale(0.1)"><path
         d="m 1249.41,2585.27 -2.11,-0.82 -2.1,-0.78 -4.26,-1.56 -8.44,-3.13 -50.74,-18.86 -67.62,-25.16 -146.519,-54.53 -136.762,-50.9 -115.039,-42.77"
         style="fill:none;stroke:#5e81b5;stroke-width:11.52;stroke-linecap:square;stroke-linejoin:miter;stroke-miterlimit:3.25;stroke-dasharray:none;stroke-opacity:1"
         id="path14" /><path
         d="m 711.41,2385.16 -162.269,-59.73 -140.551,-50.51 -2.461,-0.86 -7.258,-2.58 -9.73,-3.39 -19.532,-6.88 -39.531,-13.67 -2.457,-0.86 -7.5,-2.58 -10,-3.4 -20.16,-6.87 -40.902,-13.67 -2.539,-0.86 -2.54,-0.82 -5.07,-1.68 -10.238,-3.36 -20.582,-6.72 -2.621,-0.86 -2.578,-0.82 -15.7,-5.04 -21.14,-6.72 -2.653,-0.86 -2.699,-0.82 -5.347,-1.68 -2.653,-0.86 -2.699,-0.82 -5.391,-1.68 -2.73,-0.86 -2.699,-0.82 -2.7,-0.86 -2.609,-0.78"
         style="fill:none;stroke:#5e81b5;stroke-width:11.52;stroke-linecap:square;stroke-linejoin:miter;stroke-miterlimit:3.25;stroke-dasharray:none;stroke-opacity:1"
         id="path16" /><path
         d="m 2458.12,2181.6 -0.27,-0.08 -5.47,-1.72 -2.77,-0.82 -2.73,-0.86 -16.65,-5.03 -22.53,-6.72 -5.32,-1.57 -5.35,-1.56 -10.74,-3.12 -21.84,-6.29 -45,-12.54 -2.85,-0.78 -2.89,-0.78 -5.82,-1.57 -11.68,-3.12 -23.83,-6.29 -49.61,-12.54 -3.43,-0.82 -3.48,-0.86 -6.99,-1.72 -14.18,-3.4 -29.07,-6.79 -61.36,-13.6 -3.99,-0.82 -4.02,-0.86 -8.09,-1.72 -16.44,-3.39 -33.95,-6.8 -72.69,-13.59 -8.91,-1.57 -9.06,-1.6 -18.4,-3.16 -38.16,-6.37 -7.07,-1.13"
         style="fill:none;stroke:#5e81b5;stroke-width:11.52;stroke-linecap:square;stroke-linejoin:miter;stroke-miterlimit:3.25;stroke-dasharray:none;stroke-opacity:1"
         id="path18" /><path
         d="m 1873.28,2046.37 -75.7,-11.49 -10.98,-1.6 -22.42,-3.16 -46.56,-6.37 -100.39,-12.66 -6.45,-0.78 -6.52,-0.78 -13.13,-1.56 -26.72,-3.13 -55.19,-6.21 -116.95,-12.46 -98.29,-9.69 -153.75,-15.19 -8.71,-0.82 -8.75,-0.86 -17.42,-1.68 -34.76,-3.36 -27.07,-2.66"
         style="fill:none;stroke:#5e81b5;stroke-width:11.52;stroke-linecap:square;stroke-linejoin:miter;stroke-miterlimit:3.25;stroke-dasharray:none;stroke-opacity:1"
         id="path20" /><path
         d="m 706.602,1916.52 -88.551,-10.78 -12.313,-1.6 -24.136,-3.12 -46.403,-6.33 -85.789,-12.58 -5.07,-0.78 -5.039,-0.78 -9.961,-1.6 -19.539,-3.13 -37.61,-6.33 -69.812,-12.58 -4.488,-0.86 -4.45,-0.85 -8.832,-1.68 -17.308,-3.44 -33.352,-6.84 -4.07,-0.82 -4.02,-0.86 -8.007,-1.72 -15.704,-3.39 -30.347,-6.84 -3.711,-0.86 -3.68,-0.86 -7.301,-1.72 -3.629,-0.82 -3.601,-0.86 -7.149,-1.72 -3.55,-0.86 -3.52,-0.86 -1.09,-0.23"
         style="fill:none;stroke:#5e81b5;stroke-width:11.52;stroke-linecap:square;stroke-linejoin:miter;stroke-miterlimit:3.25;stroke-dasharray:none;stroke-opacity:1"
         id="path22" /><path
         d="m 2457.46,1819.18 -2.69,-0.66 -3.48,-0.86 -6.84,-1.72 -3.4,-0.86 -3.39,-0.82 -6.72,-1.72 -13.24,-3.44 -25.75,-6.8 -3.12,-0.85 -3.05,-0.83 -6.13,-1.67 -12.11,-3.36 -23.56,-6.68 -44.96,-13.44 -82.57,-26.8 -2.31,-0.78 -6.8,-2.34 -8.98,-3.13 -17.74,-6.25 -34.37,-12.5 -65.12,-25 -128.79,-54.26 -72.18,-32.93"
         style="fill:none;stroke:#5e81b5;stroke-width:11.52;stroke-linecap:square;stroke-linejoin:miter;stroke-miterlimit:3.25;stroke-dasharray:none;stroke-opacity:1"
         id="path24" /><path
         d="m 1876.64,1609.84 -145.12,-70.89 -104.02,-53.87 -93.95,-50.24 -54.1,-29.45"
         style="fill:none;stroke:#5e81b5;stroke-width:11.52;stroke-linecap:square;stroke-linejoin:miter;stroke-miterlimit:3.25;stroke-dasharray:none;stroke-opacity:1"
         id="path26" /><path
         d="m 1476.45,1403.75 -134.5,-74.22 -45.93,-25.55 -43.87,-24.33 -97.77,-54.1 -38.83,-21.29"
         style="fill:none;stroke:#5e81b5;stroke-width:11.52;stroke-linecap:square;stroke-linejoin:miter;stroke-miterlimit:3.25;stroke-dasharray:none;stroke-opacity:1"
         id="path28" /><path
         d="M 1112.58,1202.62 959.691,1120.35 855.738,1066.64 754.18,1016.56 715.352,998.121"
         style="fill:none;stroke:#5e81b5;stroke-width:11.52;stroke-linecap:square;stroke-linejoin:miter;stroke-miterlimit:3.25;stroke-dasharray:none;stroke-opacity:1"
         id="path30" /><path
         d="m 711.879,996.48 -195.508,-84.96 -7.82,-3.122 -7.891,-3.089 -15.93,-6.207 -32.742,-12.422 -69.218,-24.879 -2.461,-0.821 -2.418,-0.859 -4.961,-1.68 -9.961,-3.363 -20.27,-6.758 -42.269,-13.48 -2.7,-0.86 -2.73,-0.859 -5.512,-1.672 -11.09,-3.359 -22.699,-6.762 -47.73,-13.476 -5.778,-1.563 -5.82,-1.559 -11.84,-3.171 -2.972,-0.778 -9.02,-2.34 -12.23,-3.171 -3.079,-0.782 -3.128,-0.777 -6.25,-1.602 -9.493,-2.339 -3.199,-0.79 -0.59,-0.152"
         style="fill:none;stroke:#5e81b5;stroke-width:11.52;stroke-linecap:square;stroke-linejoin:miter;stroke-miterlimit:3.25;stroke-dasharray:none;stroke-opacity:1"
         id="path32" /><path
         d="m 2457.42,787.191 -5.62,-1.371 -6.57,-1.558 -6.6,-1.563 -3.36,-0.789 -3.32,-0.781 -6.75,-1.598 -13.72,-3.121 -28.32,-6.289 -60.43,-12.582 -4.29,-0.859 -4.34,-0.86 -8.71,-1.718 -17.81,-3.403 -37.03,-6.828 -80.39,-13.641 -5.32,-0.851 -5.39,-0.828 -10.82,-1.711 -22.18,-3.399 -46.25,-6.839 -100.86,-13.633 -6.25,-0.821 -6.29,-0.777 -12.7,-1.601 -25.86,-3.168 -42.85,-5.122"
         style="fill:none;stroke:#5e81b5;stroke-width:11.52;stroke-linecap:square;stroke-linejoin:miter;stroke-miterlimit:3.25;stroke-dasharray:none;stroke-opacity:1"
         id="path34" /><path
         d="m 1548.48,656.09 -57.93,-5.66 -16.14,-1.52 -32.26,-3.129 -64.45,-6.25 -81.18,-8.011 -45.43,-4.489 -7.77,-0.781 -23.09,-2.34 -30.39,-3.129 -59.41,-6.25 -112.27,-12.461 -7.26,-0.859 -7.23,-0.859 -14.33,-1.68 -28.129,-3.402 -54.102,-6.75 -99.918,-13.559 -5.902,-0.859 -5.859,-0.821 -11.602,-1.722 -22.699,-3.36 -42.379,-6.558"
         style="fill:none;stroke:#5e81b5;stroke-width:11.52;stroke-linecap:square;stroke-linejoin:miter;stroke-miterlimit:3.25;stroke-dasharray:none;stroke-opacity:1"
         id="path36" /><path
         d="m 708.52,560 -80.821,-13.711 -8.828,-1.559 -17.351,-3.171 -33.551,-6.329 -63.047,-12.652 -3.793,-0.777 -3.75,-0.781 -7.457,-1.61 -14.723,-3.121 -28.679,-6.328 -54.489,-12.66 -3.59,-0.852 -3.562,-0.859 -7.027,-1.719 -13.981,-3.402 -27.269,-6.879 -52.223,-13.668 -6.328,-1.723 -6.289,-1.719 -12.5,-3.429 -24.492,-6.84 -47.469,-13.711 -2.813,-0.82 -2.847,-0.86 -5.661,-1.679 -11.25,-3.36 -2.82,-0.859 -2.769,-0.82 -5.59,-1.68 -11.051,-3.363 -2.73,-0.86 -2.739,-0.82 -2.769,-0.859 -0.391,-0.11"
         style="fill:none;stroke:#5e81b5;stroke-width:11.52;stroke-linecap:square;stroke-linejoin:miter;stroke-miterlimit:3.25;stroke-dasharray:none;stroke-opacity:1"
         id="path38" /><path
         d="m 2458.12,424.77 -2.46,-0.75 -2.73,-0.86 -2.7,-0.82 -2.73,-0.86 -2.7,-0.82 -5.39,-1.68 -10.7,-3.359 -5.31,-1.711 -5.31,-1.68 -10.59,-3.359 -20.9,-6.723 -41.09,-13.437 -2.39,-0.781 -2.34,-0.782 -4.73,-1.558 -9.41,-3.168 -18.67,-6.25 -36.92,-12.582 -72.22,-25.07 -151.72,-54.418 -138.32,-50.821 -28.2,-10.429"
         style="fill:none;stroke:#5e81b5;stroke-width:11.52;stroke-linecap:square;stroke-linejoin:miter;stroke-miterlimit:3.25;stroke-dasharray:none;stroke-opacity:1"
         id="path40" /><path
         d="m 1876.17,221.211 -246.76,-91.762 -135.46,-50.4295 -2.35,-0.8593 -2.38,-0.8907 -33.09,-12.3086 -37.85,-14.0625 -2.34,-0.8984 -2.39,-0.8594 -14.17,-5.2695 -18.95,-7.0703 -2.34,-0.8594 -2.39,-0.9023 -14.18,-5.2696 -2.38,-0.8593 -2.34,-0.8985 -4.73,-1.7617 -2.38,-0.8594 -2.39,-0.9023 -2.34,-0.8594 -2.38,-0.8984"
         style="fill:none;stroke:#5e81b5;stroke-width:11.52;stroke-linecap:square;stroke-linejoin:miter;stroke-miterlimit:3.25;stroke-dasharray:none;stroke-opacity:1"
         id="path42" /><path
         d="m 1026.8,1950.27 -158.64,-15.97 -8.082,-0.82 -8.047,-0.86 -15.941,-1.68 -31.442,-3.4 -60.898,-6.72 -23.09,-2.66"
         style="fill:none;stroke:#5e81b5;stroke-width:11.52;stroke-linecap:square;stroke-linejoin:miter;stroke-miterlimit:3.25;stroke-dasharray:none;stroke-opacity:1"
         id="path44" /><path
         d="M 1871.33,689.84 1759.77,677.5 1565.2,657.73"
         style="fill:none;stroke:#5e81b5;stroke-width:11.52;stroke-linecap:square;stroke-linejoin:miter;stroke-miterlimit:3.25;stroke-dasharray:none;stroke-opacity:1"
         id="path46" /><path
         d="m 1296.02,9.80078 3.55,0.78902 3.59,0.8204 7.11,1.5586 14.3,3.1601 28.59,6.3711 57.07,12.6992 113.87,25.4219 244.22,55.0779 L 1874.8,140"
         style="fill:none;stroke:#5e81b5;stroke-width:11.52;stroke-linecap:square;stroke-linejoin:miter;stroke-miterlimit:3.25;stroke-dasharray:none;stroke-opacity:1"
         id="path48" /><path
         d="m 1881.99,141.641 330.39,75.898 15,3.441 15.04,3.399 30.2,6.832 60.86,13.668 7.65,1.723 7.7,1.718 15.39,3.399 30.98,6.832 3.86,0.859 3.91,0.86 7.77,1.718 15.67,3.403 3.9,0.859 11.84,2.578 3.9,0.863 3.99,0.821 3.94,0.859 2.97,0.66"
         style="fill:none;stroke:#5e81b5;stroke-width:11.52;stroke-linecap:square;stroke-linejoin:miter;stroke-miterlimit:3.25;stroke-dasharray:none;stroke-opacity:1"
         id="path50" /><path
         d="m 135.039,273.672 4.449,0.937 3.711,0.821 3.711,0.781 3.711,0.82 7.469,1.598 3.75,0.781 3.711,0.789 7.5,1.602 15.07,3.199 3.789,0.781 3.75,0.821 7.578,1.597 15.242,3.172 30.782,6.399 7.726,1.57 7.782,1.601 15.621,3.2 31.597,6.371 64.653,12.769 8.91,1.719 8.937,1.719 18.051,3.48 36.602,6.91 75.39,13.832 160.739,27.649 23.25,3.832"
         style="fill:none;stroke:#5e81b5;stroke-width:11.52;stroke-linecap:square;stroke-linejoin:miter;stroke-miterlimit:3.25;stroke-dasharray:none;stroke-opacity:1"
         id="path52" /><path
         d="m 718.711,384.059 583.989,83.519 111.91,15.973 391.95,54.969 5.43,0.781 5.39,0.82 10.82,1.598 21.45,3.203 23.28,3.476"
         style="fill:none;stroke:#5e81b5;stroke-width:11.52;stroke-linecap:square;stroke-linejoin:miter;stroke-miterlimit:3.25;stroke-dasharray:none;stroke-opacity:1"
         id="path54" /><path
         d="m 1883.83,550.078 91.56,14.063 5.12,0.82 5.11,0.777 10.28,1.602 20.39,3.211 40.55,6.398 80.39,12.821 4.88,0.82 34.45,5.461 39.49,6.289 9.93,1.57 9.96,1.602 20,3.117 40.51,6.293 5.11,0.777 15.47,2.352 20.86,3.16 10.55,1.559 10.66,1.57 21.56,3.16 10.94,1.559 11.1,1.562 5.58,0.789 5.63,0.781 11.32,1.598 11.49,1.563 5.82,0.777 11.72,1.57 0.27,0.031"
         style="fill:none;stroke:#5e81b5;stroke-width:11.52;stroke-linecap:square;stroke-linejoin:miter;stroke-miterlimit:3.25;stroke-dasharray:none;stroke-opacity:1"
         id="path56" /><path
         d="m 137.5,639.379 11.762,1.519 6.679,0.864 13.508,1.718 27.891,3.399 7.191,0.851 7.231,0.86 14.797,1.68 30.711,3.441 7.929,0.82 8.039,0.86 6.492,0.699"
         style="fill:none;stroke:#5e81b5;stroke-width:11.52;stroke-linecap:square;stroke-linejoin:miter;stroke-miterlimit:3.25;stroke-dasharray:none;stroke-opacity:1"
         id="path58" /><path
         d="m 731.328,687.621 22.891,1.008 19.332,0.859 40.238,1.723 86.52,3.398 21.332,0.782 21.757,0.82 44.723,1.559 93.829,3.21 198.64,6.36 15.39,0.469 9.76,0.312 25.04,0.789 49.73,1.602 96.91,3.199 177.03,6.328 20.24,0.82 19.72,0.782 38.17,1.597 70.9,3.172 16.6,0.82 16.21,0.782 26.41,1.328"
         style="fill:none;stroke:#5e81b5;stroke-width:11.52;stroke-linecap:square;stroke-linejoin:miter;stroke-miterlimit:3.25;stroke-dasharray:none;stroke-opacity:1"
         id="path60" /><path
         d="m 1893.63,731.02 58.21,3.359 25.35,1.601 47.07,3.161 11.05,0.781 10.78,0.816 20.86,1.563 38.91,3.211 9.96,0.859 9.73,0.859 18.79,1.719 35.19,3.43 8.32,0.859 8.17,0.903 15.82,1.718 29.84,3.442 7.11,0.859 6.99,0.86 13.63,1.71 25.86,3.481 47.03,6.879 5.51,0.859 5.43,0.852 10.63,1.719 20.43,3.48 4.96,0.859 4.88,0.86 9.61,1.722 18.55,3.438 4.5,0.851 4.45,0.86 8.79,1.719 4.34,0.863 4.25,0.898 4.26,0.86 3.91,0.781"
         style="fill:none;stroke:#5e81b5;stroke-width:11.52;stroke-linecap:square;stroke-linejoin:miter;stroke-miterlimit:3.25;stroke-dasharray:none;stroke-opacity:1"
         id="path62" /><path
         d="m 135.16,795.352 0.621,0.16 4.098,0.859 4.031,0.859 7.969,1.719 7.812,1.711 7.579,1.719 7.421,1.68 14.489,3.402 27.73,6.758 51.25,13.551 3.051,0.82 3.008,0.859 6.011,1.68 11.801,3.402 22.891,6.758 43.359,13.551 2.457,0.781 2.422,0.789 4.852,1.602 9.527,3.117 18.75,6.332 36.051,12.617 67.539,25.274 131.84,54.769 80.121,36.399"
         style="fill:none;stroke:#5e81b5;stroke-width:11.52;stroke-linecap:square;stroke-linejoin:miter;stroke-miterlimit:3.25;stroke-dasharray:none;stroke-opacity:1"
         id="path64" /><path
         d="m 715.391,998.16 140.39,68.52 105.239,54.41 94.96,50.75 100.74,55.04 92.89,51.36 46.41,25.74 44.25,24.61 98.79,54.65 93.36,50.98 103.44,55.27 105.16,54.26 102.89,50.59 32.73,15.5"
         style="fill:none;stroke:#5e81b5;stroke-width:11.52;stroke-linecap:square;stroke-linejoin:miter;stroke-miterlimit:3.25;stroke-dasharray:none;stroke-opacity:1"
         id="path66" /><path
         d="m 1880.16,1611.48 206.32,88.95 2,0.78 1.99,0.82 12.19,4.69 16.48,6.29 33.98,12.54 4.38,1.56 4.38,1.6 8.78,3.13 18.01,6.28 37.35,12.54 5.23,1.72 5.27,1.68 10.67,3.4 21.91,6.84 46.41,13.59 3.01,0.86 3.04,0.86 6.14,1.72 12.53,3.4 25.94,6.79 6.72,1.72 6.8,1.68 13.86,3.44 29.07,6.8 3.51,0.78 3.56,0.82 7.15,1.56 3.63,0.82 3.67,0.78 7.38,1.6 3.75,0.78 1.57,0.32"
         style="fill:none;stroke:#5e81b5;stroke-width:11.52;stroke-linecap:square;stroke-linejoin:miter;stroke-miterlimit:3.25;stroke-dasharray:none;stroke-opacity:1"
         id="path68" /><path
         d="m 135.199,1814.3 5.852,1.17 3.949,0.82 7.93,1.56 4.019,0.82 4.102,0.78 8.25,1.6 17.07,3.17 36.399,6.37 4.808,0.78 4.844,0.78 9.879,1.6 20.59,3.16 5.308,0.82 5.391,0.79 11.019,1.6 23.012,3.16 5.969,0.78 6.058,0.82 12.422,1.57 26.129,3.2 58.172,6.37 8.59,0.86 8.75,0.85 18.129,1.72 38.859,3.44 10.321,0.86 10.539,0.86 21.921,1.72 47.34,3.44 12.621,0.85 13.008,0.86 27.031,1.72 58.79,3.48 6.089,0.31"
         style="fill:none;stroke:#5e81b5;stroke-width:11.52;stroke-linecap:square;stroke-linejoin:miter;stroke-miterlimit:3.25;stroke-dasharray:none;stroke-opacity:1"
         id="path70" /><path
         d="m 729.301,1878.63 28.75,1.49 73.551,3.43 19.687,0.86 20.191,0.86 42.04,1.72 90.39,3.44 202.69,6.91 26.84,0.86 26.99,0.86 35.59,1.14 18.75,0.58 108.63,3.44 205.9,6.87 22.38,0.82 21.91,0.82 42.58,1.61 79.77,3.2 18.83,0.82 18.35,0.78 27.58,1.25"
         style="fill:none;stroke:#5e81b5;stroke-width:11.52;stroke-linecap:square;stroke-linejoin:miter;stroke-miterlimit:3.25;stroke-dasharray:none;stroke-opacity:1"
         id="path72" /><path
         d="m 2312.27,1951.91 9.57,1.02 29.64,3.2 55.2,6.45 6.44,0.78 6.37,0.78 12.58,1.6 12.34,1.56 6.1,0.79 3.98,0.54"
         style="fill:none;stroke:#5e81b5;stroke-width:11.52;stroke-linecap:square;stroke-linejoin:miter;stroke-miterlimit:3.25;stroke-dasharray:none;stroke-opacity:1"
         id="path74" /><path
         d="m 137.461,1970.27 7.379,0.98 5.859,0.78 5.821,0.78 5.781,0.82 11.449,1.57 5.66,0.78 5.629,0.78 11.172,1.6 21.949,3.12 42.66,6.33 10.469,1.57 10.391,1.6 20.59,3.12 40.5,6.33 79.57,12.62 5.359,0.86 5.352,0.82 32.109,5.15 42.852,6.84 86.476,13.67 113.672,17.54"
         style="fill:none;stroke:#5e81b5;stroke-width:11.52;stroke-linecap:square;stroke-linejoin:miter;stroke-miterlimit:3.25;stroke-dasharray:none;stroke-opacity:1"
         id="path76" /><path
         d="m 719.059,2059.57 417.031,59.26 158.36,21.6 247.54,33.75 331.29,49.77"
         style="fill:none;stroke:#5e81b5;stroke-width:11.52;stroke-linecap:square;stroke-linejoin:miter;stroke-miterlimit:3.25;stroke-dasharray:none;stroke-opacity:1"
         id="path78" /><path
         d="m 1883.48,2225.59 303.43,53.63 4.5,0.86 13.36,2.58 17.69,3.43 34.96,6.88 68.17,13.75 4.21,0.86 4.18,0.86 24.97,5.15 32.85,6.88 4.1,0.86 12.19,2.58 16.21,3.43 8.04,1.72 8.01,1.72 8.05,1.72 7.97,1.72 0.58,0.12"
         style="fill:none;stroke:#5e81b5;stroke-width:11.52;stroke-linecap:square;stroke-linejoin:miter;stroke-miterlimit:3.25;stroke-dasharray:none;stroke-opacity:1"
         id="path80" /><path
         d="m 135.039,2335.98 6.641,1.44 3.711,0.78 3.668,0.82 7.421,1.6 3.68,0.79 3.668,0.82 22.031,4.8 3.629,0.82 3.672,0.78 7.309,1.6 14.531,3.21 28.91,6.4 3.629,0.82 3.59,0.79 7.191,1.64 14.34,3.2 28.551,6.41 56.719,12.81 3.441,0.78 3.469,0.82 6.879,1.56 13.832,3.13 27.539,6.29 54.84,12.57 109.34,25.16 132.73,30.51"
         style="fill:none;stroke:#5e81b5;stroke-width:11.52;stroke-linecap:square;stroke-linejoin:miter;stroke-miterlimit:3.25;stroke-dasharray:none;stroke-opacity:1"
         id="path82" /><path
         d="m 717.23,2468.01 323.63,73.32 3.98,0.9 3.95,0.89 7.97,1.76 15.86,3.56 31.79,7.11 63.75,14.22 7.97,1.79 8.01,1.76 15.94,3.56 31.95,7.1 4.02,0.9 3.99,0.9 8.01,1.76 15.97,3.55 3.99,0.9 4.02,0.86 7.97,1.8 4.02,0.9 3.99,0.86 3.98,0.89 4.03,0.9"
         style="fill:none;stroke:#5e81b5;stroke-width:11.52;stroke-linecap:square;stroke-linejoin:miter;stroke-miterlimit:3.25;stroke-dasharray:none;stroke-opacity:1"
         id="path84" /><path
         d="m 295.898,657.73 28.403,2.782 76.91,6.828 10.469,0.82 10.699,0.86 22.109,1.718 47.274,3.403 12.5,0.859 12.847,0.859 26.563,1.719 57.379,3.402 15.277,0.86 15.703,0.82 32.617,1.719 31.723,1.562"
         style="fill:none;stroke:#5e81b5;stroke-width:11.52;stroke-linecap:square;stroke-linejoin:miter;stroke-miterlimit:3.25;stroke-dasharray:none;stroke-opacity:1"
         id="path86" /><path
         d="m 1895.66,1922.03 69.14,3.56 29.03,1.6 53.98,3.24 12.74,0.78 12.42,0.82 24.02,1.6 44.96,3.21 10.67,0.82 10.43,0.78 20.27,1.64 38.24,3.2 68.91,6.45 5.66,0.54"
         style="fill:none;stroke:#5e81b5;stroke-width:11.52;stroke-linecap:square;stroke-linejoin:miter;stroke-miterlimit:3.25;stroke-dasharray:none;stroke-opacity:1"
         id="path88" /><path
         d="m 1296.02,1303.98 5.7,3.21 5.7,3.16 11.45,6.37 22.89,12.69 45.82,25.39 92.26,50.82 206.41,110.16 162.11,80.7"
         style="fill:none;stroke:#5e81b5;stroke-width:11.52;stroke-linecap:square;stroke-linejoin:miter;stroke-miterlimit:3.25;stroke-dasharray:none;stroke-opacity:1"
         id="path90" /><path
         d="m 1881.91,1612.3 20.47,9.5 6.88,3.12 13.83,6.33 28.12,12.58 58.2,25.23 3.75,1.56 3.75,1.61 7.54,3.12 15.24,6.33 31.25,12.58 65.9,25.23 4.64,1.68 4.69,1.72 9.49,3.44 19.34,6.83 40.39,13.68 5.23,1.68 5.28,1.71 10.74,3.44 22.03,6.84 47.23,13.67 6.25,1.72 6.33,1.68 12.97,3.44 27.34,6.83 7.15,1.72 7.3,1.68 15.08,3.44 32.54,6.83 8.71,1.72 9.02,1.68 9.3,1.72 3.44,0.63"
         style="fill:none;stroke:#5e81b5;stroke-width:11.52;stroke-linecap:square;stroke-linejoin:miter;stroke-miterlimit:3.25;stroke-dasharray:none;stroke-opacity:1"
         id="path92" /><path
         d="m 141.02,1810.59 7.421,1.17 10.899,1.72 11.441,1.72 11.989,1.71 12.699,1.68 13.48,1.72 14.371,1.72 15.352,1.72 16.598,1.72 18.05,1.68 19.731,1.72 20.23,1.6 22.418,1.6 25,1.6 28.25,1.56 32.262,1.61 37.34,1.6 43.828,1.6 52.269,1.6 63.243,1.6 12.109,0.24"
         style="fill:none;stroke:#5e81b5;stroke-width:11.52;stroke-linecap:square;stroke-linejoin:miter;stroke-miterlimit:3.25;stroke-dasharray:none;stroke-opacity:1"
         id="path94" /><path
         d="m 146.719,1885 25.66,2.89 13.519,1.6 25.864,3.17 12.5,1.6 12.218,1.6 23.872,3.2 46.128,6.37 11.29,1.6 11.25,1.6 22.429,3.17 44.762,6.4 91.25,12.78 12.66,1.72 12.809,1.71 25.898,3.48 53.242,6.91 37.149,4.65"
         style="fill:none;stroke:#5e81b5;stroke-width:11.52;stroke-linecap:square;stroke-linejoin:miter;stroke-miterlimit:3.25;stroke-dasharray:none;stroke-opacity:1"
         id="path96" /><path
         d="m 727.891,1961.21 252.847,26.8 17.543,1.72 35.549,3.47 72.3,6.92 147.85,13.83 41.06,3.9 249.41,23.75 16.96,1.68 16.79,1.72 33.17,3.4 64.49,6.76 120.98,13.59 14.37,1.68 14.18,1.72 27.89,3.4 11.92,1.48"
         style="fill:none;stroke:#5e81b5;stroke-width:11.52;stroke-linecap:square;stroke-linejoin:miter;stroke-miterlimit:3.25;stroke-dasharray:none;stroke-opacity:1"
         id="path98" /><path
         d="m 1891.45,2080.31 115.97,15.59 11.92,1.72 11.75,1.68 23.13,3.4 44.76,6.79 84.14,13.56 151.06,27.15 8.24,1.6 8.17,1.6 16.21,3.16 31.87,6.33 7.85,1.56 7.78,1.6 15.5,3.17 7.66,1.56 7.66,1.6 7.61,1.57 0.16,0.03"
         style="fill:none;stroke:#5e81b5;stroke-width:11.52;stroke-linecap:square;stroke-linejoin:miter;stroke-miterlimit:3.25;stroke-dasharray:none;stroke-opacity:1"
         id="path100" /><path
         d="m 139.059,2177.3 14.179,3.01 7.422,1.57 7.391,1.6 7.379,1.56 14.648,3.16 7.262,1.6 7.269,1.57 14.411,3.16 28.558,6.33 7.07,1.6 7.071,1.56 14.062,3.17 27.848,6.36 54.922,12.66 107.429,25.31 7.18,1.72 7.231,1.72 14.339,3.44 28.629,6.87 56.993,13.71 113.398,27.5 13.051,3.17"
         style="fill:none;stroke:#5e81b5;stroke-width:11.52;stroke-linecap:square;stroke-linejoin:miter;stroke-miterlimit:3.25;stroke-dasharray:none;stroke-opacity:1"
         id="path102" /><path
         d="m 720.43,2312.93 575.31,139.14 49.18,11.91 6.45,1.57 6.48,1.56 12.85,3.12 25.75,6.29 51.25,12.58 101.6,25.16 12.58,3.12 12.61,3.13 25.08,6.29 49.96,12.58 98.79,25.15 6.64,1.68 6.64,1.72 13.24,3.4 26.45,6.83 6.56,1.68 6.6,1.72 13.17,3.4 6.56,1.72 6.56,1.68 13.09,3.44 6.52,1.68 6.56,1.72 5.16,1.36"
         style="fill:none;stroke:#5e81b5;stroke-width:11.52;stroke-linecap:square;stroke-linejoin:miter;stroke-miterlimit:3.25;stroke-dasharray:none;stroke-opacity:1"
         id="path104" /><path
         d="m 1884.69,11.4492 1.76,0.461 6.52,1.7187 13.01,3.4024 6.48,1.6796 6.49,1.7188 12.96,3.3984 25.86,6.8321 6.45,1.7187 6.44,1.6797 12.89,3.4023 25.71,6.8399 51.21,13.6289 101.87,27.2695 11.88,3.1992 11.83,3.1602 23.75,6.3711 47.47,12.7303 5.93,1.61 5.94,1.558 11.88,3.203 23.78,6.367 47.78,12.692 5.97,1.609 6.02,1.602 11.99,3.16 24.06,6.367 6.02,1.602 6.06,1.601 12.07,3.168 6.05,1.602 6.06,1.558 6.09,1.602 6.05,1.598 5.43,1.41"
         style="fill:none;stroke:#5e81b5;stroke-width:11.52;stroke-linecap:square;stroke-linejoin:miter;stroke-miterlimit:3.25;stroke-dasharray:none;stroke-opacity:1"
         id="path106" /><path
         d="m 137.539,166.289 6.289,1.641 6.133,1.558 18.398,4.813 6.129,1.558 6.172,1.602 12.352,3.16 24.797,6.367 6.761,1.723 6.758,1.758 13.594,3.441 27.308,6.871 55.348,13.828 114.262,27.582 246.91,55.149 8.051,1.68 8.039,1.718 0.859,0.16"
         style="fill:none;stroke:#5e81b5;stroke-width:11.52;stroke-linecap:square;stroke-linejoin:miter;stroke-miterlimit:3.25;stroke-dasharray:none;stroke-opacity:1"
         id="path108" /><path
         d="m 721.52,304.219 32.39,6.679 67.141,13.512 140.398,27.11 302.071,54.14 9.14,1.61 9.14,1.558 18.28,3.16 36.72,6.332 73.79,12.621 147.73,25.231 9.18,1.598 9.18,1.57 18.36,3.16 36.6,6.328 72.7,12.621 142.77,25.231 19.06,3.441 3.05,0.539"
         style="fill:none;stroke:#5e81b5;stroke-width:11.52;stroke-linecap:square;stroke-linejoin:miter;stroke-miterlimit:3.25;stroke-dasharray:none;stroke-opacity:1"
         id="path110" /><path
         d="m 742.578,674.879 39.102,2.109 62.66,3.211 33.082,1.602 34.297,1.597 71.992,3.161 155.979,6.41 40.86,1.601 41.29,1.602 74.18,2.848 9.1,0.359 164.14,6.359 39.53,1.602 38.67,1.609 74.22,3.199 134.57,6.403 33.09,1.719 31.71,1.718 29.65,1.723"
         style="fill:none;stroke:#5e81b5;stroke-width:11.52;stroke-linecap:square;stroke-linejoin:miter;stroke-miterlimit:3.25;stroke-dasharray:none;stroke-opacity:1"
         id="path112" /><path
         d="m 138.91,795.59 4.02,0.859 7.89,1.75 15.352,3.442 7.539,1.757 7.379,1.723 14.422,3.469 27.687,6.922 51.371,13.867 5.981,1.672 5.929,1.719 11.68,3.402 22.66,6.797 43.008,13.59 78.75,27.191 4.652,1.719 4.649,1.679 9.172,3.403 18.09,6.789 35.078,13.64 66.562,27.18 3.75,1.61 3.75,1.558 7.457,3.16 14.731,6.371 28.941,12.692 56.059,25.359 14.609,6.789"
         style="fill:none;stroke:#5e81b5;stroke-width:11.52;stroke-linecap:square;stroke-linejoin:miter;stroke-miterlimit:3.25;stroke-dasharray:none;stroke-opacity:1"
         id="path114" /><path
         d="m 717.148,998.98 297.732,150.75 188.21,102.73 92.89,51.52 88.67,49.22 200.27,109.26 197.54,101.99 3.48,1.72 3.51,1.72 7,3.48 14.14,6.87 28.55,13.83 35.74,16.95"
         style="fill:none;stroke:#5e81b5;stroke-width:11.52;stroke-linecap:square;stroke-linejoin:miter;stroke-miterlimit:3.25;stroke-dasharray:none;stroke-opacity:1"
         id="path116" /><path
         d="m 1881.91,1612.3 19.69,9.15 3.75,1.71 7.58,3.44 15.19,6.92 30.94,13.82 64.38,27.62 4.06,1.72 4.1,1.68 8.24,3.4 16.64,6.76 34.18,13.59 72.58,27.11 4.77,1.72 4.76,1.68 9.69,3.4 19.73,6.75 41.17,13.6 91.44,27.11 5.82,1.56 5.86,1.6 11.92,3.16 24.72,6.33 6.37,1.57 6.45,1.6 13.16,3.16 6.72,1.56 6.8,1.6 13.94,3.17 7.11,1.56 7.23,1.6 2.19,0.47"
         style="fill:none;stroke:#5e81b5;stroke-width:11.52;stroke-linecap:square;stroke-linejoin:miter;stroke-miterlimit:3.25;stroke-dasharray:none;stroke-opacity:1"
         id="path118" /><path
         d="m 741.289,1884.3 36.91,2.11 31.68,1.71 67.621,3.4 151.72,6.88 41.13,1.72 42.15,1.72 86.88,3.43 96.79,3.71 81.53,3.13 44.25,1.72 43.67,1.72 84.89,3.43 40.9,1.72 39.72,1.72 75.59,3.44 35.74,1.68 34.42,1.72 64.76,3.44 7.77,0.42"
         style="fill:none;stroke:#5e81b5;stroke-width:11.52;stroke-linecap:square;stroke-linejoin:miter;stroke-miterlimit:3.25;stroke-dasharray:none;stroke-opacity:1"
         id="path120" /><path
         d="m 141.988,1993.98 2.973,0.47 10.309,1.6 10.16,1.61 20.082,3.2 38.937,6.37 74.61,12.81 141.722,25.62 263.668,48.36"
         style="fill:none;stroke:#5e81b5;stroke-width:11.52;stroke-linecap:square;stroke-linejoin:miter;stroke-miterlimit:3.25;stroke-dasharray:none;stroke-opacity:1"
         id="path122" /><path
         d="m 722.77,2097.34 573.25,99.38 3.51,0.62 9.88,1.68 9.85,1.72 19.65,3.4 39.18,6.8 77.38,13.63 150.08,27.27 264.92,51.95"
         style="fill:none;stroke:#5e81b5;stroke-width:11.52;stroke-linecap:square;stroke-linejoin:miter;stroke-miterlimit:3.25;stroke-dasharray:none;stroke-opacity:1"
         id="path124" /><path
         d="m 1886.29,2307.07 11.44,2.42 15.04,3.17 29.81,6.36 58.36,12.7 112.18,25.43 6.84,1.6 6.8,1.56 13.59,3.21 26.88,6.32 52.93,12.74 102.77,25.43 13.67,3.44 13.6,3.43 27.03,6.88 6.72,1.72 6.71,1.75 13.4,3.44 26.64,6.88 13.28,3.43 6.61,1.72 3.86,1.02"
         style="fill:none;stroke:#5e81b5;stroke-width:11.52;stroke-linecap:square;stroke-linejoin:miter;stroke-miterlimit:3.25;stroke-dasharray:none;stroke-opacity:1"
         id="path126" /><path
         d="m 137.539,2445.04 3.281,0.86 6.602,1.72 19.687,5.15 13.09,3.44 26.09,6.91 6.52,1.72 45.39,12.04 51.602,13.78 102.82,27.58 6.008,1.6 5.98,1.61 11.993,3.2 23.988,6.44 48.082,12.86 6.019,1.6 6.008,1.64 12.071,3.2 24.14,6.45 48.399,12.85 6.101,1.6 6.051,1.6 12.187,3.24 24.372,6.41 6.101,1.64 6.09,1.6 12.23,3.2 12.258,3.21 6.141,1.64 6.129,1.6 4.332,1.13"
         style="fill:none;stroke:#5e81b5;stroke-width:11.52;stroke-linecap:square;stroke-linejoin:miter;stroke-miterlimit:3.25;stroke-dasharray:none;stroke-opacity:1"
         id="path128" /><path
         d="m 719.922,11.4492 7.699,1.9922 6.129,1.6367 6.172,1.6016 12.379,3.1992 6.179,1.6016 6.211,1.6093 12.379,3.2383 24.879,6.4024 6.141,1.6093 6.129,1.5586 12.23,3.1602 24.571,6.293 49.449,12.6172 100.001,25.2304 204.1,50.4728 92.03,22.269 360.51,87.18 13.2,3.207 13.21,3.16 26.4,6.41 52.78,12.774 105.35,25.547 3.55,0.859"
         style="fill:none;stroke:#5e81b5;stroke-width:11.52;stroke-linecap:square;stroke-linejoin:miter;stroke-miterlimit:3.25;stroke-dasharray:none;stroke-opacity:1"
         id="path130" /><path
         d="m 1885.2,298.359 9.18,2.231 26.32,6.398 52.7,12.742 105.86,25.54 7.22,1.761 21.68,5.16 28.99,6.95 58.51,13.828 14.77,3.441 14.8,3.469 29.81,6.922 60.51,13.82 7.65,1.758 7.7,1.723 15.47,3.437 31.21,6.949 7.89,1.723 7.93,1.719 15.94,3.48 8,1.711 8.05,1.719 16.25,3.48 8.16,1.719 3.13,0.66"
         style="fill:none;stroke:#5e81b5;stroke-width:11.52;stroke-linecap:square;stroke-linejoin:miter;stroke-miterlimit:3.25;stroke-dasharray:none;stroke-opacity:1"
         id="path132" /><path
         d="m 139.102,434.02 5.898,1.21 8.359,1.719 8.403,1.762 16.91,3.437 8.519,1.723 8.59,1.75 17.34,3.438 35.359,6.921 8.821,1.719 8.91,1.68 17.969,3.391 36.8,6.8 77.34,13.59 10.078,1.68 10.153,1.719 20.629,3.402 42.461,6.801 90.589,13.59 11.911,1.679 12.031,1.719 24.488,3.359 50.75,6.801 29.18,3.789"
         style="fill:none;stroke:#5e81b5;stroke-width:11.52;stroke-linecap:square;stroke-linejoin:miter;stroke-miterlimit:3.25;stroke-dasharray:none;stroke-opacity:1"
         id="path134" /><path
         d="m 726.801,530.98 68,8.239 14.539,1.679 29.57,3.403 61.211,6.789 130.189,13.601 15.82,1.559 15.94,1.602 32.23,3.168 65.62,6.32 134.69,12.699 1.37,0.121 268.04,25.231 16.29,1.558 16.21,1.602 32.07,3.168 62.7,6.332 119.02,12.648 53.79,6.102"
         style="fill:none;stroke:#5e81b5;stroke-width:11.52;stroke-linecap:square;stroke-linejoin:miter;stroke-miterlimit:3.25;stroke-dasharray:none;stroke-opacity:1"
         id="path136" /><path
         d="m 1892.54,650.078 43.28,5.152"
         style="fill:none;stroke:#5e81b5;stroke-width:11.52;stroke-linecap:square;stroke-linejoin:miter;stroke-miterlimit:3.25;stroke-dasharray:none;stroke-opacity:1"
         id="path138" /><path
         d="m 1961.99,764.488 50.2,1.211 60.43,1.723 49.76,1.719 41.68,1.718 35.51,1.719 30.7,1.723 26.96,1.719 22.42,1.601 20.27,1.598 18.48,1.601 16.99,1.602 15.7,1.598 14.61,1.601 26.53,3.207 12.18,1.602 11.53,1.601 10.97,1.598 10.47,1.601 10.08,1.61 3.52,0.582"
         style="fill:none;stroke:#5e81b5;stroke-width:11.52;stroke-linecap:square;stroke-linejoin:miter;stroke-miterlimit:3.25;stroke-dasharray:none;stroke-opacity:1"
         id="path140" /><path
         d="m 140.66,800.738 13.871,2.543 8.399,1.598 16.129,3.211 29.89,6.398 7.031,1.602 6.911,1.609 13.437,3.199 25.512,6.403 6.09,1.609 6.05,1.641 11.801,3.199 22.739,6.41 42.531,12.809 76.758,25.66 4.421,1.57 4.372,1.602 8.75,3.121 17.109,6.289 33.238,12.578 62.93,25.16 115.781,50.313 3.75,1.718 3.719,1.68 7.461,3.43 14.719,6.801 6.019,2.808"
         style="fill:none;stroke:#5e81b5;stroke-width:11.52;stroke-linecap:square;stroke-linejoin:miter;stroke-miterlimit:3.25;stroke-dasharray:none;stroke-opacity:1"
         id="path142" /><path
         d="m 743.629,1011.52 154.73,76.92 191.641,101.83 3.24,1.8 3.28,1.76 6.49,3.55 13.01,7.11 25.93,14.22 51.53,28.44 3.24,1.76 3.2,1.79 6.41,3.56 12.85,7.11 25.62,14.22 3.21,1.75 3.2,1.8 19.22,10.66 3.16,1.76 3.21,1.76 6.4,3.56 3.21,1.79 3.2,1.76 3.2,1.8 3.21,1.75"
         style="fill:none;stroke:#5e81b5;stroke-width:11.52;stroke-linecap:square;stroke-linejoin:miter;stroke-miterlimit:3.25;stroke-dasharray:none;stroke-opacity:1"
         id="path144" /><path
         d="m 1975.27,1859.8 115,2.58 55.12,1.57 46.29,1.6 39.53,1.6 34.3,1.6 30.15,1.6 26.88,1.6 24.26,1.57 22.15,1.6 20.35,1.6 36.6,3.2 16.68,1.6 1.91,0.16"
         style="fill:none;stroke:#5e81b5;stroke-width:11.52;stroke-linecap:square;stroke-linejoin:miter;stroke-miterlimit:3.25;stroke-dasharray:none;stroke-opacity:1"
         id="path146" /><path
         d="m 1887.54,513.98 35.47,6.411 74.96,13.711 9.33,1.718 9.3,1.68 18.6,3.441 37.1,6.829 74.26,13.71 9.34,1.719 9.3,1.723 18.71,3.398 37.57,6.879 9.5,1.68 9.49,1.711 19.1,3.441 38.67,6.84 9.77,1.719 9.88,1.711 19.88,3.437 10.04,1.684 10.16,1.719 20.47,3.437 10.39,1.723 10.51,1.719 10.58,1.679 10.7,1.711 10.83,1.719 10.97,1.723 7.58,1.168"
         style="fill:none;stroke:#5e81b5;stroke-width:11.52;stroke-linecap:square;stroke-linejoin:miter;stroke-miterlimit:3.25;stroke-dasharray:none;stroke-opacity:1"
         id="path148" /><path
         d="m 501.289,658.551 30.742,2.469 88.438,6.402 24.301,1.558 25.269,1.61 15.742,0.969"
         style="fill:none;stroke:#5e81b5;stroke-width:11.52;stroke-linecap:square;stroke-linejoin:miter;stroke-miterlimit:3.25;stroke-dasharray:none;stroke-opacity:1"
         id="path150" /><path
         d="m 1904.92,726.988 3.13,0.203 26.48,1.758 49.49,3.43 23.17,1.762 22.15,1.718 41.56,3.481 73.55,6.91 16.68,1.719 16.06,1.761 30.43,3.43 55.11,6.961 12.7,1.719 12.34,1.711 23.68,3.48 43.63,6.918 10.27,1.711 10,1.762 19.34,3.437 9.33,1.762 9.18,1.719 17.74,3.469 8.63,1.722 8.48,1.719 4.88,1.051"
         style="fill:none;stroke:#5e81b5;stroke-width:11.52;stroke-linecap:square;stroke-linejoin:miter;stroke-miterlimit:3.25;stroke-dasharray:none;stroke-opacity:1"
         id="path152" /><path
         d="m 139.059,1815.7 12.39,2.58 15.821,3.17 8.16,1.56 8.281,1.6 17.07,3.16 36.289,6.29 9.61,1.6 9.8,1.57 20.321,3.16 43.82,6.33 11.719,1.6 12.07,1.56 25.16,3.17 55.27,6.33 15,1.6 15.512,1.56 32.738,3.16 17.262,1.6 17.929,1.57 38.008,3.16 20.121,1.6 20.969,1.57 44.531,3.16 40.16,2.66"
         style="fill:none;stroke:#5e81b5;stroke-width:11.52;stroke-linecap:square;stroke-linejoin:miter;stroke-miterlimit:3.25;stroke-dasharray:none;stroke-opacity:1"
         id="path154" /><path
         d="m 1906.21,1936.45 75.39,4.84 24.65,1.72 46.37,3.4 21.87,1.71 16.21,1.33"
         style="fill:none;stroke:#5e81b5;stroke-width:11.52;stroke-linecap:square;stroke-linejoin:miter;stroke-miterlimit:3.25;stroke-dasharray:none;stroke-opacity:1"
         id="path156" /><path
         d="m 1962.77,658.551 85.67,10.937 25.82,3.442 50.43,6.871 97.42,13.75 24.06,3.437 24.18,3.442 49.18,6.871 12.58,1.719 12.77,1.718 26.25,3.442 13.52,1.718 13.9,1.723 29.07,3.43 15.39,1.719 2.26,0.242"
         style="fill:none;stroke:#5e81b5;stroke-width:11.52;stroke-linecap:square;stroke-linejoin:miter;stroke-miterlimit:3.25;stroke-dasharray:none;stroke-opacity:1"
         id="path158" /><path
         d="m 1152.7,1850.55 144.41,1.33 99.65,0.93 169.53,1.57 149.61,1.6 41.87,0.5"
         style="fill:none;stroke:#5e81b5;stroke-width:11.52;stroke-linecap:square;stroke-linejoin:miter;stroke-miterlimit:3.25;stroke-dasharray:none;stroke-opacity:1"
         id="path160" /><path
         d="m 142.148,617.301 14.411,2.148 22.031,3.211 46.18,6.399 12.031,1.601 12.301,1.61 25.308,3.16 54.141,6.41 14.34,1.601 14.769,1.598 30.699,3.199 16.051,1.602 16.531,1.57 34.571,3.199 7.066,0.621"
         style="fill:none;stroke:#5e81b5;stroke-width:11.52;stroke-linecap:square;stroke-linejoin:miter;stroke-miterlimit:3.25;stroke-dasharray:none;stroke-opacity:1"
         id="path162" /><path
         d="m 717.148,998.98 19.571,9.26"
         style="fill:none;stroke:#5e81b5;stroke-width:11.52;stroke-linecap:square;stroke-linejoin:miter;stroke-miterlimit:3.25;stroke-dasharray:none;stroke-opacity:1"
         id="path164" /><path
         d="m 2129.41,1952.73 24.85,2.27 18.24,1.72 34.77,3.44 63.55,6.83 14.84,1.72 14.46,1.72 27.93,3.44 13.47,1.72 13.21,1.71 25.62,3.4 12.46,1.72 12.23,1.72 12.03,1.72 11.84,1.72 11.64,1.72 9.29,1.36"
         style="fill:none;stroke:#5e81b5;stroke-width:11.52;stroke-linecap:square;stroke-linejoin:miter;stroke-miterlimit:3.25;stroke-dasharray:none;stroke-opacity:1"
         id="path166" /><path
         d="m 147.5,726.289 16.641,1.602 18.98,1.718 20.399,1.719 22.07,1.723 24.14,1.719 26.719,1.71 29.961,1.719 34.102,1.723 39.367,1.719 46.293,1.718 55.387,1.719 67.66,1.723 67.543,1.398"
         style="fill:none;stroke:#5e81b5;stroke-width:11.52;stroke-linecap:square;stroke-linejoin:miter;stroke-miterlimit:3.25;stroke-dasharray:none;stroke-opacity:1"
         id="path168" /><path
         d="m 834.219,751.52 36.801,0.429 161.13,1.723 183.63,1.719 79.61,0.738 109.34,0.98 34.61,0.313"
         style="fill:none;stroke:#5e81b5;stroke-width:11.52;stroke-linecap:square;stroke-linejoin:miter;stroke-miterlimit:3.25;stroke-dasharray:none;stroke-opacity:1"
         id="path170" /><path
         d="m 818.051,1846.8 33.98,0.47"
         style="fill:none;stroke:#5e81b5;stroke-width:11.52;stroke-linecap:square;stroke-linejoin:miter;stroke-miterlimit:3.25;stroke-dasharray:none;stroke-opacity:1"
         id="path172" /><path
         d="m 1739.96,760.738 33.99,0.473"
         style="fill:none;stroke:#5e81b5;stroke-width:11.52;stroke-linecap:square;stroke-linejoin:miter;stroke-miterlimit:3.25;stroke-dasharray:none;stroke-opacity:1"
         id="path174" /><path
         d="m 1296.02,1303.98 -2.9,-1.56 -2.85,-1.6 -5.7,-3.16 -11.45,-6.37 -22.85,-12.7 -45.86,-25.39 -92.26,-50.82 -206.412,-110.15 -188.59,-93.25"
         style="fill:none;stroke:#5e81b5;stroke-width:11.52;stroke-linecap:square;stroke-linejoin:miter;stroke-miterlimit:3.25;stroke-dasharray:none;stroke-opacity:1"
         id="path176" /><path
         d="m 508.75,908.871 -58.09,-22.07 -4.64,-1.68 -9.461,-3.441 -19.258,-6.84 -40.153,-13.668 -5.16,-1.723 -5.226,-1.679 -10.59,-3.43 -21.762,-6.84 -46.09,-13.672 -6.05,-1.719 -6.141,-1.718 -12.457,-3.403 -25.902,-6.828 -6.719,-1.719 -6.789,-1.722 -13.91,-3.399 -29.223,-6.84 -7.649,-1.71 -7.781,-1.719 -7.929,-1.68 -8.079,-1.723 -8.242,-1.718 -2.039,-0.43"
         style="fill:none;stroke:#5e81b5;stroke-width:11.52;stroke-linecap:square;stroke-linejoin:miter;stroke-miterlimit:3.25;stroke-dasharray:none;stroke-opacity:1"
         id="path178" /><path
         d="m 2452.42,794.219 -7.3,-1.41 -9.03,-1.719 -9.25,-1.711 -19.26,-3.399 -41.96,-6.839 -10.54,-1.602 -10.9,-1.598 -22.85,-3.211 -12.03,-1.558 -12.5,-1.602 -26.45,-3.199 -14.02,-1.601 -14.65,-1.61 -31.33,-3.16 -16.8,-1.602 -17.61,-1.597 -38.21,-3.211 -20.7,-1.559 -21.91,-1.601 -23.28,-1.602 -16.33,-1.058"
         style="fill:none;stroke:#5e81b5;stroke-width:11.52;stroke-linecap:square;stroke-linejoin:miter;stroke-miterlimit:3.25;stroke-dasharray:none;stroke-opacity:1"
         id="path180" /><path
         d="m 672.23,702.461 -69.808,-3.082 -32.813,-1.609 -30.738,-1.598 -28.871,-1.602 -27.109,-1.558 -49.77,-3.211 -22.891,-1.602 -21.679,-1.597 -40.352,-3.161 -18.82,-1.601 -18.008,-1.61 -33.91,-3.199 -17.34,-1.722 -16.68,-1.719 -31.679,-3.469 -15.121,-1.723 -14.653,-1.718 -14.218,-1.719 -13.86,-1.762 -9.961,-1.25"
         style="fill:none;stroke:#5e81b5;stroke-width:11.52;stroke-linecap:square;stroke-linejoin:miter;stroke-miterlimit:3.25;stroke-dasharray:none;stroke-opacity:1"
         id="path182" /><path
         d="m 1868.36,564.531 -9.22,-1.519 -20.74,-3.403 -41.8,-6.8 -84.61,-13.547 -172.03,-27.153 -10.82,-1.718 -10.82,-1.68 -21.6,-3.402 -43.17,-6.789 -85.82,-13.598 -70.82,-11.481 -96.32,-15.671 -9.5,-1.559 -9.45,-1.602 -18.83,-3.16 -37.19,-6.328 -72.57,-12.66 -137.269,-25.352 -8.203,-1.558 -8.199,-1.602 -16.219,-3.168 -31.949,-6.332 -61.91,-12.648 -68.211,-14.61"
         style="fill:none;stroke:#5e81b5;stroke-width:11.52;stroke-linecap:square;stroke-linejoin:miter;stroke-miterlimit:3.25;stroke-dasharray:none;stroke-opacity:1"
         id="path184" /><path
         d="m 706.129,363.91 -40.578,-9.14 -7.5,-1.719 -14.852,-3.442 -29.219,-6.879 -56.679,-13.75 -106.75,-27.46 -6.449,-1.719 -6.372,-1.711 -12.691,-3.442 -25.078,-6.839 -48.91,-13.75 -93.672,-27.457 -10.617,-3.204 -10.551,-3.199 -26.172,-8.008 -5.16,-1.601 -10.348,-3.211 -20.511,-6.399 -5.11,-1.601 -5.082,-1.649 -10.156,-3.199 -5.043,-1.601 -5.078,-1.602 -5,-1.598 -2.141,-0.671"
         style="fill:none;stroke:#5e81b5;stroke-width:11.52;stroke-linecap:square;stroke-linejoin:miter;stroke-miterlimit:3.25;stroke-dasharray:none;stroke-opacity:1"
         id="path186" /><path
         d="m 2455.62,205.738 -7.53,-2.418 -5,-1.601 -19.85,-6.41 -19.69,-6.399 -19.57,-6.41 -38.75,-12.809 -76.36,-25.671 -4.61,-1.559 -4.65,-1.563 -9.26,-3.168 -18.44,-6.25 -36.79,-12.57 -73.05,-25.16 -9.14,-3.1289 -9.1,-3.1602 -18.17,-6.25 -109.21,-37.7304 -4.93,-1.6797 -4.96,-1.7227 -9.88,-3.3984 -19.8,-6.8399 -4.97,-1.7187 -4.96,-1.6719 -9.96,-3.3984 -9.92,-3.4414 -9.96,-3.3985 -4.96,-1.7226 -4.96,-1.6797 -3.99,-1.3594"
         style="fill:none;stroke:#5e81b5;stroke-width:11.52;stroke-linecap:square;stroke-linejoin:miter;stroke-miterlimit:3.25;stroke-dasharray:none;stroke-opacity:1"
         id="path188" /><path
         d="m 1873.55,2596.56 -1.32,-0.47 -5,-1.71 -10,-3.4 -5,-1.72 -5,-1.68 -10,-3.44 -20.08,-6.8 -5.04,-1.72 -5.04,-1.67 -10.04,-3.44 -20.19,-6.8 -40.55,-13.63 -81.95,-27.31 -4.85,-1.56 -4.8,-1.6 -9.65,-3.16 -19.38,-6.37 -38.9,-12.74 -78.71,-25.46 -160.86,-50.9 -42.11,-12.82 -320.471,-97.5 -255.347,-75.39"
         style="fill:none;stroke:#5e81b5;stroke-width:11.52;stroke-linecap:square;stroke-linejoin:miter;stroke-miterlimit:3.25;stroke-dasharray:none;stroke-opacity:1"
         id="path190" /><path
         d="m 707.969,2231.95 -113.047,-32.77 -10.973,-3.16 -22,-6.33 -44.289,-12.62 -89.89,-25.27 -11.399,-3.13 -11.492,-3.16 -23.039,-6.33 -46.762,-12.62 -5.898,-1.6 -5.942,-1.56 -11.91,-3.17 -24.098,-6.28 -49.261,-12.66 -6.797,-1.68 -6.832,-1.72 -13.75,-3.44 -6.961,-1.72 -6.988,-1.71 -14.063,-3.4 -7.109,-1.72 -7.149,-1.72 -7.191,-1.72 -7.258,-1.72 -7.269,-1.68 -7.34,-1.72 -0.903,-0.23"
         style="fill:none;stroke:#5e81b5;stroke-width:11.52;stroke-linecap:square;stroke-linejoin:miter;stroke-miterlimit:3.25;stroke-dasharray:none;stroke-opacity:1"
         id="path192" /><path
         d="m 2453.59,2073.83 -7.11,-1.64 -7.53,-1.72 -15.32,-3.4 -31.36,-6.87 -66.45,-13.68 -8.71,-1.72 -8.79,-1.71 -17.97,-3.4 -37.3,-6.88 -9.65,-1.72 -9.77,-1.68 -20,-3.43 -41.91,-6.84 -10.9,-1.72 -11.09,-1.72 -22.82,-3.43 -48.16,-6.84 -108.79,-13.71 -13.98,-1.6 -14.26,-1.6 -29.45,-3.17 -17.78,-1.87"
         style="fill:none;stroke:#5e81b5;stroke-width:11.52;stroke-linecap:square;stroke-linejoin:miter;stroke-miterlimit:3.25;stroke-dasharray:none;stroke-opacity:1"
         id="path194" /><path
         d="m 694.41,1895.78 -69.371,-6.33 -17.93,-1.72 -17.5,-1.75 -33.711,-3.44 -62.539,-6.92 -14.687,-1.75 -14.332,-1.72 -27.66,-3.48 -51.641,-6.91 -12.187,-1.72 -11.911,-1.76 -23.132,-3.44 -43.399,-6.95 -77.461,-13.83 -8.937,-1.76 -8.793,-1.71 -17.149,-3.48 -8.359,-1.72 -8.242,-1.72 -16.09,-3.47 -7.899,-1.72 -2.89,-0.67"
         style="fill:none;stroke:#5e81b5;stroke-width:11.52;stroke-linecap:square;stroke-linejoin:miter;stroke-miterlimit:3.25;stroke-dasharray:none;stroke-opacity:1"
         id="path196" /><path
         d="m 2453.52,1814.53 -5.43,-1.25 -7.47,-1.76 -7.34,-1.72 -14.41,-3.47 -7.07,-1.72 -7,-1.72 -13.71,-3.48 -26.52,-6.91 -49.69,-13.87 -5.86,-1.68 -5.78,-1.72 -11.4,-3.39 -22.23,-6.8 -42.42,-13.59 -78.17,-27.19 -9.22,-3.44 -9.18,-3.4 -18,-6.8 -35,-13.59 -66.45,-27.19 -3.75,-1.6 -3.75,-1.56 -7.46,-3.2 -14.73,-6.33 -28.94,-12.7 -56.02,-25.35 -14.61,-6.8"
         style="fill:none;stroke:#5e81b5;stroke-width:11.52;stroke-linecap:square;stroke-linejoin:miter;stroke-miterlimit:3.25;stroke-dasharray:none;stroke-opacity:1"
         id="path198" /><path
         d="m 1874.88,1609.02 -297.77,-150.74 -188.2,-102.73 -92.89,-51.57 -88.68,-49.18 -200.27,-109.25 -197.5,-102 -3.519,-1.71 -3.473,-1.72 -7.027,-3.48 -14.141,-6.91 -28.558,-13.79 -35.704,-16.96"
         style="fill:none;stroke:#5e81b5;stroke-width:11.52;stroke-linecap:square;stroke-linejoin:miter;stroke-miterlimit:3.25;stroke-dasharray:none;stroke-opacity:1"
         id="path200" /><path
         d="m 710.078,995.699 -19.687,-9.14 -3.75,-1.719 -7.539,-3.469 -15.192,-6.883 -30.941,-13.828 -64.34,-27.609 -4.059,-1.723 -4.101,-1.68 -8.199,-3.398 -16.649,-6.801 -34.101,-13.551 -72.301,-27.109 -4.731,-1.719 -4.758,-1.679 -9.609,-3.403 -19.57,-6.789 -40.75,-13.558 -89.571,-27.11 -5.621,-1.601 -5.699,-1.559 -11.531,-3.172 -23.707,-6.32 -6.094,-1.609 -6.168,-1.559 -12.5,-3.16 -25.859,-6.332 -6.641,-1.559 -6.762,-1.609 -6.796,-1.563 -4.372,-1.008"
         style="fill:none;stroke:#5e81b5;stroke-width:11.52;stroke-linecap:square;stroke-linejoin:miter;stroke-miterlimit:3.25;stroke-dasharray:none;stroke-opacity:1"
         id="path202" /><path
         d="m 2453.4,790.199 -9.18,-2.039 -7.27,-1.601 -7.38,-1.559 -7.46,-1.602 -15.27,-3.168 -31.96,-6.32 -8.28,-1.57 -8.44,-1.602 -17.22,-3.16 -36.33,-6.289 -9.49,-1.598 -9.65,-1.57 -19.85,-3.16 -42.03,-6.332 -11.01,-1.598 -11.29,-1.562 -23.2,-3.168 -49.54,-6.321 -13.04,-1.601 -13.36,-1.57 -27.62,-3.161 -59.18,-6.328 -16.99,-1.718 -17.42,-1.723 -36.17,-3.43 -47.19,-4.219"
         style="fill:none;stroke:#5e81b5;stroke-width:11.52;stroke-linecap:square;stroke-linejoin:miter;stroke-miterlimit:3.25;stroke-dasharray:none;stroke-opacity:1"
         id="path204" /><path
         d="m 697.5,624.531 -6.48,-0.66 -32.04,-3.441 -59.921,-6.879 -13.239,-1.602 -12.968,-1.597 -25.153,-3.204 -47.578,-6.41 -85.672,-12.769 -9.961,-1.598 -9.797,-1.601 -19.179,-3.211 -36.762,-6.399 -68.238,-12.82 -8.133,-1.602 -8,-1.597 -15.789,-3.2 -30.699,-6.41 -7.5,-1.601 -7.461,-1.602 -14.692,-3.207 -14.449,-3.199 -14.219,-3.203 -7.031,-1.598 -4.141,-0.941"
         style="fill:none;stroke:#5e81b5;stroke-width:11.52;stroke-linecap:square;stroke-linejoin:miter;stroke-miterlimit:3.25;stroke-dasharray:none;stroke-opacity:1"
         id="path206" /><path
         d="m 2453.63,530.859 -9.22,-2.148 -6.83,-1.602 -13.48,-3.199 -13.36,-3.211 -13.16,-3.199 -25.98,-6.41 -6.29,-1.559 -6.25,-1.562 -12.42,-3.129 -24.57,-6.289 -48.01,-12.531 -92.81,-25.122 -177.73,-50.238 -119.46,-34.64"
         style="fill:none;stroke:#5e81b5;stroke-width:11.52;stroke-linecap:square;stroke-linejoin:miter;stroke-miterlimit:3.25;stroke-dasharray:none;stroke-opacity:1"
         id="path208" /><path
         d="M 1872.73,372.73 1296.6,200 l -0.58,-0.199 -4.97,-1.52 -16.64,-5.16 -22.11,-6.91 -43.98,-13.75 -86.95,-27.582 -10.78,-3.43 -10.75,-3.437 -21.44,-6.883 -42.62,-13.789 -84.26,-27.5705 -9.758,-3.2109 -9.731,-3.1992 -19.41,-6.4492 -38.641,-12.8516 -4.8,-1.6367 -14.41,-4.8008 -19.18,-6.4492 -38.129,-12.8516 -4.762,-1.6015 -4.769,-1.6407 -9.489,-3.1992 -18.953,-6.4492 -18.898,-6.4102 -4.692,-1.5976 -4.726,-1.6406 -4.723,-1.6016 -4.687,-1.6016 -3.321,-1.1289"
         style="fill:none;stroke:#5e81b5;stroke-width:11.52;stroke-linecap:square;stroke-linejoin:miter;stroke-miterlimit:3.25;stroke-dasharray:none;stroke-opacity:1"
         id="path210" /><path
         d="m 708.789,2596.56 -5.859,-2.03 -9.379,-3.2 -9.41,-3.21 -4.692,-1.6 -4.679,-1.64 -9.379,-3.2 -18.711,-6.45 -9.141,-3.12 -9.18,-3.16 -18.281,-6.33 -36.558,-12.62 -73.008,-25.2 -4.571,-1.6 -4.57,-1.56 -9.141,-3.16 -18.281,-6.29 -36.609,-12.62 -73.711,-25.23 -5,-1.72 -5.039,-1.72 -10.07,-3.4 -20.2,-6.84 -40.66,-13.71 -5.082,-1.68 -5.117,-1.72 -10.27,-3.43 -20.589,-6.84 -41.602,-13.67 -10.469,-3.44 -10.551,-3.4 -10.539,-3.43 -10.632,-3.4 -10.618,-3.44 -0.82,-0.23"
         style="fill:none;stroke:#5e81b5;stroke-width:11.52;stroke-linecap:square;stroke-linejoin:miter;stroke-miterlimit:3.25;stroke-dasharray:none;stroke-opacity:1"
         id="path212" /><path
         d="m 2455.62,2398.95 -4.96,-1.57 -16.17,-5.15 -5.43,-1.68 -5.43,-1.72 -10.9,-3.44 -21.95,-6.84 -44.65,-13.67 -10.54,-3.2 -10.67,-3.2 -21.44,-6.37 -43.68,-12.77 -91.13,-25.55 -11.79,-3.2 -11.88,-3.17 -24.06,-6.4 -49.34,-12.78 -104.37,-25.51 -7.35,-1.75 -7.42,-1.72 -14.92,-3.48 -30.35,-6.91 -21.33,-4.77"
         style="fill:none;stroke:#5e81b5;stroke-width:11.52;stroke-linecap:square;stroke-linejoin:miter;stroke-miterlimit:3.25;stroke-dasharray:none;stroke-opacity:1"
         id="path214" /><path
         d="m 1870.9,2240.82 -161.25,-33.48 -17.74,-3.43 -17.93,-3.48 -36.48,-6.91 -75.39,-13.83 -159.92,-27.7 -10.2,-1.68 -10.19,-1.72 -20.55,-3.36 -41.48,-6.79 -23.95,-3.87 -60.43,-9.73 -172.11,-27.18 -10.82,-1.68 -10.82,-1.72 -21.64,-3.4 -43.16,-6.8 -85.899,-13.55 -167.269,-27.03"
         style="fill:none;stroke:#5e81b5;stroke-width:11.52;stroke-linecap:square;stroke-linejoin:miter;stroke-miterlimit:3.25;stroke-dasharray:none;stroke-opacity:1"
         id="path216" /><path
         d="m 2448.09,1946.05 -20.16,-2.53 -12.93,-1.61 -14.41,-1.71 -14.85,-1.68 -31.09,-3.44 -16.37,-1.72 -16.95,-1.72 -36.06,-3.44 -19.22,-1.72 -20.11,-1.71 -43.4,-3.44 -23.48,-1.72 -24.84,-1.72 -54.42,-3.44 -29.92,-1.72 -31.99,-1.71 -34.3,-1.72 -36.79,-1.72 -39.57,-1.72 -7.46,-0.31"
         style="fill:none;stroke:#5e81b5;stroke-width:11.52;stroke-linecap:square;stroke-linejoin:miter;stroke-miterlimit:3.25;stroke-dasharray:none;stroke-opacity:1"
         id="path218" /><path
         d="m 536.48,1860.23 -37.031,-2.46 -23.711,-1.72 -43.316,-3.43 -19.844,-1.72 -18.789,-1.72 -34.73,-3.44 -16.168,-1.72 -15.391,-1.72 -28.871,-3.43 -51.25,-6.88 -10.93,-1.6 -10.59,-1.6 -20.269,-3.2 -9.731,-1.61 -9.449,-1.6 -18.172,-3.2 -8.789,-1.6 -8.551,-1.6 -8.359,-1.64 -2.969,-0.55"
         style="fill:none;stroke:#5e81b5;stroke-width:11.52;stroke-linecap:square;stroke-linejoin:miter;stroke-miterlimit:3.25;stroke-dasharray:none;stroke-opacity:1"
         id="path220" /><path
         d="m 2452.58,1810.47 -12.27,-2.54 -7.54,-1.6 -7.42,-1.6 -7.3,-1.61 -14.18,-3.2 -27.07,-6.4 -49.69,-12.86 -5.9,-1.6 -5.78,-1.6 -11.41,-3.2 -22.14,-6.41 -41.76,-12.85 -76.17,-25.62 -4.38,-1.61 -4.41,-1.56 -8.68,-3.12 -17.1,-6.29 -33.17,-12.58 -12.97,-5.08"
         style="fill:none;stroke:#5e81b5;stroke-width:11.52;stroke-linecap:square;stroke-linejoin:miter;stroke-miterlimit:3.25;stroke-dasharray:none;stroke-opacity:1"
         id="path222" /><path
         d="m 2074.84,1695.86 -157.26,-67.11 -3.75,-1.72 -3.71,-1.72 -7.46,-3.4 -14.73,-6.83 -6.02,-2.78"
         style="fill:none;stroke:#5e81b5;stroke-width:11.52;stroke-linecap:square;stroke-linejoin:miter;stroke-miterlimit:3.25;stroke-dasharray:none;stroke-opacity:1"
         id="path224" /><path
         d="m 1874.88,1608.98 -72.69,-34.84 -108.56,-54.57 -191.64,-101.87 -3.24,-1.76 -3.24,-1.8 -6.53,-3.55 -13,-7.07 -25.9,-14.22 -51.56,-28.44 -3.25,-1.8 -3.2,-1.76 -6.41,-3.55 -12.85,-7.11 -25.62,-14.22 -3.21,-1.76 -3.2,-1.79 -6.4,-3.56 -12.78,-7.11 -3.2,-1.75 -3.2,-1.8 -6.41,-3.56 -3.2,-1.75 -3.21,-1.8 -3.2,-1.76 -3.16,-1.8"
         style="fill:none;stroke:#5e81b5;stroke-width:11.52;stroke-linecap:square;stroke-linejoin:miter;stroke-miterlimit:3.25;stroke-dasharray:none;stroke-opacity:1"
         id="path226" /><path
         d="m 710.078,995.699 -20.469,-9.488 -6.879,-3.16 -13.82,-6.289 -28.09,-12.621 -58.199,-25.192 -3.75,-1.57 -3.75,-1.598 -7.543,-3.121 -15.238,-6.332 -31.211,-12.578 -3.981,-1.602"
         style="fill:none;stroke:#5e81b5;stroke-width:11.52;stroke-linecap:square;stroke-linejoin:miter;stroke-miterlimit:3.25;stroke-dasharray:none;stroke-opacity:1"
         id="path228" /><path
         d="m 1838.75,736.84 -62.07,-2.391 -45.51,-1.558 -48.59,-1.602 -106.49,-3.199 -57.61,-1.61 -60.12,-1.601 -125.82,-3.16 -36.6,-0.899 -27.82,-0.699 -64.41,-1.601 -125.98,-3.211 -60.23,-1.559 -57.77,-1.602 -54.96,-1.597 -51.961,-1.602 -48.899,-1.609 -45.859,-1.602 h -0.082"
         style="fill:none;stroke:#5e81b5;stroke-width:11.52;stroke-linecap:square;stroke-linejoin:miter;stroke-miterlimit:3.25;stroke-dasharray:none;stroke-opacity:1"
         id="path230" /><path
         d="m 2423.48,655.23 -4.85,-0.66 -12.22,-1.718 -23.91,-3.473 -11.64,-1.719 -11.52,-1.719 -22.66,-3.48 -43.91,-6.91 -84.22,-13.832 -10.35,-1.719 -10.27,-1.719 -20.51,-3.48 -40.82,-6.91 -81.4,-13.832 -156.8,-26.25"
         style="fill:none;stroke:#5e81b5;stroke-width:11.52;stroke-linecap:square;stroke-linejoin:miter;stroke-miterlimit:3.25;stroke-dasharray:none;stroke-opacity:1"
         id="path232" /><path
         d="m 1858.75,708.91 -12.62,-1.019 -21.17,-1.719 -43.83,-3.442 -93.36,-6.871 -24.49,-1.679 -24.88,-1.719 -50.94,-3.441 -105.7,-6.872 -185.63,-11.679 -31.91,-2.028 -26.88,-1.722 -26.68,-1.719 -52.54,-3.441 -45.35,-3.008"
         style="fill:none;stroke:#5e81b5;stroke-width:11.52;stroke-linecap:square;stroke-linejoin:miter;stroke-miterlimit:3.25;stroke-dasharray:none;stroke-opacity:1"
         id="path234" /><path
         d="m 703.59,2040.2 -19.328,-3.21 -38.133,-6.33 -75.43,-12.69 -9.371,-1.56 -9.379,-1.61 -56.008,-9.49 -74.73,-12.69 -9.371,-1.57 -9.418,-1.6 -18.871,-3.16 -38.16,-6.33 -9.653,-1.6 -9.687,-1.56 -19.571,-3.17 -39.921,-6.36 -10.188,-1.57 -10.32,-1.6 -20.891,-3.16 -10.672,-1.56 -10.777,-1.61 -21.992,-3.16 -11.25,-1.6 -1.949,-0.28"
         style="fill:none;stroke:#5e81b5;stroke-width:11.52;stroke-linecap:square;stroke-linejoin:miter;stroke-miterlimit:3.25;stroke-dasharray:none;stroke-opacity:1"
         id="path236" /><path
         d="m 1834.02,1902.27 -96.95,-3.29 -56.21,-1.71 -122.54,-3.44 -262.5,-6.64 -9.34,-0.24 -68.9,-1.72 -67.54,-1.71 -127.74,-3.44 -59.21,-1.72 -55.711,-1.72 -100.578,-3.44 -45.082,-1.68 -8.481,-0.35"
         style="fill:none;stroke:#5e81b5;stroke-width:11.52;stroke-linecap:square;stroke-linejoin:miter;stroke-miterlimit:3.25;stroke-dasharray:none;stroke-opacity:1"
         id="path238" /><path
         d="m 1861.91,1980.16 -46.09,-4.42 -35.12,-3.2 -74.96,-6.37 -19.72,-1.6 -20.2,-1.6 -41.56,-3.2 -87.97,-6.41 -8.99,-0.63"
         style="fill:none;stroke:#5e81b5;stroke-width:11.52;stroke-linecap:square;stroke-linejoin:miter;stroke-miterlimit:3.25;stroke-dasharray:none;stroke-opacity:1"
         id="path240" /><path
         d="m 1479.22,1949.45 -183.28,-11.91 -2.27,-0.16 -50.78,-3.16 -101.6,-6.41 -25.2,-1.6 -25.04,-1.6 -49.45,-3.2 -95.659,-6.37 -23.089,-1.6 -22.731,-1.6 -44.262,-3.21 -83.668,-6.4 -19.851,-1.57 -19.102,-1.6"
         style="fill:none;stroke:#5e81b5;stroke-width:11.52;stroke-linecap:square;stroke-linejoin:miter;stroke-miterlimit:3.25;stroke-dasharray:none;stroke-opacity:1"
         id="path242" /><path
         d="m 1064.69,655.23 -31.8,-2.218 -23.79,-1.723 -46.209,-3.437 -86.84,-6.832 -20.5,-1.719 -20.039,-1.723 -38.711,-3.437 -66.68,-6.332"
         style="fill:none;stroke:#5e81b5;stroke-width:11.52;stroke-linecap:square;stroke-linejoin:miter;stroke-miterlimit:3.25;stroke-dasharray:none;stroke-opacity:1"
         id="path244" /><path
         d="m 2000.2,744.449 -69.81,-3.59 -15.12,-0.738"
         style="fill:none;stroke:#5e81b5;stroke-width:11.52;stroke-linecap:square;stroke-linejoin:miter;stroke-miterlimit:3.25;stroke-dasharray:none;stroke-opacity:1"
         id="path246" /><path
         d="m 676.719,1867.85 -31.52,-1.48 -33.398,-1.72 -20,-1.1"
         style="fill:none;stroke:#5e81b5;stroke-width:11.52;stroke-linecap:square;stroke-linejoin:miter;stroke-miterlimit:3.25;stroke-dasharray:none;stroke-opacity:1"
         id="path248" /><path
         d="m 144.379,1949.45 -0.707,-0.07"
         style="fill:none;stroke:#5e81b5;stroke-width:11.52;stroke-linecap:square;stroke-linejoin:miter;stroke-miterlimit:3.25;stroke-dasharray:none;stroke-opacity:1"
         id="path250" /><path
         d="m 2448.32,658.629 -0.66,-0.078"
         style="fill:none;stroke:#5e81b5;stroke-width:11.52;stroke-linecap:square;stroke-linejoin:miter;stroke-miterlimit:3.25;stroke-dasharray:none;stroke-opacity:1"
         id="path252" /><path
         d="m 131.211,9.80078 3.949,0.78902 3.899,0.8204 7.89,1.5586 15.711,3.1601 31.442,6.3711 63.046,12.6992 126.993,25.4219 283.281,55.0779 41.797,7.891"
         style="fill:none;stroke:#5e81b5;stroke-width:11.52;stroke-linecap:square;stroke-linejoin:miter;stroke-miterlimit:3.25;stroke-dasharray:none;stroke-opacity:1"
         id="path254" /><path
         d="m 718.012,125.23 511.828,92.309 66.14,11.602 245.97,43.089 286.41,51.051 45.47,8.199"
         style="fill:none;stroke:#5e81b5;stroke-width:11.52;stroke-linecap:square;stroke-linejoin:miter;stroke-miterlimit:3.25;stroke-dasharray:none;stroke-opacity:1"
         id="path256" /><path
         d="m 1882.97,333.121 256.17,46.328 4.77,0.86 9.49,1.679 19.02,3.403 38.28,6.8 77.7,13.547 4.88,0.864 4.96,0.859 9.85,1.68 19.88,3.398 40.23,6.801 5.08,0.859 5.08,0.821 10.23,1.71 20.59,3.399 5.2,0.82 5.19,0.86 10.43,1.722 5.23,0.821 5.24,0.859 5.27,0.859 5.28,0.821 4.6,0.738"
         style="fill:none;stroke:#5e81b5;stroke-width:11.52;stroke-linecap:square;stroke-linejoin:miter;stroke-miterlimit:3.25;stroke-dasharray:none;stroke-opacity:1"
         id="path258" /><path
         d="m 136.41,435.27 4.918,0.781 5,0.828 5,0.781 10.082,1.602 10.149,1.558 10.203,1.602 20.617,3.168 10.391,1.558 10.511,1.602 21.168,3.16 43.403,6.328 5.507,0.782 5.551,0.781 11.168,1.609 22.582,3.16 46.442,6.328 98.398,12.653 6.949,0.859 7.031,0.86 14.11,1.718 28.75,3.442 59.609,6.871 111.672,12.039"
         style="fill:none;stroke:#5e81b5;stroke-width:11.52;stroke-linecap:square;stroke-linejoin:miter;stroke-miterlimit:3.25;stroke-dasharray:none;stroke-opacity:1"
         id="path260" /><path
         d="m 721.641,510.98 8.828,0.899 8.441,0.851 17.11,1.719 34.761,3.442 71.84,6.879 152.259,13.75 9.18,0.781 9.22,0.82 18.56,1.598 37.34,3.203 75.7,6.406 131.14,10.973 21.99,1.84 9.57,0.82 9.53,0.777 19.1,1.602 37.97,3.211 75,6.398 144.65,12.821 8.59,0.82 8.52,0.781 16.99,1.559 33.48,3.121 65.15,6.289 122.97,12.582 1.13,0.117"
         style="fill:none;stroke:#5e81b5;stroke-width:11.52;stroke-linecap:square;stroke-linejoin:miter;stroke-miterlimit:3.25;stroke-dasharray:none;stroke-opacity:1"
         id="path262" /><path
         d="m 1886.09,616.68 12.7,1.371 28.75,3.16 55.98,6.289 107.07,12.539 7.11,0.859 7.03,0.864 14.1,1.718 28.01,3.399 55.7,6.832 6.95,0.82 6.96,0.86 5.54,0.699"
         style="fill:none;stroke:#5e81b5;stroke-width:11.52;stroke-linecap:square;stroke-linejoin:miter;stroke-miterlimit:3.25;stroke-dasharray:none;stroke-opacity:1"
         id="path264" /><path
         d="m 139.84,683.75 6.488,0.629 9.141,0.851 9.332,0.86 19.219,1.68 9.89,0.859 10.11,0.859 20.902,1.723 45.078,3.398 11.25,0.782 11.559,0.82 24.101,1.559 12.621,0.82 13.008,0.789 27.301,1.601 14.379,0.782 14.883,0.777 31.449,1.602 70.66,3.199 19.57,0.781 20.43,0.789 43.559,1.602 23.242,0.777 24.328,0.82 52.039,1.602 h 0.351"
         style="fill:none;stroke:#5e81b5;stroke-width:11.52;stroke-linecap:square;stroke-linejoin:miter;stroke-miterlimit:3.25;stroke-dasharray:none;stroke-opacity:1"
         id="path266" /><path
         d="m 1934.22,743.551 43.83,1.961 18.08,0.859 17.27,0.859 32.26,1.719 15.16,0.852 14.49,0.859 27.35,1.719 12.89,0.859 12.38,0.903 23.48,1.718 42.38,3.442 9.76,0.859 9.46,0.86 18.12,1.71 33.32,3.481 7.82,0.859 7.57,0.86 14.69,1.718 27.42,3.442 6.49,0.859 6.36,0.852 12.39,1.719 23.36,3.48 5.58,0.859 5.51,0.86 10.74,1.722 20.47,3.438 4.92,0.851 4.85,0.86 9.53,1.719 4.69,0.863 4.61,0.898 9.02,1.719 4.45,0.859 1.68,0.313"
         style="fill:none;stroke:#5e81b5;stroke-width:11.52;stroke-linecap:square;stroke-linejoin:miter;stroke-miterlimit:3.25;stroke-dasharray:none;stroke-opacity:1"
         id="path268" /><path
         d="m 135.352,796.602 3.007,0.628 4.262,0.86 4.18,0.859 8.238,1.711 3.981,0.86 3.949,0.859 7.769,1.68 15.082,3.402 28.668,6.758 52.352,13.551 3.082,0.82 3.09,0.859 6.09,1.68 11.949,3.402 23.168,6.758 14.332,4.332"
         style="fill:none;stroke:#5e81b5;stroke-width:11.52;stroke-linecap:square;stroke-linejoin:miter;stroke-miterlimit:3.25;stroke-dasharray:none;stroke-opacity:1"
         id="path270" /><path
         d="m 333.91,847.27 28.86,9.14 4.851,1.602 9.609,3.117 18.821,6.332 36.14,12.617 67.649,25.274 131.879,54.769 80.121,36.399"
         style="fill:none;stroke:#5e81b5;stroke-width:11.52;stroke-linecap:square;stroke-linejoin:miter;stroke-miterlimit:3.25;stroke-dasharray:none;stroke-opacity:1"
         id="path272" /><path
         d="m 715.391,998.16 140.39,68.52 105.239,54.41 94.96,50.75 100.74,55.04 92.89,51.36 46.41,25.74 44.25,24.61 98.79,54.65 93.36,50.98 103.44,55.27 105.16,54.26 102.89,50.59 32.73,15.5"
         style="fill:none;stroke:#5e81b5;stroke-width:11.52;stroke-linecap:square;stroke-linejoin:miter;stroke-miterlimit:3.25;stroke-dasharray:none;stroke-opacity:1"
         id="path274" /><path
         d="m 1880.16,1611.48 206.36,88.95 2,0.78 2.03,0.82 4.02,1.56 8.13,3.13 16.52,6.29 34.02,12.54 4.38,1.56 4.37,1.6 8.87,3.13 18.01,6.28 37.5,12.54 2.65,0.86 2.62,0.86 5.31,1.68 10.75,3.4 10.39,3.24"
         style="fill:none;stroke:#5e81b5;stroke-width:11.52;stroke-linecap:square;stroke-linejoin:miter;stroke-miterlimit:3.25;stroke-dasharray:none;stroke-opacity:1"
         id="path276" /><path
         d="m 2263.48,1762.38 53.2,15.51 6.17,1.72 6.25,1.72 12.74,3.4 26.56,6.79 3.4,0.86 3.47,0.86 7,1.68 14.33,3.44 30.24,6.8 3.67,0.78 3.71,0.82 7.54,1.56 3.83,0.82 3.86,0.78 3.91,0.78 3.28,0.67"
         style="fill:none;stroke:#5e81b5;stroke-width:11.52;stroke-linecap:square;stroke-linejoin:miter;stroke-miterlimit:3.25;stroke-dasharray:none;stroke-opacity:1"
         id="path278" /><path
         d="m 135.391,1813.05 4.41,0.86 8.289,1.56 4.211,0.82 8.597,1.56 4.372,0.82 4.421,0.78 9.02,1.6 18.789,3.17 41.129,6.37 5.551,0.78 5.621,0.78 11.527,1.6 24.492,3.16 6.41,0.82 6.559,0.79 13.551,1.6 29.07,3.16 7.692,0.78 7.886,0.82 16.453,1.57 8.547,0.82 8.832,0.78 18.36,1.6 9.609,0.78 9.883,0.78 20.777,1.6 45.981,3.21 13.59,0.86 14.218,0.85 30.16,1.72 16.09,0.86 16.84,0.86 36.051,1.72 19.301,0.86 20.269,0.86 2.582,0.12"
         style="fill:none;stroke:#5e81b5;stroke-width:11.52;stroke-linecap:square;stroke-linejoin:miter;stroke-miterlimit:3.25;stroke-dasharray:none;stroke-opacity:1"
         id="path280" /><path
         d="m 1907.3,1894.3 15.2,0.47 28.05,0.85 52.18,1.72 24.26,0.86 23.17,0.86 43.16,1.72 20.2,0.86 19.29,0.86 36.17,1.72 17.04,0.86 16.36,0.86 30.86,1.72 55.63,3.43 11.95,0.82 11.64,0.82 22.34,1.61 41.49,3.2 9.76,0.82 9.57,0.78 18.6,1.6 9.06,0.82 8.87,0.82 8.71,0.78 8.59,0.82 2.7,0.24"
         style="fill:none;stroke:#5e81b5;stroke-width:11.52;stroke-linecap:square;stroke-linejoin:miter;stroke-miterlimit:3.25;stroke-dasharray:none;stroke-opacity:1"
         id="path282" /><path
         d="m 721.371,1992.97 210,20.94 9.141,0.82 18.468,1.72 37.391,3.43 76.749,6.84 159.65,13.67 62.85,5.31 261.53,22.07 9.18,0.78 9.18,0.83 18.2,1.56 36.09,3.2 70.51,6.41 133.36,12.77 15.94,1.56 15.74,1.6 5,0.51"
         style="fill:none;stroke:#5e81b5;stroke-width:11.52;stroke-linecap:square;stroke-linejoin:miter;stroke-miterlimit:3.25;stroke-dasharray:none;stroke-opacity:1"
         id="path284" /><path
         d="m 1886.41,2098.67 69.84,7.38 112.15,12.78 7.26,0.86 7.19,0.9 14.26,1.71 28.09,3.44 54.25,6.96 13.21,1.71 13.04,1.72 25.75,3.48 49.92,6.91 6.13,0.86 18.16,2.58 23.83,3.48 5.9,0.86 5.86,0.86 11.68,1.75 23.05,3.44 5.74,0.86 5.66,0.86 11.33,1.76 5.63,0.86 16.75,2.58 5.55,0.85 5.51,0.9 5.51,0.86 5.46,0.86 5.51,0.86 5.43,0.86 1.53,0.24"
         style="fill:none;stroke:#5e81b5;stroke-width:11.52;stroke-linecap:square;stroke-linejoin:miter;stroke-miterlimit:3.25;stroke-dasharray:none;stroke-opacity:1"
         id="path286" /><path
         d="m 136.41,2174.38 4.25,0.66 5.281,0.86 10.539,1.68 20.899,3.4 41.101,6.79 80.04,13.6 154.25,27.18 256.289,46.33"
         style="fill:none;stroke:#5e81b5;stroke-width:11.52;stroke-linecap:square;stroke-linejoin:miter;stroke-miterlimit:3.25;stroke-dasharray:none;stroke-opacity:1"
         id="path288" /><path
         d="m 718.16,2276.52 323.01,57.7 254.88,44.65 37.9,6.64 284.29,50.31 255.74,46.95"
         style="fill:none;stroke:#5e81b5;stroke-width:11.52;stroke-linecap:square;stroke-linejoin:miter;stroke-miterlimit:3.25;stroke-dasharray:none;stroke-opacity:1"
         id="path290" /><path
         d="m 1882.77,2484.41 294.61,56.92 4.5,0.9 4.45,0.89 8.98,1.76 17.89,3.56 35.67,7.11 70.93,14.22 8.83,1.79 8.87,1.76 17.62,3.56 35.27,7.1 4.41,0.9 4.38,0.9 8.83,1.76 17.58,3.55 4.41,0.9 4.38,0.86 8.82,1.8 4.38,0.9 4.41,0.86 4.38,0.89 4.41,0.9"
         style="fill:none;stroke:#5e81b5;stroke-width:11.52;stroke-linecap:square;stroke-linejoin:miter;stroke-miterlimit:3.25;stroke-dasharray:none;stroke-opacity:1"
         id="path292" /><path
         d="m 2235.55,657.73 22.97,2.782 57.3,6.828 7.3,0.82 7.39,0.86 14.88,1.718 30.47,3.403 7.77,0.859 7.89,0.859 16.02,1.719 8.12,0.82 8.25,0.864 16.79,1.718 8.6,0.86 3,0.269"
         style="fill:none;stroke:#5e81b5;stroke-width:11.52;stroke-linecap:square;stroke-linejoin:miter;stroke-miterlimit:3.25;stroke-dasharray:none;stroke-opacity:1"
         id="path294" /><path
         d="m 743.871,715.352 59.328,1.527 139.461,3.16 37.852,0.82 38.938,0.782 80.47,1.597 166.49,3.172 29.57,0.578 12.03,0.242 41.17,0.782 80.35,1.597 148.56,3.161 34.06,0.781 32.73,0.828 61.49,1.601 28.75,0.782 27.54,0.777 51.32,1.602 23.95,0.781 17.58,0.629"
         style="fill:none;stroke:#5e81b5;stroke-width:11.52;stroke-linecap:square;stroke-linejoin:miter;stroke-miterlimit:3.25;stroke-dasharray:none;stroke-opacity:1"
         id="path296" /><path
         d="m 736.48,1867.46 17.231,0.59 53.277,1.72 28.711,0.85 30.16,0.86 64.84,1.72 34.77,0.86 36.331,0.9 77.18,1.72 40.75,0.86 41.95,0.86 87.11,1.72 47.62,0.9 132.73,2.53 44.88,0.86 44.26,0.86 85.82,1.72 41.21,0.86 39.85,0.86 75.35,1.72 35.43,0.86 33.86,0.86 18.36,0.51"
         style="fill:none;stroke:#5e81b5;stroke-width:11.52;stroke-linecap:square;stroke-linejoin:miter;stroke-miterlimit:3.25;stroke-dasharray:none;stroke-opacity:1"
         id="path298" /><path
         d="m 139.691,1925.9 13.2,1.29 7.968,0.82 7.891,0.78 15.43,1.64 7.621,0.78 7.5,0.82 14.801,1.6 28.867,3.21 7.07,0.82 7.031,0.78 13.91,1.64 27.379,3.2 53.481,6.45 4.64,0.54"
         style="fill:none;stroke:#5e81b5;stroke-width:11.52;stroke-linecap:square;stroke-linejoin:miter;stroke-miterlimit:3.25;stroke-dasharray:none;stroke-opacity:1"
         id="path300" /><path
         d="m 370,1951.91 100.039,12.23 13.012,1.6 26.168,3.13 53.242,6.33 111.168,12.61 32.269,3.48"
         style="fill:none;stroke:#5e81b5;stroke-width:11.52;stroke-linecap:square;stroke-linejoin:miter;stroke-miterlimit:3.25;stroke-dasharray:none;stroke-opacity:1"
         id="path302" /><path
         d="m 1908.71,740.859 c 0,2.852 -1.13,5.59 -3.12,7.582 -2.04,2.028 -4.77,3.161 -7.62,3.161 -2.85,0 -5.59,-1.133 -7.62,-3.161 -2.03,-1.992 -3.16,-4.73 -3.16,-7.582 0,-2.89 1.13,-5.629 3.16,-7.621 2.03,-2.027 4.77,-3.16 7.62,-3.16 2.85,0 5.58,1.133 7.62,3.16 1.99,1.992 3.12,4.731 3.12,7.621 z"
         style="fill:#5e81b5;fill-opacity:1;fill-rule:evenodd;stroke:none"
         id="path304" /><path
         d="m 2460.78,2598.2 -1.05,-0.78 -1.1,-0.82 -2.15,-1.56 -4.29,-3.2 -8.56,-6.33 -17.22,-12.7 -34.77,-25.43 -78.91,-55.08 -81.13,-51.4 -90.19,-50.43 -6.57,-3.44 -6.68,-3.4 -13.51,-6.83 -27.93,-13.68 -59.69,-27.34 -1.8,-0.82 -1.83,-0.78 -3.67,-1.6 -7.43,-3.2 -15.03,-6.37 -31.14,-12.78 -66.75,-25.5 -4.77,-1.72 -4.77,-1.76 -9.14,-3.24"
         style="fill:none;stroke:#5e81b5;stroke-width:11.52;stroke-linecap:square;stroke-linejoin:miter;stroke-miterlimit:3.25;stroke-dasharray:none;stroke-opacity:1"
         id="path306" /><path
         d="m 1876.05,2276.37 -56.64,-19.3 -89.02,-27.66 -5.78,-1.71 -5.82,-1.68 -11.76,-3.4 -24.02,-6.8 -50.04,-13.55 -108.44,-27.19 -3.36,-0.78 -3.32,-0.78 -6.72,-1.61 -13.55,-3.16 -27.58,-6.33 -57.03,-12.65 -117.11,-24.46 -4.3,-0.9 -289.76,-54.92 -282.152,-51.29 -1.558,-0.27"
         style="fill:none;stroke:#5e81b5;stroke-width:11.52;stroke-linecap:square;stroke-linejoin:miter;stroke-miterlimit:3.25;stroke-dasharray:none;stroke-opacity:1"
         id="path308" /><path
         d="m 709.141,2016.29 -261.68,-49.18 -4.449,-0.86 -8.953,-1.72 -17.887,-3.4 -35.942,-6.83 -12.609,-2.39"
         style="fill:none;stroke:#5e81b5;stroke-width:11.52;stroke-linecap:square;stroke-linejoin:miter;stroke-miterlimit:3.25;stroke-dasharray:none;stroke-opacity:1"
         id="path310" /><path
         d="m 358.871,1950.27 -56.371,-10.47 -4.691,-0.85 -9.368,-1.68 -19.031,-3.4 -39.101,-6.84 -10.079,-1.72 -10.191,-1.68 -20.898,-3.43 -5.352,-0.82 -5.391,-0.86 -10.898,-1.72 -5.551,-0.86 -5.621,-0.82 -11.406,-1.72 -5.434,-0.78 -2.539,-0.39"
         style="fill:none;stroke:#5e81b5;stroke-width:11.52;stroke-linecap:square;stroke-linejoin:miter;stroke-miterlimit:3.25;stroke-dasharray:none;stroke-opacity:1"
         id="path312" /><path
         d="m 1846.29,1871.02 -93.75,-2.15 -38.71,-0.82 -40.98,-0.78 -88.51,-1.61 -199.3,-3.16 -57.23,-0.86 -31.83,-0.47 -25.75,-0.39 -113.98,-1.72 -55.23,-0.86 -53.48,-0.86 -47.97,-0.82"
         style="fill:none;stroke:#5e81b5;stroke-width:11.52;stroke-linecap:square;stroke-linejoin:miter;stroke-miterlimit:3.25;stroke-dasharray:none;stroke-opacity:1"
         id="path314" /><path
         d="m 2456.09,1807.58 -1.44,-0.24 -4.69,-0.86 -4.65,-0.86 -9.06,-1.67 -17.34,-3.4 -32.07,-6.76 -3.83,-0.86 -3.75,-0.82 -7.42,-1.72 -14.34,-3.36 -27.23,-6.8 -3.24,-0.82 -3.28,-0.86 -6.41,-1.67 -12.54,-3.4 -24.1,-6.76 -44.88,-13.56 -5,-1.56 -4.96,-1.6 -9.77,-3.16 -19.1,-6.29 -36.56,-12.66 -68.01,-25.23 -132.11,-54.81 -80.15,-36.37"
         style="fill:none;stroke:#5e81b5;stroke-width:11.52;stroke-linecap:square;stroke-linejoin:miter;stroke-miterlimit:3.25;stroke-dasharray:none;stroke-opacity:1"
         id="path316" /><path
         d="m 1876.64,1609.84 -140.43,-68.51 -105.23,-54.42 -94.96,-50.74 -100.75,-55.04 -92.89,-51.36 -46.36,-25.79 -44.3,-24.57 -98.79,-54.64 -93.32,-50.98 -103.481,-55.27 -105.149,-54.26 -102.89,-50.59 -32.699,-15.51"
         style="fill:none;stroke:#5e81b5;stroke-width:11.52;stroke-linecap:square;stroke-linejoin:miter;stroke-miterlimit:3.25;stroke-dasharray:none;stroke-opacity:1"
         id="path318" /><path
         d="m 711.84,996.52 -206.57,-88.981 -4.059,-1.559 -4.02,-1.57 -8.211,-3.121 -16.558,-6.289 -34.262,-12.539 -2.18,-0.781 -2.23,-0.821 -4.41,-1.558 -8.91,-3.129 -18.239,-6.293 -38.089,-12.539 -5.391,-1.719 -5.391,-1.672 -11.019,-3.437 -22.692,-6.801 -5.859,-1.723 -5.898,-1.679 -12.032,-3.399 -25.16,-6.832 -3.238,-0.816 -3.242,-0.864 -6.641,-1.718 -13.59,-3.399 -28.719,-6.801 -7.57,-1.71 -7.738,-1.719 -15.973,-3.403 -4.148,-0.859 -4.18,-0.82 -8.551,-1.719 -17.808,-3.398 -4.301,-0.821 -4.371,-0.781 -4.461,-0.781 -0.231,-0.039"
         style="fill:none;stroke:#5e81b5;stroke-width:11.52;stroke-linecap:square;stroke-linejoin:miter;stroke-miterlimit:3.25;stroke-dasharray:none;stroke-opacity:1"
         id="path320" /><path
         d="m 1592.42,751.48 -19.88,-0.351 -52.27,-0.859 -110.11,-1.719 -56.96,-0.852 -57.5,-0.859 -114.25,-1.719 -55.63,-0.859 -53.98,-0.864 -101.531,-1.718 -47.071,-0.86 -44.488,-0.859 -81.172,-1.723 -36.797,-0.859 -15.043,-0.391"
         style="fill:none;stroke:#5e81b5;stroke-width:11.52;stroke-linecap:square;stroke-linejoin:miter;stroke-miterlimit:3.25;stroke-dasharray:none;stroke-opacity:1"
         id="path322" /><path
         d="m 2224.38,656.09 -64.46,-12.262 -8.28,-1.558 -16.52,-3.168 -33.09,-6.293 -66.48,-12.61 -135.04,-25.238 -17.62,-3.242"
         style="fill:none;stroke:#5e81b5;stroke-width:11.52;stroke-linecap:square;stroke-linejoin:miter;stroke-miterlimit:3.25;stroke-dasharray:none;stroke-opacity:1"
         id="path324" /><path
         d="m 1873.91,590.078 -545.43,-100.937 -4.38,-0.86 -13.01,-2.582 -15.07,-3.039 -2.15,-0.43 -33.99,-6.921 -65.82,-13.829 -122.81,-27.691 -3.55,-0.82 -3.6,-0.86 -7.07,-1.718 -14.06,-3.403 -27.58,-6.758 -53.011,-13.589 -97.848,-27.192 -5.39,-1.558 -5.352,-1.602 -10.59,-3.168 -20.82,-6.32 -40.078,-12.699 -66.36,-22.461"
         style="fill:none;stroke:#5e81b5;stroke-width:11.52;stroke-linecap:square;stroke-linejoin:miter;stroke-miterlimit:3.25;stroke-dasharray:none;stroke-opacity:1"
         id="path326" /><path
         d="m 711.289,330 -5.859,-2.109 -7.149,-2.582 -9.453,-3.399 -18.476,-6.871 -35.622,-13.75 -66.21,-27.5 -1.84,-0.777 -1.84,-0.821 -3.629,-1.601 -7.231,-3.211 -14.25,-6.399 -27.621,-12.859 -51.988,-25.66 -91.211,-50.27 -86.762,-54.613 -73.398,-50.9374 -1.211,-0.8593 -1.25,-0.9024 -2.461,-1.7891 -4.918,-3.5585 -9.808,-7.0704 -19.411,-14.2226 -2.421,-1.7891 -2.391,-1.7578 -4.84,-3.5625 -9.609,-7.1094 -2.418,-1.789 -2.391,-1.7617 -4.801,-3.5586 -2.422,-1.7891 -2.378,-1.7617 -1.219,-0.8985 -1.172,-0.9023 -1.207,-0.8594 -1.211,-0.89842"
         style="fill:none;stroke:#5e81b5;stroke-width:11.52;stroke-linecap:square;stroke-linejoin:miter;stroke-miterlimit:3.25;stroke-dasharray:none;stroke-opacity:1"
         id="path328" /><path
         d="m 2455,1910.59 -8.28,-1.18 -5.78,-0.78 -11.8,-1.6 -6.05,-0.78 -6.14,-0.82 -12.57,-1.56 -26.57,-3.21 -6.99,-0.78 -7.11,-0.82 -14.76,-1.56 -31.72,-3.2 -8.48,-0.78 -8.71,-0.79 -18.24,-1.6 -40.2,-3.2 -10.98,-0.78 -11.4,-0.78 -24.18,-1.6 -12.85,-0.79 -13.4,-0.82 -28.75,-1.56 -15.43,-0.82 -16.21,-0.78 -35,-1.6 -18.95,-0.78 -20.04,-0.82 -43.63,-1.57 -23.83,-0.82 -25.27,-0.78 -26.88,-0.78 -6.28,-0.19"
         style="fill:none;stroke:#5e81b5;stroke-width:11.52;stroke-linecap:square;stroke-linejoin:miter;stroke-miterlimit:3.25;stroke-dasharray:none;stroke-opacity:1"
         id="path330" /><path
         d="m 683.09,1849.77 -35.981,-1.06 -27.5,-0.86 -25.699,-0.86 -24.14,-0.86 -22.622,-0.86 -21.207,-0.89 -20,-0.86 -36.64,-1.72 -16.801,-0.86 -15.941,-0.86 -29.45,-1.72 -13.629,-0.86 -13.05,-0.86 -24.301,-1.72 -11.359,-0.86 -10.942,-0.86 -20.547,-1.75 -9.691,-0.86 -9.328,-0.86 -17.742,-1.72 -8.399,-0.86 -8.16,-0.86 -15.582,-1.72 -28.52,-3.44 -6.679,-0.86 -6.52,-0.86 -12.539,-1.75 -6.062,-0.86 -5.899,-0.86 -11.48,-1.72 -5.551,-0.86 -5.43,-0.86 -5.347,-0.86 -5.231,-0.86 -5.121,-0.86 -4.02,-0.7"
         style="fill:none;stroke:#5e81b5;stroke-width:11.52;stroke-linecap:square;stroke-linejoin:miter;stroke-miterlimit:3.25;stroke-dasharray:none;stroke-opacity:1"
         id="path332" /><path
         d="m 2456.02,798.75 -8.79,-1.48 -4.81,-0.79 -4.92,-0.781 -4.96,-0.82 -10.27,-1.559 -21.8,-3.199 -5.7,-0.781 -5.86,-0.789 -12.15,-1.602 -26.14,-3.16 -6.95,-0.82 -7.19,-0.778 -14.96,-1.601 -32.85,-3.168 -8.9,-0.781 -9.22,-0.821 -19.5,-1.558 -10.31,-0.821 -10.74,-0.781 -22.85,-1.609 -12.15,-0.781 -12.73,-0.782 -27.31,-1.597 -14.65,-0.782 -15.43,-0.82 -33.32,-1.559 -18.08,-0.82 -19.07,-0.789 -20.23,-0.781 -21.45,-0.82 -22.73,-0.782 -24.14,-0.777 -53.05,-1.602 -3.9,-0.121"
         style="fill:none;stroke:#5e81b5;stroke-width:11.52;stroke-linecap:square;stroke-linejoin:miter;stroke-miterlimit:3.25;stroke-dasharray:none;stroke-opacity:1"
         id="path334" /><path
         d="m 683.48,735.352 -19.46,-0.582 -28.2,-0.86 -26.41,-0.859 -48,-1.723 -21.84,-0.859 -20.59,-0.86 -37.769,-1.718 -17.383,-0.86 -16.488,-0.859 -30.578,-1.723 -14.223,-0.859 -13.59,-0.86 -25.429,-1.71 -11.961,-0.86 -11.481,-0.859 -21.68,-1.762 -10.277,-0.859 -9.961,-0.86 -18.941,-1.718 -34.688,-3.442 -8.082,-0.859 -7.929,-0.852 -15.239,-1.719 -28.633,-3.441 -6.796,-0.859 -6.68,-0.86 -13.051,-1.718 -6.359,-0.903 -6.25,-0.859 -6.172,-0.86 -2.309,-0.308"
         style="fill:none;stroke:#5e81b5;stroke-width:11.52;stroke-linecap:square;stroke-linejoin:miter;stroke-miterlimit:3.25;stroke-dasharray:none;stroke-opacity:1"
         id="path336" /><path
         d="m 2455.04,695.781 -8.83,-1.293 -5.39,-0.816 -5.35,-0.82 -5.31,-0.782 -10.43,-1.601 -5.12,-0.821 -5.08,-0.82 -10.08,-1.598 -19.61,-3.21 -4.8,-0.821 -4.81,-0.777 -9.49,-1.602 -18.63,-3.242 -36.21,-6.406 -8.91,-1.641 -8.83,-1.601 -17.5,-3.2 -34.53,-6.449 -2.97,-0.551"
         style="fill:none;stroke:#5e81b5;stroke-width:11.52;stroke-linecap:square;stroke-linejoin:miter;stroke-miterlimit:3.25;stroke-dasharray:none;stroke-opacity:1"
         id="path338" /><path
         d="m 907.852,1854.88 -6.832,-0.15 -43.719,-0.86 -41.09,-0.86 -38.512,-0.86 -31.527,-0.74"
         style="fill:none;stroke:#5e81b5;stroke-width:11.52;stroke-linecap:square;stroke-linejoin:miter;stroke-miterlimit:3.25;stroke-dasharray:none;stroke-opacity:1"
         id="path340" /><path
         d="m 1845.82,756.602 -61.05,-1.403 -37.23,-0.82 -39.42,-0.789 -23.98,-0.469"
         style="fill:none;stroke:#5e81b5;stroke-width:11.52;stroke-linecap:square;stroke-linejoin:miter;stroke-miterlimit:3.25;stroke-dasharray:none;stroke-opacity:1"
         id="path342" /><path
         d="m 35.4297,1303.98 v 17.39"
         style="fill:none;stroke:#000000;stroke-width:3.6;stroke-linecap:butt;stroke-linejoin:miter;stroke-miterlimit:3.25;stroke-dasharray:none;stroke-opacity:1"
         id="path344" /><path
         d="m 109.57,1303.98 v 17.39"
         style="fill:none;stroke:#000000;stroke-width:3.6;stroke-linecap:butt;stroke-linejoin:miter;stroke-miterlimit:3.25;stroke-dasharray:none;stroke-opacity:1"
         id="path346" /><path
         d="m 183.711,1303.98 v 28.95"
         style="fill:none;stroke:#000000;stroke-width:3.6;stroke-linecap:butt;stroke-linejoin:miter;stroke-miterlimit:3.25;stroke-dasharray:none;stroke-opacity:1"
         id="path348" /><g
         id="g350"
         transform="scale(10)"><text
           transform="matrix(1,0,0,-1,14.8172,122.068)"
           style="font-variant:normal;font-size:6.47949px;font-family:f-0;-inkscape-font-specification:f-0-0;writing-mode:lr-tb;fill:#000000;fill-opacity:1;fill-rule:nonzero;stroke:none"
           id="text354"><tspan
             x="0"
             y="0"
             id="tspan352">-</tspan></text><text
           transform="matrix(1,0,0,-1,18.31603,122.068)"
           style="font-variant:normal;font-size:6.47949px;font-family:f-1;-inkscape-font-specification:f-1-0;writing-mode:lr-tb;fill:#000000;fill-opacity:1;fill-rule:nonzero;stroke:none"
           id="text358"><tspan
             x="0"
             y="0"
             id="tspan356">3</tspan></text></g><path
         d="m 257.852,1303.98 v 17.39"
         style="fill:none;stroke:#000000;stroke-width:3.6;stroke-linecap:butt;stroke-linejoin:miter;stroke-miterlimit:3.25;stroke-dasharray:none;stroke-opacity:1"
         id="path360" /><path
         d="m 332.031,1303.98 v 17.39"
         style="fill:none;stroke:#000000;stroke-width:3.6;stroke-linecap:butt;stroke-linejoin:miter;stroke-miterlimit:3.25;stroke-dasharray:none;stroke-opacity:1"
         id="path362" /><path
         d="m 406.172,1303.98 v 17.39"
         style="fill:none;stroke:#000000;stroke-width:3.6;stroke-linecap:butt;stroke-linejoin:miter;stroke-miterlimit:3.25;stroke-dasharray:none;stroke-opacity:1"
         id="path364" /><path
         d="m 480.309,1303.98 v 17.39"
         style="fill:none;stroke:#000000;stroke-width:3.6;stroke-linecap:butt;stroke-linejoin:miter;stroke-miterlimit:3.25;stroke-dasharray:none;stroke-opacity:1"
         id="path366" /><path
         d="m 554.488,1303.98 v 28.95"
         style="fill:none;stroke:#000000;stroke-width:3.6;stroke-linecap:butt;stroke-linejoin:miter;stroke-miterlimit:3.25;stroke-dasharray:none;stroke-opacity:1"
         id="path368" /><g
         id="g370"
         transform="scale(10)"><text
           transform="matrix(1,0,0,-1,51.893,122.068)"
           style="font-variant:normal;font-size:6.47949px;font-family:f-0;-inkscape-font-specification:f-0-0;writing-mode:lr-tb;fill:#000000;fill-opacity:1;fill-rule:nonzero;stroke:none"
           id="text374"><tspan
             x="0"
             y="0"
             id="tspan372">-</tspan></text><text
           transform="matrix(1,0,0,-1,55.39183,122.068)"
           style="font-variant:normal;font-size:6.47949px;font-family:f-1;-inkscape-font-specification:f-1-0;writing-mode:lr-tb;fill:#000000;fill-opacity:1;fill-rule:nonzero;stroke:none"
           id="text378"><tspan
             x="0"
             y="0"
             id="tspan376">2</tspan></text></g><path
         d="m 628.629,1303.98 v 17.39"
         style="fill:none;stroke:#000000;stroke-width:3.6;stroke-linecap:butt;stroke-linejoin:miter;stroke-miterlimit:3.25;stroke-dasharray:none;stroke-opacity:1"
         id="path380" /><path
         d="m 702.77,1303.98 v 17.39"
         style="fill:none;stroke:#000000;stroke-width:3.6;stroke-linecap:butt;stroke-linejoin:miter;stroke-miterlimit:3.25;stroke-dasharray:none;stroke-opacity:1"
         id="path382" /><path
         d="m 776.949,1303.98 v 17.39"
         style="fill:none;stroke:#000000;stroke-width:3.6;stroke-linecap:butt;stroke-linejoin:miter;stroke-miterlimit:3.25;stroke-dasharray:none;stroke-opacity:1"
         id="path384" /><path
         d="m 851.09,1303.98 v 17.39"
         style="fill:none;stroke:#000000;stroke-width:3.6;stroke-linecap:butt;stroke-linejoin:miter;stroke-miterlimit:3.25;stroke-dasharray:none;stroke-opacity:1"
         id="path386" /><path
         d="m 925.23,1303.98 v 28.95"
         style="fill:none;stroke:#000000;stroke-width:3.6;stroke-linecap:butt;stroke-linejoin:miter;stroke-miterlimit:3.25;stroke-dasharray:none;stroke-opacity:1"
         id="path388" /><g
         id="g390"
         transform="scale(10)"><text
           transform="matrix(1,0,0,-1,88.9691,122.068)"
           style="font-variant:normal;font-size:6.47949px;font-family:f-0;-inkscape-font-specification:f-0-0;writing-mode:lr-tb;fill:#000000;fill-opacity:1;fill-rule:nonzero;stroke:none"
           id="text394"><tspan
             x="0"
             y="0"
             id="tspan392">-</tspan></text><text
           transform="matrix(1,0,0,-1,92.46793,122.068)"
           style="font-variant:normal;font-size:6.47949px;font-family:f-1;-inkscape-font-specification:f-1-0;writing-mode:lr-tb;fill:#000000;fill-opacity:1;fill-rule:nonzero;stroke:none"
           id="text398"><tspan
             x="0"
             y="0"
             id="tspan396">1</tspan></text></g><path
         d="m 999.379,1303.98 v 17.39"
         style="fill:none;stroke:#000000;stroke-width:3.6;stroke-linecap:butt;stroke-linejoin:miter;stroke-miterlimit:3.25;stroke-dasharray:none;stroke-opacity:1"
         id="path400" /><path
         d="m 1073.55,1303.98 v 17.39"
         style="fill:none;stroke:#000000;stroke-width:3.6;stroke-linecap:butt;stroke-linejoin:miter;stroke-miterlimit:3.25;stroke-dasharray:none;stroke-opacity:1"
         id="path402" /><path
         d="m 1147.7,1303.98 v 17.39"
         style="fill:none;stroke:#000000;stroke-width:3.6;stroke-linecap:butt;stroke-linejoin:miter;stroke-miterlimit:3.25;stroke-dasharray:none;stroke-opacity:1"
         id="path404" /><path
         d="m 1221.84,1303.98 v 17.39"
         style="fill:none;stroke:#000000;stroke-width:3.6;stroke-linecap:butt;stroke-linejoin:miter;stroke-miterlimit:3.25;stroke-dasharray:none;stroke-opacity:1"
         id="path406" /><path
         d="m 1296.02,1303.98 v 28.95"
         style="fill:none;stroke:#000000;stroke-width:3.6;stroke-linecap:butt;stroke-linejoin:miter;stroke-miterlimit:3.25;stroke-dasharray:none;stroke-opacity:1"
         id="path408" /><path
         d="m 1370.16,1303.98 v 17.39"
         style="fill:none;stroke:#000000;stroke-width:3.6;stroke-linecap:butt;stroke-linejoin:miter;stroke-miterlimit:3.25;stroke-dasharray:none;stroke-opacity:1"
         id="path410" /><path
         d="m 1444.3,1303.98 v 17.39"
         style="fill:none;stroke:#000000;stroke-width:3.6;stroke-linecap:butt;stroke-linejoin:miter;stroke-miterlimit:3.25;stroke-dasharray:none;stroke-opacity:1"
         id="path412" /><path
         d="m 1518.44,1303.98 v 17.39"
         style="fill:none;stroke:#000000;stroke-width:3.6;stroke-linecap:butt;stroke-linejoin:miter;stroke-miterlimit:3.25;stroke-dasharray:none;stroke-opacity:1"
         id="path414" /><path
         d="m 1592.62,1303.98 v 17.39"
         style="fill:none;stroke:#000000;stroke-width:3.6;stroke-linecap:butt;stroke-linejoin:miter;stroke-miterlimit:3.25;stroke-dasharray:none;stroke-opacity:1"
         id="path416" /><path
         d="m 1666.76,1303.98 v 28.95"
         style="fill:none;stroke:#000000;stroke-width:3.6;stroke-linecap:butt;stroke-linejoin:miter;stroke-miterlimit:3.25;stroke-dasharray:none;stroke-opacity:1"
         id="path418" /><g
         id="g420"
         transform="scale(10)"><text
           transform="matrix(1,0,0,-1,164.873,122.068)"
           style="font-variant:normal;font-size:6.47949px;font-family:f-1;-inkscape-font-specification:f-1-0;writing-mode:lr-tb;fill:#000000;fill-opacity:1;fill-rule:nonzero;stroke:none"
           id="text424"><tspan
             x="0"
             y="0"
             id="tspan422">1</tspan></text></g><path
         d="m 1740.9,1303.98 v 17.39"
         style="fill:none;stroke:#000000;stroke-width:3.6;stroke-linecap:butt;stroke-linejoin:miter;stroke-miterlimit:3.25;stroke-dasharray:none;stroke-opacity:1"
         id="path426" /><path
         d="m 1815.08,1303.98 v 17.39"
         style="fill:none;stroke:#000000;stroke-width:3.6;stroke-linecap:butt;stroke-linejoin:miter;stroke-miterlimit:3.25;stroke-dasharray:none;stroke-opacity:1"
         id="path428" /><path
         d="m 1889.22,1303.98 v 17.39"
         style="fill:none;stroke:#000000;stroke-width:3.6;stroke-linecap:butt;stroke-linejoin:miter;stroke-miterlimit:3.25;stroke-dasharray:none;stroke-opacity:1"
         id="path430" /><path
         d="m 1963.36,1303.98 v 17.39"
         style="fill:none;stroke:#000000;stroke-width:3.6;stroke-linecap:butt;stroke-linejoin:miter;stroke-miterlimit:3.25;stroke-dasharray:none;stroke-opacity:1"
         id="path432" /><path
         d="m 2037.54,1303.98 v 28.95"
         style="fill:none;stroke:#000000;stroke-width:3.6;stroke-linecap:butt;stroke-linejoin:miter;stroke-miterlimit:3.25;stroke-dasharray:none;stroke-opacity:1"
         id="path434" /><g
         id="g436"
         transform="scale(10)"><text
           transform="matrix(1,0,0,-1,201.95,122.068)"
           style="font-variant:normal;font-size:6.47949px;font-family:f-1;-inkscape-font-specification:f-1-0;writing-mode:lr-tb;fill:#000000;fill-opacity:1;fill-rule:nonzero;stroke:none"
           id="text440"><tspan
             x="0"
             y="0"
             id="tspan438">2</tspan></text></g><path
         d="m 2111.68,1303.98 v 17.39"
         style="fill:none;stroke:#000000;stroke-width:3.6;stroke-linecap:butt;stroke-linejoin:miter;stroke-miterlimit:3.25;stroke-dasharray:none;stroke-opacity:1"
         id="path442" /><path
         d="m 2185.82,1303.98 v 17.39"
         style="fill:none;stroke:#000000;stroke-width:3.6;stroke-linecap:butt;stroke-linejoin:miter;stroke-miterlimit:3.25;stroke-dasharray:none;stroke-opacity:1"
         id="path444" /><path
         d="m 2259.96,1303.98 v 17.39"
         style="fill:none;stroke:#000000;stroke-width:3.6;stroke-linecap:butt;stroke-linejoin:miter;stroke-miterlimit:3.25;stroke-dasharray:none;stroke-opacity:1"
         id="path446" /><path
         d="m 2334.14,1303.98 v 17.39"
         style="fill:none;stroke:#000000;stroke-width:3.6;stroke-linecap:butt;stroke-linejoin:miter;stroke-miterlimit:3.25;stroke-dasharray:none;stroke-opacity:1"
         id="path448" /><path
         d="m 2408.28,1303.98 v 28.95"
         style="fill:none;stroke:#000000;stroke-width:3.6;stroke-linecap:butt;stroke-linejoin:miter;stroke-miterlimit:3.25;stroke-dasharray:none;stroke-opacity:1"
         id="path450" /><g
         id="g452"
         transform="scale(10)"><text
           transform="matrix(1,0,0,-1,239.025,122.068)"
           style="font-variant:normal;font-size:6.47949px;font-family:f-1;-inkscape-font-specification:f-1-0;writing-mode:lr-tb;fill:#000000;fill-opacity:1;fill-rule:nonzero;stroke:none"
           id="text456"><tspan
             x="0"
             y="0"
             id="tspan454">3</tspan></text></g><path
         d="m 2482.42,1303.98 v 17.39"
         style="fill:none;stroke:#000000;stroke-width:3.6;stroke-linecap:butt;stroke-linejoin:miter;stroke-miterlimit:3.25;stroke-dasharray:none;stroke-opacity:1"
         id="path458" /><path
         d="m 2556.6,1303.98 v 17.39"
         style="fill:none;stroke:#000000;stroke-width:3.6;stroke-linecap:butt;stroke-linejoin:miter;stroke-miterlimit:3.25;stroke-dasharray:none;stroke-opacity:1"
         id="path460" /><path
         d="M 1.80078,1303.98 H 2590.2"
         style="fill:none;stroke:#000000;stroke-width:3.6;stroke-linecap:butt;stroke-linejoin:miter;stroke-miterlimit:3.25;stroke-dasharray:none;stroke-opacity:1"
         id="path462" /><path
         d="m 1296.02,68.1211 h 28.9"
         style="fill:none;stroke:#000000;stroke-width:3.6;stroke-linecap:butt;stroke-linejoin:miter;stroke-miterlimit:3.25;stroke-dasharray:none;stroke-opacity:1"
         id="path464" /><g
         id="g466"
         transform="scale(10)"><text
           transform="matrix(1,0,0,-1,120.33,4.64883)"
           style="font-variant:normal;font-size:6.47949px;font-family:f-0;-inkscape-font-specification:f-0-0;writing-mode:lr-tb;fill:#000000;fill-opacity:1;fill-rule:nonzero;stroke:none"
           id="text470"><tspan
             x="0"
             y="0"
             id="tspan468">-</tspan></text><text
           transform="matrix(1,0,0,-1,123.82883,4.64883)"
           style="font-variant:normal;font-size:6.47949px;font-family:f-1;-inkscape-font-specification:f-1-0;writing-mode:lr-tb;fill:#000000;fill-opacity:1;fill-rule:nonzero;stroke:none"
           id="text474"><tspan
             x="0"
             y="0"
             id="tspan472">3</tspan></text></g><path
         d="m 1296.02,150.512 h 17.34"
         style="fill:none;stroke:#000000;stroke-width:3.6;stroke-linecap:butt;stroke-linejoin:miter;stroke-miterlimit:3.25;stroke-dasharray:none;stroke-opacity:1"
         id="path476" /><path
         d="m 1296.02,232.93 h 17.34"
         style="fill:none;stroke:#000000;stroke-width:3.6;stroke-linecap:butt;stroke-linejoin:miter;stroke-miterlimit:3.25;stroke-dasharray:none;stroke-opacity:1"
         id="path478" /><path
         d="m 1296.02,315.309 h 17.34"
         style="fill:none;stroke:#000000;stroke-width:3.6;stroke-linecap:butt;stroke-linejoin:miter;stroke-miterlimit:3.25;stroke-dasharray:none;stroke-opacity:1"
         id="path480" /><path
         d="m 1296.02,397.699 h 17.34"
         style="fill:none;stroke:#000000;stroke-width:3.6;stroke-linecap:butt;stroke-linejoin:miter;stroke-miterlimit:3.25;stroke-dasharray:none;stroke-opacity:1"
         id="path482" /><path
         d="m 1296.02,480.078 h 28.9"
         style="fill:none;stroke:#000000;stroke-width:3.6;stroke-linecap:butt;stroke-linejoin:miter;stroke-miterlimit:3.25;stroke-dasharray:none;stroke-opacity:1"
         id="path484" /><g
         id="g486"
         transform="scale(10)"><text
           transform="matrix(1,0,0,-1,120.33,45.8445)"
           style="font-variant:normal;font-size:6.47949px;font-family:f-0;-inkscape-font-specification:f-0-0;writing-mode:lr-tb;fill:#000000;fill-opacity:1;fill-rule:nonzero;stroke:none"
           id="text490"><tspan
             x="0"
             y="0"
             id="tspan488">-</tspan></text><text
           transform="matrix(1,0,0,-1,123.82883,45.8445)"
           style="font-variant:normal;font-size:6.47949px;font-family:f-1;-inkscape-font-specification:f-1-0;writing-mode:lr-tb;fill:#000000;fill-opacity:1;fill-rule:nonzero;stroke:none"
           id="text494"><tspan
             x="0"
             y="0"
             id="tspan492">2</tspan></text></g><path
         d="m 1296.02,562.461 h 17.34"
         style="fill:none;stroke:#000000;stroke-width:3.6;stroke-linecap:butt;stroke-linejoin:miter;stroke-miterlimit:3.25;stroke-dasharray:none;stroke-opacity:1"
         id="path496" /><path
         d="m 1296.02,644.879 h 17.34"
         style="fill:none;stroke:#000000;stroke-width:3.6;stroke-linecap:butt;stroke-linejoin:miter;stroke-miterlimit:3.25;stroke-dasharray:none;stroke-opacity:1"
         id="path498" /><path
         d="m 1296.02,727.27 h 17.34"
         style="fill:none;stroke:#000000;stroke-width:3.6;stroke-linecap:butt;stroke-linejoin:miter;stroke-miterlimit:3.25;stroke-dasharray:none;stroke-opacity:1"
         id="path500" /><path
         d="m 1296.02,809.648 h 17.34"
         style="fill:none;stroke:#000000;stroke-width:3.6;stroke-linecap:butt;stroke-linejoin:miter;stroke-miterlimit:3.25;stroke-dasharray:none;stroke-opacity:1"
         id="path502" /><path
         d="m 1296.02,892.031 h 28.9"
         style="fill:none;stroke:#000000;stroke-width:3.6;stroke-linecap:butt;stroke-linejoin:miter;stroke-miterlimit:3.25;stroke-dasharray:none;stroke-opacity:1"
         id="path504" /><g
         id="g506"
         transform="scale(10)"><text
           transform="matrix(1,0,0,-1,120.33,87.0402)"
           style="font-variant:normal;font-size:6.47949px;font-family:f-0;-inkscape-font-specification:f-0-0;writing-mode:lr-tb;fill:#000000;fill-opacity:1;fill-rule:nonzero;stroke:none"
           id="text510"><tspan
             x="0"
             y="0"
             id="tspan508">-</tspan></text><text
           transform="matrix(1,0,0,-1,123.82883,87.0402)"
           style="font-variant:normal;font-size:6.47949px;font-family:f-1;-inkscape-font-specification:f-1-0;writing-mode:lr-tb;fill:#000000;fill-opacity:1;fill-rule:nonzero;stroke:none"
           id="text514"><tspan
             x="0"
             y="0"
             id="tspan512">1</tspan></text></g><path
         d="m 1296.02,974.449 h 17.34"
         style="fill:none;stroke:#000000;stroke-width:3.6;stroke-linecap:butt;stroke-linejoin:miter;stroke-miterlimit:3.25;stroke-dasharray:none;stroke-opacity:1"
         id="path516" /><path
         d="m 1296.02,1056.84 h 17.34"
         style="fill:none;stroke:#000000;stroke-width:3.6;stroke-linecap:butt;stroke-linejoin:miter;stroke-miterlimit:3.25;stroke-dasharray:none;stroke-opacity:1"
         id="path518" /><path
         d="m 1296.02,1139.22 h 17.34"
         style="fill:none;stroke:#000000;stroke-width:3.6;stroke-linecap:butt;stroke-linejoin:miter;stroke-miterlimit:3.25;stroke-dasharray:none;stroke-opacity:1"
         id="path520" /><path
         d="m 1296.02,1221.6 h 17.34"
         style="fill:none;stroke:#000000;stroke-width:3.6;stroke-linecap:butt;stroke-linejoin:miter;stroke-miterlimit:3.25;stroke-dasharray:none;stroke-opacity:1"
         id="path522" /><path
         d="m 1296.02,1303.98 h 28.9"
         style="fill:none;stroke:#000000;stroke-width:3.6;stroke-linecap:butt;stroke-linejoin:miter;stroke-miterlimit:3.25;stroke-dasharray:none;stroke-opacity:1"
         id="path524" /><path
         d="m 1296.02,1386.41 h 17.34"
         style="fill:none;stroke:#000000;stroke-width:3.6;stroke-linecap:butt;stroke-linejoin:miter;stroke-miterlimit:3.25;stroke-dasharray:none;stroke-opacity:1"
         id="path526" /><path
         d="m 1296.02,1468.79 h 17.34"
         style="fill:none;stroke:#000000;stroke-width:3.6;stroke-linecap:butt;stroke-linejoin:miter;stroke-miterlimit:3.25;stroke-dasharray:none;stroke-opacity:1"
         id="path528" /><path
         d="m 1296.02,1551.17 h 17.34"
         style="fill:none;stroke:#000000;stroke-width:3.6;stroke-linecap:butt;stroke-linejoin:miter;stroke-miterlimit:3.25;stroke-dasharray:none;stroke-opacity:1"
         id="path530" /><path
         d="m 1296.02,1633.55 h 17.34"
         style="fill:none;stroke:#000000;stroke-width:3.6;stroke-linecap:butt;stroke-linejoin:miter;stroke-miterlimit:3.25;stroke-dasharray:none;stroke-opacity:1"
         id="path532" /><path
         d="m 1296.02,1715.94 h 28.9"
         style="fill:none;stroke:#000000;stroke-width:3.6;stroke-linecap:butt;stroke-linejoin:miter;stroke-miterlimit:3.25;stroke-dasharray:none;stroke-opacity:1"
         id="path534" /><g
         id="g536"
         transform="scale(10)"><text
           transform="matrix(1,0,0,-1,123.834,169.432)"
           style="font-variant:normal;font-size:6.47949px;font-family:f-1;-inkscape-font-specification:f-1-0;writing-mode:lr-tb;fill:#000000;fill-opacity:1;fill-rule:nonzero;stroke:none"
           id="text540"><tspan
             x="0"
             y="0"
             id="tspan538">1</tspan></text></g><path
         d="m 1296.02,1798.36 h 17.34"
         style="fill:none;stroke:#000000;stroke-width:3.6;stroke-linecap:butt;stroke-linejoin:miter;stroke-miterlimit:3.25;stroke-dasharray:none;stroke-opacity:1"
         id="path542" /><path
         d="m 1296.02,1880.74 h 17.34"
         style="fill:none;stroke:#000000;stroke-width:3.6;stroke-linecap:butt;stroke-linejoin:miter;stroke-miterlimit:3.25;stroke-dasharray:none;stroke-opacity:1"
         id="path544" /><path
         d="m 1296.02,1963.12 h 17.34"
         style="fill:none;stroke:#000000;stroke-width:3.6;stroke-linecap:butt;stroke-linejoin:miter;stroke-miterlimit:3.25;stroke-dasharray:none;stroke-opacity:1"
         id="path546" /><path
         d="m 1296.02,2045.51 h 17.34"
         style="fill:none;stroke:#000000;stroke-width:3.6;stroke-linecap:butt;stroke-linejoin:miter;stroke-miterlimit:3.25;stroke-dasharray:none;stroke-opacity:1"
         id="path548" /><path
         d="m 1296.02,2127.93 h 28.9"
         style="fill:none;stroke:#000000;stroke-width:3.6;stroke-linecap:butt;stroke-linejoin:miter;stroke-miterlimit:3.25;stroke-dasharray:none;stroke-opacity:1"
         id="path550" /><g
         id="g552"
         transform="scale(10)"><text
           transform="matrix(1,0,0,-1,123.834,210.627)"
           style="font-variant:normal;font-size:6.47949px;font-family:f-1;-inkscape-font-specification:f-1-0;writing-mode:lr-tb;fill:#000000;fill-opacity:1;fill-rule:nonzero;stroke:none"
           id="text556"><tspan
             x="0"
             y="0"
             id="tspan554">2</tspan></text></g><path
         d="m 1296.02,2210.31 h 17.34"
         style="fill:none;stroke:#000000;stroke-width:3.6;stroke-linecap:butt;stroke-linejoin:miter;stroke-miterlimit:3.25;stroke-dasharray:none;stroke-opacity:1"
         id="path558" /><path
         d="m 1296.02,2292.7 h 17.34"
         style="fill:none;stroke:#000000;stroke-width:3.6;stroke-linecap:butt;stroke-linejoin:miter;stroke-miterlimit:3.25;stroke-dasharray:none;stroke-opacity:1"
         id="path560" /><path
         d="m 1296.02,2375.08 h 17.34"
         style="fill:none;stroke:#000000;stroke-width:3.6;stroke-linecap:butt;stroke-linejoin:miter;stroke-miterlimit:3.25;stroke-dasharray:none;stroke-opacity:1"
         id="path562" /><path
         d="m 1296.02,2457.46 h 17.34"
         style="fill:none;stroke:#000000;stroke-width:3.6;stroke-linecap:butt;stroke-linejoin:miter;stroke-miterlimit:3.25;stroke-dasharray:none;stroke-opacity:1"
         id="path564" /><path
         d="m 1296.02,2539.88 h 28.9"
         style="fill:none;stroke:#000000;stroke-width:3.6;stroke-linecap:butt;stroke-linejoin:miter;stroke-miterlimit:3.25;stroke-dasharray:none;stroke-opacity:1"
         id="path566" /><g
         id="g568"
         transform="scale(10)"><text
           transform="matrix(1,0,0,-1,123.834,251.823)"
           style="font-variant:normal;font-size:6.47949px;font-family:f-1;-inkscape-font-specification:f-1-0;writing-mode:lr-tb;fill:#000000;fill-opacity:1;fill-rule:nonzero;stroke:none"
           id="text572"><tspan
             x="0"
             y="0"
             id="tspan570">3</tspan></text></g><path
         d="M 1296.02,9.80078 V 2598.2"
         style="fill:none;stroke:#000000;stroke-width:3.6;stroke-linecap:butt;stroke-linejoin:miter;stroke-miterlimit:3.25;stroke-dasharray:none;stroke-opacity:1"
         id="path574" /></g></g></svg>
