<?xml version="1.0" encoding="UTF-8" standalone="no"?>
<svg
   xmlns:dc="http://purl.org/dc/elements/1.1/"
   xmlns:cc="http://creativecommons.org/ns#"
   xmlns:rdf="http://www.w3.org/1999/02/22-rdf-syntax-ns#"
   xmlns:svg="http://www.w3.org/2000/svg"
   xmlns="http://www.w3.org/2000/svg"
   xmlns:sodipodi="http://sodipodi.sourceforge.net/DTD/sodipodi-0.dtd"
   xmlns:inkscape="http://www.inkscape.org/namespaces/inkscape"
   version="1.1"
   id="svg2"
   xml:space="preserve"
   width="346.66666"
   height="346.66666"
   viewBox="0 0 346.66666 346.66666"
   sodipodi:docname="AMYinvacurveswpara.eps"><metadata
     id="metadata8"><rdf:RDF><cc:Work
         rdf:about=""><dc:format>image/svg+xml</dc:format><dc:type
           rdf:resource="http://purl.org/dc/dcmitype/StillImage" /></cc:Work></rdf:RDF></metadata><defs
     id="defs6" /><sodipodi:namedview
     pagecolor="#ffffff"
     bordercolor="#666666"
     borderopacity="1"
     objecttolerance="10"
     gridtolerance="10"
     guidetolerance="10"
     inkscape:pageopacity="0"
     inkscape:pageshadow="2"
     inkscape:window-width="640"
     inkscape:window-height="480"
     id="namedview4" /><g
     id="g10"
     inkscape:groupmode="layer"
     inkscape:label="ink_ext_XXXXXX"
     transform="matrix(1.3333333,0,0,-1.3333333,0,346.66667)"><g
       id="g12"
       transform="scale(0.1)"><path
         d="m 53.5508,796.91 0.789,0.121 0.7383,0.117 10.6602,1.911 12.2305,2.23 24.3712,4.762 52.89,11.449 49.379,12.07 48.403,13.008 52.5,15.391 48.976,15.472 53.133,17.969 52.149,18.711 48.628,18.399 52.731,20.859 49.223,20.312 48.277,20.579 15.351,6.718"
         style="fill:none;stroke:#000000;stroke-width:11.52;stroke-linecap:square;stroke-linejoin:miter;stroke-miterlimit:3.25;stroke-dasharray:none;stroke-opacity:1"
         id="path14" /><path
         d="m 675.59,997.699 78.039,35.031"
         style="fill:none;stroke:#000000;stroke-width:11.52;stroke-linecap:square;stroke-linejoin:miter;stroke-miterlimit:3.25;stroke-dasharray:none;stroke-opacity:1"
         id="path16" /><path
         d="m 755.199,1033.44 57.61,26.79 51.992,24.81 48.48,23.55 52.617,25.98 49.062,24.61 53.2,26.99 52.23,26.76 48.71,25.12 52.85,27.42 49.3,25.66 24.77,12.85 23.59,12.31 52.46,27.3 48.95,25.39 53.04,27.39 52.07,26.64 48.6,24.65 52.69,26.4 49.18,24.3 48.2,23.48 52.31,24.92 48.79,22.81 10.9,5"
         style="fill:none;stroke:#000000;stroke-width:11.52;stroke-linecap:square;stroke-linejoin:miter;stroke-miterlimit:3.25;stroke-dasharray:none;stroke-opacity:1"
         id="path18" /><path
         d="m 1838.36,1575.27 78.05,35.04"
         style="fill:none;stroke:#000000;stroke-width:11.52;stroke-linecap:square;stroke-linejoin:miter;stroke-miterlimit:3.25;stroke-dasharray:none;stroke-opacity:1"
         id="path20" /><path
         d="m 1918.01,1611.02 58.67,25.19 52.54,21.76 49.02,19.45 53.17,20.16 52.14,18.75 48.68,16.48 52.77,16.76 49.26,14.53 48.28,13.09 52.42,12.89 48.91,10.66 0.82,0.2 0.86,0.15 1.72,0.36 3.39,0.7 6.84,1.37 13.63,2.61 0.86,0.16 0.86,0.19 1.72,0.32 3.4,0.62 6.83,1.25 0.82,0.16 2.58,0.47 3.4,0.62 0.86,0.12 2.58,0.47 0.82,0.15 0.86,0.16 0.86,0.12 0.86,0.15"
         style="fill:none;stroke:#000000;stroke-width:11.52;stroke-linecap:square;stroke-linejoin:miter;stroke-miterlimit:3.25;stroke-dasharray:none;stroke-opacity:1"
         id="path22" /><path
         d="m 53.5508,1811.09 0.789,0.16 0.7383,0.12 1.5235,0.27 9.1367,1.52 12.2305,2 24.3712,3.71 1.64,0.23 1.68,0.24 3.289,0.46 6.602,0.9 13.238,1.72 1.641,0.24 1.64,0.19 3.321,0.39 6.597,0.82 13.242,1.49 0.75,0.11 2.34,0.24 3.09,0.31 6.168,0.67 12.344,1.21 0.738,0.07 0.789,0.04 1.563,0.16 9.258,0.82 12.339,0.98 0.743,0.07 0.738,0.04 1.531,0.12 3,0.23 6.059,0.43 0.781,0.04 0.738,0.04 1.531,0.12 3,0.2 6.059,0.35 0.781,0.04 0.739,0.07 1.531,0.08 3,0.16 6.058,0.31 0.743,0.04 0.781,0.04 1.488,0.08 3.039,0.15 6.063,0.28 h 0.816 l 2.461,0.11 3.281,0.12 1.641,0.08 1.641,0.04 3.277,0.12 0.82,0.03 h 0.821 l 1.64,0.08 3.289,0.08 h 0.821 l 0.82,0.04 4.922,0.12 h 0.816 l 0.82,0.04 1.641,0.04 h 0.82 l 0.821,0.03 h 1.64 l 0.821,0.04 h 0.82 l 1.641,0.04 h 1.636 l 1.641,0.04 h 1.641 l 0.82,0.04 h 4.109 l 0.821,0.04 h 16.441 l 0.777,-0.04 h 3.832 l 0.782,-0.04 h 2.269 l 0.777,-0.04 h 2.301 l 3.051,-0.08 h 1.52 l 1.57,-0.03 3.039,-0.08 h 0.781 l 0.75,-0.04 1.52,-0.04 3.09,-0.08 h 0.742 l 0.777,-0.04 1.52,-0.04 3.089,-0.08 6.09,-0.23 h 0.864 l 2.457,-0.12 3.32,-0.11 6.641,-0.32 0.859,-0.04 2.461,-0.11 3.32,-0.2 6.641,-0.35 0.828,-0.08 0.851,-0.04 1.649,-0.11 3.32,-0.2 6.641,-0.47 13.281,-1.01 0.82,-0.04 0.821,-0.08 1.597,-0.16 3.282,-0.27 6.519,-0.59 13.012,-1.29 0.816,-0.07 0.821,-0.12 1.64,-0.16 3.25,-0.35 6.52,-0.74 13.051,-1.64 0.742,-0.08 0.777,-0.12 1.481,-0.19 3.05,-0.39 6.09,-0.86 12.149,-1.76 0.781,-0.12 0.75,-0.11 4.57,-0.71 6.051,-0.97 12.187,-2.07 1.641,-0.32 1.641,-0.27 3.281,-0.63 6.598,-1.21 13.211,-2.57 26.359,-5.71 0.75,-0.19 0.781,-0.16 1.52,-0.35 9.261,-2.23 12.297,-3.04 24.614,-6.64 0.738,-0.24 0.789,-0.19 1.48,-0.43 3.012,-0.9 6.051,-1.76 12.066,-3.67 24.141,-7.81 0.781,-0.32 2.469,-0.82 3.281,-1.13 6.559,-2.3 2.261,-0.79"
         style="fill:none;stroke:#000000;stroke-width:11.52;stroke-linecap:square;stroke-linejoin:miter;stroke-miterlimit:3.25;stroke-dasharray:none;stroke-opacity:1"
         id="path24" /><path
         d="m 675.59,1773.01 35.39,-13.48 42.649,-18.36"
         style="fill:none;stroke:#000000;stroke-width:11.52;stroke-linecap:square;stroke-linejoin:miter;stroke-miterlimit:3.25;stroke-dasharray:none;stroke-opacity:1"
         id="path26" /><path
         d="m 755.199,1740.47 57.61,-28.71 51.992,-29.77 48.48,-31.21 52.617,-37.66 49.062,-38.59 53.2,-45.47 52.23,-47.89 48.71,-47.22 52.85,-53.25 49.3,-50.93 24.77,-25.79 23.59,-24.57 52.46,-54.18 48.95,-49.33 53.04,-51.37 52.07,-47.65 48.6,-41.53 52.69,-41.44 49.18,-35.238 48.2,-31.172 52.31,-30.16 48.79,-24.719 10.9,-5.082"
         style="fill:none;stroke:#000000;stroke-width:11.52;stroke-linecap:square;stroke-linejoin:miter;stroke-miterlimit:3.25;stroke-dasharray:none;stroke-opacity:1"
         id="path28" /><path
         d="M 1838.36,866.84 1916.41,835"
         style="fill:none;stroke:#000000;stroke-width:11.52;stroke-linecap:square;stroke-linejoin:miter;stroke-miterlimit:3.25;stroke-dasharray:none;stroke-opacity:1"
         id="path30" /><path
         d="m 1918.01,834.41 11.76,-4.101 1.48,-0.508 3.05,-1.051 6.05,-1.988 12.11,-3.953 24.22,-7.34 3.28,-0.938 3.28,-0.902 6.56,-1.828 13.13,-3.52 26.29,-6.441 0.74,-0.199 0.78,-0.161 1.53,-0.351 3.08,-0.699 6.13,-1.371 12.23,-2.61 1.56,-0.32 1.53,-0.309 3.04,-0.59 6.14,-1.21 12.26,-2.301 0.82,-0.16 0.86,-0.149 1.64,-0.32 3.32,-0.578 6.64,-1.133 13.28,-2.149 0.86,-0.121 0.82,-0.121 1.64,-0.269 3.33,-0.508 6.64,-0.941 13.32,-1.829 0.78,-0.082 2.46,-0.347 3.24,-0.391 6.52,-0.781 13.05,-1.488 3.28,-0.313 3.24,-0.348 6.53,-0.632 13.04,-1.168 0.79,-0.039 0.74,-0.082 10.66,-0.821 0.74,-0.039 0.75,-0.07 1.52,-0.121 9.14,-0.59 0.74,-0.039 0.78,-0.039 1.53,-0.11 3.04,-0.16 6.06,-0.351 0.78,-0.039 0.74,-0.039 1.53,-0.082 3.04,-0.11 6.1,-0.281 3.28,-0.149 3.32,-0.121 0.82,-0.039 h 0.82 l 1.64,-0.082 3.32,-0.078 1.64,-0.07 1.64,-0.039 3.32,-0.082 0.82,-0.039 h 0.82 l 4.92,-0.121 h 0.86 l 0.82,-0.039 1.64,-0.04 h 1.64 l 1.65,-0.031 h 0.82 l 0.82,-0.039 h 2.5 l 0.82,-0.039 h 3.28 l 0.82,-0.043 h 19.22 l 0.74,0.043 h 3.08 l 0.79,0.039 h 2.3 l 0.78,0.039 h 2.31 l 0.74,0.031 h 0.78 l 1.56,0.04 3.05,0.039 h 0.78 l 0.78,0.043 1.53,0.039 3.08,0.078 h 0.78 l 0.78,0.043 1.53,0.039 3.08,0.078 h 0.75 l 0.78,0.031 1.56,0.039 3.05,0.121 6.17,0.2 0.74,0.031 0.78,0.039 1.49,0.039 3.04,0.16 6.02,0.27 h 0.74 l 0.78,0.043 1.49,0.078 3.04,0.16 6.02,0.308 0.78,0.082 0.74,0.04 1.53,0.07 3,0.16 6.02,0.391 12.07,0.82 0.82,0.078 0.82,0.039 1.64,0.121 3.28,0.27 6.56,0.511 13.09,1.129 6.56,0.621 6.53,0.629 13.12,1.371 0.74,0.071 0.78,0.121 1.53,0.156 3.04,0.352 6.14,0.66 12.22,1.488 24.46,3.242 0.82,0.121 2.58,0.348 3.39,0.512 6.84,1.008 13.63,2.07 0.86,0.121 0.86,0.16 1.72,0.27 3.4,0.55 6.83,1.09 0.82,0.16 0.86,0.149 1.72,0.281 3.4,0.578 0.86,0.121 2.58,0.469 0.82,0.121 2.58,0.461"
         style="fill:none;stroke:#000000;stroke-width:11.52;stroke-linecap:square;stroke-linejoin:miter;stroke-miterlimit:3.25;stroke-dasharray:none;stroke-opacity:1"
         id="path32" /><path
         d="M 53.5508,1834.18 H 2538.44"
         style="fill:none;stroke:#ff8080;stroke-width:11.52;stroke-linecap:square;stroke-linejoin:miter;stroke-miterlimit:3.25;stroke-dasharray:none;stroke-opacity:1"
         id="path34" /><path
         d="M 53.5508,773.828 H 2538.44"
         style="fill:none;stroke:#ff8080;stroke-width:11.52;stroke-linecap:square;stroke-linejoin:miter;stroke-miterlimit:3.25;stroke-dasharray:none;stroke-opacity:1"
         id="path36" /><path
         d="m 30.4688,1303.98 v 17.39"
         style="fill:none;stroke:#000000;stroke-width:3.6;stroke-linecap:butt;stroke-linejoin:miter;stroke-miterlimit:3.25;stroke-dasharray:none;stroke-opacity:1"
         id="path38" /><path
         d="m 109.57,1303.98 v 28.95"
         style="fill:none;stroke:#000000;stroke-width:3.6;stroke-linecap:butt;stroke-linejoin:miter;stroke-miterlimit:3.25;stroke-dasharray:none;stroke-opacity:1"
         id="path40" /><g
         id="g42"
         transform="scale(10)"><text
           transform="matrix(1,0,0,-1,7.40195,122.068)"
           style="font-variant:normal;font-size:6.47949px;font-family:f-0;-inkscape-font-specification:f-0-0;writing-mode:lr-tb;fill:#000000;fill-opacity:1;fill-rule:nonzero;stroke:none"
           id="text46"><tspan
             x="0"
             y="0"
             id="tspan44">-</tspan></text><text
           transform="matrix(1,0,0,-1,10.90078,122.068)"
           style="font-variant:normal;font-size:6.47949px;font-family:f-1;-inkscape-font-specification:f-1-0;writing-mode:lr-tb;fill:#000000;fill-opacity:1;fill-rule:nonzero;stroke:none"
           id="text50"><tspan
             x="0"
             y="0"
             id="tspan48">3</tspan></text></g><path
         d="m 188.672,1303.98 v 17.39"
         style="fill:none;stroke:#000000;stroke-width:3.6;stroke-linecap:butt;stroke-linejoin:miter;stroke-miterlimit:3.25;stroke-dasharray:none;stroke-opacity:1"
         id="path52" /><path
         d="m 267.77,1303.98 v 17.39"
         style="fill:none;stroke:#000000;stroke-width:3.6;stroke-linecap:butt;stroke-linejoin:miter;stroke-miterlimit:3.25;stroke-dasharray:none;stroke-opacity:1"
         id="path54" /><path
         d="m 346.84,1303.98 v 17.39"
         style="fill:none;stroke:#000000;stroke-width:3.6;stroke-linecap:butt;stroke-linejoin:miter;stroke-miterlimit:3.25;stroke-dasharray:none;stroke-opacity:1"
         id="path56" /><path
         d="m 425.941,1303.98 v 17.39"
         style="fill:none;stroke:#000000;stroke-width:3.6;stroke-linecap:butt;stroke-linejoin:miter;stroke-miterlimit:3.25;stroke-dasharray:none;stroke-opacity:1"
         id="path58" /><path
         d="m 505.039,1303.98 v 28.95"
         style="fill:none;stroke:#000000;stroke-width:3.6;stroke-linecap:butt;stroke-linejoin:miter;stroke-miterlimit:3.25;stroke-dasharray:none;stroke-opacity:1"
         id="path60" /><g
         id="g62"
         transform="scale(10)"><text
           transform="matrix(1,0,0,-1,46.9496,122.068)"
           style="font-variant:normal;font-size:6.47949px;font-family:f-0;-inkscape-font-specification:f-0-0;writing-mode:lr-tb;fill:#000000;fill-opacity:1;fill-rule:nonzero;stroke:none"
           id="text66"><tspan
             x="0"
             y="0"
             id="tspan64">-</tspan></text><text
           transform="matrix(1,0,0,-1,50.44843,122.068)"
           style="font-variant:normal;font-size:6.47949px;font-family:f-1;-inkscape-font-specification:f-1-0;writing-mode:lr-tb;fill:#000000;fill-opacity:1;fill-rule:nonzero;stroke:none"
           id="text70"><tspan
             x="0"
             y="0"
             id="tspan68">2</tspan></text></g><path
         d="m 584.141,1303.98 v 17.39"
         style="fill:none;stroke:#000000;stroke-width:3.6;stroke-linecap:butt;stroke-linejoin:miter;stroke-miterlimit:3.25;stroke-dasharray:none;stroke-opacity:1"
         id="path72" /><path
         d="m 663.238,1303.98 v 17.39"
         style="fill:none;stroke:#000000;stroke-width:3.6;stroke-linecap:butt;stroke-linejoin:miter;stroke-miterlimit:3.25;stroke-dasharray:none;stroke-opacity:1"
         id="path74" /><path
         d="m 742.34,1303.98 v 17.39"
         style="fill:none;stroke:#000000;stroke-width:3.6;stroke-linecap:butt;stroke-linejoin:miter;stroke-miterlimit:3.25;stroke-dasharray:none;stroke-opacity:1"
         id="path76" /><path
         d="m 821.449,1303.98 v 17.39"
         style="fill:none;stroke:#000000;stroke-width:3.6;stroke-linecap:butt;stroke-linejoin:miter;stroke-miterlimit:3.25;stroke-dasharray:none;stroke-opacity:1"
         id="path78" /><path
         d="m 900.512,1303.98 v 28.95"
         style="fill:none;stroke:#000000;stroke-width:3.6;stroke-linecap:butt;stroke-linejoin:miter;stroke-miterlimit:3.25;stroke-dasharray:none;stroke-opacity:1"
         id="path80" /><g
         id="g82"
         transform="scale(10)"><text
           transform="matrix(1,0,0,-1,86.4977,122.068)"
           style="font-variant:normal;font-size:6.47949px;font-family:f-0;-inkscape-font-specification:f-0-0;writing-mode:lr-tb;fill:#000000;fill-opacity:1;fill-rule:nonzero;stroke:none"
           id="text86"><tspan
             x="0"
             y="0"
             id="tspan84">-</tspan></text><text
           transform="matrix(1,0,0,-1,89.99653,122.068)"
           style="font-variant:normal;font-size:6.47949px;font-family:f-1;-inkscape-font-specification:f-1-0;writing-mode:lr-tb;fill:#000000;fill-opacity:1;fill-rule:nonzero;stroke:none"
           id="text90"><tspan
             x="0"
             y="0"
             id="tspan88">1</tspan></text></g><path
         d="m 979.609,1303.98 v 17.39"
         style="fill:none;stroke:#000000;stroke-width:3.6;stroke-linecap:butt;stroke-linejoin:miter;stroke-miterlimit:3.25;stroke-dasharray:none;stroke-opacity:1"
         id="path92" /><path
         d="m 1058.71,1303.98 v 17.39"
         style="fill:none;stroke:#000000;stroke-width:3.6;stroke-linecap:butt;stroke-linejoin:miter;stroke-miterlimit:3.25;stroke-dasharray:none;stroke-opacity:1"
         id="path94" /><path
         d="m 1137.81,1303.98 v 17.39"
         style="fill:none;stroke:#000000;stroke-width:3.6;stroke-linecap:butt;stroke-linejoin:miter;stroke-miterlimit:3.25;stroke-dasharray:none;stroke-opacity:1"
         id="path96" /><path
         d="m 1216.91,1303.98 v 17.39"
         style="fill:none;stroke:#000000;stroke-width:3.6;stroke-linecap:butt;stroke-linejoin:miter;stroke-miterlimit:3.25;stroke-dasharray:none;stroke-opacity:1"
         id="path98" /><path
         d="m 1296.02,1303.98 v 28.95"
         style="fill:none;stroke:#000000;stroke-width:3.6;stroke-linecap:butt;stroke-linejoin:miter;stroke-miterlimit:3.25;stroke-dasharray:none;stroke-opacity:1"
         id="path100" /><path
         d="m 1375.08,1303.98 v 17.39"
         style="fill:none;stroke:#000000;stroke-width:3.6;stroke-linecap:butt;stroke-linejoin:miter;stroke-miterlimit:3.25;stroke-dasharray:none;stroke-opacity:1"
         id="path102" /><path
         d="m 1454.18,1303.98 v 17.39"
         style="fill:none;stroke:#000000;stroke-width:3.6;stroke-linecap:butt;stroke-linejoin:miter;stroke-miterlimit:3.25;stroke-dasharray:none;stroke-opacity:1"
         id="path104" /><path
         d="m 1533.28,1303.98 v 17.39"
         style="fill:none;stroke:#000000;stroke-width:3.6;stroke-linecap:butt;stroke-linejoin:miter;stroke-miterlimit:3.25;stroke-dasharray:none;stroke-opacity:1"
         id="path106" /><path
         d="m 1612.38,1303.98 v 17.39"
         style="fill:none;stroke:#000000;stroke-width:3.6;stroke-linecap:butt;stroke-linejoin:miter;stroke-miterlimit:3.25;stroke-dasharray:none;stroke-opacity:1"
         id="path108" /><path
         d="m 1691.48,1303.98 v 28.95"
         style="fill:none;stroke:#000000;stroke-width:3.6;stroke-linecap:butt;stroke-linejoin:miter;stroke-miterlimit:3.25;stroke-dasharray:none;stroke-opacity:1"
         id="path110" /><g
         id="g112"
         transform="scale(10)"><text
           transform="matrix(1,0,0,-1,167.345,122.068)"
           style="font-variant:normal;font-size:6.47949px;font-family:f-1;-inkscape-font-specification:f-1-0;writing-mode:lr-tb;fill:#000000;fill-opacity:1;fill-rule:nonzero;stroke:none"
           id="text116"><tspan
             x="0"
             y="0"
             id="tspan114">1</tspan></text></g><path
         d="m 1770.59,1303.98 v 17.39"
         style="fill:none;stroke:#000000;stroke-width:3.6;stroke-linecap:butt;stroke-linejoin:miter;stroke-miterlimit:3.25;stroke-dasharray:none;stroke-opacity:1"
         id="path118" /><path
         d="m 1849.69,1303.98 v 17.39"
         style="fill:none;stroke:#000000;stroke-width:3.6;stroke-linecap:butt;stroke-linejoin:miter;stroke-miterlimit:3.25;stroke-dasharray:none;stroke-opacity:1"
         id="path120" /><path
         d="m 1928.75,1303.98 v 17.39"
         style="fill:none;stroke:#000000;stroke-width:3.6;stroke-linecap:butt;stroke-linejoin:miter;stroke-miterlimit:3.25;stroke-dasharray:none;stroke-opacity:1"
         id="path122" /><path
         d="m 2007.85,1303.98 v 17.39"
         style="fill:none;stroke:#000000;stroke-width:3.6;stroke-linecap:butt;stroke-linejoin:miter;stroke-miterlimit:3.25;stroke-dasharray:none;stroke-opacity:1"
         id="path124" /><path
         d="m 2086.95,1303.98 v 28.95"
         style="fill:none;stroke:#000000;stroke-width:3.6;stroke-linecap:butt;stroke-linejoin:miter;stroke-miterlimit:3.25;stroke-dasharray:none;stroke-opacity:1"
         id="path126" /><g
         id="g128"
         transform="scale(10)"><text
           transform="matrix(1,0,0,-1,206.893,122.068)"
           style="font-variant:normal;font-size:6.47949px;font-family:f-1;-inkscape-font-specification:f-1-0;writing-mode:lr-tb;fill:#000000;fill-opacity:1;fill-rule:nonzero;stroke:none"
           id="text132"><tspan
             x="0"
             y="0"
             id="tspan130">2</tspan></text></g><path
         d="m 2166.05,1303.98 v 17.39"
         style="fill:none;stroke:#000000;stroke-width:3.6;stroke-linecap:butt;stroke-linejoin:miter;stroke-miterlimit:3.25;stroke-dasharray:none;stroke-opacity:1"
         id="path134" /><path
         d="m 2245.16,1303.98 v 17.39"
         style="fill:none;stroke:#000000;stroke-width:3.6;stroke-linecap:butt;stroke-linejoin:miter;stroke-miterlimit:3.25;stroke-dasharray:none;stroke-opacity:1"
         id="path136" /><path
         d="m 2324.26,1303.98 v 17.39"
         style="fill:none;stroke:#000000;stroke-width:3.6;stroke-linecap:butt;stroke-linejoin:miter;stroke-miterlimit:3.25;stroke-dasharray:none;stroke-opacity:1"
         id="path138" /><path
         d="m 2403.32,1303.98 v 17.39"
         style="fill:none;stroke:#000000;stroke-width:3.6;stroke-linecap:butt;stroke-linejoin:miter;stroke-miterlimit:3.25;stroke-dasharray:none;stroke-opacity:1"
         id="path140" /><path
         d="m 2482.42,1303.98 v 28.95"
         style="fill:none;stroke:#000000;stroke-width:3.6;stroke-linecap:butt;stroke-linejoin:miter;stroke-miterlimit:3.25;stroke-dasharray:none;stroke-opacity:1"
         id="path142" /><g
         id="g144"
         transform="scale(10)"><text
           transform="matrix(1,0,0,-1,246.441,122.068)"
           style="font-variant:normal;font-size:6.47949px;font-family:f-1;-inkscape-font-specification:f-1-0;writing-mode:lr-tb;fill:#000000;fill-opacity:1;fill-rule:nonzero;stroke:none"
           id="text148"><tspan
             x="0"
             y="0"
             id="tspan146">3</tspan></text></g><path
         d="m 2561.52,1303.98 v 17.39"
         style="fill:none;stroke:#000000;stroke-width:3.6;stroke-linecap:butt;stroke-linejoin:miter;stroke-miterlimit:3.25;stroke-dasharray:none;stroke-opacity:1"
         id="path150" /><path
         d="M 1.80078,1303.98 H 2590.2"
         style="fill:none;stroke:#000000;stroke-width:3.6;stroke-linecap:butt;stroke-linejoin:miter;stroke-miterlimit:3.25;stroke-dasharray:none;stroke-opacity:1"
         id="path152" /><path
         d="m 1296.02,68.1211 h 28.9"
         style="fill:none;stroke:#000000;stroke-width:3.6;stroke-linecap:butt;stroke-linejoin:miter;stroke-miterlimit:3.25;stroke-dasharray:none;stroke-opacity:1"
         id="path154" /><g
         id="g156"
         transform="scale(10)"><text
           transform="matrix(1,0,0,-1,120.33,4.64883)"
           style="font-variant:normal;font-size:6.47949px;font-family:f-0;-inkscape-font-specification:f-0-0;writing-mode:lr-tb;fill:#000000;fill-opacity:1;fill-rule:nonzero;stroke:none"
           id="text160"><tspan
             x="0"
             y="0"
             id="tspan158">-</tspan></text><text
           transform="matrix(1,0,0,-1,123.82883,4.64883)"
           style="font-variant:normal;font-size:6.47949px;font-family:f-1;-inkscape-font-specification:f-1-0;writing-mode:lr-tb;fill:#000000;fill-opacity:1;fill-rule:nonzero;stroke:none"
           id="text164"><tspan
             x="0"
             y="0"
             id="tspan162">3</tspan></text></g><path
         d="m 1296.02,150.512 h 17.34"
         style="fill:none;stroke:#000000;stroke-width:3.6;stroke-linecap:butt;stroke-linejoin:miter;stroke-miterlimit:3.25;stroke-dasharray:none;stroke-opacity:1"
         id="path166" /><path
         d="m 1296.02,232.93 h 17.34"
         style="fill:none;stroke:#000000;stroke-width:3.6;stroke-linecap:butt;stroke-linejoin:miter;stroke-miterlimit:3.25;stroke-dasharray:none;stroke-opacity:1"
         id="path168" /><path
         d="m 1296.02,315.309 h 17.34"
         style="fill:none;stroke:#000000;stroke-width:3.6;stroke-linecap:butt;stroke-linejoin:miter;stroke-miterlimit:3.25;stroke-dasharray:none;stroke-opacity:1"
         id="path170" /><path
         d="m 1296.02,397.699 h 17.34"
         style="fill:none;stroke:#000000;stroke-width:3.6;stroke-linecap:butt;stroke-linejoin:miter;stroke-miterlimit:3.25;stroke-dasharray:none;stroke-opacity:1"
         id="path172" /><path
         d="m 1296.02,480.078 h 28.9"
         style="fill:none;stroke:#000000;stroke-width:3.6;stroke-linecap:butt;stroke-linejoin:miter;stroke-miterlimit:3.25;stroke-dasharray:none;stroke-opacity:1"
         id="path174" /><g
         id="g176"
         transform="scale(10)"><text
           transform="matrix(1,0,0,-1,120.33,45.8445)"
           style="font-variant:normal;font-size:6.47949px;font-family:f-0;-inkscape-font-specification:f-0-0;writing-mode:lr-tb;fill:#000000;fill-opacity:1;fill-rule:nonzero;stroke:none"
           id="text180"><tspan
             x="0"
             y="0"
             id="tspan178">-</tspan></text><text
           transform="matrix(1,0,0,-1,123.82883,45.8445)"
           style="font-variant:normal;font-size:6.47949px;font-family:f-1;-inkscape-font-specification:f-1-0;writing-mode:lr-tb;fill:#000000;fill-opacity:1;fill-rule:nonzero;stroke:none"
           id="text184"><tspan
             x="0"
             y="0"
             id="tspan182">2</tspan></text></g><path
         d="m 1296.02,562.461 h 17.34"
         style="fill:none;stroke:#000000;stroke-width:3.6;stroke-linecap:butt;stroke-linejoin:miter;stroke-miterlimit:3.25;stroke-dasharray:none;stroke-opacity:1"
         id="path186" /><path
         d="m 1296.02,644.879 h 17.34"
         style="fill:none;stroke:#000000;stroke-width:3.6;stroke-linecap:butt;stroke-linejoin:miter;stroke-miterlimit:3.25;stroke-dasharray:none;stroke-opacity:1"
         id="path188" /><path
         d="m 1296.02,727.27 h 17.34"
         style="fill:none;stroke:#000000;stroke-width:3.6;stroke-linecap:butt;stroke-linejoin:miter;stroke-miterlimit:3.25;stroke-dasharray:none;stroke-opacity:1"
         id="path190" /><path
         d="m 1296.02,809.648 h 17.34"
         style="fill:none;stroke:#000000;stroke-width:3.6;stroke-linecap:butt;stroke-linejoin:miter;stroke-miterlimit:3.25;stroke-dasharray:none;stroke-opacity:1"
         id="path192" /><path
         d="m 1296.02,892.031 h 28.9"
         style="fill:none;stroke:#000000;stroke-width:3.6;stroke-linecap:butt;stroke-linejoin:miter;stroke-miterlimit:3.25;stroke-dasharray:none;stroke-opacity:1"
         id="path194" /><g
         id="g196"
         transform="scale(10)"><text
           transform="matrix(1,0,0,-1,120.33,87.0402)"
           style="font-variant:normal;font-size:6.47949px;font-family:f-0;-inkscape-font-specification:f-0-0;writing-mode:lr-tb;fill:#000000;fill-opacity:1;fill-rule:nonzero;stroke:none"
           id="text200"><tspan
             x="0"
             y="0"
             id="tspan198">-</tspan></text><text
           transform="matrix(1,0,0,-1,123.82883,87.0402)"
           style="font-variant:normal;font-size:6.47949px;font-family:f-1;-inkscape-font-specification:f-1-0;writing-mode:lr-tb;fill:#000000;fill-opacity:1;fill-rule:nonzero;stroke:none"
           id="text204"><tspan
             x="0"
             y="0"
             id="tspan202">1</tspan></text></g><path
         d="m 1296.02,974.449 h 17.34"
         style="fill:none;stroke:#000000;stroke-width:3.6;stroke-linecap:butt;stroke-linejoin:miter;stroke-miterlimit:3.25;stroke-dasharray:none;stroke-opacity:1"
         id="path206" /><path
         d="m 1296.02,1056.84 h 17.34"
         style="fill:none;stroke:#000000;stroke-width:3.6;stroke-linecap:butt;stroke-linejoin:miter;stroke-miterlimit:3.25;stroke-dasharray:none;stroke-opacity:1"
         id="path208" /><path
         d="m 1296.02,1139.22 h 17.34"
         style="fill:none;stroke:#000000;stroke-width:3.6;stroke-linecap:butt;stroke-linejoin:miter;stroke-miterlimit:3.25;stroke-dasharray:none;stroke-opacity:1"
         id="path210" /><path
         d="m 1296.02,1221.6 h 17.34"
         style="fill:none;stroke:#000000;stroke-width:3.6;stroke-linecap:butt;stroke-linejoin:miter;stroke-miterlimit:3.25;stroke-dasharray:none;stroke-opacity:1"
         id="path212" /><path
         d="m 1296.02,1303.98 h 28.9"
         style="fill:none;stroke:#000000;stroke-width:3.6;stroke-linecap:butt;stroke-linejoin:miter;stroke-miterlimit:3.25;stroke-dasharray:none;stroke-opacity:1"
         id="path214" /><path
         d="m 1296.02,1386.41 h 17.34"
         style="fill:none;stroke:#000000;stroke-width:3.6;stroke-linecap:butt;stroke-linejoin:miter;stroke-miterlimit:3.25;stroke-dasharray:none;stroke-opacity:1"
         id="path216" /><path
         d="m 1296.02,1468.79 h 17.34"
         style="fill:none;stroke:#000000;stroke-width:3.6;stroke-linecap:butt;stroke-linejoin:miter;stroke-miterlimit:3.25;stroke-dasharray:none;stroke-opacity:1"
         id="path218" /><path
         d="m 1296.02,1551.17 h 17.34"
         style="fill:none;stroke:#000000;stroke-width:3.6;stroke-linecap:butt;stroke-linejoin:miter;stroke-miterlimit:3.25;stroke-dasharray:none;stroke-opacity:1"
         id="path220" /><path
         d="m 1296.02,1633.55 h 17.34"
         style="fill:none;stroke:#000000;stroke-width:3.6;stroke-linecap:butt;stroke-linejoin:miter;stroke-miterlimit:3.25;stroke-dasharray:none;stroke-opacity:1"
         id="path222" /><path
         d="m 1296.02,1715.94 h 28.9"
         style="fill:none;stroke:#000000;stroke-width:3.6;stroke-linecap:butt;stroke-linejoin:miter;stroke-miterlimit:3.25;stroke-dasharray:none;stroke-opacity:1"
         id="path224" /><g
         id="g226"
         transform="scale(10)"><text
           transform="matrix(1,0,0,-1,123.834,169.432)"
           style="font-variant:normal;font-size:6.47949px;font-family:f-1;-inkscape-font-specification:f-1-0;writing-mode:lr-tb;fill:#000000;fill-opacity:1;fill-rule:nonzero;stroke:none"
           id="text230"><tspan
             x="0"
             y="0"
             id="tspan228">1</tspan></text></g><path
         d="m 1296.02,1798.36 h 17.34"
         style="fill:none;stroke:#000000;stroke-width:3.6;stroke-linecap:butt;stroke-linejoin:miter;stroke-miterlimit:3.25;stroke-dasharray:none;stroke-opacity:1"
         id="path232" /><path
         d="m 1296.02,1880.74 h 17.34"
         style="fill:none;stroke:#000000;stroke-width:3.6;stroke-linecap:butt;stroke-linejoin:miter;stroke-miterlimit:3.25;stroke-dasharray:none;stroke-opacity:1"
         id="path234" /><path
         d="m 1296.02,1963.12 h 17.34"
         style="fill:none;stroke:#000000;stroke-width:3.6;stroke-linecap:butt;stroke-linejoin:miter;stroke-miterlimit:3.25;stroke-dasharray:none;stroke-opacity:1"
         id="path236" /><path
         d="m 1296.02,2045.51 h 17.34"
         style="fill:none;stroke:#000000;stroke-width:3.6;stroke-linecap:butt;stroke-linejoin:miter;stroke-miterlimit:3.25;stroke-dasharray:none;stroke-opacity:1"
         id="path238" /><path
         d="m 1296.02,2127.93 h 28.9"
         style="fill:none;stroke:#000000;stroke-width:3.6;stroke-linecap:butt;stroke-linejoin:miter;stroke-miterlimit:3.25;stroke-dasharray:none;stroke-opacity:1"
         id="path240" /><g
         id="g242"
         transform="scale(10)"><text
           transform="matrix(1,0,0,-1,123.834,210.627)"
           style="font-variant:normal;font-size:6.47949px;font-family:f-1;-inkscape-font-specification:f-1-0;writing-mode:lr-tb;fill:#000000;fill-opacity:1;fill-rule:nonzero;stroke:none"
           id="text246"><tspan
             x="0"
             y="0"
             id="tspan244">2</tspan></text></g><path
         d="m 1296.02,2210.31 h 17.34"
         style="fill:none;stroke:#000000;stroke-width:3.6;stroke-linecap:butt;stroke-linejoin:miter;stroke-miterlimit:3.25;stroke-dasharray:none;stroke-opacity:1"
         id="path248" /><path
         d="m 1296.02,2292.7 h 17.34"
         style="fill:none;stroke:#000000;stroke-width:3.6;stroke-linecap:butt;stroke-linejoin:miter;stroke-miterlimit:3.25;stroke-dasharray:none;stroke-opacity:1"
         id="path250" /><path
         d="m 1296.02,2375.08 h 17.34"
         style="fill:none;stroke:#000000;stroke-width:3.6;stroke-linecap:butt;stroke-linejoin:miter;stroke-miterlimit:3.25;stroke-dasharray:none;stroke-opacity:1"
         id="path252" /><path
         d="m 1296.02,2457.46 h 17.34"
         style="fill:none;stroke:#000000;stroke-width:3.6;stroke-linecap:butt;stroke-linejoin:miter;stroke-miterlimit:3.25;stroke-dasharray:none;stroke-opacity:1"
         id="path254" /><path
         d="m 1296.02,2539.88 h 28.9"
         style="fill:none;stroke:#000000;stroke-width:3.6;stroke-linecap:butt;stroke-linejoin:miter;stroke-miterlimit:3.25;stroke-dasharray:none;stroke-opacity:1"
         id="path256" /><g
         id="g258"
         transform="scale(10)"><text
           transform="matrix(1,0,0,-1,123.834,251.823)"
           style="font-variant:normal;font-size:6.47949px;font-family:f-1;-inkscape-font-specification:f-1-0;writing-mode:lr-tb;fill:#000000;fill-opacity:1;fill-rule:nonzero;stroke:none"
           id="text262"><tspan
             x="0"
             y="0"
             id="tspan260">3</tspan></text></g><path
         d="M 1296.02,9.80078 V 2598.2"
         style="fill:none;stroke:#000000;stroke-width:3.6;stroke-linecap:butt;stroke-linejoin:miter;stroke-miterlimit:3.25;stroke-dasharray:none;stroke-opacity:1"
         id="path264" /></g></g></svg>
