<?xml version="1.0" encoding="UTF-8" standalone="no"?>
<svg
   xmlns:dc="http://purl.org/dc/elements/1.1/"
   xmlns:cc="http://creativecommons.org/ns#"
   xmlns:rdf="http://www.w3.org/1999/02/22-rdf-syntax-ns#"
   xmlns:svg="http://www.w3.org/2000/svg"
   xmlns="http://www.w3.org/2000/svg"
   xmlns:sodipodi="http://sodipodi.sourceforge.net/DTD/sodipodi-0.dtd"
   xmlns:inkscape="http://www.inkscape.org/namespaces/inkscape"
   version="1.1"
   id="svg2"
   xml:space="preserve"
   width="346.66666"
   height="346.66666"
   viewBox="0 0 346.66666 346.66666"
   sodipodi:docname="vfave1iter.eps"><metadata
     id="metadata8"><rdf:RDF><cc:Work
         rdf:about=""><dc:format>image/svg+xml</dc:format><dc:type
           rdf:resource="http://purl.org/dc/dcmitype/StillImage" /></cc:Work></rdf:RDF></metadata><defs
     id="defs6" /><sodipodi:namedview
     pagecolor="#ffffff"
     bordercolor="#666666"
     borderopacity="1"
     objecttolerance="10"
     gridtolerance="10"
     guidetolerance="10"
     inkscape:pageopacity="0"
     inkscape:pageshadow="2"
     inkscape:window-width="640"
     inkscape:window-height="480"
     id="namedview4" /><g
     id="g10"
     inkscape:groupmode="layer"
     inkscape:label="ink_ext_XXXXXX"
     transform="matrix(1.3333333,0,0,-1.3333333,0,346.66667)"><g
       id="g12"
       transform="scale(0.1)"><path
         d="M 1296.02,9.80078 V 656.09"
         style="fill:none;stroke:#ff0000;stroke-width:11.52;stroke-linecap:square;stroke-linejoin:miter;stroke-miterlimit:3.25;stroke-dasharray:none;stroke-opacity:1"
         id="path14" /><path
         d="M 1296.02,657.73 V 1950.27"
         style="fill:none;stroke:#ff0000;stroke-width:11.52;stroke-linecap:square;stroke-linejoin:miter;stroke-miterlimit:3.25;stroke-dasharray:none;stroke-opacity:1"
         id="path16" /><path
         d="M 1296.02,1951.91 V 2598.2"
         style="fill:none;stroke:#ff0000;stroke-width:11.52;stroke-linecap:square;stroke-linejoin:miter;stroke-miterlimit:3.25;stroke-dasharray:none;stroke-opacity:1"
         id="path18" /><path
         d="m 1809.02,9.80078 0.12,0.78902 0.16,0.8204 0.31,1.5586 0.59,3.1601 1.13,6.3711 2.38,12.6992 4.77,25.4219 10.66,55.0779 10.47,51.41 10.86,50.43 12.58,54.691 12.69,51.051 2.42,9.258"
         style="fill:none;stroke:#5e81b5;stroke-width:11.52;stroke-linecap:square;stroke-linejoin:miter;stroke-miterlimit:3.25;stroke-dasharray:none;stroke-opacity:1"
         id="path20" /><path
         d="m 1878.59,334.18 28.64,98.711 17.15,50.66 21.17,54.969 22.85,51.25 0.35,0.82 0.39,0.781 0.74,1.559 1.57,3.121 3.08,6.289 6.41,12.582 13.63,25.117 0.51,0.859 0.47,0.864 0.97,1.718 1.96,3.399 3.98,6.832 1.45,2.379"
         style="fill:none;stroke:#5e81b5;stroke-width:11.52;stroke-linecap:square;stroke-linejoin:miter;stroke-miterlimit:3.25;stroke-dasharray:none;stroke-opacity:1"
         id="path22" /><path
         d="m 2004.88,657.73 23.79,36.879 0.55,0.782 0.55,0.82 1.09,1.559 2.23,3.21 4.57,6.36 9.49,12.699 0.58,0.82 0.63,0.782 1.25,1.597 2.46,3.172 5.08,6.36 10.55,12.742 0.7,0.859 2.22,2.578 3.01,3.43 6.17,6.922 12.9,13.789 1.64,1.711 1.68,1.719 3.43,3.48 6.96,6.879 14.68,13.781 1.88,1.719 1.87,1.68 3.83,3.402 7.81,6.758 16.53,13.551 1.05,0.82 1.1,0.859 2.14,1.68 4.42,3.402 9.02,6.758 19.03,13.551 2.34,1.57 2.3,1.602 4.73,3.117 9.73,6.332 20.51,12.617 1.32,0.82 1.33,0.782 2.7,1.558 5.47,3.172 11.25,6.32 23.75,12.622 1.64,0.859 1.71,0.859 3.36,1.719 6.92,3.402 14.22,6.868 30.27,13.671 1.95,0.86 2,0.859 4.02,1.723 8.12,3.437 16.8,6.84 35.78,13.672 2.15,0.82 2.19,0.778 4.41,1.601 8.99,3.2 2.26,0.82 2.27,0.781 4.57,1.609 9.29,3.2 2.39,0.781 2.34,0.82 4.77,1.598 2.42,0.781 2.38,0.789 2.42,0.821 2.46,0.781 0.94,0.308"
         style="fill:none;stroke:#5e81b5;stroke-width:11.52;stroke-linecap:square;stroke-linejoin:miter;stroke-miterlimit:3.25;stroke-dasharray:none;stroke-opacity:1"
         id="path24" /><path
         d="m 133.75,981.289 3.828,1.211 2.5,0.82 2.5,0.782 5.043,1.597 2.539,0.781 2.539,0.821 5.11,1.609 10.429,3.199 21.371,6.371 45.082,12.81 3.161,0.86 9.609,2.58 12.969,3.47 26.558,6.92 55.782,13.86 120.589,27.7 246.442,52.93"
         style="fill:none;stroke:#5e81b5;stroke-width:11.52;stroke-linecap:square;stroke-linejoin:miter;stroke-miterlimit:3.25;stroke-dasharray:none;stroke-opacity:1"
         id="path26" /><path
         d="m 717.422,1121.29 6.406,1.37 7.262,1.6 14.461,3.16 28.629,6.33 55.781,12.7 3.398,0.82 3.403,0.78 6.758,1.56 13.429,3.2 26.371,6.33 50.66,12.7 3.36,0.86 3.281,0.85 6.609,1.72 13,3.44 25.391,6.88 48.049,13.75 5.78,1.71 5.71,1.72 11.25,3.44 21.79,6.88 41.14,13.79 2.26,0.78 2.31,0.82 4.53,1.6 8.94,3.2 17.39,6.41 32.77,12.85 1.95,0.82 1.96,0.78 3.9,1.6 7.66,3.21 14.84,6.44 28.05,12.85 3.28,1.56 3.24,1.57 6.45,3.16 12.46,6.29 23.59,12.58 1.45,0.78 1.4,0.82 2.82,1.56 5.5,3.17 10.79,6.29 20.39,12.57 2.65,1.72 2.62,1.68 5.19,3.44 10.08,6.84 19.07,13.63 1.13,0.86 1.17,0.86 2.27,1.72 4.45,3.39 8.71,6.84 16.48,13.67 0.94,0.78 0.94,0.82 1.83,1.57 3.64,3.2 7.07,6.37 13.51,12.73 0.82,0.82 0.82,0.78 1.64,1.6 3.21,3.21 6.25,6.36 12.03,12.74 1.56,1.72 1.56,1.76 3.09,3.43 6.02,6.92 11.52,13.79 21.13,27.65 0.63,0.86 0.58,0.82 1.25,1.72 2.39,3.36 4.72,6.8 9.03,13.55 16.79,27.15 0.94,1.56 0.94,1.6 1.83,3.17 3.6,6.33 6.99,12.61 13.12,25.32 25.16,54.88 20.24,51.21 17.5,50.23 16.87,54.5 14.18,50.86 14.06,55.07 9.26,39.18"
         style="fill:none;stroke:#5e81b5;stroke-width:11.52;stroke-linecap:square;stroke-linejoin:miter;stroke-miterlimit:3.25;stroke-dasharray:none;stroke-opacity:1"
         id="path28" /><path
         d="m 1689.14,1951.91 13.48,61.14 11.29,54.72 10.04,51.06 10.39,55.35 9.88,54.37 8.98,50.67 9.57,55 8.87,51.29 8.67,50.31 9.46,54.61 8.98,50.9 0.31,1.79 0.32,1.76 0.66,3.56 1.25,7.11 2.54,14.22 0.19,0.89 0.16,0.9 0.31,1.76 0.63,3.56 1.29,7.1 0.15,0.9 0.2,0.9 0.31,1.76 0.63,3.55 0.19,0.9 0.16,0.86 0.47,2.7 0.15,0.86 0.2,0.89 0.15,0.9"
         style="fill:none;stroke:#5e81b5;stroke-width:11.52;stroke-linecap:square;stroke-linejoin:miter;stroke-miterlimit:3.25;stroke-dasharray:none;stroke-opacity:1"
         id="path30" /><path
         d="m 2116.99,9.80078 0.28,0.78902 0.27,0.8204 0.58,1.5586 1.14,3.1601 2.3,6.3711 4.61,12.6992 9.34,25.4219 20.78,55.0779 20.19,51.41 20.75,50.43 23.79,54.691 23.63,51.051 27.54,55.309 29.41,54.301 30.04,50.66 35.9,54.969 37.38,51.25 0.59,0.82 0.62,0.781 1.21,1.559 2.46,3.121 4.93,6.289 10.11,12.582 1.25,1.558 1.29,1.571 2.62,3.16 5.23,6.289 10.71,12.539 0.74,0.859 0.7,0.864 1.49,1.718 3.01,3.399 1.48,1.711 1.52,1.68 1.49,1.718 1.52,1.723 0.78,0.82 0.74,0.86 0.63,0.699"
         style="fill:none;stroke:#5e81b5;stroke-width:11.52;stroke-linecap:square;stroke-linejoin:miter;stroke-miterlimit:3.25;stroke-dasharray:none;stroke-opacity:1"
         id="path32" /><path
         d="m 131.949,657.73 0.242,0.239 0.739,0.82 3.121,3.441 1.527,1.68 3.16,3.43 0.782,0.82 0.781,0.86 1.609,1.718 3.16,3.403 6.45,6.839 13.281,13.629 0.777,0.782 0.781,0.82 4.762,4.769 6.449,6.36 13.2,12.699 27.742,25.473 67.066,55.148 76.293,54.18 81.789,50.512 101.18,54.769 105.738,51.169 59.184,26.8"
         style="fill:none;stroke:#5e81b5;stroke-width:11.52;stroke-linecap:square;stroke-linejoin:miter;stroke-miterlimit:3.25;stroke-dasharray:none;stroke-opacity:1"
         id="path34" /><path
         d="m 715.469,1039.73 189.101,81.36 118.2,50.75 121.68,55.04 103.71,51.36 46.45,25.74 44.34,24.61 86.21,54.65 69.8,50.98 65.55,55.27 55.74,54.26 45.59,50.59 43.71,54.88 36.33,51.21 32.14,50.23 31.72,54.5 27.07,50.86 27.11,55.07 18.09,39.18"
         style="fill:none;stroke:#5e81b5;stroke-width:11.52;stroke-linecap:square;stroke-linejoin:miter;stroke-miterlimit:3.25;stroke-dasharray:none;stroke-opacity:1"
         id="path36" /><path
         d="m 1878.75,1951.91 26.52,61.14 22.39,54.72 19.92,51.06 20.74,55.35 19.73,54.37 17.97,50.67 19.14,55 17.69,51.29 17.31,50.31 18.82,54.61 17.78,50.9 0.62,1.79 0.63,1.76 3.75,10.67 5.04,14.22 0.62,1.79 0.67,1.76 1.25,3.56 2.54,7.1 0.62,1.8 0.66,1.76 1.25,3.55 0.32,0.9 0.35,0.86 0.94,2.7 0.31,0.86 0.31,0.89 0.35,0.9"
         style="fill:none;stroke:#5e81b5;stroke-width:11.52;stroke-linecap:square;stroke-linejoin:miter;stroke-miterlimit:3.25;stroke-dasharray:none;stroke-opacity:1"
         id="path38" /><path
         d="m 2309.34,9.80078 0.35,0.78902 0.35,0.8204 0.66,1.5586 1.37,3.1601 2.77,6.3711 5.51,12.6992 11.1,25.4219 24.37,55.0779 23.4,51.41 23.63,50.43 26.64,54.691 0.39,0.821 0.39,0.777 0.78,1.602 1.61,3.199 3.2,6.371 6.48,12.77 0.39,0.781 0.43,0.789 0.82,1.601 1.61,3.2 3.28,6.371 0.43,0.816 0.39,0.781 0.82,1.602 1.68,3.199 3.32,6.371 0.43,0.86 0.47,0.859 0.89,1.719 0.47,0.902 0.43,0.859 0.9,1.719 0.94,1.711 0.31,0.629"
         style="fill:none;stroke:#5e81b5;stroke-width:11.52;stroke-linecap:square;stroke-linejoin:miter;stroke-miterlimit:3.25;stroke-dasharray:none;stroke-opacity:1"
         id="path40" /><path
         d="m 131.641,334.18 0.199,0.351 0.461,0.86 0.898,1.718 0.473,0.86 0.43,0.859 0.937,1.723 1.84,3.469 3.711,6.921 0.93,1.719 0.902,1.75 1.879,3.442 3.75,6.918 7.609,13.82 0.942,1.719 0.937,1.679 1.871,3.403 3.789,6.8 7.699,13.547 15.743,27.153 30.898,50.66 36.012,54.969 36.41,51.25 38.789,50.269 13.051,16.051"
         style="fill:none;stroke:#5e81b5;stroke-width:11.52;stroke-linecap:square;stroke-linejoin:miter;stroke-miterlimit:3.25;stroke-dasharray:none;stroke-opacity:1"
         id="path42" /><path
         d="m 343.16,657.73 79.07,87.782 56.872,55.148 62.226,54.18 64.371,50.512 77.231,54.769 29.41,19.488"
         style="fill:none;stroke:#5e81b5;stroke-width:11.52;stroke-linecap:square;stroke-linejoin:miter;stroke-miterlimit:3.25;stroke-dasharray:none;stroke-opacity:1"
         id="path44" /><path
         d="m 714.879,981.289 140.633,85.391 97.847,54.41 95.081,50.75 104.45,55.04 96.17,51.36 46.37,25.74 44.26,24.61 92.34,54.65 79.42,50.98 78.35,55.27 69.22,54.26 58.21,50.59 56.91,54.88 47.93,51.21 42.77,50.23 12.89,16.06"
         style="fill:none;stroke:#5e81b5;stroke-width:11.52;stroke-linecap:square;stroke-linejoin:miter;stroke-miterlimit:3.25;stroke-dasharray:none;stroke-opacity:1"
         id="path46" /><path
         d="m 1879.02,1768.36 64.46,87.66 36.29,55.07 24.14,39.18"
         style="fill:none;stroke:#5e81b5;stroke-width:11.52;stroke-linecap:square;stroke-linejoin:miter;stroke-miterlimit:3.25;stroke-dasharray:none;stroke-opacity:1"
         id="path48" /><path
         d="m 2004.88,1951.91 35.28,61.14 29.61,54.72 26.17,51.06 27.11,55.35 25.54,54.37 23.05,50.67 24.38,55 22.34,51.29 21.6,50.31 23.28,54.61 21.72,50.9 0.35,0.9 0.39,0.89 0.78,1.76 1.53,3.56 3.01,7.11 6.09,14.22 0.78,1.79 0.74,1.76 1.53,3.56 3.08,7.1 0.35,0.9 0.39,0.9 0.79,1.76 1.52,3.55 0.39,0.9 0.35,0.86 1.17,2.7 0.39,0.86 0.36,0.89 0.39,0.9"
         style="fill:none;stroke:#5e81b5;stroke-width:11.52;stroke-linecap:square;stroke-linejoin:miter;stroke-miterlimit:3.25;stroke-dasharray:none;stroke-opacity:1"
         id="path50" /><path
         d="m 783.012,9.80078 0.109,0.78902 0.16,0.8204 0.27,1.5586 0.59,3.1601 1.168,6.3711 2.312,12.6992 4.527,25.4219 9.731,55.0779 8.941,51.41 8.711,50.43 9.418,54.691 8.903,51.051 9.769,55.309 9.879,54.301 9.488,50.66 10.742,54.969 10.551,51.25 10.938,50.269 3.672,16.051"
         style="fill:none;stroke:#5e81b5;stroke-width:11.52;stroke-linecap:square;stroke-linejoin:miter;stroke-miterlimit:3.25;stroke-dasharray:none;stroke-opacity:1"
         id="path52" /><path
         d="m 903.238,657.73 21.602,87.782 15.281,55.148 16.719,54.18 17.461,50.512 21.64,54.769 23.399,51.169 1.71,3.44 1.76,3.47 3.52,6.92 7.3,13.86 15.71,27.7 1.01,1.72 1.02,1.68 2.07,3.4 4.22,6.79 8.71,13.6 18.83,27.22 0.58,0.79 0.55,0.78 1.17,1.6 2.38,3.16 4.81,6.33 10.04,12.7 0.62,0.82 0.67,0.78 1.28,1.56 2.62,3.2 5.35,6.33 11.18,12.7 1.56,1.71 1.6,1.72 3.16,3.44 6.57,6.88 13.71,13.75 0.86,0.86 2.69,2.57 3.63,3.44 7.43,6.88 15.7,13.79 0.94,0.78 0.93,0.82 1.92,1.6 3.9,3.2 7.93,6.41 16.76,12.85 1.1,0.82 1.05,0.78 2.23,1.6 4.41,3.21 9.14,6.44 19.22,12.85 1.25,0.78 1.21,0.78 2.5,1.57 5,3.16 10.31,6.29 21.8,12.58 1.41,0.78 1.4,0.82 2.85,1.56 5.83,3.17 11.95,6.29 25.27,12.57 1.76,0.86 1.8,0.86 3.63,1.68 7.34,3.44 15.12,6.84 32.27,13.63 4.21,1.72 4.26,1.72 8.67,3.39 17.89,6.84 38.09,13.67 2.31,0.78 2.34,0.82 4.69,1.57 9.53,3.2 19.57,6.37 41.4,12.73 91.92,25.51 3.36,0.86 3.32,0.86 6.72,1.76 13.59,3.43 27.85,6.92 58.09,13.79 111.17,24.88"
         style="fill:none;stroke:#5e81b5;stroke-width:11.52;stroke-linecap:square;stroke-linejoin:miter;stroke-miterlimit:3.25;stroke-dasharray:none;stroke-opacity:1"
         id="path54" /><path
         d="m 1882.19,1488.36 257.38,55.39 7.11,1.56 7.07,1.6 14.06,3.17 27.74,6.33 53.71,12.61 3.28,0.82 3.28,0.78 6.48,1.57 12.86,3.16 25.19,6.33 48.17,12.66 6.32,1.71 6.25,1.72 12.31,3.44 24.02,6.84 5.86,1.72 5.78,1.71 11.45,3.44 2.85,0.86 2.81,0.86 5.59,1.72 10.97,3.44 2.74,0.86 2.69,0.82 5.39,1.72 2.66,0.85 2.03,0.67"
         style="fill:none;stroke:#5e81b5;stroke-width:11.52;stroke-linecap:square;stroke-linejoin:miter;stroke-miterlimit:3.25;stroke-dasharray:none;stroke-opacity:1"
         id="path56" /><path
         d="m 133.75,1628.36 0.82,0.27 2.621,0.86 7.731,2.58 10.156,3.44 5,1.72 4.961,1.72 9.762,3.39 21.058,7.66 2.153,0.82 4.258,1.6 8.39,3.2 16.289,6.41 30.75,12.81 1.871,0.78 1.84,0.83 3.629,1.6 7.191,3.2 13.942,6.41 26.328,12.77 1.52,0.78 1.57,0.82 3.039,1.56 6.062,3.13 11.719,6.29 22.219,12.54 2.66,1.56 2.66,1.6 5.192,3.13 10.16,6.28 19.25,12.54 2.5,1.72 2.5,1.68 4.89,3.4 9.528,6.84 18.051,13.59 2.179,1.72 2.153,1.72 4.218,3.4 8.239,6.79 15.711,13.64 0.859,0.78 0.891,0.82 1.761,1.56 3.438,3.2 6.761,6.33 12.891,12.74 23.59,25.43 1.488,1.71 1.52,1.72 2.929,3.44 5.782,6.88 11.05,13.78 20.282,27.54 0.539,0.82 0.59,0.82 3.281,4.81 4.34,6.44 8.316,12.86 8.281,13.43"
         style="fill:none;stroke:#5e81b5;stroke-width:11.52;stroke-linecap:square;stroke-linejoin:miter;stroke-miterlimit:3.25;stroke-dasharray:none;stroke-opacity:1"
         id="path58" /><path
         d="m 588.121,1951.91 7.149,12.23 0.902,1.6 1.797,3.13 3.511,6.33 6.801,12.61 12.809,25.24 24.648,54.72 19.852,51.06 18.898,55.35 16.453,54.37 12.457,45.28"
         style="fill:none;stroke:#5e81b5;stroke-width:11.52;stroke-linecap:square;stroke-linejoin:miter;stroke-miterlimit:3.25;stroke-dasharray:none;stroke-opacity:1"
         id="path60" /><path
         d="m 713.828,2275.47 14.723,58.75 11.879,51.29 10.898,50.31 11.133,54.61 9.918,50.9 0.16,0.9 0.191,0.89 0.321,1.76 0.66,3.56 1.367,7.11 2.652,14.22 0.161,0.89 0.199,0.9 0.308,1.76 1.993,10.66 0.308,1.8 0.321,1.76 0.66,3.55 0.16,0.9 0.148,0.86 0.352,1.8 0.16,0.9 0.16,0.86 0.149,0.89 0.203,0.9"
         style="fill:none;stroke:#5e81b5;stroke-width:11.52;stroke-linecap:square;stroke-linejoin:miter;stroke-miterlimit:3.25;stroke-dasharray:none;stroke-opacity:1"
         id="path62" /><path
         d="m 475.039,9.80078 0.27,0.78902 0.281,0.8204 0.582,1.5586 1.129,3.1601 2.269,6.3711 4.532,12.6992 9.019,25.4219 19.219,55.0779 17.781,51.41 17.34,50.43 18.867,54.691 17.731,51.051 19.57,55.309 19.73,54.301 18.942,50.66 21.371,54.969 20.859,51.25 21.559,50.269 7.148,16.051"
         style="fill:none;stroke:#5e81b5;stroke-width:11.52;stroke-linecap:square;stroke-linejoin:miter;stroke-miterlimit:3.25;stroke-dasharray:none;stroke-opacity:1"
         id="path64" /><path
         d="m 713.98,657.73 41.879,87.782 29.219,55.148 31.371,54.18 32.18,50.512 38.832,54.769 40.66,51.169 49.93,55.39 56.249,54.41 60.27,50.75 75.35,55.04 81.13,51.36 46.33,25.74 44.22,24.61 110.39,54.65 112.78,50.98 128.71,55.27 127.07,54.26 55.97,24.53"
         style="fill:none;stroke:#5e81b5;stroke-width:11.52;stroke-linecap:square;stroke-linejoin:miter;stroke-miterlimit:3.25;stroke-dasharray:none;stroke-opacity:1"
         id="path66" /><path
         d="m 1880.23,1569.92 167.58,79.3 94.69,51.21 81.84,50.23 77.26,54.5 62.46,50.86 1.02,0.86 6.83,6.01 7.7,6.88 14.96,13.78 0.94,0.86 0.9,0.86 1.83,1.72 3.64,3.44 7.14,6.91 13.95,13.75 0.78,0.82 0.82,0.82 1.56,1.61 3.17,3.2 6.25,6.44 0.78,0.79 0.74,0.82 1.56,1.6 3.05,3.24 6.05,6.41 0.75,0.82 0.74,0.78 1.48,1.64 2.97,3.2 0.74,0.78 0.75,0.82 1.44,1.6 0.74,0.82 0.75,0.79 0.7,0.82 0.74,0.82 0.51,0.54"
         style="fill:none;stroke:#5e81b5;stroke-width:11.52;stroke-linecap:square;stroke-linejoin:miter;stroke-miterlimit:3.25;stroke-dasharray:none;stroke-opacity:1"
         id="path68" /><path
         d="m 131.949,1951.91 0.903,1.02 0.738,0.82 0.711,0.78 1.437,1.6 0.711,0.82 0.699,0.78 1.442,1.65 2.82,3.2 0.699,0.78 0.661,0.78 1.371,1.6 2.738,3.13 5.422,6.33 10.551,12.61 20.238,25.24 40.148,54.72 33.672,51.06 32.969,55.35 29.461,54.37 25.39,50.67 25.579,55 22.39,51.29 20.781,50.31 21.52,54.61 19.262,50.9 0.617,1.79 0.672,1.76 1.328,3.56 7.851,21.33 0.622,1.79 0.668,1.76 3.859,10.66 0.32,0.9 0.352,0.9 0.621,1.76 1.289,3.55 0.309,0.9 0.32,0.86 0.66,1.8 0.309,0.9 0.32,0.86 0.312,0.89 0.348,0.9"
         style="fill:none;stroke:#5e81b5;stroke-width:11.52;stroke-linecap:square;stroke-linejoin:miter;stroke-miterlimit:3.25;stroke-dasharray:none;stroke-opacity:1"
         id="path70" /><path
         d="m 282.66,9.80078 0.352,0.78902 0.308,0.8204 0.7,1.5586 1.371,3.1601 2.73,6.3711 5.469,12.6992 10.859,25.4219 23.52,55.0779 21.91,51.41 21.641,50.43 23.75,54.691 22.621,51.051 25.121,55.309 25.539,54.301 24.73,50.66 28.047,54.969 27.621,51.25 28.672,50.269 9.488,16.051"
         style="fill:none;stroke:#5e81b5;stroke-width:11.52;stroke-linecap:square;stroke-linejoin:miter;stroke-miterlimit:3.25;stroke-dasharray:none;stroke-opacity:1"
         id="path72" /><path
         d="m 588.121,657.73 55.981,87.782 39.097,55.148 29.77,38.949"
         style="fill:none;stroke:#5e81b5;stroke-width:11.52;stroke-linecap:square;stroke-linejoin:miter;stroke-miterlimit:3.25;stroke-dasharray:none;stroke-opacity:1"
         id="path74" /><path
         d="m 714.262,841.289 53.707,64.063 51.25,54.769 52.929,51.169 63.75,55.39 69.762,54.41 72,50.75 85.74,55.04 86.83,51.36 46.33,25.74 44.22,24.61 102.27,54.65 96.83,50.98 103.48,55.27 97.38,54.26 85.2,50.59 51.17,32.38"
         style="fill:none;stroke:#5e81b5;stroke-width:11.52;stroke-linecap:square;stroke-linejoin:miter;stroke-miterlimit:3.25;stroke-dasharray:none;stroke-opacity:1"
         id="path76" /><path
         d="m 1879.65,1628.36 103.71,72.07 64.26,50.23 62.89,54.5 52.89,50.86 51.72,55.07 33.71,39.18"
         style="fill:none;stroke:#5e81b5;stroke-width:11.52;stroke-linecap:square;stroke-linejoin:miter;stroke-miterlimit:3.25;stroke-dasharray:none;stroke-opacity:1"
         id="path78" /><path
         d="m 2250.2,1951.91 48,61.14 39.07,54.72 33.67,51.06 33.86,55.35 1.02,1.72 1.02,1.68 1.99,3.4 3.94,6.79 7.82,13.6 0.5,0.86 0.47,0.82 0.98,1.72 5.74,10.19 7.58,13.59 0.47,0.79 0.43,0.78 0.86,1.6 1.76,3.16 3.47,6.33 0.43,0.78 0.43,0.82 0.86,1.57 1.72,3.16 3.44,6.37 0.86,1.56 0.82,1.6 1.71,3.16 0.86,1.57 0.82,1.6 1.68,3.16 0.43,0.78 0.43,0.82 0.82,1.57 0.43,0.78 0.43,0.82 0.82,1.56 0.43,0.78 0.08,0.16"
         style="fill:none;stroke:#5e81b5;stroke-width:11.52;stroke-linecap:square;stroke-linejoin:miter;stroke-miterlimit:3.25;stroke-dasharray:none;stroke-opacity:1"
         id="path80" /><path
         d="m 131.641,2275.47 0.738,1.41 0.43,0.78 0.82,1.56 0.43,0.86 0.472,0.86 2.699,5.15 3.551,6.88 7.071,13.75 13.867,27.5 25.082,51.29 23.668,50.31 24.84,54.61 22.621,50.9 0.781,1.79 0.777,1.76 1.563,3.56 3.09,7.11 6.211,14.22 0.777,1.79 0.75,1.76 1.562,3.56 3.079,7.1 0.359,0.9 0.391,0.9 0.781,1.76 1.519,3.55 0.391,0.9 0.391,0.86 0.777,1.8 0.351,0.9 0.399,0.86 0.781,1.79"
         style="fill:none;stroke:#5e81b5;stroke-width:11.52;stroke-linecap:square;stroke-linejoin:miter;stroke-miterlimit:3.25;stroke-dasharray:none;stroke-opacity:1"
         id="path82" /><path
         d="m 35.4297,1303.98 v 17.39"
         style="fill:none;stroke:#000000;stroke-width:3.6;stroke-linecap:butt;stroke-linejoin:miter;stroke-miterlimit:3.25;stroke-dasharray:none;stroke-opacity:1"
         id="path84" /><path
         d="m 109.57,1303.98 v 17.39"
         style="fill:none;stroke:#000000;stroke-width:3.6;stroke-linecap:butt;stroke-linejoin:miter;stroke-miterlimit:3.25;stroke-dasharray:none;stroke-opacity:1"
         id="path86" /><path
         d="m 183.711,1303.98 v 28.95"
         style="fill:none;stroke:#000000;stroke-width:3.6;stroke-linecap:butt;stroke-linejoin:miter;stroke-miterlimit:3.25;stroke-dasharray:none;stroke-opacity:1"
         id="path88" /><g
         id="g90"
         transform="scale(10)"><text
           transform="matrix(1,0,0,-1,14.8172,122.068)"
           style="font-variant:normal;font-size:6.47949px;font-family:f-0;-inkscape-font-specification:f-0-0;writing-mode:lr-tb;fill:#000000;fill-opacity:1;fill-rule:nonzero;stroke:none"
           id="text94"><tspan
             x="0"
             y="0"
             id="tspan92">-</tspan></text><text
           transform="matrix(1,0,0,-1,18.31603,122.068)"
           style="font-variant:normal;font-size:6.47949px;font-family:f-1;-inkscape-font-specification:f-1-0;writing-mode:lr-tb;fill:#000000;fill-opacity:1;fill-rule:nonzero;stroke:none"
           id="text98"><tspan
             x="0"
             y="0"
             id="tspan96">3</tspan></text></g><path
         d="m 257.852,1303.98 v 17.39"
         style="fill:none;stroke:#000000;stroke-width:3.6;stroke-linecap:butt;stroke-linejoin:miter;stroke-miterlimit:3.25;stroke-dasharray:none;stroke-opacity:1"
         id="path100" /><path
         d="m 332.031,1303.98 v 17.39"
         style="fill:none;stroke:#000000;stroke-width:3.6;stroke-linecap:butt;stroke-linejoin:miter;stroke-miterlimit:3.25;stroke-dasharray:none;stroke-opacity:1"
         id="path102" /><path
         d="m 406.172,1303.98 v 17.39"
         style="fill:none;stroke:#000000;stroke-width:3.6;stroke-linecap:butt;stroke-linejoin:miter;stroke-miterlimit:3.25;stroke-dasharray:none;stroke-opacity:1"
         id="path104" /><path
         d="m 480.309,1303.98 v 17.39"
         style="fill:none;stroke:#000000;stroke-width:3.6;stroke-linecap:butt;stroke-linejoin:miter;stroke-miterlimit:3.25;stroke-dasharray:none;stroke-opacity:1"
         id="path106" /><path
         d="m 554.488,1303.98 v 28.95"
         style="fill:none;stroke:#000000;stroke-width:3.6;stroke-linecap:butt;stroke-linejoin:miter;stroke-miterlimit:3.25;stroke-dasharray:none;stroke-opacity:1"
         id="path108" /><g
         id="g110"
         transform="scale(10)"><text
           transform="matrix(1,0,0,-1,51.893,122.068)"
           style="font-variant:normal;font-size:6.47949px;font-family:f-0;-inkscape-font-specification:f-0-0;writing-mode:lr-tb;fill:#000000;fill-opacity:1;fill-rule:nonzero;stroke:none"
           id="text114"><tspan
             x="0"
             y="0"
             id="tspan112">-</tspan></text><text
           transform="matrix(1,0,0,-1,55.39183,122.068)"
           style="font-variant:normal;font-size:6.47949px;font-family:f-1;-inkscape-font-specification:f-1-0;writing-mode:lr-tb;fill:#000000;fill-opacity:1;fill-rule:nonzero;stroke:none"
           id="text118"><tspan
             x="0"
             y="0"
             id="tspan116">2</tspan></text></g><path
         d="m 628.629,1303.98 v 17.39"
         style="fill:none;stroke:#000000;stroke-width:3.6;stroke-linecap:butt;stroke-linejoin:miter;stroke-miterlimit:3.25;stroke-dasharray:none;stroke-opacity:1"
         id="path120" /><path
         d="m 702.77,1303.98 v 17.39"
         style="fill:none;stroke:#000000;stroke-width:3.6;stroke-linecap:butt;stroke-linejoin:miter;stroke-miterlimit:3.25;stroke-dasharray:none;stroke-opacity:1"
         id="path122" /><path
         d="m 776.949,1303.98 v 17.39"
         style="fill:none;stroke:#000000;stroke-width:3.6;stroke-linecap:butt;stroke-linejoin:miter;stroke-miterlimit:3.25;stroke-dasharray:none;stroke-opacity:1"
         id="path124" /><path
         d="m 851.09,1303.98 v 17.39"
         style="fill:none;stroke:#000000;stroke-width:3.6;stroke-linecap:butt;stroke-linejoin:miter;stroke-miterlimit:3.25;stroke-dasharray:none;stroke-opacity:1"
         id="path126" /><path
         d="m 925.23,1303.98 v 28.95"
         style="fill:none;stroke:#000000;stroke-width:3.6;stroke-linecap:butt;stroke-linejoin:miter;stroke-miterlimit:3.25;stroke-dasharray:none;stroke-opacity:1"
         id="path128" /><g
         id="g130"
         transform="scale(10)"><text
           transform="matrix(1,0,0,-1,88.9691,122.068)"
           style="font-variant:normal;font-size:6.47949px;font-family:f-0;-inkscape-font-specification:f-0-0;writing-mode:lr-tb;fill:#000000;fill-opacity:1;fill-rule:nonzero;stroke:none"
           id="text134"><tspan
             x="0"
             y="0"
             id="tspan132">-</tspan></text><text
           transform="matrix(1,0,0,-1,92.46793,122.068)"
           style="font-variant:normal;font-size:6.47949px;font-family:f-1;-inkscape-font-specification:f-1-0;writing-mode:lr-tb;fill:#000000;fill-opacity:1;fill-rule:nonzero;stroke:none"
           id="text138"><tspan
             x="0"
             y="0"
             id="tspan136">1</tspan></text></g><path
         d="m 999.379,1303.98 v 17.39"
         style="fill:none;stroke:#000000;stroke-width:3.6;stroke-linecap:butt;stroke-linejoin:miter;stroke-miterlimit:3.25;stroke-dasharray:none;stroke-opacity:1"
         id="path140" /><path
         d="m 1073.55,1303.98 v 17.39"
         style="fill:none;stroke:#000000;stroke-width:3.6;stroke-linecap:butt;stroke-linejoin:miter;stroke-miterlimit:3.25;stroke-dasharray:none;stroke-opacity:1"
         id="path142" /><path
         d="m 1147.7,1303.98 v 17.39"
         style="fill:none;stroke:#000000;stroke-width:3.6;stroke-linecap:butt;stroke-linejoin:miter;stroke-miterlimit:3.25;stroke-dasharray:none;stroke-opacity:1"
         id="path144" /><path
         d="m 1221.84,1303.98 v 17.39"
         style="fill:none;stroke:#000000;stroke-width:3.6;stroke-linecap:butt;stroke-linejoin:miter;stroke-miterlimit:3.25;stroke-dasharray:none;stroke-opacity:1"
         id="path146" /><path
         d="m 1296.02,1303.98 v 28.95"
         style="fill:none;stroke:#000000;stroke-width:3.6;stroke-linecap:butt;stroke-linejoin:miter;stroke-miterlimit:3.25;stroke-dasharray:none;stroke-opacity:1"
         id="path148" /><path
         d="m 1370.16,1303.98 v 17.39"
         style="fill:none;stroke:#000000;stroke-width:3.6;stroke-linecap:butt;stroke-linejoin:miter;stroke-miterlimit:3.25;stroke-dasharray:none;stroke-opacity:1"
         id="path150" /><path
         d="m 1444.3,1303.98 v 17.39"
         style="fill:none;stroke:#000000;stroke-width:3.6;stroke-linecap:butt;stroke-linejoin:miter;stroke-miterlimit:3.25;stroke-dasharray:none;stroke-opacity:1"
         id="path152" /><path
         d="m 1518.44,1303.98 v 17.39"
         style="fill:none;stroke:#000000;stroke-width:3.6;stroke-linecap:butt;stroke-linejoin:miter;stroke-miterlimit:3.25;stroke-dasharray:none;stroke-opacity:1"
         id="path154" /><path
         d="m 1592.62,1303.98 v 17.39"
         style="fill:none;stroke:#000000;stroke-width:3.6;stroke-linecap:butt;stroke-linejoin:miter;stroke-miterlimit:3.25;stroke-dasharray:none;stroke-opacity:1"
         id="path156" /><path
         d="m 1666.76,1303.98 v 28.95"
         style="fill:none;stroke:#000000;stroke-width:3.6;stroke-linecap:butt;stroke-linejoin:miter;stroke-miterlimit:3.25;stroke-dasharray:none;stroke-opacity:1"
         id="path158" /><g
         id="g160"
         transform="scale(10)"><text
           transform="matrix(1,0,0,-1,164.873,122.068)"
           style="font-variant:normal;font-size:6.47949px;font-family:f-1;-inkscape-font-specification:f-1-0;writing-mode:lr-tb;fill:#000000;fill-opacity:1;fill-rule:nonzero;stroke:none"
           id="text164"><tspan
             x="0"
             y="0"
             id="tspan162">1</tspan></text></g><path
         d="m 1740.9,1303.98 v 17.39"
         style="fill:none;stroke:#000000;stroke-width:3.6;stroke-linecap:butt;stroke-linejoin:miter;stroke-miterlimit:3.25;stroke-dasharray:none;stroke-opacity:1"
         id="path166" /><path
         d="m 1815.08,1303.98 v 17.39"
         style="fill:none;stroke:#000000;stroke-width:3.6;stroke-linecap:butt;stroke-linejoin:miter;stroke-miterlimit:3.25;stroke-dasharray:none;stroke-opacity:1"
         id="path168" /><path
         d="m 1889.22,1303.98 v 17.39"
         style="fill:none;stroke:#000000;stroke-width:3.6;stroke-linecap:butt;stroke-linejoin:miter;stroke-miterlimit:3.25;stroke-dasharray:none;stroke-opacity:1"
         id="path170" /><path
         d="m 1963.36,1303.98 v 17.39"
         style="fill:none;stroke:#000000;stroke-width:3.6;stroke-linecap:butt;stroke-linejoin:miter;stroke-miterlimit:3.25;stroke-dasharray:none;stroke-opacity:1"
         id="path172" /><path
         d="m 2037.54,1303.98 v 28.95"
         style="fill:none;stroke:#000000;stroke-width:3.6;stroke-linecap:butt;stroke-linejoin:miter;stroke-miterlimit:3.25;stroke-dasharray:none;stroke-opacity:1"
         id="path174" /><g
         id="g176"
         transform="scale(10)"><text
           transform="matrix(1,0,0,-1,201.95,122.068)"
           style="font-variant:normal;font-size:6.47949px;font-family:f-1;-inkscape-font-specification:f-1-0;writing-mode:lr-tb;fill:#000000;fill-opacity:1;fill-rule:nonzero;stroke:none"
           id="text180"><tspan
             x="0"
             y="0"
             id="tspan178">2</tspan></text></g><path
         d="m 2111.68,1303.98 v 17.39"
         style="fill:none;stroke:#000000;stroke-width:3.6;stroke-linecap:butt;stroke-linejoin:miter;stroke-miterlimit:3.25;stroke-dasharray:none;stroke-opacity:1"
         id="path182" /><path
         d="m 2185.82,1303.98 v 17.39"
         style="fill:none;stroke:#000000;stroke-width:3.6;stroke-linecap:butt;stroke-linejoin:miter;stroke-miterlimit:3.25;stroke-dasharray:none;stroke-opacity:1"
         id="path184" /><path
         d="m 2259.96,1303.98 v 17.39"
         style="fill:none;stroke:#000000;stroke-width:3.6;stroke-linecap:butt;stroke-linejoin:miter;stroke-miterlimit:3.25;stroke-dasharray:none;stroke-opacity:1"
         id="path186" /><path
         d="m 2334.14,1303.98 v 17.39"
         style="fill:none;stroke:#000000;stroke-width:3.6;stroke-linecap:butt;stroke-linejoin:miter;stroke-miterlimit:3.25;stroke-dasharray:none;stroke-opacity:1"
         id="path188" /><path
         d="m 2408.28,1303.98 v 28.95"
         style="fill:none;stroke:#000000;stroke-width:3.6;stroke-linecap:butt;stroke-linejoin:miter;stroke-miterlimit:3.25;stroke-dasharray:none;stroke-opacity:1"
         id="path190" /><g
         id="g192"
         transform="scale(10)"><text
           transform="matrix(1,0,0,-1,239.025,122.068)"
           style="font-variant:normal;font-size:6.47949px;font-family:f-1;-inkscape-font-specification:f-1-0;writing-mode:lr-tb;fill:#000000;fill-opacity:1;fill-rule:nonzero;stroke:none"
           id="text196"><tspan
             x="0"
             y="0"
             id="tspan194">3</tspan></text></g><path
         d="m 2482.42,1303.98 v 17.39"
         style="fill:none;stroke:#000000;stroke-width:3.6;stroke-linecap:butt;stroke-linejoin:miter;stroke-miterlimit:3.25;stroke-dasharray:none;stroke-opacity:1"
         id="path198" /><path
         d="m 2556.6,1303.98 v 17.39"
         style="fill:none;stroke:#000000;stroke-width:3.6;stroke-linecap:butt;stroke-linejoin:miter;stroke-miterlimit:3.25;stroke-dasharray:none;stroke-opacity:1"
         id="path200" /><path
         d="M 1.80078,1303.98 H 2590.2"
         style="fill:none;stroke:#000000;stroke-width:3.6;stroke-linecap:butt;stroke-linejoin:miter;stroke-miterlimit:3.25;stroke-dasharray:none;stroke-opacity:1"
         id="path202" /><path
         d="m 1296.02,68.1211 h 28.9"
         style="fill:none;stroke:#000000;stroke-width:3.6;stroke-linecap:butt;stroke-linejoin:miter;stroke-miterlimit:3.25;stroke-dasharray:none;stroke-opacity:1"
         id="path204" /><g
         id="g206"
         transform="scale(10)"><text
           transform="matrix(1,0,0,-1,120.33,4.64883)"
           style="font-variant:normal;font-size:6.47949px;font-family:f-0;-inkscape-font-specification:f-0-0;writing-mode:lr-tb;fill:#000000;fill-opacity:1;fill-rule:nonzero;stroke:none"
           id="text210"><tspan
             x="0"
             y="0"
             id="tspan208">-</tspan></text><text
           transform="matrix(1,0,0,-1,123.82883,4.64883)"
           style="font-variant:normal;font-size:6.47949px;font-family:f-1;-inkscape-font-specification:f-1-0;writing-mode:lr-tb;fill:#000000;fill-opacity:1;fill-rule:nonzero;stroke:none"
           id="text214"><tspan
             x="0"
             y="0"
             id="tspan212">3</tspan></text></g><path
         d="m 1296.02,150.512 h 17.34"
         style="fill:none;stroke:#000000;stroke-width:3.6;stroke-linecap:butt;stroke-linejoin:miter;stroke-miterlimit:3.25;stroke-dasharray:none;stroke-opacity:1"
         id="path216" /><path
         d="m 1296.02,232.93 h 17.34"
         style="fill:none;stroke:#000000;stroke-width:3.6;stroke-linecap:butt;stroke-linejoin:miter;stroke-miterlimit:3.25;stroke-dasharray:none;stroke-opacity:1"
         id="path218" /><path
         d="m 1296.02,315.309 h 17.34"
         style="fill:none;stroke:#000000;stroke-width:3.6;stroke-linecap:butt;stroke-linejoin:miter;stroke-miterlimit:3.25;stroke-dasharray:none;stroke-opacity:1"
         id="path220" /><path
         d="m 1296.02,397.699 h 17.34"
         style="fill:none;stroke:#000000;stroke-width:3.6;stroke-linecap:butt;stroke-linejoin:miter;stroke-miterlimit:3.25;stroke-dasharray:none;stroke-opacity:1"
         id="path222" /><path
         d="m 1296.02,480.078 h 28.9"
         style="fill:none;stroke:#000000;stroke-width:3.6;stroke-linecap:butt;stroke-linejoin:miter;stroke-miterlimit:3.25;stroke-dasharray:none;stroke-opacity:1"
         id="path224" /><g
         id="g226"
         transform="scale(10)"><text
           transform="matrix(1,0,0,-1,120.33,45.8445)"
           style="font-variant:normal;font-size:6.47949px;font-family:f-0;-inkscape-font-specification:f-0-0;writing-mode:lr-tb;fill:#000000;fill-opacity:1;fill-rule:nonzero;stroke:none"
           id="text230"><tspan
             x="0"
             y="0"
             id="tspan228">-</tspan></text><text
           transform="matrix(1,0,0,-1,123.82883,45.8445)"
           style="font-variant:normal;font-size:6.47949px;font-family:f-1;-inkscape-font-specification:f-1-0;writing-mode:lr-tb;fill:#000000;fill-opacity:1;fill-rule:nonzero;stroke:none"
           id="text234"><tspan
             x="0"
             y="0"
             id="tspan232">2</tspan></text></g><path
         d="m 1296.02,562.461 h 17.34"
         style="fill:none;stroke:#000000;stroke-width:3.6;stroke-linecap:butt;stroke-linejoin:miter;stroke-miterlimit:3.25;stroke-dasharray:none;stroke-opacity:1"
         id="path236" /><path
         d="m 1296.02,644.879 h 17.34"
         style="fill:none;stroke:#000000;stroke-width:3.6;stroke-linecap:butt;stroke-linejoin:miter;stroke-miterlimit:3.25;stroke-dasharray:none;stroke-opacity:1"
         id="path238" /><path
         d="m 1296.02,727.27 h 17.34"
         style="fill:none;stroke:#000000;stroke-width:3.6;stroke-linecap:butt;stroke-linejoin:miter;stroke-miterlimit:3.25;stroke-dasharray:none;stroke-opacity:1"
         id="path240" /><path
         d="m 1296.02,809.648 h 17.34"
         style="fill:none;stroke:#000000;stroke-width:3.6;stroke-linecap:butt;stroke-linejoin:miter;stroke-miterlimit:3.25;stroke-dasharray:none;stroke-opacity:1"
         id="path242" /><path
         d="m 1296.02,892.031 h 28.9"
         style="fill:none;stroke:#000000;stroke-width:3.6;stroke-linecap:butt;stroke-linejoin:miter;stroke-miterlimit:3.25;stroke-dasharray:none;stroke-opacity:1"
         id="path244" /><g
         id="g246"
         transform="scale(10)"><text
           transform="matrix(1,0,0,-1,120.33,87.0402)"
           style="font-variant:normal;font-size:6.47949px;font-family:f-0;-inkscape-font-specification:f-0-0;writing-mode:lr-tb;fill:#000000;fill-opacity:1;fill-rule:nonzero;stroke:none"
           id="text250"><tspan
             x="0"
             y="0"
             id="tspan248">-</tspan></text><text
           transform="matrix(1,0,0,-1,123.82883,87.0402)"
           style="font-variant:normal;font-size:6.47949px;font-family:f-1;-inkscape-font-specification:f-1-0;writing-mode:lr-tb;fill:#000000;fill-opacity:1;fill-rule:nonzero;stroke:none"
           id="text254"><tspan
             x="0"
             y="0"
             id="tspan252">1</tspan></text></g><path
         d="m 1296.02,974.449 h 17.34"
         style="fill:none;stroke:#000000;stroke-width:3.6;stroke-linecap:butt;stroke-linejoin:miter;stroke-miterlimit:3.25;stroke-dasharray:none;stroke-opacity:1"
         id="path256" /><path
         d="m 1296.02,1056.84 h 17.34"
         style="fill:none;stroke:#000000;stroke-width:3.6;stroke-linecap:butt;stroke-linejoin:miter;stroke-miterlimit:3.25;stroke-dasharray:none;stroke-opacity:1"
         id="path258" /><path
         d="m 1296.02,1139.22 h 17.34"
         style="fill:none;stroke:#000000;stroke-width:3.6;stroke-linecap:butt;stroke-linejoin:miter;stroke-miterlimit:3.25;stroke-dasharray:none;stroke-opacity:1"
         id="path260" /><path
         d="m 1296.02,1221.6 h 17.34"
         style="fill:none;stroke:#000000;stroke-width:3.6;stroke-linecap:butt;stroke-linejoin:miter;stroke-miterlimit:3.25;stroke-dasharray:none;stroke-opacity:1"
         id="path262" /><path
         d="m 1296.02,1303.98 h 28.9"
         style="fill:none;stroke:#000000;stroke-width:3.6;stroke-linecap:butt;stroke-linejoin:miter;stroke-miterlimit:3.25;stroke-dasharray:none;stroke-opacity:1"
         id="path264" /><path
         d="m 1296.02,1386.41 h 17.34"
         style="fill:none;stroke:#000000;stroke-width:3.6;stroke-linecap:butt;stroke-linejoin:miter;stroke-miterlimit:3.25;stroke-dasharray:none;stroke-opacity:1"
         id="path266" /><path
         d="m 1296.02,1468.79 h 17.34"
         style="fill:none;stroke:#000000;stroke-width:3.6;stroke-linecap:butt;stroke-linejoin:miter;stroke-miterlimit:3.25;stroke-dasharray:none;stroke-opacity:1"
         id="path268" /><path
         d="m 1296.02,1551.17 h 17.34"
         style="fill:none;stroke:#000000;stroke-width:3.6;stroke-linecap:butt;stroke-linejoin:miter;stroke-miterlimit:3.25;stroke-dasharray:none;stroke-opacity:1"
         id="path270" /><path
         d="m 1296.02,1633.55 h 17.34"
         style="fill:none;stroke:#000000;stroke-width:3.6;stroke-linecap:butt;stroke-linejoin:miter;stroke-miterlimit:3.25;stroke-dasharray:none;stroke-opacity:1"
         id="path272" /><path
         d="m 1296.02,1715.94 h 28.9"
         style="fill:none;stroke:#000000;stroke-width:3.6;stroke-linecap:butt;stroke-linejoin:miter;stroke-miterlimit:3.25;stroke-dasharray:none;stroke-opacity:1"
         id="path274" /><g
         id="g276"
         transform="scale(10)"><text
           transform="matrix(1,0,0,-1,123.834,169.432)"
           style="font-variant:normal;font-size:6.47949px;font-family:f-1;-inkscape-font-specification:f-1-0;writing-mode:lr-tb;fill:#000000;fill-opacity:1;fill-rule:nonzero;stroke:none"
           id="text280"><tspan
             x="0"
             y="0"
             id="tspan278">1</tspan></text></g><path
         d="m 1296.02,1798.36 h 17.34"
         style="fill:none;stroke:#000000;stroke-width:3.6;stroke-linecap:butt;stroke-linejoin:miter;stroke-miterlimit:3.25;stroke-dasharray:none;stroke-opacity:1"
         id="path282" /><path
         d="m 1296.02,1880.74 h 17.34"
         style="fill:none;stroke:#000000;stroke-width:3.6;stroke-linecap:butt;stroke-linejoin:miter;stroke-miterlimit:3.25;stroke-dasharray:none;stroke-opacity:1"
         id="path284" /><path
         d="m 1296.02,1963.12 h 17.34"
         style="fill:none;stroke:#000000;stroke-width:3.6;stroke-linecap:butt;stroke-linejoin:miter;stroke-miterlimit:3.25;stroke-dasharray:none;stroke-opacity:1"
         id="path286" /><path
         d="m 1296.02,2045.51 h 17.34"
         style="fill:none;stroke:#000000;stroke-width:3.6;stroke-linecap:butt;stroke-linejoin:miter;stroke-miterlimit:3.25;stroke-dasharray:none;stroke-opacity:1"
         id="path288" /><path
         d="m 1296.02,2127.93 h 28.9"
         style="fill:none;stroke:#000000;stroke-width:3.6;stroke-linecap:butt;stroke-linejoin:miter;stroke-miterlimit:3.25;stroke-dasharray:none;stroke-opacity:1"
         id="path290" /><g
         id="g292"
         transform="scale(10)"><text
           transform="matrix(1,0,0,-1,123.834,210.627)"
           style="font-variant:normal;font-size:6.47949px;font-family:f-1;-inkscape-font-specification:f-1-0;writing-mode:lr-tb;fill:#000000;fill-opacity:1;fill-rule:nonzero;stroke:none"
           id="text296"><tspan
             x="0"
             y="0"
             id="tspan294">2</tspan></text></g><path
         d="m 1296.02,2210.31 h 17.34"
         style="fill:none;stroke:#000000;stroke-width:3.6;stroke-linecap:butt;stroke-linejoin:miter;stroke-miterlimit:3.25;stroke-dasharray:none;stroke-opacity:1"
         id="path298" /><path
         d="m 1296.02,2292.7 h 17.34"
         style="fill:none;stroke:#000000;stroke-width:3.6;stroke-linecap:butt;stroke-linejoin:miter;stroke-miterlimit:3.25;stroke-dasharray:none;stroke-opacity:1"
         id="path300" /><path
         d="m 1296.02,2375.08 h 17.34"
         style="fill:none;stroke:#000000;stroke-width:3.6;stroke-linecap:butt;stroke-linejoin:miter;stroke-miterlimit:3.25;stroke-dasharray:none;stroke-opacity:1"
         id="path302" /><path
         d="m 1296.02,2457.46 h 17.34"
         style="fill:none;stroke:#000000;stroke-width:3.6;stroke-linecap:butt;stroke-linejoin:miter;stroke-miterlimit:3.25;stroke-dasharray:none;stroke-opacity:1"
         id="path304" /><path
         d="m 1296.02,2539.88 h 28.9"
         style="fill:none;stroke:#000000;stroke-width:3.6;stroke-linecap:butt;stroke-linejoin:miter;stroke-miterlimit:3.25;stroke-dasharray:none;stroke-opacity:1"
         id="path306" /><g
         id="g308"
         transform="scale(10)"><text
           transform="matrix(1,0,0,-1,123.834,251.823)"
           style="font-variant:normal;font-size:6.47949px;font-family:f-1;-inkscape-font-specification:f-1-0;writing-mode:lr-tb;fill:#000000;fill-opacity:1;fill-rule:nonzero;stroke:none"
           id="text312"><tspan
             x="0"
             y="0"
             id="tspan310">3</tspan></text></g><path
         d="M 1296.02,9.80078 V 2598.2"
         style="fill:none;stroke:#000000;stroke-width:3.6;stroke-linecap:butt;stroke-linejoin:miter;stroke-miterlimit:3.25;stroke-dasharray:none;stroke-opacity:1"
         id="path314" /></g></g></svg>
