<?xml version="1.0" encoding="UTF-8" standalone="no"?>
<svg
   xmlns:dc="http://purl.org/dc/elements/1.1/"
   xmlns:cc="http://creativecommons.org/ns#"
   xmlns:rdf="http://www.w3.org/1999/02/22-rdf-syntax-ns#"
   xmlns:svg="http://www.w3.org/2000/svg"
   xmlns="http://www.w3.org/2000/svg"
   xmlns:sodipodi="http://sodipodi.sourceforge.net/DTD/sodipodi-0.dtd"
   xmlns:inkscape="http://www.inkscape.org/namespaces/inkscape"
   version="1.1"
   id="svg2"
   xml:space="preserve"
   width="346.66666"
   height="346.66666"
   viewBox="0 0 346.66666 346.66666"
   sodipodi:docname="vfave3iter.eps"><metadata
     id="metadata8"><rdf:RDF><cc:Work
         rdf:about=""><dc:format>image/svg+xml</dc:format><dc:type
           rdf:resource="http://purl.org/dc/dcmitype/StillImage" /></cc:Work></rdf:RDF></metadata><defs
     id="defs6" /><sodipodi:namedview
     pagecolor="#ffffff"
     bordercolor="#666666"
     borderopacity="1"
     objecttolerance="10"
     gridtolerance="10"
     guidetolerance="10"
     inkscape:pageopacity="0"
     inkscape:pageshadow="2"
     inkscape:window-width="640"
     inkscape:window-height="480"
     id="namedview4" /><g
     id="g10"
     inkscape:groupmode="layer"
     inkscape:label="ink_ext_XXXXXX"
     transform="matrix(1.3333333,0,0,-1.3333333,0,346.66667)"><g
       id="g12"
       transform="scale(0.1)"><path
         d="M 1296.02,9.80078 V 656.09"
         style="fill:none;stroke:#ff0000;stroke-width:11.52;stroke-linecap:square;stroke-linejoin:miter;stroke-miterlimit:3.25;stroke-dasharray:none;stroke-opacity:1"
         id="path14" /><path
         d="M 1296.02,657.73 V 1950.27"
         style="fill:none;stroke:#ff0000;stroke-width:11.52;stroke-linecap:square;stroke-linejoin:miter;stroke-miterlimit:3.25;stroke-dasharray:none;stroke-opacity:1"
         id="path16" /><path
         d="M 1296.02,1951.91 V 2598.2"
         style="fill:none;stroke:#ff0000;stroke-width:11.52;stroke-linecap:square;stroke-linejoin:miter;stroke-miterlimit:3.25;stroke-dasharray:none;stroke-opacity:1"
         id="path18" /><path
         d="m 2243.44,9.80078 0.58,0.78902 0.59,0.8204 1.13,1.5586 2.31,3.1601 4.61,6.3711 9.25,12.6992 18.79,25.4219 41.76,55.0779 40.55,51.41 41.25,50.43 0.74,0.859 2.11,2.582 2.89,3.399 5.74,6.832 11.6,13.668 1.49,1.723 1.44,1.718 2.93,3.399 5.9,6.832 0.74,0.859 0.71,0.86 1.48,1.718 2.97,3.403 5.98,6.839 0.66,0.821 0.7,0.777 1.41,1.602 0.7,0.781 0.71,0.82 1.4,1.598 0.67,0.781 0.7,0.789 0.7,0.821 0.71,0.781 0.7,0.82"
         style="fill:none;stroke:#5e81b5;stroke-width:11.52;stroke-linecap:square;stroke-linejoin:miter;stroke-miterlimit:3.25;stroke-dasharray:none;stroke-opacity:1"
         id="path20" /><path
         d="m 131.949,284.262 1.371,1.519 0.7,0.821 1.41,1.597 2.808,3.172 5.672,6.399 0.738,0.781 0.704,0.789 1.41,1.601 2.847,3.2 5.743,6.371 11.558,12.769 0.82,0.86 2.348,2.578 3.16,3.48 6.371,6.91 12.813,13.832 26.129,27.649 53.129,54.301 51.84,50.66 58.671,54.969 57.11,51.25 58,50.269 18.91,16.051"
         style="fill:none;stroke:#5e81b5;stroke-width:11.52;stroke-linecap:square;stroke-linejoin:miter;stroke-miterlimit:3.25;stroke-dasharray:none;stroke-opacity:1"
         id="path22" /><path
         d="m 518.16,657.73 106.57,87.782 68.981,55.148 18.867,14.93"
         style="fill:none;stroke:#5e81b5;stroke-width:11.52;stroke-linecap:square;stroke-linejoin:miter;stroke-miterlimit:3.25;stroke-dasharray:none;stroke-opacity:1"
         id="path24" /><path
         d="m 714.648,817.23 112.071,88.122 69.531,54.769 64.141,51.169 68.159,55.39 65.16,54.41 58.87,50.75 61.52,55.04 55.12,51.36 26.52,25.74 25.31,24.61 53.75,54.65 47.97,50.98 49.69,55.27 46.6,54.26 41.64,50.59 43.44,54.88 38.98,51.21 37.04,50.23 38.9,54.5 35.32,50.86 37.34,55.07 26.05,39.18"
         style="fill:none;stroke:#5e81b5;stroke-width:11.52;stroke-linecap:square;stroke-linejoin:miter;stroke-miterlimit:3.25;stroke-dasharray:none;stroke-opacity:1"
         id="path26" /><path
         d="m 1818.87,1951.91 39.96,61.14 19.02,29.41"
         style="fill:none;stroke:#5e81b5;stroke-width:11.52;stroke-linecap:square;stroke-linejoin:miter;stroke-miterlimit:3.25;stroke-dasharray:none;stroke-opacity:1"
         id="path28" /><path
         d="m 1878.91,2044.1 47.89,74.73 35.23,55.35 34.57,54.37 32.35,50.67 35.39,55 33.43,51.29 33.28,50.31 36.84,54.61 35.16,50.9 1.25,1.79 1.25,1.76 7.5,10.67 10.04,14.22 0.62,0.89 0.67,0.9 1.24,1.76 7.62,10.66 1.25,1.8 1.29,1.76 2.54,3.55 0.66,0.9 0.63,0.86 1.29,1.8 0.62,0.9 0.67,0.86 1.25,1.79"
         style="fill:none;stroke:#5e81b5;stroke-width:11.52;stroke-linecap:square;stroke-linejoin:miter;stroke-miterlimit:3.25;stroke-dasharray:none;stroke-opacity:1"
         id="path30" /><path
         d="m 2368.55,9.80078 0.63,0.78902 0.62,0.8204 1.22,1.5586 2.5,3.1601 4.92,6.3711 9.88,12.6992 19.92,25.4219 0.67,0.8594 0.7,0.8593 1.33,1.7188 2.73,3.4414 5.43,6.8789 10.9,13.7813 0.66,0.8593 0.71,0.8594 9.57,12.0311 0.7,0.86 0.66,0.859 1.37,1.723 2.78,3.437 5.5,6.91 0.63,0.781 0.66,0.821 1.29,1.609 0.63,0.781 0.66,0.821 1.29,1.597 0.62,0.821 0.67,0.781 0.62,0.82 0.67,0.778 0.43,0.589"
         style="fill:none;stroke:#5e81b5;stroke-width:11.52;stroke-linecap:square;stroke-linejoin:miter;stroke-miterlimit:3.25;stroke-dasharray:none;stroke-opacity:1"
         id="path32" /><path
         d="m 131.879,127.539 0.82,1.012 0.66,0.789 0.621,0.82 3.872,4.801 5.199,6.449 0.66,0.781 0.629,0.821 1.32,1.597 2.578,3.2 5.242,6.453 10.43,12.847 0.66,0.782 0.629,0.82 1.281,1.559 2.579,3.171 5.16,6.289 10.351,12.61 20.86,25.199 45.98,54.691 43.899,51.051 48.711,55.309 48.992,54.301 46.867,50.66 52.031,54.969 49.731,51.25 49.839,50.269 16.059,16.051"
         style="fill:none;stroke:#5e81b5;stroke-width:11.52;stroke-linecap:square;stroke-linejoin:miter;stroke-miterlimit:3.25;stroke-dasharray:none;stroke-opacity:1"
         id="path34" /><path
         d="m 609.219,657.73 89.961,87.782 13.55,13.008"
         style="fill:none;stroke:#5e81b5;stroke-width:11.52;stroke-linecap:square;stroke-linejoin:miter;stroke-miterlimit:3.25;stroke-dasharray:none;stroke-opacity:1"
         id="path36" /><path
         d="m 714.449,760.199 100.199,94.641 54.301,50.512 59.332,54.769 55.547,51.169 60.152,55.39 58.83,54.41 54.46,50.75 58.39,55.04 53.72,51.36 26.52,25.74 25.27,24.61 55.16,54.65 50.35,50.98 53.36,55.27 51.13,54.26 46.53,50.59 49.25,54.88 44.93,51.21 43.04,50.23 45.67,54.5 41.71,50.86 44.42,55.07 31.01,39.18"
         style="fill:none;stroke:#5e81b5;stroke-width:11.52;stroke-linecap:square;stroke-linejoin:miter;stroke-miterlimit:3.25;stroke-dasharray:none;stroke-opacity:1"
         id="path38" /><path
         d="m 1879.02,1951.91 47.7,61.14 42.11,54.72 38.83,51.06 41.72,55.35 40.7,54.37 37.81,50.67 40.98,55 38.28,51.29 37.69,50.31 41.18,54.61 38.78,50.9 1.33,1.79 1.37,1.76 2.73,3.56 5.43,7.11 10.94,14.22 0.7,0.89 0.67,0.9 1.37,1.76 2.73,3.56 5.51,7.1 0.66,0.9 0.71,0.9 1.36,1.76 2.74,3.55 0.7,0.9 0.7,0.86 1.37,1.8 0.66,0.9 0.71,0.86 0.7,0.89 0.66,0.9"
         style="fill:none;stroke:#5e81b5;stroke-width:11.52;stroke-linecap:square;stroke-linejoin:miter;stroke-miterlimit:3.25;stroke-dasharray:none;stroke-opacity:1"
         id="path40" /><path
         d="m 2422.42,9.80078 0.63,0.78902 0.62,0.8204 1.25,1.5586 2.5,3.1601 5,6.3711 0.63,0.7813 0.62,0.8203 1.21,1.5586 2.5,3.2109 5,6.3281 0.63,0.8203 0.66,0.7813 1.25,1.5586 2.5,3.1992 1.25,1.5625 1.25,1.6094 2.5,3.1601 0.63,0.8203 0.62,0.7774 1.25,1.6015 1.25,1.5704 1.25,1.6015 0.63,0.7774 0.62,0.8203 1.25,1.5625 0.2,0.2383"
         style="fill:none;stroke:#5e81b5;stroke-width:11.52;stroke-linecap:square;stroke-linejoin:miter;stroke-miterlimit:3.25;stroke-dasharray:none;stroke-opacity:1"
         id="path42" /><path
         d="m 131.879,59.3398 1.012,1.2813 0.66,0.8594 0.711,0.8593 1.359,1.7188 2.699,3.4414 5.469,6.8789 10.902,13.7813 21.911,27.5388 41.25,51.41 40.859,50.43 44.879,54.691 42.5,51.051 46.801,55.309 46.757,54.301 44.372,50.66 49.031,54.969 46.597,51.25 46.524,50.269 15,16.051"
         style="fill:none;stroke:#5e81b5;stroke-width:11.52;stroke-linecap:square;stroke-linejoin:miter;stroke-miterlimit:3.25;stroke-dasharray:none;stroke-opacity:1"
         id="path44" /><path
         d="m 642.699,657.73 70.11,73.719"
         style="fill:none;stroke:#5e81b5;stroke-width:11.52;stroke-linecap:square;stroke-linejoin:miter;stroke-miterlimit:3.25;stroke-dasharray:none;stroke-opacity:1"
         id="path46" /><path
         d="m 714.41,733.121 65.75,67.539 53.668,54.18 50.703,50.512 55.668,54.769 52.461,51.169 57.22,55.39 56.49,54.41 52.77,50.75 57.15,55.04 53.16,51.36 26.49,25.74 25.31,24.61 55.7,54.65 51.45,50.98 55,55.27 53.16,54.26 48.79,50.59 52.03,54.88 47.7,51.21 45.9,50.23 48.94,54.5 44.81,50.86 47.73,55.07 5.24,6.1"
         style="fill:none;stroke:#5e81b5;stroke-width:11.52;stroke-linecap:square;stroke-linejoin:miter;stroke-miterlimit:3.25;stroke-dasharray:none;stroke-opacity:1"
         id="path48" /><path
         d="m 1879.1,1918.87 26.76,31.4"
         style="fill:none;stroke:#5e81b5;stroke-width:11.52;stroke-linecap:square;stroke-linejoin:miter;stroke-miterlimit:3.25;stroke-dasharray:none;stroke-opacity:1"
         id="path50" /><path
         d="m 1907.27,1951.91 96.44,115.86 41.64,51.06 44.53,55.35 43.28,54.37 40.04,50.67 43.13,55 40.08,51.29 39.21,50.31 42.54,54.61 39.73,50.9 0.7,0.9 0.67,0.89 1.4,1.76 8.32,10.67 11.14,14.22 1.4,1.79 1.37,1.76 2.81,3.56 5.55,7.1 1.41,1.8 1.4,1.76 2.78,3.55 0.7,0.9 0.7,0.86 1.41,1.8 0.66,0.9 0.71,0.86 1.4,1.79"
         style="fill:none;stroke:#5e81b5;stroke-width:11.52;stroke-linecap:square;stroke-linejoin:miter;stroke-miterlimit:3.25;stroke-dasharray:none;stroke-opacity:1"
         id="path52" /><path
         d="m 348.551,9.80078 0.59,0.78902 0.55,0.8204 1.129,1.5586 2.301,3.1601 4.578,6.3711 9.063,12.6992 17.929,25.4219 38.118,55.0779 34.769,51.41 33.402,50.43 35.661,54.691 32.89,51.051 35.348,55.309 34.531,54.301 32.231,50.66 35.121,54.969 16.328,25.351"
         style="fill:none;stroke:#5e81b5;stroke-width:11.52;stroke-linecap:square;stroke-linejoin:miter;stroke-miterlimit:3.25;stroke-dasharray:none;stroke-opacity:1"
         id="path54" /><path
         d="m 714.141,565.551 48.48,74.488 10.539,16.051"
         style="fill:none;stroke:#5e81b5;stroke-width:11.52;stroke-linecap:square;stroke-linejoin:miter;stroke-miterlimit:3.25;stroke-dasharray:none;stroke-opacity:1"
         id="path56" /><path
         d="m 774.262,657.73 58.937,87.782 38.211,55.148 38.629,54.18 37.152,50.512 41.719,54.769 40.47,51.169 45.62,55.39 46.8,54.41 45.62,50.75 51.76,55.04 50.59,51.36 26.52,25.74 25.27,24.61 58.64,54.65 56.99,50.98 64.1,55.27 65.08,54.26 62.26,50.59 68.83,54.88 65.04,51.21 63.95,50.23 50.89,40.12"
         style="fill:none;stroke:#5e81b5;stroke-width:11.52;stroke-linecap:square;stroke-linejoin:miter;stroke-miterlimit:3.25;stroke-dasharray:none;stroke-opacity:1"
         id="path58" /><path
         d="m 1879.45,1792.42 79.77,63.6 67.66,55.07 46.95,39.18"
         style="fill:none;stroke:#5e81b5;stroke-width:11.52;stroke-linecap:square;stroke-linejoin:miter;stroke-miterlimit:3.25;stroke-dasharray:none;stroke-opacity:1"
         id="path60" /><path
         d="m 2075.78,1951.91 71.06,61.14 61.05,54.72 54.77,51.06 56.75,55.35 53.21,54.37 0.74,0.79 0.78,0.78 1.52,1.6 9.03,9.49 11.91,12.7 1.49,1.56 1.48,1.6 2.93,3.16 5.9,6.33 11.68,12.66 14.06,15.47 1.52,1.72 9.26,10.31 1.56,1.72 4.57,5.15 0.79,0.86 0.74,0.86 4.57,5.16 0.78,0.86 1.48,1.72 0.63,0.7"
         style="fill:none;stroke:#5e81b5;stroke-width:11.52;stroke-linecap:square;stroke-linejoin:miter;stroke-miterlimit:3.25;stroke-dasharray:none;stroke-opacity:1"
         id="path62" /><path
         d="m 131.949,2325.39 0.199,0.23 1.481,1.72 0.781,0.86 0.75,0.86 1.52,1.72 3.011,3.44 0.7,0.78 0.699,0.82 1.371,1.6 2.809,3.2 5.55,6.41 11.059,12.81 21.711,25.67 41.371,50.31 43.09,54.61 38.75,50.9 1.32,1.79 1.328,1.76 2.66,3.56 5.27,7.11 10.473,14.22 0.668,0.89 0.621,0.9 1.328,1.76 2.582,3.56 5.187,7.1 0.672,0.9 0.621,0.9 1.289,1.76 2.578,3.55 0.661,0.9 0.632,0.86 1.289,1.8 0.661,0.9 0.629,0.86 0.621,0.89 0.66,0.9"
         style="fill:none;stroke:#5e81b5;stroke-width:11.52;stroke-linecap:square;stroke-linejoin:miter;stroke-miterlimit:3.25;stroke-dasharray:none;stroke-opacity:1"
         id="path64" /><path
         d="m 223.441,9.80078 0.618,0.78902 0.589,0.8204 1.25,1.5586 2.461,3.1601 4.922,6.3711 9.77,12.6992 19.527,25.4219 41.953,55.0779 38.828,51.41 37.77,50.43 40.859,54.691 38.051,51.051 41.25,55.309 40.66,54.301 38.172,50.66 41.758,54.969 39.371,51.25 39.141,50.269 12.578,16.051"
         style="fill:none;stroke:#5e81b5;stroke-width:11.52;stroke-linecap:square;stroke-linejoin:miter;stroke-miterlimit:3.25;stroke-dasharray:none;stroke-opacity:1"
         id="path66" /><path
         d="m 714.262,657.73 70.148,87.782 45.199,55.148 45.352,54.18 43.277,50.512 47.973,54.769 45.899,51.169 50.98,55.39 51.32,54.41 48.99,50.75 54.37,55.04 51.84,51.36 26.48,25.74 25.32,24.61 57.14,54.65 54.11,50.98 59.29,55.27 58.67,54.26 54.97,50.59 59.61,54.88 55.46,51.21 54.03,50.23 57.97,54.5 44.88,42.65"
         style="fill:none;stroke:#5e81b5;stroke-width:11.52;stroke-linecap:square;stroke-linejoin:miter;stroke-miterlimit:3.25;stroke-dasharray:none;stroke-opacity:1"
         id="path68" /><path
         d="m 1879.26,1849.45 63.75,61.64 39.76,39.18"
         style="fill:none;stroke:#5e81b5;stroke-width:11.52;stroke-linecap:square;stroke-linejoin:miter;stroke-miterlimit:3.25;stroke-dasharray:none;stroke-opacity:1"
         id="path70" /><path
         d="m 1984.45,1951.91 60.82,61.14 53.17,54.72 48.47,51.06 51.25,55.35 49.07,54.37 44.68,50.67 47.35,55 43.2,51.29 0.66,0.78 0.63,0.82 1.33,1.56 2.62,3.13 5.19,6.29 10.43,12.57 0.63,0.79 0.66,0.82 3.87,4.68 5.19,6.29 10.28,12.58 1.4,1.72 1.37,1.72 2.81,3.4 5.55,6.83 0.7,0.82 0.67,0.86 1.4,1.72 2.77,3.4 5.51,6.83 0.71,0.86 0.66,0.86 1.41,1.68 2.73,3.44 0.7,0.82 0.67,0.86 1.4,1.72 2.74,3.4 0.66,0.86 1.41,1.72 0.66,0.86 0.24,0.27"
         style="fill:none;stroke:#5e81b5;stroke-width:11.52;stroke-linecap:square;stroke-linejoin:miter;stroke-miterlimit:3.25;stroke-dasharray:none;stroke-opacity:1"
         id="path72" /><path
         d="m 131.879,2482.11 0.5,0.62 0.711,0.86 0.66,0.86 0.699,0.86 1.371,1.68 2.731,3.44 1.25,1.56 1.289,1.6 2.539,3.21 5.082,6.36 10.16,12.7 20.109,25.47 1.411,1.79 1.41,1.76 2.808,3.56 5.551,7.11 11.129,14.22 1.41,1.79 1.36,1.76 8.32,10.66 1.41,1.8 1.371,1.76 2.77,3.55 0.66,0.9 0.711,0.86 1.359,1.8 0.711,0.9 0.699,0.86 0.66,0.89 0.711,0.9"
         style="fill:none;stroke:#5e81b5;stroke-width:11.52;stroke-linecap:square;stroke-linejoin:miter;stroke-miterlimit:3.25;stroke-dasharray:none;stroke-opacity:1"
         id="path74" /><path
         d="m 169.57,9.80078 0.629,0.78902 0.621,0.8204 1.25,1.5586 2.5,3.1601 4.961,6.3711 9.957,12.6992 19.891,25.4219 43,55.0779 40.043,51.41 39.297,50.43 42.73,54.691 40.039,51.051 43.672,55.309 43.25,54.301 40.738,50.66 44.692,54.969 42.301,51.25 42.07,50.269 13.519,16.051"
         style="fill:none;stroke:#5e81b5;stroke-width:11.52;stroke-linecap:square;stroke-linejoin:miter;stroke-miterlimit:3.25;stroke-dasharray:none;stroke-opacity:1"
         id="path76" /><path
         d="m 714.34,690.781 47.262,54.731 48.558,55.148 48.59,54.18 46.129,50.512 51.019,54.769 48.442,51.169 53.43,55.39 53.36,54.41 50.55,50.75 55.47,55.04 52.38,51.36 26.52,25.74 25.28,24.61 56.56,54.65 52.97,50.98 57.46,55.27 56.29,54.26 52.3,50.59 56.29,54.88 52.03,51.21 50.47,50.23 54.03,54.5 49.61,50.86 18.24,18.86"
         style="fill:none;stroke:#5e81b5;stroke-width:11.52;stroke-linecap:square;stroke-linejoin:miter;stroke-miterlimit:3.25;stroke-dasharray:none;stroke-opacity:1"
         id="path78" /><path
         d="m 1879.18,1876.56 70.12,73.71"
         style="fill:none;stroke:#5e81b5;stroke-width:11.52;stroke-linecap:square;stroke-linejoin:miter;stroke-miterlimit:3.25;stroke-dasharray:none;stroke-opacity:1"
         id="path80" /><path
         d="m 1950.82,1951.91 56.76,61.14 49.8,54.72 45.63,51.06 48.55,55.35 46.8,54.37 42.93,50.67 45.82,55 42.15,51.29 40.82,50.31 43.79,54.61 1.25,1.56 1.29,1.6 2.54,3.21 5.07,6.36 10.12,12.7 0.63,0.82 0.62,0.78 1.29,1.6 2.5,3.17 5.08,6.36 0.62,0.82 0.63,0.79 1.25,1.6 2.54,3.16 5.04,6.37 1.4,1.79 1.41,1.76 2.11,2.7 0.7,0.86 0.16,0.23"
         style="fill:none;stroke:#5e81b5;stroke-width:11.52;stroke-linecap:square;stroke-linejoin:miter;stroke-miterlimit:3.25;stroke-dasharray:none;stroke-opacity:1"
         id="path82" /><path
         d="m 131.879,2550.31 0.621,0.82 0.699,0.86 1.41,1.8 1.411,1.76 1.402,1.79 1.367,1.76 8.441,10.67 1.399,1.79 1.371,1.76 2.809,3.56 5.589,7.1 1.403,1.8 1.41,1.76 2.769,3.55 0.711,0.9 0.7,0.86 2.109,2.7 0.699,0.86 0.672,0.89 0.699,0.9"
         style="fill:none;stroke:#5e81b5;stroke-width:11.52;stroke-linecap:square;stroke-linejoin:miter;stroke-miterlimit:3.25;stroke-dasharray:none;stroke-opacity:1"
         id="path84" /><path
         d="m 35.4297,1303.98 v 17.39"
         style="fill:none;stroke:#000000;stroke-width:3.6;stroke-linecap:butt;stroke-linejoin:miter;stroke-miterlimit:3.25;stroke-dasharray:none;stroke-opacity:1"
         id="path86" /><path
         d="m 109.57,1303.98 v 17.39"
         style="fill:none;stroke:#000000;stroke-width:3.6;stroke-linecap:butt;stroke-linejoin:miter;stroke-miterlimit:3.25;stroke-dasharray:none;stroke-opacity:1"
         id="path88" /><path
         d="m 183.711,1303.98 v 28.95"
         style="fill:none;stroke:#000000;stroke-width:3.6;stroke-linecap:butt;stroke-linejoin:miter;stroke-miterlimit:3.25;stroke-dasharray:none;stroke-opacity:1"
         id="path90" /><g
         id="g92"
         transform="scale(10)"><text
           transform="matrix(1,0,0,-1,14.8172,122.068)"
           style="font-variant:normal;font-size:6.47949px;font-family:f-0;-inkscape-font-specification:f-0-0;writing-mode:lr-tb;fill:#000000;fill-opacity:1;fill-rule:nonzero;stroke:none"
           id="text96"><tspan
             x="0"
             y="0"
             id="tspan94">-</tspan></text><text
           transform="matrix(1,0,0,-1,18.31603,122.068)"
           style="font-variant:normal;font-size:6.47949px;font-family:f-1;-inkscape-font-specification:f-1-0;writing-mode:lr-tb;fill:#000000;fill-opacity:1;fill-rule:nonzero;stroke:none"
           id="text100"><tspan
             x="0"
             y="0"
             id="tspan98">3</tspan></text></g><path
         d="m 257.852,1303.98 v 17.39"
         style="fill:none;stroke:#000000;stroke-width:3.6;stroke-linecap:butt;stroke-linejoin:miter;stroke-miterlimit:3.25;stroke-dasharray:none;stroke-opacity:1"
         id="path102" /><path
         d="m 332.031,1303.98 v 17.39"
         style="fill:none;stroke:#000000;stroke-width:3.6;stroke-linecap:butt;stroke-linejoin:miter;stroke-miterlimit:3.25;stroke-dasharray:none;stroke-opacity:1"
         id="path104" /><path
         d="m 406.172,1303.98 v 17.39"
         style="fill:none;stroke:#000000;stroke-width:3.6;stroke-linecap:butt;stroke-linejoin:miter;stroke-miterlimit:3.25;stroke-dasharray:none;stroke-opacity:1"
         id="path106" /><path
         d="m 480.309,1303.98 v 17.39"
         style="fill:none;stroke:#000000;stroke-width:3.6;stroke-linecap:butt;stroke-linejoin:miter;stroke-miterlimit:3.25;stroke-dasharray:none;stroke-opacity:1"
         id="path108" /><path
         d="m 554.488,1303.98 v 28.95"
         style="fill:none;stroke:#000000;stroke-width:3.6;stroke-linecap:butt;stroke-linejoin:miter;stroke-miterlimit:3.25;stroke-dasharray:none;stroke-opacity:1"
         id="path110" /><g
         id="g112"
         transform="scale(10)"><text
           transform="matrix(1,0,0,-1,51.893,122.068)"
           style="font-variant:normal;font-size:6.47949px;font-family:f-0;-inkscape-font-specification:f-0-0;writing-mode:lr-tb;fill:#000000;fill-opacity:1;fill-rule:nonzero;stroke:none"
           id="text116"><tspan
             x="0"
             y="0"
             id="tspan114">-</tspan></text><text
           transform="matrix(1,0,0,-1,55.39183,122.068)"
           style="font-variant:normal;font-size:6.47949px;font-family:f-1;-inkscape-font-specification:f-1-0;writing-mode:lr-tb;fill:#000000;fill-opacity:1;fill-rule:nonzero;stroke:none"
           id="text120"><tspan
             x="0"
             y="0"
             id="tspan118">2</tspan></text></g><path
         d="m 628.629,1303.98 v 17.39"
         style="fill:none;stroke:#000000;stroke-width:3.6;stroke-linecap:butt;stroke-linejoin:miter;stroke-miterlimit:3.25;stroke-dasharray:none;stroke-opacity:1"
         id="path122" /><path
         d="m 702.77,1303.98 v 17.39"
         style="fill:none;stroke:#000000;stroke-width:3.6;stroke-linecap:butt;stroke-linejoin:miter;stroke-miterlimit:3.25;stroke-dasharray:none;stroke-opacity:1"
         id="path124" /><path
         d="m 776.949,1303.98 v 17.39"
         style="fill:none;stroke:#000000;stroke-width:3.6;stroke-linecap:butt;stroke-linejoin:miter;stroke-miterlimit:3.25;stroke-dasharray:none;stroke-opacity:1"
         id="path126" /><path
         d="m 851.09,1303.98 v 17.39"
         style="fill:none;stroke:#000000;stroke-width:3.6;stroke-linecap:butt;stroke-linejoin:miter;stroke-miterlimit:3.25;stroke-dasharray:none;stroke-opacity:1"
         id="path128" /><path
         d="m 925.23,1303.98 v 28.95"
         style="fill:none;stroke:#000000;stroke-width:3.6;stroke-linecap:butt;stroke-linejoin:miter;stroke-miterlimit:3.25;stroke-dasharray:none;stroke-opacity:1"
         id="path130" /><g
         id="g132"
         transform="scale(10)"><text
           transform="matrix(1,0,0,-1,88.9691,122.068)"
           style="font-variant:normal;font-size:6.47949px;font-family:f-0;-inkscape-font-specification:f-0-0;writing-mode:lr-tb;fill:#000000;fill-opacity:1;fill-rule:nonzero;stroke:none"
           id="text136"><tspan
             x="0"
             y="0"
             id="tspan134">-</tspan></text><text
           transform="matrix(1,0,0,-1,92.46793,122.068)"
           style="font-variant:normal;font-size:6.47949px;font-family:f-1;-inkscape-font-specification:f-1-0;writing-mode:lr-tb;fill:#000000;fill-opacity:1;fill-rule:nonzero;stroke:none"
           id="text140"><tspan
             x="0"
             y="0"
             id="tspan138">1</tspan></text></g><path
         d="m 999.379,1303.98 v 17.39"
         style="fill:none;stroke:#000000;stroke-width:3.6;stroke-linecap:butt;stroke-linejoin:miter;stroke-miterlimit:3.25;stroke-dasharray:none;stroke-opacity:1"
         id="path142" /><path
         d="m 1073.55,1303.98 v 17.39"
         style="fill:none;stroke:#000000;stroke-width:3.6;stroke-linecap:butt;stroke-linejoin:miter;stroke-miterlimit:3.25;stroke-dasharray:none;stroke-opacity:1"
         id="path144" /><path
         d="m 1147.7,1303.98 v 17.39"
         style="fill:none;stroke:#000000;stroke-width:3.6;stroke-linecap:butt;stroke-linejoin:miter;stroke-miterlimit:3.25;stroke-dasharray:none;stroke-opacity:1"
         id="path146" /><path
         d="m 1221.84,1303.98 v 17.39"
         style="fill:none;stroke:#000000;stroke-width:3.6;stroke-linecap:butt;stroke-linejoin:miter;stroke-miterlimit:3.25;stroke-dasharray:none;stroke-opacity:1"
         id="path148" /><path
         d="m 1296.02,1303.98 v 28.95"
         style="fill:none;stroke:#000000;stroke-width:3.6;stroke-linecap:butt;stroke-linejoin:miter;stroke-miterlimit:3.25;stroke-dasharray:none;stroke-opacity:1"
         id="path150" /><path
         d="m 1370.16,1303.98 v 17.39"
         style="fill:none;stroke:#000000;stroke-width:3.6;stroke-linecap:butt;stroke-linejoin:miter;stroke-miterlimit:3.25;stroke-dasharray:none;stroke-opacity:1"
         id="path152" /><path
         d="m 1444.3,1303.98 v 17.39"
         style="fill:none;stroke:#000000;stroke-width:3.6;stroke-linecap:butt;stroke-linejoin:miter;stroke-miterlimit:3.25;stroke-dasharray:none;stroke-opacity:1"
         id="path154" /><path
         d="m 1518.44,1303.98 v 17.39"
         style="fill:none;stroke:#000000;stroke-width:3.6;stroke-linecap:butt;stroke-linejoin:miter;stroke-miterlimit:3.25;stroke-dasharray:none;stroke-opacity:1"
         id="path156" /><path
         d="m 1592.62,1303.98 v 17.39"
         style="fill:none;stroke:#000000;stroke-width:3.6;stroke-linecap:butt;stroke-linejoin:miter;stroke-miterlimit:3.25;stroke-dasharray:none;stroke-opacity:1"
         id="path158" /><path
         d="m 1666.76,1303.98 v 28.95"
         style="fill:none;stroke:#000000;stroke-width:3.6;stroke-linecap:butt;stroke-linejoin:miter;stroke-miterlimit:3.25;stroke-dasharray:none;stroke-opacity:1"
         id="path160" /><g
         id="g162"
         transform="scale(10)"><text
           transform="matrix(1,0,0,-1,164.873,122.068)"
           style="font-variant:normal;font-size:6.47949px;font-family:f-1;-inkscape-font-specification:f-1-0;writing-mode:lr-tb;fill:#000000;fill-opacity:1;fill-rule:nonzero;stroke:none"
           id="text166"><tspan
             x="0"
             y="0"
             id="tspan164">1</tspan></text></g><path
         d="m 1740.9,1303.98 v 17.39"
         style="fill:none;stroke:#000000;stroke-width:3.6;stroke-linecap:butt;stroke-linejoin:miter;stroke-miterlimit:3.25;stroke-dasharray:none;stroke-opacity:1"
         id="path168" /><path
         d="m 1815.08,1303.98 v 17.39"
         style="fill:none;stroke:#000000;stroke-width:3.6;stroke-linecap:butt;stroke-linejoin:miter;stroke-miterlimit:3.25;stroke-dasharray:none;stroke-opacity:1"
         id="path170" /><path
         d="m 1889.22,1303.98 v 17.39"
         style="fill:none;stroke:#000000;stroke-width:3.6;stroke-linecap:butt;stroke-linejoin:miter;stroke-miterlimit:3.25;stroke-dasharray:none;stroke-opacity:1"
         id="path172" /><path
         d="m 1963.36,1303.98 v 17.39"
         style="fill:none;stroke:#000000;stroke-width:3.6;stroke-linecap:butt;stroke-linejoin:miter;stroke-miterlimit:3.25;stroke-dasharray:none;stroke-opacity:1"
         id="path174" /><path
         d="m 2037.54,1303.98 v 28.95"
         style="fill:none;stroke:#000000;stroke-width:3.6;stroke-linecap:butt;stroke-linejoin:miter;stroke-miterlimit:3.25;stroke-dasharray:none;stroke-opacity:1"
         id="path176" /><g
         id="g178"
         transform="scale(10)"><text
           transform="matrix(1,0,0,-1,201.95,122.068)"
           style="font-variant:normal;font-size:6.47949px;font-family:f-1;-inkscape-font-specification:f-1-0;writing-mode:lr-tb;fill:#000000;fill-opacity:1;fill-rule:nonzero;stroke:none"
           id="text182"><tspan
             x="0"
             y="0"
             id="tspan180">2</tspan></text></g><path
         d="m 2111.68,1303.98 v 17.39"
         style="fill:none;stroke:#000000;stroke-width:3.6;stroke-linecap:butt;stroke-linejoin:miter;stroke-miterlimit:3.25;stroke-dasharray:none;stroke-opacity:1"
         id="path184" /><path
         d="m 2185.82,1303.98 v 17.39"
         style="fill:none;stroke:#000000;stroke-width:3.6;stroke-linecap:butt;stroke-linejoin:miter;stroke-miterlimit:3.25;stroke-dasharray:none;stroke-opacity:1"
         id="path186" /><path
         d="m 2259.96,1303.98 v 17.39"
         style="fill:none;stroke:#000000;stroke-width:3.6;stroke-linecap:butt;stroke-linejoin:miter;stroke-miterlimit:3.25;stroke-dasharray:none;stroke-opacity:1"
         id="path188" /><path
         d="m 2334.14,1303.98 v 17.39"
         style="fill:none;stroke:#000000;stroke-width:3.6;stroke-linecap:butt;stroke-linejoin:miter;stroke-miterlimit:3.25;stroke-dasharray:none;stroke-opacity:1"
         id="path190" /><path
         d="m 2408.28,1303.98 v 28.95"
         style="fill:none;stroke:#000000;stroke-width:3.6;stroke-linecap:butt;stroke-linejoin:miter;stroke-miterlimit:3.25;stroke-dasharray:none;stroke-opacity:1"
         id="path192" /><g
         id="g194"
         transform="scale(10)"><text
           transform="matrix(1,0,0,-1,239.025,122.068)"
           style="font-variant:normal;font-size:6.47949px;font-family:f-1;-inkscape-font-specification:f-1-0;writing-mode:lr-tb;fill:#000000;fill-opacity:1;fill-rule:nonzero;stroke:none"
           id="text198"><tspan
             x="0"
             y="0"
             id="tspan196">3</tspan></text></g><path
         d="m 2482.42,1303.98 v 17.39"
         style="fill:none;stroke:#000000;stroke-width:3.6;stroke-linecap:butt;stroke-linejoin:miter;stroke-miterlimit:3.25;stroke-dasharray:none;stroke-opacity:1"
         id="path200" /><path
         d="m 2556.6,1303.98 v 17.39"
         style="fill:none;stroke:#000000;stroke-width:3.6;stroke-linecap:butt;stroke-linejoin:miter;stroke-miterlimit:3.25;stroke-dasharray:none;stroke-opacity:1"
         id="path202" /><path
         d="M 1.80078,1303.98 H 2590.2"
         style="fill:none;stroke:#000000;stroke-width:3.6;stroke-linecap:butt;stroke-linejoin:miter;stroke-miterlimit:3.25;stroke-dasharray:none;stroke-opacity:1"
         id="path204" /><path
         d="m 1296.02,68.1211 h 28.9"
         style="fill:none;stroke:#000000;stroke-width:3.6;stroke-linecap:butt;stroke-linejoin:miter;stroke-miterlimit:3.25;stroke-dasharray:none;stroke-opacity:1"
         id="path206" /><g
         id="g208"
         transform="scale(10)"><text
           transform="matrix(1,0,0,-1,120.33,4.64883)"
           style="font-variant:normal;font-size:6.47949px;font-family:f-0;-inkscape-font-specification:f-0-0;writing-mode:lr-tb;fill:#000000;fill-opacity:1;fill-rule:nonzero;stroke:none"
           id="text212"><tspan
             x="0"
             y="0"
             id="tspan210">-</tspan></text><text
           transform="matrix(1,0,0,-1,123.82883,4.64883)"
           style="font-variant:normal;font-size:6.47949px;font-family:f-1;-inkscape-font-specification:f-1-0;writing-mode:lr-tb;fill:#000000;fill-opacity:1;fill-rule:nonzero;stroke:none"
           id="text216"><tspan
             x="0"
             y="0"
             id="tspan214">3</tspan></text></g><path
         d="m 1296.02,150.512 h 17.34"
         style="fill:none;stroke:#000000;stroke-width:3.6;stroke-linecap:butt;stroke-linejoin:miter;stroke-miterlimit:3.25;stroke-dasharray:none;stroke-opacity:1"
         id="path218" /><path
         d="m 1296.02,232.93 h 17.34"
         style="fill:none;stroke:#000000;stroke-width:3.6;stroke-linecap:butt;stroke-linejoin:miter;stroke-miterlimit:3.25;stroke-dasharray:none;stroke-opacity:1"
         id="path220" /><path
         d="m 1296.02,315.309 h 17.34"
         style="fill:none;stroke:#000000;stroke-width:3.6;stroke-linecap:butt;stroke-linejoin:miter;stroke-miterlimit:3.25;stroke-dasharray:none;stroke-opacity:1"
         id="path222" /><path
         d="m 1296.02,397.699 h 17.34"
         style="fill:none;stroke:#000000;stroke-width:3.6;stroke-linecap:butt;stroke-linejoin:miter;stroke-miterlimit:3.25;stroke-dasharray:none;stroke-opacity:1"
         id="path224" /><path
         d="m 1296.02,480.078 h 28.9"
         style="fill:none;stroke:#000000;stroke-width:3.6;stroke-linecap:butt;stroke-linejoin:miter;stroke-miterlimit:3.25;stroke-dasharray:none;stroke-opacity:1"
         id="path226" /><g
         id="g228"
         transform="scale(10)"><text
           transform="matrix(1,0,0,-1,120.33,45.8445)"
           style="font-variant:normal;font-size:6.47949px;font-family:f-0;-inkscape-font-specification:f-0-0;writing-mode:lr-tb;fill:#000000;fill-opacity:1;fill-rule:nonzero;stroke:none"
           id="text232"><tspan
             x="0"
             y="0"
             id="tspan230">-</tspan></text><text
           transform="matrix(1,0,0,-1,123.82883,45.8445)"
           style="font-variant:normal;font-size:6.47949px;font-family:f-1;-inkscape-font-specification:f-1-0;writing-mode:lr-tb;fill:#000000;fill-opacity:1;fill-rule:nonzero;stroke:none"
           id="text236"><tspan
             x="0"
             y="0"
             id="tspan234">2</tspan></text></g><path
         d="m 1296.02,562.461 h 17.34"
         style="fill:none;stroke:#000000;stroke-width:3.6;stroke-linecap:butt;stroke-linejoin:miter;stroke-miterlimit:3.25;stroke-dasharray:none;stroke-opacity:1"
         id="path238" /><path
         d="m 1296.02,644.879 h 17.34"
         style="fill:none;stroke:#000000;stroke-width:3.6;stroke-linecap:butt;stroke-linejoin:miter;stroke-miterlimit:3.25;stroke-dasharray:none;stroke-opacity:1"
         id="path240" /><path
         d="m 1296.02,727.27 h 17.34"
         style="fill:none;stroke:#000000;stroke-width:3.6;stroke-linecap:butt;stroke-linejoin:miter;stroke-miterlimit:3.25;stroke-dasharray:none;stroke-opacity:1"
         id="path242" /><path
         d="m 1296.02,809.648 h 17.34"
         style="fill:none;stroke:#000000;stroke-width:3.6;stroke-linecap:butt;stroke-linejoin:miter;stroke-miterlimit:3.25;stroke-dasharray:none;stroke-opacity:1"
         id="path244" /><path
         d="m 1296.02,892.031 h 28.9"
         style="fill:none;stroke:#000000;stroke-width:3.6;stroke-linecap:butt;stroke-linejoin:miter;stroke-miterlimit:3.25;stroke-dasharray:none;stroke-opacity:1"
         id="path246" /><g
         id="g248"
         transform="scale(10)"><text
           transform="matrix(1,0,0,-1,120.33,87.0402)"
           style="font-variant:normal;font-size:6.47949px;font-family:f-0;-inkscape-font-specification:f-0-0;writing-mode:lr-tb;fill:#000000;fill-opacity:1;fill-rule:nonzero;stroke:none"
           id="text252"><tspan
             x="0"
             y="0"
             id="tspan250">-</tspan></text><text
           transform="matrix(1,0,0,-1,123.82883,87.0402)"
           style="font-variant:normal;font-size:6.47949px;font-family:f-1;-inkscape-font-specification:f-1-0;writing-mode:lr-tb;fill:#000000;fill-opacity:1;fill-rule:nonzero;stroke:none"
           id="text256"><tspan
             x="0"
             y="0"
             id="tspan254">1</tspan></text></g><path
         d="m 1296.02,974.449 h 17.34"
         style="fill:none;stroke:#000000;stroke-width:3.6;stroke-linecap:butt;stroke-linejoin:miter;stroke-miterlimit:3.25;stroke-dasharray:none;stroke-opacity:1"
         id="path258" /><path
         d="m 1296.02,1056.84 h 17.34"
         style="fill:none;stroke:#000000;stroke-width:3.6;stroke-linecap:butt;stroke-linejoin:miter;stroke-miterlimit:3.25;stroke-dasharray:none;stroke-opacity:1"
         id="path260" /><path
         d="m 1296.02,1139.22 h 17.34"
         style="fill:none;stroke:#000000;stroke-width:3.6;stroke-linecap:butt;stroke-linejoin:miter;stroke-miterlimit:3.25;stroke-dasharray:none;stroke-opacity:1"
         id="path262" /><path
         d="m 1296.02,1221.6 h 17.34"
         style="fill:none;stroke:#000000;stroke-width:3.6;stroke-linecap:butt;stroke-linejoin:miter;stroke-miterlimit:3.25;stroke-dasharray:none;stroke-opacity:1"
         id="path264" /><path
         d="m 1296.02,1303.98 h 28.9"
         style="fill:none;stroke:#000000;stroke-width:3.6;stroke-linecap:butt;stroke-linejoin:miter;stroke-miterlimit:3.25;stroke-dasharray:none;stroke-opacity:1"
         id="path266" /><path
         d="m 1296.02,1386.41 h 17.34"
         style="fill:none;stroke:#000000;stroke-width:3.6;stroke-linecap:butt;stroke-linejoin:miter;stroke-miterlimit:3.25;stroke-dasharray:none;stroke-opacity:1"
         id="path268" /><path
         d="m 1296.02,1468.79 h 17.34"
         style="fill:none;stroke:#000000;stroke-width:3.6;stroke-linecap:butt;stroke-linejoin:miter;stroke-miterlimit:3.25;stroke-dasharray:none;stroke-opacity:1"
         id="path270" /><path
         d="m 1296.02,1551.17 h 17.34"
         style="fill:none;stroke:#000000;stroke-width:3.6;stroke-linecap:butt;stroke-linejoin:miter;stroke-miterlimit:3.25;stroke-dasharray:none;stroke-opacity:1"
         id="path272" /><path
         d="m 1296.02,1633.55 h 17.34"
         style="fill:none;stroke:#000000;stroke-width:3.6;stroke-linecap:butt;stroke-linejoin:miter;stroke-miterlimit:3.25;stroke-dasharray:none;stroke-opacity:1"
         id="path274" /><path
         d="m 1296.02,1715.94 h 28.9"
         style="fill:none;stroke:#000000;stroke-width:3.6;stroke-linecap:butt;stroke-linejoin:miter;stroke-miterlimit:3.25;stroke-dasharray:none;stroke-opacity:1"
         id="path276" /><g
         id="g278"
         transform="scale(10)"><text
           transform="matrix(1,0,0,-1,123.834,169.432)"
           style="font-variant:normal;font-size:6.47949px;font-family:f-1;-inkscape-font-specification:f-1-0;writing-mode:lr-tb;fill:#000000;fill-opacity:1;fill-rule:nonzero;stroke:none"
           id="text282"><tspan
             x="0"
             y="0"
             id="tspan280">1</tspan></text></g><path
         d="m 1296.02,1798.36 h 17.34"
         style="fill:none;stroke:#000000;stroke-width:3.6;stroke-linecap:butt;stroke-linejoin:miter;stroke-miterlimit:3.25;stroke-dasharray:none;stroke-opacity:1"
         id="path284" /><path
         d="m 1296.02,1880.74 h 17.34"
         style="fill:none;stroke:#000000;stroke-width:3.6;stroke-linecap:butt;stroke-linejoin:miter;stroke-miterlimit:3.25;stroke-dasharray:none;stroke-opacity:1"
         id="path286" /><path
         d="m 1296.02,1963.12 h 17.34"
         style="fill:none;stroke:#000000;stroke-width:3.6;stroke-linecap:butt;stroke-linejoin:miter;stroke-miterlimit:3.25;stroke-dasharray:none;stroke-opacity:1"
         id="path288" /><path
         d="m 1296.02,2045.51 h 17.34"
         style="fill:none;stroke:#000000;stroke-width:3.6;stroke-linecap:butt;stroke-linejoin:miter;stroke-miterlimit:3.25;stroke-dasharray:none;stroke-opacity:1"
         id="path290" /><path
         d="m 1296.02,2127.93 h 28.9"
         style="fill:none;stroke:#000000;stroke-width:3.6;stroke-linecap:butt;stroke-linejoin:miter;stroke-miterlimit:3.25;stroke-dasharray:none;stroke-opacity:1"
         id="path292" /><g
         id="g294"
         transform="scale(10)"><text
           transform="matrix(1,0,0,-1,123.834,210.627)"
           style="font-variant:normal;font-size:6.47949px;font-family:f-1;-inkscape-font-specification:f-1-0;writing-mode:lr-tb;fill:#000000;fill-opacity:1;fill-rule:nonzero;stroke:none"
           id="text298"><tspan
             x="0"
             y="0"
             id="tspan296">2</tspan></text></g><path
         d="m 1296.02,2210.31 h 17.34"
         style="fill:none;stroke:#000000;stroke-width:3.6;stroke-linecap:butt;stroke-linejoin:miter;stroke-miterlimit:3.25;stroke-dasharray:none;stroke-opacity:1"
         id="path300" /><path
         d="m 1296.02,2292.7 h 17.34"
         style="fill:none;stroke:#000000;stroke-width:3.6;stroke-linecap:butt;stroke-linejoin:miter;stroke-miterlimit:3.25;stroke-dasharray:none;stroke-opacity:1"
         id="path302" /><path
         d="m 1296.02,2375.08 h 17.34"
         style="fill:none;stroke:#000000;stroke-width:3.6;stroke-linecap:butt;stroke-linejoin:miter;stroke-miterlimit:3.25;stroke-dasharray:none;stroke-opacity:1"
         id="path304" /><path
         d="m 1296.02,2457.46 h 17.34"
         style="fill:none;stroke:#000000;stroke-width:3.6;stroke-linecap:butt;stroke-linejoin:miter;stroke-miterlimit:3.25;stroke-dasharray:none;stroke-opacity:1"
         id="path306" /><path
         d="m 1296.02,2539.88 h 28.9"
         style="fill:none;stroke:#000000;stroke-width:3.6;stroke-linecap:butt;stroke-linejoin:miter;stroke-miterlimit:3.25;stroke-dasharray:none;stroke-opacity:1"
         id="path308" /><g
         id="g310"
         transform="scale(10)"><text
           transform="matrix(1,0,0,-1,123.834,251.823)"
           style="font-variant:normal;font-size:6.47949px;font-family:f-1;-inkscape-font-specification:f-1-0;writing-mode:lr-tb;fill:#000000;fill-opacity:1;fill-rule:nonzero;stroke:none"
           id="text314"><tspan
             x="0"
             y="0"
             id="tspan312">3</tspan></text></g><path
         d="M 1296.02,9.80078 V 2598.2"
         style="fill:none;stroke:#000000;stroke-width:3.6;stroke-linecap:butt;stroke-linejoin:miter;stroke-miterlimit:3.25;stroke-dasharray:none;stroke-opacity:1"
         id="path316" /></g></g></svg>
